<svg width="1134" height="615" viewBox="0 0 1134 615" fill="none" xmlns="http://www.w3.org/2000/svg">
<g clip-path="url(#clip0_152_371)">
<path d="M123.6 410.27C123.6 410.27 112.85 349.39 72.9701 319.21C56.2401 306.55 43.9701 289.34 38.6501 269.72C36.1288 260.431 34.5146 250.92 33.8301 241.32" stroke="#535461" stroke-width="2" stroke-miterlimit="10"/>
<path d="M8.82002 222.16C12.18 228.69 34.42 241.89 34.42 241.89C34.42 241.89 37.22 217.23 33.87 210.7C30.52 204.17 22.19 201.44 15.27 204.61C8.35002 207.78 5.47002 215.64 8.82002 222.16Z" fill="#1E793B"/>
<path d="M6.74989 267.81C13.3299 271.57 39.5999 271.23 39.5999 271.23C39.5999 271.23 27.7499 249.09 21.1199 245.33C17.9643 243.517 14.2393 242.966 10.6939 243.788C7.14852 244.61 4.04585 246.743 2.00989 249.76C1.07215 251.239 0.449412 252.896 0.180562 254.626C-0.0882877 256.357 0.002529 258.124 0.447335 259.818C0.892142 261.512 1.68139 263.095 2.76579 264.471C3.85019 265.846 5.20645 266.983 6.74989 267.81V267.81Z" fill="#1E793B"/>
<path d="M39.3599 329.2C47.0399 329.31 69.5399 316.5 69.5399 316.5C69.5399 316.5 47.4699 303.01 39.7499 302.92C32.0299 302.83 25.7499 308.6 25.6199 315.86C25.4899 323.12 31.6699 329.08 39.3599 329.2Z" fill="#1E793B"/>
<path d="M75.14 370.39C82.7 371.73 107.14 362.69 107.14 362.69C107.14 362.69 87.79 345.9 80.24 344.56C72.69 343.22 65.41 347.92 64 355.06C62.59 362.2 67.59 369.01 75.14 370.39Z" fill="#1E793B"/>
<path d="M66.4899 260.46C63.8699 267.28 43.1799 282.57 43.1799 282.57C43.1799 282.57 37.7499 258.31 40.3299 251.49C42.9099 244.67 50.9399 241.15 58.1599 243.62C65.3799 246.09 69.1199 253.64 66.4899 260.46Z" fill="#1E793B"/>
<path d="M107.75 309.14C103.08 314.9 78.5 323.65 78.5 323.65C78.5 323.65 80.96 298.95 85.63 293.19C87.9695 290.395 91.2791 288.587 94.8953 288.129C98.5116 287.671 102.167 288.596 105.13 290.72C106.568 291.713 107.786 292.993 108.705 294.479C109.625 295.965 110.226 297.626 110.472 299.356C110.719 301.087 110.604 302.849 110.135 304.533C109.667 306.217 108.855 307.786 107.75 309.14V309.14Z" fill="#1E793B"/>
<path d="M140.87 361.64C137.3 368.06 114.64 380.64 114.64 380.64C114.64 380.64 112.64 355.91 116.21 349.48C118.054 346.347 121.019 344.031 124.505 343C127.992 341.97 131.739 342.302 134.99 343.93C136.577 344.664 137.996 345.716 139.161 347.02C140.326 348.325 141.211 349.853 141.762 351.513C142.313 353.172 142.518 354.927 142.364 356.669C142.211 358.411 141.702 360.102 140.87 361.64V361.64Z" fill="#1E793B"/>
<path d="M122.25 408.67C122.25 408.67 138.56 348.9 115.05 306.05C105.18 288.05 101.38 267.65 104.91 247.68C106.623 238.179 109.249 228.866 112.75 219.87" stroke="#535461" stroke-width="2" stroke-miterlimit="10"/>
<path d="M96.0107 207.597C96.2807 214.847 110.951 235.427 110.951 235.427C110.951 235.427 124.101 213.947 123.831 206.687C123.561 199.427 117.131 193.767 109.441 194.007C101.751 194.247 95.7107 200.347 96.0107 207.597Z" fill="#1CBF51"/>
<path d="M74.4923 216.672C78.8823 222.622 103.052 232.362 103.052 232.362C103.052 232.362 101.712 207.592 97.3223 201.632C95.0984 198.745 91.8657 196.805 88.2718 196.2C84.678 195.596 80.9884 196.371 77.9423 198.372C76.4614 199.302 75.1887 200.528 74.2039 201.972C73.2192 203.417 72.5436 205.05 72.2197 206.768C71.8957 208.487 71.9304 210.253 72.3215 211.958C72.7126 213.662 73.4516 215.267 74.4923 216.672V216.672Z" fill="#1CBF51"/>
<path d="M80.03 302.32C87.03 305.32 113.08 302.26 113.08 302.26C113.08 302.26 98.68 281.51 91.7 278.46C84.72 275.41 76.4601 278.29 73.2301 284.88C70.0001 291.47 73.05 299.28 80.03 302.32Z" fill="#1CBF51"/>
<path d="M95.0701 353.67C101.4 357.78 127.65 358.88 127.65 358.88C127.65 358.88 117.17 336.13 110.84 332.01C107.783 330.029 104.09 329.276 100.502 329.903C96.9133 330.53 93.6944 332.49 91.4901 335.39C90.4557 336.802 89.7249 338.412 89.3438 340.12C88.9627 341.828 88.9397 343.597 89.276 345.314C89.6123 347.032 90.3008 348.661 91.298 350.099C92.2953 351.537 93.5796 352.753 95.0701 353.67V353.67Z" fill="#1CBF51"/>
<path d="M102.8 262.244C97.48 267.474 72 273.544 72 273.544C72 273.544 77.41 249.264 82.74 244.034C85.3717 241.51 88.8574 240.071 92.5027 240.003C96.148 239.934 99.6853 241.241 102.41 243.664C103.719 244.819 104.775 246.234 105.51 247.818C106.245 249.403 106.643 251.122 106.68 252.868C106.717 254.614 106.391 256.349 105.723 257.963C105.055 259.577 104.06 261.034 102.8 262.244V262.244Z" fill="#1CBF51"/>
<path d="M151.12 310.12C144.38 313.61 118.12 312.21 118.12 312.21C118.12 312.21 130.97 290.57 137.71 287.08C140.932 285.39 144.676 284.988 148.184 285.955C151.691 286.923 154.7 289.187 156.6 292.29C157.473 293.806 158.025 295.486 158.22 297.225C158.416 298.964 158.252 300.724 157.738 302.397C157.224 304.069 156.371 305.618 155.232 306.947C154.094 308.275 152.694 309.356 151.12 310.12V310.12Z" fill="#1CBF51"/>
<path d="M158.91 370.81C152.91 375.33 126.78 378.12 126.78 378.12C126.78 378.12 135.58 354.75 141.6 350.24C144.525 348.064 148.164 347.073 151.788 347.464C155.413 347.855 158.756 349.6 161.15 352.35C162.282 353.681 163.126 355.231 163.629 356.904C164.132 358.577 164.283 360.336 164.073 362.071C163.862 363.805 163.295 365.477 162.406 366.981C161.518 368.485 160.327 369.789 158.91 370.81V370.81Z" fill="#1CBF51"/>
<path opacity="0.1" d="M1140.06 562.357C1135.8 567.299 1130.92 571.669 1125.53 575.357C1101.15 592.207 1066.46 599.177 1032.86 603.577C1025.39 604.557 1017.89 605.44 1010.37 606.227C963.793 611.167 916.563 612.817 869.373 614.037C862.613 614.217 855.849 614.387 849.083 614.547C801.493 615.717 753.863 616.887 706.243 617.737C649.073 618.737 591.893 619.327 534.763 618.877C478.673 618.447 422.633 617.057 366.683 614.157C361.303 613.89 355.926 613.6 350.553 613.287C301.553 610.497 251.713 606.287 204.863 596.357C180.589 591.382 156.795 584.299 133.753 575.187C115.753 567.907 98.4826 558.907 84.6227 548.067C73.8226 539.617 65.0827 530.067 59.6227 519.307C47.0927 494.577 53.7127 466.777 68.0527 442.537C82.3927 418.297 103.923 396.537 122.493 373.777C162.083 325.227 187.903 263.907 151.373 214.167C140.873 199.877 125.683 187.337 117.133 172.417C104.833 150.927 107.473 126.757 111.963 103.797C117.963 73.2967 129.053 40.4067 163.433 21.3567C199.173 1.55674 249.893 2.55674 294.243 9.63674C360.143 20.1567 421.243 41.6367 482.563 61.6367L483.213 61.8467L491.093 64.4067L494.613 65.5367C499.753 67.1967 504.916 68.8367 510.103 70.4567L511.993 71.0367H512.133L512.933 71.2867L513.673 71.5067L514.923 71.9067C521.323 73.9067 527.753 75.8434 534.213 77.7167H534.343C535.243 77.9867 536.133 78.2467 537.033 78.4967H537.093C540.779 79.5767 544.473 80.6301 548.173 81.6567L549.443 82.0167L549.673 82.0767H549.813C596.063 94.9167 643.863 104.647 693.293 106.077C755.663 107.887 828.433 94.3867 869.843 59.3167C910.053 25.2367 985.643 22.6467 1040.15 43.2367C1092.15 62.8667 1125.79 104.427 1123.25 145.927C1119.57 206.337 1049.6 252.717 1007.86 305.567C988.413 330.207 974.663 359.807 988.053 386.377C1012.38 434.647 1108.59 445.817 1143.39 490.787C1160.4 512.867 1158.35 541.107 1140.06 562.357Z" fill="#1CBF51"/>
<path d="M312.75 431.91L183.35 591.35C159.076 586.376 135.282 579.292 112.24 570.18C94.2401 562.9 76.9701 553.9 63.1101 543.06L205.21 426.41L312.75 431.91Z" fill="#65617D"/>
<path d="M1118.52 557.38C1114.26 562.323 1109.37 566.692 1103.99 570.38C1079.61 587.23 1044.92 594.2 1011.32 598.6C1003.85 599.58 996.35 600.463 988.83 601.25L851.39 431.91L958.97 426.41L1118.52 557.38Z" fill="#65617D"/>
<path d="M522.46 435.2L522.23 439.69L522.16 440.93L517.26 535.93V536.05L516.75 547.01L516.49 551.92L513.3 613.92C457.21 613.49 401.17 612.1 345.22 609.2L416.03 435.25L522.46 435.2Z" fill="#65617D"/>
<path d="M847.86 609.01C841.1 609.19 834.337 609.36 827.57 609.52C779.98 610.69 732.35 611.86 684.73 612.71L628.94 435.2H733.23L847.86 609.01Z" fill="#65617D"/>
<path opacity="0.1" d="M312.75 431.91L183.35 591.35C159.076 586.376 135.282 579.292 112.24 570.18C94.2401 562.9 76.9701 553.9 63.1101 543.06L205.21 426.41L312.75 431.91Z" fill="black"/>
<path opacity="0.1" d="M1118.52 557.38C1114.26 562.323 1109.37 566.692 1103.99 570.38C1079.61 587.23 1044.92 594.2 1011.32 598.6C1003.85 599.58 996.35 600.463 988.83 601.25L851.39 431.91L958.97 426.41L1118.52 557.38Z" fill="black"/>
<path opacity="0.1" d="M522.46 435.2L522.23 439.69L522.16 440.93L517.26 535.93V536.05L516.75 547.01L516.49 551.92L513.3 613.92C457.21 613.49 401.17 612.1 345.22 609.2L416.03 435.25L522.46 435.2Z" fill="black"/>
<path opacity="0.1" d="M847.86 609.01C841.1 609.19 834.337 609.36 827.57 609.52C779.98 610.69 732.35 611.86 684.73 612.71L628.94 435.2H733.23L847.86 609.01Z" fill="black"/>
<path d="M587.99 533.01C585.1 532.88 569.32 539.55 569.32 539.55C569.32 539.55 564.32 542.34 551.55 544.13C543.21 545.31 542.1 541.29 542.33 538.36C542.408 537.399 542.62 536.453 542.96 535.55V517.82C542.96 517.82 568.96 501.95 570.96 500.95C571.212 500.839 571.484 500.781 571.76 500.78C574.97 500.65 584.17 503.92 589.14 507.43C594.63 511.32 601.62 508.94 601.62 508.94C601.62 508.94 615.18 498.01 618.75 506.01C618.961 506.469 619.125 506.948 619.24 507.44C621.85 518.01 590.89 533.1 587.99 533.01Z" fill="#3F3D56"/>
<path opacity="0.1" d="M542.96 522.08V517.82C542.96 517.82 568.96 501.95 570.96 500.95C571.212 500.839 571.484 500.781 571.76 500.78C572.95 502.01 574.02 503.11 574.66 503.78C576.55 505.68 559.3 527.32 542.96 522.08Z" fill="black"/>
<path d="M538.97 519.01L536.58 508.26C536.58 508.26 536.58 498.97 533.28 497.17C529.98 495.37 520.99 433.01 520.99 433.01C520.99 433.01 521.29 419.23 518.89 417.43C516.49 415.63 518.89 413.65 518.89 413.65C518.881 411.666 518.522 409.699 517.83 407.84C517.043 405.818 516.496 403.71 516.2 401.56C516.2 401.56 517.4 397.06 516.2 395.87C515.36 395.03 516.43 393.46 514.47 390.32C513.206 388.455 511.669 386.789 509.91 385.38C503.12 379.64 509.82 314.62 511.66 297.91C511.94 295.42 512.11 294.01 512.11 294.01H528.11L530.11 301.2L533.3 314.49C533.3 314.49 535.4 315.88 535.4 317.68C535.4 319.48 547.98 357.52 547.98 357.52C548.903 359.052 549.705 360.654 550.38 362.31C550.68 363.51 553.38 365.61 553.38 365.61C552.866 366.739 552.6 367.965 552.6 369.205C552.6 370.445 552.866 371.671 553.38 372.8C555.17 376.39 560.27 391.37 558.47 398.56C556.67 405.75 554.57 406.35 554.57 406.35C554.57 406.35 552.78 411.67 555.77 413.65C558.76 415.63 556.67 419.23 556.67 419.23L560.57 452.79C560.57 452.79 560.27 467.79 564.76 473.16C569.25 478.53 569.85 491.43 569.85 491.43L566.47 492.87L565.86 493.14L565.66 493.23C565.66 493.23 572.55 500.42 574.66 502.52C576.77 504.62 556.34 529.81 538.97 519.01Z" fill="#65617D"/>
<path opacity="0.1" d="M574.62 502.55C572.81 507.97 554.62 527.55 538.97 517.82L536.58 507.07C540.86 503.6 554.21 493.47 565.83 491.97L565.63 492.06L566.44 492.9L565.83 493.17L565.63 493.26C565.63 493.26 572.52 500.45 574.62 502.55Z" fill="black"/>
<path d="M538.97 519.01L536.58 508.26C540.86 504.79 554.21 494.66 565.83 493.16L565.63 493.25C565.63 493.25 572.52 500.44 574.63 502.54C576.74 504.64 556.34 529.81 538.97 519.01Z" fill="#65617D"/>
<path d="M584.1 510.43C584.514 510.43 584.85 510.094 584.85 509.68C584.85 509.266 584.514 508.93 584.1 508.93C583.686 508.93 583.35 509.266 583.35 509.68C583.35 510.094 583.686 510.43 584.1 510.43Z" fill="white"/>
<path d="M579.21 509.69C579.624 509.69 579.96 509.354 579.96 508.94C579.96 508.526 579.624 508.19 579.21 508.19C578.796 508.19 578.46 508.526 578.46 508.94C578.46 509.354 578.796 509.69 579.21 509.69Z" fill="white"/>
<path d="M588.3 511.18C588.714 511.18 589.05 510.844 589.05 510.43C589.05 510.016 588.714 509.68 588.3 509.68C587.886 509.68 587.55 510.016 587.55 510.43C587.55 510.844 587.886 511.18 588.3 511.18Z" fill="white"/>
<path d="M574.02 508.94C574.434 508.94 574.77 508.604 574.77 508.19C574.77 507.776 574.434 507.44 574.02 507.44C573.606 507.44 573.27 507.776 573.27 508.19C573.27 508.604 573.606 508.94 574.02 508.94Z" fill="white"/>
<path opacity="0.1" d="M587.99 533.01C585.1 532.88 569.32 539.55 569.32 539.55C569.32 539.55 564.32 542.34 551.55 544.13C543.21 545.31 542.1 541.29 542.33 538.36C544.442 539.314 546.824 539.484 549.05 538.84C554.74 537.35 574.42 534.2 574.42 534.2C574.42 534.2 587.42 529.46 587.8 526.76L618.75 506.01C618.961 506.469 619.125 506.948 619.24 507.44C621.85 518.01 590.89 533.1 587.99 533.01Z" fill="black"/>
<path d="M573.39 297.87H566.2V528.84H573.39V297.87Z" fill="#63A0FF"/>
<path d="M572.84 300.51C573.072 298.196 574.125 296.042 575.808 294.437C577.491 292.833 579.693 291.884 582.016 291.763C584.338 291.642 586.627 292.357 588.468 293.778C590.308 295.199 591.579 297.233 592.05 299.51C592.899 300.067 593.696 300.699 594.43 301.4C594.815 301.756 595.299 301.984 595.819 302.055C596.338 302.125 596.866 302.034 597.331 301.793C597.797 301.553 598.177 301.175 598.42 300.711C598.663 300.247 598.757 299.72 598.69 299.2C598.685 299.144 598.685 299.087 598.69 299.03C598.36 296.709 597.534 294.487 596.269 292.514C595.003 290.54 593.328 288.863 591.356 287.595C589.385 286.327 587.163 285.498 584.843 285.165C582.523 284.832 580.158 285.002 577.909 285.664C575.66 286.327 573.581 287.465 571.811 289.003C570.042 290.54 568.624 292.441 567.655 294.575C566.685 296.709 566.187 299.027 566.193 301.371C566.199 303.716 566.709 306.031 567.69 308.16C568.636 305.168 570.424 302.512 572.84 300.51Z" fill="#63A0FF"/>
<path d="M576.08 520.61H563.95V537.54H576.08V520.61Z" fill="#63A0FF"/>
<path d="M512.5 93.32C509.991 96.5694 507.97 100.167 506.5 104C501.74 116.56 505.31 126.68 505.31 126.68C505.31 126.68 461.97 117.09 466.17 112.3C468.71 109.39 470.81 98.2 472.07 89.84C472.89 84.39 473.36 80.14 473.36 80.14C473.36 80.14 525.48 76.35 512.5 93.32Z" fill="#FABDBD"/>
<path d="M524.95 543.01C524.415 545.95 522.874 548.612 520.59 550.54C517.29 553.33 485.84 554.33 479.45 551.94C473.06 549.55 452.69 548.64 447.59 548.44C442.49 548.24 440.51 543.55 439.4 541.25C439.09 540.59 439.32 539.14 439.84 537.4C441.11 533.13 444.07 527.11 444.7 526.47C445.18 525.99 445.64 524.03 445.95 522.31C446.22 520.82 446.4 519.51 446.4 519.51C460.07 528.83 478.05 512.99 478.05 512.99C478.724 512.63 479.493 512.491 480.25 512.59C483.69 513.01 487.44 517.52 487.44 519.51C487.44 521.94 496.92 526.51 496.92 526.51C499.62 529.61 511.6 535.4 511.6 535.4C511.6 535.4 519.79 535.6 523.39 538.69C523.993 539.22 524.453 539.894 524.726 540.649C524.998 541.405 525.076 542.217 524.95 543.01Z" fill="#3F3D56"/>
<path opacity="0.1" d="M524.95 543.01C524.415 545.95 522.874 548.612 520.59 550.54C517.29 553.33 485.84 554.33 479.45 551.94C473.06 549.55 452.69 548.64 447.59 548.44C442.49 548.24 440.51 543.55 439.4 541.25C439.09 540.59 439.32 539.14 439.84 537.4C444.329 538.502 448.752 539.854 453.09 541.45C459.48 543.95 472.76 547.54 475.09 546.45C475.05 546.48 506.56 555.27 524.95 543.01Z" fill="black"/>
<path opacity="0.1" d="M514.47 390.35C513.206 388.485 511.669 386.819 509.91 385.41C503.12 379.67 509.82 314.65 511.66 297.94C519.51 297.5 525.01 297.65 525.48 298.83C527.1 302.88 516.61 375.73 514.47 390.35Z" fill="black"/>
<path opacity="0.1" d="M480.25 512.63V516.01C458.25 538.58 449.45 530.86 445.95 522.33C446.22 520.84 446.4 519.53 446.4 519.53C460.07 528.85 478.05 513.01 478.05 513.01C478.726 512.657 479.495 512.524 480.25 512.63Z" fill="black"/>
<path d="M523.75 304.11C522.45 324.19 512.33 392.9 512.33 392.9C512.33 392.9 506.64 418.06 505.44 418.96C504.24 419.86 496.76 424.96 496.76 424.96C496.76 424.96 496.46 436.65 494.06 439.96C491.66 443.27 490.76 451.65 490.76 451.65C490.76 451.65 486.87 468.42 485.67 476.81C484.47 485.2 480.28 496.58 480.28 496.58V514.86C452.62 543.23 445.81 523.74 444.21 514.94C443.978 513.724 443.817 512.495 443.73 511.26L459.31 416.6C459.31 416.6 462.6 412.1 462 409.71C461.4 407.32 463.2 404.31 463.2 404.31L463.15 398.92C463.15 398.92 466.8 394.13 463.15 391.43C459.5 388.73 463.15 368.36 463.15 368.36C463.15 368.36 459.01 356.68 461.15 353.36C463.29 350.04 461.15 344.67 462.64 341.67C464.13 338.67 462.64 341.67 457.25 333.58C454.43 329.36 452.03 321.71 450.37 315.37C448.85 309.54 447.96 304.82 447.96 304.82C447.96 304.82 521.96 294.34 523.76 298.82C523.988 300.576 523.985 302.355 523.75 304.11V304.11Z" fill="#65617D"/>
<path opacity="0.1" d="M512.5 93.32C509.991 96.5694 507.97 100.167 506.5 104C503.664 104.9 500.706 105.355 497.73 105.35C487.07 105.35 481.16 97.5 476.13 88.93C475.9 88.54 472.28 90.24 472.07 89.84C472.89 84.39 473.36 80.14 473.36 80.14C473.36 80.14 525.48 76.35 512.5 93.32Z" fill="black"/>
<path d="M526.68 75.8C526.689 82.5514 524.343 89.0946 520.045 94.3014C515.748 99.5081 509.768 103.052 503.137 104.323C496.506 105.593 489.64 104.51 483.722 101.261C477.804 98.011 473.205 92.7985 470.719 86.5217C468.232 80.2449 468.013 73.2972 470.1 66.8764C472.187 60.4557 476.449 54.9643 482.151 51.349C487.853 47.7337 494.637 46.221 501.335 47.0719C508.033 47.9228 514.223 51.0838 518.84 56.01C523.872 61.3717 526.675 68.4471 526.68 75.8Z" fill="#FABDBD"/>
<path opacity="0.1" d="M523.75 304.11C513.97 305.83 496.2 309.2 494.75 311.22C492.75 314.01 477.75 314.81 468.75 316.01C463.58 316.7 456 316.13 450.29 315.37C448.77 309.54 447.88 304.82 447.88 304.82C447.88 304.82 521.88 294.34 523.68 298.82C523.935 300.573 523.958 302.351 523.75 304.11V304.11Z" fill="black"/>
<path d="M530.08 301.23C530.08 301.23 496.75 306.62 494.75 309.42C492.75 312.22 477.75 313.01 468.75 314.21C459.75 315.41 443.59 312.81 442.39 312.01C435.39 307.34 438.79 252.5 441.79 245.7C444.79 238.9 443.79 200.97 440.99 185.79C438.19 170.61 442.39 151.64 442.39 151.64C442.39 151.64 446.58 138.26 445.79 135.46C445 132.66 449.79 126.68 449.79 126.68C449.79 126.68 457.18 114.49 460.97 112.68C461.664 112.346 462.279 111.868 462.773 111.276C463.266 110.684 463.627 109.993 463.83 109.25C464.54 107.04 464.45 104.25 464.57 101.9C464.77 97.9 468.76 97.9 468.76 97.9C480.15 99.69 506.91 116.47 506.91 116.47C505.91 120.26 512.3 131.05 512.3 131.05C512.41 131.22 512.5 131.4 512.6 131.59C519.6 144.78 524.69 185.17 524.69 185.17C524.69 185.17 525.04 204.46 524.98 218.66C524.98 225.75 524.81 231.57 524.48 233.1C523.9 235.82 525.05 248.45 526.22 260.47C527.02 268.78 527.84 276.79 528.09 281.03C528.75 291.44 530.08 301.23 530.08 301.23Z" fill="#63A0FF"/>
<path opacity="0.1" d="M500.92 246.11C500.92 246.11 491.92 267.68 494.33 270.87C496.74 274.06 500.92 246.11 500.92 246.11Z" fill="black"/>
<path opacity="0.1" d="M512.1 256.49C512.1 256.49 501.92 272.49 505.71 275.66C509.5 278.83 512.1 256.49 512.1 256.49Z" fill="black"/>
<path opacity="0.1" d="M480.25 508.84V514.23C452.59 542.6 445.78 523.11 444.18 514.31C449.21 518.63 460.75 524.01 480.25 508.84Z" fill="black"/>
<path d="M480.25 509.44V514.83C452.59 543.2 445.78 523.71 444.18 514.91C449.21 519.23 460.75 524.61 480.25 509.44Z" fill="#65617D"/>
<path d="M476.96 524.77C477.374 524.77 477.71 524.434 477.71 524.02C477.71 523.606 477.374 523.27 476.96 523.27C476.546 523.27 476.21 523.606 476.21 524.02C476.21 524.434 476.546 524.77 476.96 524.77Z" fill="white"/>
<path d="M489.23 532.3C489.644 532.3 489.98 531.964 489.98 531.55C489.98 531.136 489.644 530.8 489.23 530.8C488.816 530.8 488.48 531.136 488.48 531.55C488.48 531.964 488.816 532.3 489.23 532.3Z" fill="white"/>
<path d="M484.53 529.21C484.944 529.21 485.28 528.874 485.28 528.46C485.28 528.046 484.944 527.71 484.53 527.71C484.116 527.71 483.78 528.046 483.78 528.46C483.78 528.874 484.116 529.21 484.53 529.21Z" fill="white"/>
<path d="M493.03 534.91C493.444 534.91 493.78 534.574 493.78 534.16C493.78 533.746 493.444 533.41 493.03 533.41C492.616 533.41 492.28 533.746 492.28 534.16C492.28 534.574 492.616 534.91 493.03 534.91Z" fill="white"/>
<path d="M481 526.97C481.414 526.97 481.75 526.634 481.75 526.22C481.75 525.806 481.414 525.47 481 525.47C480.586 525.47 480.25 525.806 480.25 526.22C480.25 526.634 480.586 526.97 481 526.97Z" fill="white"/>
<path opacity="0.1" d="M485.94 332.78C485.94 332.78 478.72 350.88 470.16 351.56C461.6 352.24 485.94 332.78 485.94 332.78Z" fill="black"/>
<path opacity="0.1" d="M487.14 360.35C487.14 360.35 475.75 379.72 472.36 379.92C468.97 380.12 487.14 360.35 487.14 360.35Z" fill="black"/>
<path opacity="0.1" d="M493.03 425.45C493.03 425.45 478.91 432.84 482.13 433.45C485.35 434.06 493.03 425.45 493.03 425.45Z" fill="black"/>
<path opacity="0.1" d="M464.97 425.45C464.97 425.45 479.16 419.66 481.65 419.66C484.14 419.66 464.97 425.45 464.97 425.45Z" fill="black"/>
<path opacity="0.1" d="M542.31 401.89C542.31 401.89 552.05 399.49 552.45 401.89C552.85 404.29 542.31 401.89 542.31 401.89Z" fill="black"/>
<path opacity="0.1" d="M551.65 413.69C551.65 413.69 543.06 413.87 544.26 416.69C545.46 419.51 551.65 413.69 551.65 413.69Z" fill="black"/>
<path opacity="0.1" d="M512.6 132.81C505.22 129.92 492.35 124.35 486.54 118.68C480.73 113.01 470.07 111.14 463.83 110.46C464.54 108.25 464.45 105.46 464.57 103.11C464.77 99.11 468.76 99.11 468.76 99.11C480.15 100.9 506.91 117.68 506.91 117.68C505.91 121.47 512.3 132.26 512.3 132.26C512.41 132.44 512.5 132.62 512.6 132.81Z" fill="black"/>
<path d="M512.6 131.61C505.22 128.72 492.35 123.15 486.54 117.49C480.73 111.83 470.07 109.94 463.83 109.26C464.54 107.05 464.45 104.26 464.57 101.91C464.77 97.91 468.76 97.91 468.76 97.91C480.15 99.7 506.91 116.48 506.91 116.48C505.91 120.27 512.3 131.06 512.3 131.06C512.41 131.24 512.5 131.42 512.6 131.61Z" fill="#63A0FF"/>
<path opacity="0.1" d="M526.22 260.49C514.36 252.79 497.73 239.73 497.73 238.92C497.73 237.92 490.93 230.53 490.93 230.53L477.55 206.22L473.36 196.22L485.36 183.64L511.53 200.41L518.53 213.19C520.853 214.838 523.024 216.688 525.02 218.72C525.02 225.81 524.85 231.63 524.52 233.16C523.9 235.84 525.05 248.47 526.22 260.49Z" fill="black"/>
<path d="M473.96 193.78L477.55 206.22L491.55 228.13C491.55 228.13 498.34 235.52 498.34 236.52C498.34 237.52 523.34 256.89 533.89 262.28C544.44 267.67 557.89 272.1 558.89 275.98C559.89 279.86 565.89 308.82 582.89 299.43C599.89 290.04 578.1 268.87 578.1 268.87L564.1 256.49C564.1 256.49 534.23 233.12 531.69 225.34C529.15 217.56 519.16 210.76 519.16 210.76L512.16 197.97L486 181.2L473.96 193.78Z" fill="#FABDBD"/>
<path opacity="0.1" d="M468.96 127.87C468.96 127.87 444.6 139.06 452.19 156.87C459.78 174.68 476.35 207.46 476.35 207.46C476.35 207.46 474.36 196.01 478.75 195.01C483.14 194.01 512.6 198.92 512.6 198.92C512.6 198.92 504.51 185.62 505.91 178.03C507.31 170.44 495.33 121.28 468.96 127.87Z" fill="black"/>
<path opacity="0.1" d="M471.36 126.08C471.36 126.08 447 137.26 454.58 155.01C462.16 172.76 478.75 205.62 478.75 205.62C478.75 205.62 476.75 194.18 481.15 193.18C485.55 192.18 513.3 197.37 513.3 197.37C513.3 197.37 506.91 183.79 508.3 176.2C509.69 168.61 497.75 119.48 471.36 126.08Z" fill="black"/>
<path d="M470.16 126.67C470.16 126.67 445.8 137.86 453.39 155.67C460.98 173.48 477.55 206.26 477.55 206.26C477.55 206.26 475.55 194.82 479.95 193.82C484.35 192.82 512.1 198.01 512.1 198.01C512.1 198.01 505.71 184.43 507.1 176.84C508.49 169.25 496.53 120.08 470.16 126.67Z" fill="#63A0FF"/>
<path opacity="0.1" d="M518.84 56.01C515.45 57.13 511.84 57.78 508.84 56.09C506.77 54.94 505.21 52.78 502.84 52.33C500.71 51.92 498.53 53.15 497.16 54.83C495.886 56.5983 494.876 58.5418 494.16 60.6C492.647 64.1957 490.799 67.641 488.64 70.89C487.3 72.89 485.52 75.01 483.12 75.11C479.83 75.26 477.61 71.63 474.43 70.75C466.66 68.58 471.15 77.14 472.29 80.37C473.416 83.558 473.813 86.9583 473.45 90.32C473.193 90.3795 472.933 90.4196 472.67 90.44C469.128 84.2884 467.966 77.0515 469.402 70.1002C470.839 63.1489 474.775 56.9659 480.466 52.7225C486.156 48.4791 493.205 46.4701 500.277 47.076C507.35 47.6819 513.954 50.8606 518.84 56.01V56.01Z" fill="black"/>
<path d="M473.89 70.13C477.06 71.01 479.28 74.64 482.57 74.5C484.98 74.39 486.76 72.28 488.09 70.27C490.25 67.0318 492.098 63.5965 493.61 60.01C494.326 57.9518 495.336 56.0083 496.61 54.24C497.99 52.56 500.16 51.33 502.29 51.74C504.61 52.19 506.17 54.35 508.29 55.5C512.07 57.61 516.77 56.08 520.81 54.5C522.81 53.74 525 52.64 525.34 50.58C525.58 49.13 524.75 47.67 524.94 46.21C525.13 44.75 526.21 43.73 526.94 42.53C527.67 41.33 528.09 39.6 527.06 38.63C526.31 37.93 525.14 37.98 524.18 37.63C521.79 36.7 521.18 33.49 519.05 32.05C516.75 30.5 513.68 31.54 510.9 31.67C506.9 31.85 503.17 30.01 499.46 28.54C495.75 27.07 491.52 25.94 487.85 27.48C485.66 28.41 483.96 30.16 482.1 31.64C478.462 34.5042 474.12 36.3351 469.53 36.94C467.27 37.24 464.8 37.29 463.02 38.7C460.78 40.48 460.44 43.76 460.87 46.59C461.3 49.42 462.3 52.2 462.07 55.04C461.71 59.55 458.34 63.26 457.22 67.64C456.971 68.3387 456.886 69.0852 456.971 69.822C457.056 70.5588 457.309 71.2662 457.71 71.89C458.375 72.5531 459.142 73.1066 459.98 73.53C461.054 74.2293 461.961 75.1561 462.636 76.2448C463.312 77.3336 463.74 78.5575 463.89 79.83C464.04 81.12 463.89 82.43 464.09 83.71C464.489 85.6678 465.639 87.3916 467.293 88.5129C468.947 89.6341 470.974 90.0638 472.94 89.71C473.298 86.3484 472.902 82.9492 471.78 79.76C470.6 76.52 466.12 68.01 473.89 70.13Z" fill="#7C5C5C"/>
<g opacity="0.1">
<path opacity="0.1" d="M520.53 33.51C520.558 33.5606 520.591 33.6076 520.63 33.65L520.53 33.51Z" fill="black"/>
<path opacity="0.1" d="M526.82 42.36C527.58 41.17 527.98 39.42 526.94 38.46C526.768 38.304 526.572 38.1758 526.36 38.08C526.373 38.963 526.115 39.8287 525.62 40.56C524.86 41.75 523.79 42.84 523.62 44.24C523.45 45.64 524.25 47.15 524.02 48.6C523.68 50.67 521.44 51.76 519.49 52.52C515.49 54.09 510.75 55.63 506.96 53.52C504.9 52.36 503.34 50.21 501.02 49.76C498.89 49.35 496.71 50.58 495.34 52.26C494.065 54.0271 493.054 55.9709 492.34 58.03C490.823 61.6239 488.975 65.0687 486.82 68.32C485.48 70.32 483.71 72.44 481.3 72.54C478.01 72.68 475.79 69.06 472.61 68.18C464.84 66.01 469.33 74.57 470.47 77.8C471.6 81.0047 471.996 84.4219 471.63 87.8C470.333 88.0381 468.997 87.9346 467.752 87.4998C466.507 87.065 465.397 86.3138 464.53 85.32C465.253 86.8423 466.456 88.0854 467.953 88.8585C469.45 89.6316 471.16 89.8921 472.82 89.6C473.187 86.2391 472.794 82.8386 471.67 79.65C470.53 76.42 466.04 67.86 473.81 70.02C476.99 70.91 479.21 74.53 482.5 74.39C484.9 74.29 486.68 72.17 488.01 70.17C490.171 66.9167 492.022 63.4684 493.54 59.87C494.256 57.8118 495.266 55.8683 496.54 54.1C497.183 53.2213 498.048 52.5282 499.045 52.0909C500.043 51.6537 501.138 51.4878 502.22 51.61C504.54 52.06 506.1 54.21 508.16 55.36C511.95 57.48 516.65 55.94 520.69 54.36C522.69 53.6 524.88 52.51 525.21 50.44C525.45 48.99 524.62 47.53 524.82 46.08C525.02 44.63 526.06 43.55 526.82 42.36Z" fill="black"/>
<path opacity="0.1" d="M458.67 71.53C458.12 71.17 457.52 70.86 457 70.46C457.11 70.9062 457.311 71.325 457.59 71.69C458.259 72.3526 459.029 72.906 459.87 73.33C460.577 73.7926 461.211 74.3589 461.75 75.01C461.052 73.5964 459.988 72.3949 458.67 71.53V71.53Z" fill="black"/>
</g>
<path opacity="0.1" d="M529.08 70.63C529.08 70.63 520.93 64.91 516.08 71.08H513.16C510.24 62.69 495.79 66.58 495.79 66.58L476.09 69.8L476.46 71.08L495.79 69.5C495.79 69.5 496.24 77.37 498.86 79.92C501.48 82.47 507.17 81.04 507.17 81.04C510.61 80.6 512.26 75.2 512.87 72.54L515.69 72.7C515.18 75.41 514.84 80.7 519.45 82.54C525.75 85.01 527.75 79.39 527.75 79.39C527.75 79.39 529.83 72.13 529.08 70.63Z" fill="black"/>
<path d="M529.08 70.01C529.08 70.01 520.93 64.29 516.08 70.46H513.16C510.24 62.07 495.79 65.96 495.79 65.96L476.09 69.19L476.46 70.46L495.79 68.89C495.79 68.89 496.24 76.75 498.86 79.3C501.48 81.85 507.17 80.42 507.17 80.42C510.61 79.98 512.26 74.58 512.87 71.92L515.69 72.08C515.18 74.79 514.84 80.08 519.45 81.92C525.74 84.39 527.69 78.77 527.69 78.77C527.69 78.77 529.83 71.53 529.08 70.01Z" fill="#3F3D56"/>
<path d="M587.99 533.01C585.1 532.88 569.32 539.55 569.32 539.55C569.32 539.55 564.32 542.34 551.55 544.13C543.21 545.31 542.1 541.29 542.33 538.36C542.408 537.399 542.62 536.453 542.96 535.55V517.82C542.96 517.82 568.96 501.95 570.96 500.95C571.212 500.839 571.484 500.781 571.76 500.78C574.97 500.65 584.17 503.92 589.14 507.43C594.63 511.32 601.62 508.94 601.62 508.94C601.62 508.94 615.18 498.01 618.75 506.01C618.961 506.469 619.125 506.948 619.24 507.44C621.85 518.01 590.89 533.1 587.99 533.01Z" fill="#3F3D56"/>
<path opacity="0.1" d="M542.96 522.08V517.82C542.96 517.82 568.96 501.95 570.96 500.95C571.212 500.839 571.484 500.781 571.76 500.78C572.95 502.01 574.02 503.11 574.66 503.78C576.55 505.68 559.3 527.32 542.96 522.08Z" fill="black"/>
<path d="M538.97 519.01L536.58 508.26C536.58 508.26 536.58 498.97 533.28 497.17C529.98 495.37 520.99 433.01 520.99 433.01C520.99 433.01 521.29 419.23 518.89 417.43C516.49 415.63 518.89 413.65 518.89 413.65C518.881 411.666 518.522 409.699 517.83 407.84C517.043 405.818 516.496 403.71 516.2 401.56C516.2 401.56 517.4 397.06 516.2 395.87C515.36 395.03 516.43 393.46 514.47 390.32C513.206 388.455 511.669 386.789 509.91 385.38C503.12 379.64 509.82 314.62 511.66 297.91C511.94 295.42 512.11 294.01 512.11 294.01H528.11L530.11 301.2L533.3 314.49C533.3 314.49 535.4 315.88 535.4 317.68C535.4 319.48 547.98 357.52 547.98 357.52C548.903 359.052 549.705 360.654 550.38 362.31C550.68 363.51 553.38 365.61 553.38 365.61C552.866 366.739 552.6 367.965 552.6 369.205C552.6 370.445 552.866 371.671 553.38 372.8C555.17 376.39 560.27 391.37 558.47 398.56C556.67 405.75 554.57 406.35 554.57 406.35C554.57 406.35 552.78 411.67 555.77 413.65C558.76 415.63 556.67 419.23 556.67 419.23L560.57 452.79C560.57 452.79 560.27 467.79 564.76 473.16C569.25 478.53 569.85 491.43 569.85 491.43L566.47 492.87L565.86 493.14L565.66 493.23C565.66 493.23 572.55 500.42 574.66 502.52C576.77 504.62 556.34 529.81 538.97 519.01Z" fill="#65617D"/>
<path opacity="0.1" d="M574.62 502.55C572.81 507.97 554.62 527.55 538.97 517.82L536.58 507.07C540.86 503.6 554.21 493.47 565.83 491.97L565.63 492.06L566.44 492.9L565.83 493.17L565.63 493.26C565.63 493.26 572.52 500.45 574.62 502.55Z" fill="black"/>
<path d="M538.97 519.01L536.58 508.26C540.86 504.79 554.21 494.66 565.83 493.16L565.63 493.25C565.63 493.25 572.52 500.44 574.63 502.54C576.74 504.64 556.34 529.81 538.97 519.01Z" fill="#BEDE22"/>
<path d="M584.1 510.43C584.514 510.43 584.85 510.094 584.85 509.68C584.85 509.266 584.514 508.93 584.1 508.93C583.686 508.93 583.35 509.266 583.35 509.68C583.35 510.094 583.686 510.43 584.1 510.43Z" fill="white"/>
<path d="M579.21 509.69C579.624 509.69 579.96 509.354 579.96 508.94C579.96 508.526 579.624 508.19 579.21 508.19C578.796 508.19 578.46 508.526 578.46 508.94C578.46 509.354 578.796 509.69 579.21 509.69Z" fill="white"/>
<path d="M588.3 511.18C588.714 511.18 589.05 510.844 589.05 510.43C589.05 510.016 588.714 509.68 588.3 509.68C587.886 509.68 587.55 510.016 587.55 510.43C587.55 510.844 587.886 511.18 588.3 511.18Z" fill="white"/>
<path d="M574.02 508.94C574.434 508.94 574.77 508.604 574.77 508.19C574.77 507.776 574.434 507.44 574.02 507.44C573.606 507.44 573.27 507.776 573.27 508.19C573.27 508.604 573.606 508.94 574.02 508.94Z" fill="white"/>
<path opacity="0.1" d="M587.99 533.01C585.1 532.88 569.32 539.55 569.32 539.55C569.32 539.55 564.32 542.34 551.55 544.13C543.21 545.31 542.1 541.29 542.33 538.36C544.442 539.314 546.824 539.484 549.05 538.84C554.74 537.35 574.42 534.2 574.42 534.2C574.42 534.2 587.42 529.46 587.8 526.76L618.75 506.01C618.961 506.469 619.125 506.948 619.24 507.44C621.85 518.01 590.89 533.1 587.99 533.01Z" fill="black"/>
<path d="M573.39 297.87H566.2V528.84H573.39V297.87Z" fill="#005C99"/>
<path d="M572.84 300.51C573.072 298.196 574.125 296.042 575.808 294.437C577.491 292.833 579.693 291.884 582.016 291.763C584.338 291.642 586.627 292.357 588.468 293.778C590.308 295.199 591.579 297.233 592.05 299.51C592.899 300.067 593.696 300.699 594.43 301.4C594.815 301.756 595.299 301.984 595.819 302.055C596.338 302.125 596.866 302.034 597.331 301.793C597.797 301.553 598.177 301.175 598.42 300.711C598.663 300.247 598.757 299.72 598.69 299.2C598.685 299.144 598.685 299.087 598.69 299.03C598.36 296.709 597.534 294.487 596.269 292.514C595.003 290.54 593.328 288.863 591.356 287.595C589.385 286.327 587.163 285.498 584.843 285.165C582.523 284.832 580.158 285.002 577.909 285.664C575.66 286.327 573.581 287.465 571.811 289.003C570.042 290.54 568.624 292.441 567.655 294.575C566.685 296.709 566.187 299.027 566.193 301.371C566.199 303.716 566.709 306.031 567.69 308.16C568.636 305.168 570.424 302.512 572.84 300.51Z" fill="#005C99"/>
<path d="M576.08 520.61H563.95V537.54H576.08V520.61Z" fill="#005C99"/>
<path d="M512.5 93.32C509.991 96.5694 507.97 100.167 506.5 104C501.74 116.56 505.31 126.68 505.31 126.68C505.31 126.68 461.97 117.09 466.17 112.3C468.71 109.39 470.81 98.2 472.07 89.84C472.89 84.39 473.36 80.14 473.36 80.14C473.36 80.14 525.48 76.35 512.5 93.32Z" fill="#FABDBD"/>
<path d="M524.95 543.01C524.415 545.95 522.874 548.612 520.59 550.54C517.29 553.33 485.84 554.33 479.45 551.94C473.06 549.55 452.69 548.64 447.59 548.44C442.49 548.24 440.51 543.55 439.4 541.25C439.09 540.59 439.32 539.14 439.84 537.4C441.11 533.13 444.07 527.11 444.7 526.47C445.18 525.99 445.64 524.03 445.95 522.31C446.22 520.82 446.4 519.51 446.4 519.51C460.07 528.83 478.05 512.99 478.05 512.99C478.724 512.63 479.493 512.491 480.25 512.59C483.69 513.01 487.44 517.52 487.44 519.51C487.44 521.94 496.92 526.51 496.92 526.51C499.62 529.61 511.6 535.4 511.6 535.4C511.6 535.4 519.79 535.6 523.39 538.69C523.993 539.22 524.453 539.894 524.726 540.649C524.998 541.405 525.076 542.217 524.95 543.01Z" fill="#3F3D56"/>
<path opacity="0.1" d="M524.95 543.01C524.415 545.95 522.874 548.612 520.59 550.54C517.29 553.33 485.84 554.33 479.45 551.94C473.06 549.55 452.69 548.64 447.59 548.44C442.49 548.24 440.51 543.55 439.4 541.25C439.09 540.59 439.32 539.14 439.84 537.4C444.329 538.502 448.752 539.854 453.09 541.45C459.48 543.95 472.76 547.54 475.09 546.45C475.05 546.48 506.56 555.27 524.95 543.01Z" fill="black"/>
<path opacity="0.1" d="M514.47 390.35C513.206 388.485 511.669 386.819 509.91 385.41C503.12 379.67 509.82 314.65 511.66 297.94C519.51 297.5 525.01 297.65 525.48 298.83C527.1 302.88 516.61 375.73 514.47 390.35Z" fill="black"/>
<path opacity="0.1" d="M480.25 512.63V516.01C458.25 538.58 449.45 530.86 445.95 522.33C446.22 520.84 446.4 519.53 446.4 519.53C460.07 528.85 478.05 513.01 478.05 513.01C478.726 512.657 479.495 512.524 480.25 512.63Z" fill="black"/>
<path d="M523.75 304.11C522.45 324.19 512.33 392.9 512.33 392.9C512.33 392.9 506.64 418.06 505.44 418.96C504.24 419.86 496.76 424.96 496.76 424.96C496.76 424.96 496.46 436.65 494.06 439.96C491.66 443.27 490.76 451.65 490.76 451.65C490.76 451.65 486.87 468.42 485.67 476.81C484.47 485.2 480.28 496.58 480.28 496.58V514.86C452.62 543.23 445.81 523.74 444.21 514.94C443.978 513.724 443.817 512.495 443.73 511.26L459.31 416.6C459.31 416.6 462.6 412.1 462 409.71C461.4 407.32 463.2 404.31 463.2 404.31L463.15 398.92C463.15 398.92 466.8 394.13 463.15 391.43C459.5 388.73 463.15 368.36 463.15 368.36C463.15 368.36 459.01 356.68 461.15 353.36C463.29 350.04 461.15 344.67 462.64 341.67C464.13 338.67 462.64 341.67 457.25 333.58C454.43 329.36 452.03 321.71 450.37 315.37C448.85 309.54 447.96 304.82 447.96 304.82C447.96 304.82 521.96 294.34 523.76 298.82C523.988 300.576 523.985 302.355 523.75 304.11V304.11Z" fill="#65617D"/>
<path opacity="0.1" d="M512.5 93.32C509.991 96.5694 507.97 100.167 506.5 104C503.664 104.9 500.706 105.355 497.73 105.35C487.07 105.35 481.16 97.5 476.13 88.93C475.9 88.54 472.28 90.24 472.07 89.84C472.89 84.39 473.36 80.14 473.36 80.14C473.36 80.14 525.48 76.35 512.5 93.32Z" fill="black"/>
<path d="M526.68 75.8C526.689 82.5514 524.343 89.0946 520.045 94.3014C515.748 99.5081 509.768 103.052 503.137 104.323C496.506 105.593 489.64 104.51 483.722 101.261C477.804 98.011 473.205 92.7985 470.719 86.5217C468.232 80.2449 468.013 73.2972 470.1 66.8764C472.187 60.4557 476.449 54.9643 482.151 51.349C487.853 47.7337 494.637 46.221 501.335 47.0719C508.033 47.9228 514.223 51.0838 518.84 56.01C523.872 61.3717 526.675 68.4471 526.68 75.8Z" fill="#FABDBD"/>
<path opacity="0.1" d="M523.75 304.11C513.97 305.83 496.2 309.2 494.75 311.22C492.75 314.01 477.75 314.81 468.75 316.01C463.58 316.7 456 316.13 450.29 315.37C448.77 309.54 447.88 304.82 447.88 304.82C447.88 304.82 521.88 294.34 523.68 298.82C523.935 300.573 523.958 302.351 523.75 304.11V304.11Z" fill="black"/>
<path d="M530.08 301.23C530.08 301.23 496.75 306.62 494.75 309.42C492.75 312.22 477.75 313.01 468.75 314.21C459.75 315.41 443.59 312.81 442.39 312.01C435.39 307.34 438.79 252.5 441.79 245.7C444.79 238.9 443.79 200.97 440.99 185.79C438.19 170.61 442.39 151.64 442.39 151.64C442.39 151.64 446.58 138.26 445.79 135.46C445 132.66 449.79 126.68 449.79 126.68C449.79 126.68 457.18 114.49 460.97 112.68C461.664 112.346 462.279 111.868 462.773 111.276C463.266 110.684 463.627 109.993 463.83 109.25C464.54 107.04 464.45 104.25 464.57 101.9C464.77 97.9 468.76 97.9 468.76 97.9C480.15 99.69 506.91 116.47 506.91 116.47C505.91 120.26 512.3 131.05 512.3 131.05C512.41 131.22 512.5 131.4 512.6 131.59C519.6 144.78 524.69 185.17 524.69 185.17C524.69 185.17 525.04 204.46 524.98 218.66C524.98 225.75 524.81 231.57 524.48 233.1C523.9 235.82 525.05 248.45 526.22 260.47C527.02 268.78 527.84 276.79 528.09 281.03C528.75 291.44 530.08 301.23 530.08 301.23Z" fill="#005C99"/>
<path opacity="0.1" d="M500.92 246.11C500.92 246.11 491.92 267.68 494.33 270.87C496.74 274.06 500.92 246.11 500.92 246.11Z" fill="black"/>
<path opacity="0.1" d="M512.1 256.49C512.1 256.49 501.92 272.49 505.71 275.66C509.5 278.83 512.1 256.49 512.1 256.49Z" fill="black"/>
<path opacity="0.1" d="M480.25 508.84V514.23C452.59 542.6 445.78 523.11 444.18 514.31C449.21 518.63 460.75 524.01 480.25 508.84Z" fill="black"/>
<path d="M480.25 509.44V514.83C452.59 543.2 445.78 523.71 444.18 514.91C449.21 519.23 460.75 524.61 480.25 509.44Z" fill="#BEDE22"/>
<path d="M476.96 524.77C477.374 524.77 477.71 524.434 477.71 524.02C477.71 523.606 477.374 523.27 476.96 523.27C476.546 523.27 476.21 523.606 476.21 524.02C476.21 524.434 476.546 524.77 476.96 524.77Z" fill="white"/>
<path d="M489.23 532.3C489.644 532.3 489.98 531.964 489.98 531.55C489.98 531.136 489.644 530.8 489.23 530.8C488.816 530.8 488.48 531.136 488.48 531.55C488.48 531.964 488.816 532.3 489.23 532.3Z" fill="white"/>
<path d="M484.53 529.21C484.944 529.21 485.28 528.874 485.28 528.46C485.28 528.046 484.944 527.71 484.53 527.71C484.116 527.71 483.78 528.046 483.78 528.46C483.78 528.874 484.116 529.21 484.53 529.21Z" fill="white"/>
<path d="M493.03 534.91C493.444 534.91 493.78 534.574 493.78 534.16C493.78 533.746 493.444 533.41 493.03 533.41C492.616 533.41 492.28 533.746 492.28 534.16C492.28 534.574 492.616 534.91 493.03 534.91Z" fill="white"/>
<path d="M481 526.97C481.414 526.97 481.75 526.634 481.75 526.22C481.75 525.806 481.414 525.47 481 525.47C480.586 525.47 480.25 525.806 480.25 526.22C480.25 526.634 480.586 526.97 481 526.97Z" fill="white"/>
<path opacity="0.1" d="M485.94 332.78C485.94 332.78 478.72 350.88 470.16 351.56C461.6 352.24 485.94 332.78 485.94 332.78Z" fill="black"/>
<path opacity="0.1" d="M487.14 360.35C487.14 360.35 475.75 379.72 472.36 379.92C468.97 380.12 487.14 360.35 487.14 360.35Z" fill="black"/>
<path opacity="0.1" d="M493.03 425.45C493.03 425.45 478.91 432.84 482.13 433.45C485.35 434.06 493.03 425.45 493.03 425.45Z" fill="black"/>
<path opacity="0.1" d="M464.97 425.45C464.97 425.45 479.16 419.66 481.65 419.66C484.14 419.66 464.97 425.45 464.97 425.45Z" fill="black"/>
<path opacity="0.1" d="M542.31 401.89C542.31 401.89 552.05 399.49 552.45 401.89C552.85 404.29 542.31 401.89 542.31 401.89Z" fill="black"/>
<path opacity="0.1" d="M551.65 413.69C551.65 413.69 543.06 413.87 544.26 416.69C545.46 419.51 551.65 413.69 551.65 413.69Z" fill="black"/>
<path opacity="0.1" d="M512.6 132.81C505.22 129.92 492.35 124.35 486.54 118.68C480.73 113.01 470.07 111.14 463.83 110.46C464.54 108.25 464.45 105.46 464.57 103.11C464.77 99.11 468.76 99.11 468.76 99.11C480.15 100.9 506.91 117.68 506.91 117.68C505.91 121.47 512.3 132.26 512.3 132.26C512.41 132.44 512.5 132.62 512.6 132.81Z" fill="black"/>
<path d="M512.6 131.61C505.22 128.72 492.35 123.15 486.54 117.49C480.73 111.83 470.07 109.94 463.83 109.26C464.54 107.05 464.45 104.26 464.57 101.91C464.77 97.91 468.76 97.91 468.76 97.91C480.15 99.7 506.91 116.48 506.91 116.48C505.91 120.27 512.3 131.06 512.3 131.06C512.41 131.24 512.5 131.42 512.6 131.61Z" fill="#BEDE22"/>
<path opacity="0.1" d="M526.22 260.49C514.36 252.79 497.73 239.73 497.73 238.92C497.73 237.92 490.93 230.53 490.93 230.53L477.55 206.22L473.36 196.22L485.36 183.64L511.53 200.41L518.53 213.19C520.853 214.838 523.024 216.688 525.02 218.72C525.02 225.81 524.85 231.63 524.52 233.16C523.9 235.84 525.05 248.47 526.22 260.49Z" fill="black"/>
<path d="M473.96 193.78L477.55 206.22L491.55 228.13C491.55 228.13 498.34 235.52 498.34 236.52C498.34 237.52 523.34 256.89 533.89 262.28C544.44 267.67 557.89 272.1 558.89 275.98C559.89 279.86 565.89 308.82 582.89 299.43C599.89 290.04 578.1 268.87 578.1 268.87L564.1 256.49C564.1 256.49 534.23 233.12 531.69 225.34C529.15 217.56 519.16 210.76 519.16 210.76L512.16 197.97L486 181.2L473.96 193.78Z" fill="#FABDBD"/>
<path opacity="0.1" d="M468.96 127.87C468.96 127.87 444.6 139.06 452.19 156.87C459.78 174.68 476.35 207.46 476.35 207.46C476.35 207.46 474.36 196.01 478.75 195.01C483.14 194.01 512.6 198.92 512.6 198.92C512.6 198.92 504.51 185.62 505.91 178.03C507.31 170.44 495.33 121.28 468.96 127.87Z" fill="black"/>
<path opacity="0.1" d="M471.36 126.08C471.36 126.08 447 137.26 454.58 155.01C462.16 172.76 478.75 205.62 478.75 205.62C478.75 205.62 476.75 194.18 481.15 193.18C485.55 192.18 513.3 197.37 513.3 197.37C513.3 197.37 506.91 183.79 508.3 176.2C509.69 168.61 497.75 119.48 471.36 126.08Z" fill="black"/>
<path d="M470.16 126.67C470.16 126.67 445.8 137.86 453.39 155.67C460.98 173.48 477.55 206.26 477.55 206.26C477.55 206.26 475.55 194.82 479.95 193.82C484.35 192.82 512.1 198.01 512.1 198.01C512.1 198.01 505.71 184.43 507.1 176.84C508.49 169.25 496.53 120.08 470.16 126.67Z" fill="#005C99"/>
<path opacity="0.1" d="M518.84 56.01C515.45 57.13 511.84 57.78 508.84 56.09C506.77 54.94 505.21 52.78 502.84 52.33C500.71 51.92 498.53 53.15 497.16 54.83C495.886 56.5983 494.876 58.5418 494.16 60.6C492.647 64.1957 490.799 67.641 488.64 70.89C487.3 72.89 485.52 75.01 483.12 75.11C479.83 75.26 477.61 71.63 474.43 70.75C466.66 68.58 471.15 77.14 472.29 80.37C473.416 83.558 473.813 86.9583 473.45 90.32C473.193 90.3795 472.933 90.4196 472.67 90.44C469.128 84.2884 467.966 77.0515 469.402 70.1002C470.839 63.1489 474.775 56.9659 480.466 52.7225C486.156 48.4791 493.205 46.4701 500.277 47.076C507.35 47.6819 513.954 50.8606 518.84 56.01V56.01Z" fill="black"/>
<path d="M473.89 70.13C477.06 71.01 479.28 74.64 482.57 74.5C484.98 74.39 486.76 72.28 488.09 70.27C490.25 67.0318 492.098 63.5965 493.61 60.01C494.326 57.9518 495.336 56.0083 496.61 54.24C497.99 52.56 500.16 51.33 502.29 51.74C504.61 52.19 506.17 54.35 508.29 55.5C512.07 57.61 516.77 56.08 520.81 54.5C522.81 53.74 525 52.64 525.34 50.58C525.58 49.13 524.75 47.67 524.94 46.21C525.13 44.75 526.21 43.73 526.94 42.53C527.67 41.33 528.09 39.6 527.06 38.63C526.31 37.93 525.14 37.98 524.18 37.63C521.79 36.7 521.18 33.49 519.05 32.05C516.75 30.5 513.68 31.54 510.9 31.67C506.9 31.85 503.17 30.01 499.46 28.54C495.75 27.07 491.52 25.94 487.85 27.48C485.66 28.41 483.96 30.16 482.1 31.64C478.462 34.5042 474.12 36.3351 469.53 36.94C467.27 37.24 464.8 37.29 463.02 38.7C460.78 40.48 460.44 43.76 460.87 46.59C461.3 49.42 462.3 52.2 462.07 55.04C461.71 59.55 458.34 63.26 457.22 67.64C456.971 68.3387 456.886 69.0852 456.971 69.822C457.056 70.5588 457.309 71.2662 457.71 71.89C458.375 72.5531 459.142 73.1066 459.98 73.53C461.054 74.2293 461.961 75.1561 462.636 76.2448C463.312 77.3336 463.74 78.5575 463.89 79.83C464.04 81.12 463.89 82.43 464.09 83.71C464.489 85.6678 465.639 87.3916 467.293 88.5129C468.947 89.6341 470.974 90.0638 472.94 89.71C473.298 86.3484 472.902 82.9492 471.78 79.76C470.6 76.52 466.12 68.01 473.89 70.13Z" fill="#7C5C5C"/>
<g opacity="0.1">
<path opacity="0.1" d="M520.53 33.51C520.558 33.5606 520.591 33.6076 520.63 33.65L520.53 33.51Z" fill="black"/>
<path opacity="0.1" d="M526.82 42.36C527.58 41.17 527.98 39.42 526.94 38.46C526.768 38.304 526.572 38.1758 526.36 38.08C526.373 38.963 526.115 39.8287 525.62 40.56C524.86 41.75 523.79 42.84 523.62 44.24C523.45 45.64 524.25 47.15 524.02 48.6C523.68 50.67 521.44 51.76 519.49 52.52C515.49 54.09 510.75 55.63 506.96 53.52C504.9 52.36 503.34 50.21 501.02 49.76C498.89 49.35 496.71 50.58 495.34 52.26C494.065 54.0271 493.054 55.9709 492.34 58.03C490.823 61.6239 488.975 65.0687 486.82 68.32C485.48 70.32 483.71 72.44 481.3 72.54C478.01 72.68 475.79 69.06 472.61 68.18C464.84 66.01 469.33 74.57 470.47 77.8C471.6 81.0047 471.996 84.4219 471.63 87.8C470.333 88.0381 468.997 87.9346 467.752 87.4998C466.507 87.065 465.397 86.3138 464.53 85.32C465.253 86.8423 466.456 88.0854 467.953 88.8585C469.45 89.6316 471.16 89.8921 472.82 89.6C473.187 86.2391 472.794 82.8386 471.67 79.65C470.53 76.42 466.04 67.86 473.81 70.02C476.99 70.91 479.21 74.53 482.5 74.39C484.9 74.29 486.68 72.17 488.01 70.17C490.171 66.9167 492.022 63.4684 493.54 59.87C494.256 57.8118 495.266 55.8683 496.54 54.1C497.183 53.2213 498.048 52.5282 499.045 52.0909C500.043 51.6537 501.138 51.4878 502.22 51.61C504.54 52.06 506.1 54.21 508.16 55.36C511.95 57.48 516.65 55.94 520.69 54.36C522.69 53.6 524.88 52.51 525.21 50.44C525.45 48.99 524.62 47.53 524.82 46.08C525.02 44.63 526.06 43.55 526.82 42.36Z" fill="black"/>
<path opacity="0.1" d="M458.67 71.53C458.12 71.17 457.52 70.86 457 70.46C457.11 70.9062 457.311 71.325 457.59 71.69C458.259 72.3526 459.029 72.906 459.87 73.33C460.577 73.7926 461.211 74.3589 461.75 75.01C461.052 73.5964 459.988 72.3949 458.67 71.53V71.53Z" fill="black"/>
</g>
<path opacity="0.1" d="M529.08 70.63C529.08 70.63 520.93 64.91 516.08 71.08H513.16C510.24 62.69 495.79 66.58 495.79 66.58L476.09 69.8L476.46 71.08L495.79 69.5C495.79 69.5 496.24 77.37 498.86 79.92C501.48 82.47 507.17 81.04 507.17 81.04C510.61 80.6 512.26 75.2 512.87 72.54L515.69 72.7C515.18 75.41 514.84 80.7 519.45 82.54C525.75 85.01 527.75 79.39 527.75 79.39C527.75 79.39 529.83 72.13 529.08 70.63Z" fill="black"/>
<path d="M529.08 70.01C529.08 70.01 520.93 64.29 516.08 70.46H513.16C510.24 62.07 495.79 65.96 495.79 65.96L476.09 69.19L476.46 70.46L495.79 68.89C495.79 68.89 496.24 76.75 498.86 79.3C501.48 81.85 507.17 80.42 507.17 80.42C510.61 79.98 512.26 74.58 512.87 71.92L515.69 72.08C515.18 74.79 514.84 80.08 519.45 81.92C525.74 84.39 527.69 78.77 527.69 78.77C527.69 78.77 529.83 71.53 529.08 70.01Z" fill="#3F3D56"/>
<path opacity="0.1" d="M980.42 418.49C989.709 418.49 997.24 417.218 997.24 415.65C997.24 414.082 989.709 412.81 980.42 412.81C971.131 412.81 963.6 414.082 963.6 415.65C963.6 417.218 971.131 418.49 980.42 418.49Z" fill="#63A0FF"/>
<path d="M969.12 402.43C969.12 402.43 978.71 402.14 981.6 400.08C984.49 398.02 996.36 395.56 997.07 398.86C997.78 402.16 1011.49 415.28 1000.66 415.37C989.83 415.46 975.5 413.69 972.61 411.93C969.72 410.17 969.12 402.43 969.12 402.43Z" fill="#A8A8A8"/>
<path opacity="0.2" d="M1000.85 414.22C990.02 414.31 975.69 412.54 972.85 410.78C970.66 409.44 969.78 404.64 969.49 402.42H969.17C969.17 402.42 969.78 410.16 972.66 411.92C975.54 413.68 989.88 415.45 1000.71 415.36C1003.84 415.36 1004.92 414.22 1004.86 412.58C1004.37 413.58 1003.18 414.2 1000.85 414.22Z" fill="black"/>
<path opacity="0.1" d="M112.7 445.92C129.76 445.92 143.59 443.583 143.59 440.7C143.59 437.817 129.76 435.48 112.7 435.48C95.64 435.48 81.8101 437.817 81.8101 440.7C81.8101 443.583 95.64 445.92 112.7 445.92Z" fill="#63A0FF"/>
<path d="M91.9399 416.43C91.9399 416.43 109.57 415.89 114.88 412.1C120.19 408.31 141.98 403.81 143.3 409.87C144.62 415.93 169.75 440.01 149.89 440.2C130.03 440.39 103.66 437.1 98.3599 433.87C93.0599 430.64 91.9399 416.43 91.9399 416.43Z" fill="#A8A8A8"/>
<path opacity="0.2" d="M150.24 438.09C130.35 438.25 104.02 434.99 98.7199 431.76C94.7199 429.3 93.0699 420.48 92.5299 416.41H91.9399C91.9399 416.41 93.0599 430.62 98.3599 433.85C103.66 437.08 129.99 440.34 149.89 440.18C155.63 440.13 157.62 438.09 157.51 435.06C156.75 436.91 154.52 438.01 150.24 438.09Z" fill="black"/>
</g>
<defs>
<clipPath id="clip0_152_371">
<rect width="1133.51" height="614.03" fill="white"/>
</clipPath>
</defs>
</svg>
