<svg width="1382" height="869" viewBox="0 0 1382 869" fill="none" xmlns="http://www.w3.org/2000/svg">
<path d="M412.64 686.5L283.24 845.94C258.966 840.966 235.172 833.882 212.13 824.77C194.13 817.49 176.86 808.49 163 797.65L305.1 681L412.64 686.5Z" fill="#65617D"/>
<path d="M1218.41 811.97C1214.15 816.913 1209.26 821.282 1203.88 824.97C1179.5 841.82 1144.81 848.79 1111.21 853.19C1103.74 854.17 1096.24 855.053 1088.72 855.84L951.28 686.5L1058.86 681L1218.41 811.97Z" fill="#65617D"/>
<path d="M622.35 689.79L622.12 694.28L622.05 695.52L617.15 790.52V790.64L616.64 801.6L616.38 806.51L613.19 868.51C557.1 868.08 501.06 866.69 445.11 863.79L515.92 689.84L622.35 689.79Z" fill="#65617D"/>
<path d="M947.75 863.6C940.99 863.78 934.227 863.95 927.46 864.11C879.87 865.28 832.24 866.45 784.62 867.3L728.83 689.79H833.12L947.75 863.6Z" fill="#65617D"/>
<path opacity="0.1" d="M412.64 686.5L283.24 845.94C258.966 840.966 235.172 833.882 212.13 824.77C194.13 817.49 176.86 808.49 163 797.65L305.1 681L412.64 686.5Z" fill="black"/>
<path opacity="0.1" d="M1218.41 811.97C1214.15 816.913 1209.26 821.282 1203.88 824.97C1179.5 841.82 1144.81 848.79 1111.21 853.19C1103.74 854.17 1096.24 855.053 1088.72 855.84L951.28 686.5L1058.86 681L1218.41 811.97Z" fill="black"/>
<path opacity="0.1" d="M622.35 689.79L622.12 694.28L622.05 695.52L617.15 790.52V790.64L616.64 801.6L616.38 806.51L613.19 868.51C557.1 868.08 501.06 866.69 445.11 863.79L515.92 689.84L622.35 689.79Z" fill="black"/>
<path opacity="0.1" d="M947.75 863.6C940.99 863.78 934.227 863.95 927.46 864.11C879.87 865.28 832.24 866.45 784.62 867.3L728.83 689.79H833.12L947.75 863.6Z" fill="black"/>
<path opacity="0.1" d="M1363.22 797.839C1357.87 804.045 1351.75 809.532 1344.99 814.162C1314.42 835.32 1270.92 844.072 1228.78 849.596C1219.41 850.827 1210.01 851.936 1200.58 852.924C1142.17 859.127 1082.94 861.199 1023.76 862.73C1015.28 862.956 1006.8 863.17 998.316 863.371C938.637 864.84 878.907 866.309 819.19 867.376C747.496 868.632 675.791 869.373 604.148 868.808C533.809 868.268 463.533 866.522 393.369 862.881C386.623 862.546 379.88 862.182 373.142 861.789C311.694 858.285 249.193 852.999 190.441 840.531C160.001 834.285 130.163 825.39 101.267 813.949C78.6941 804.808 57.0369 793.507 39.6559 779.896C26.1123 769.286 15.1521 757.294 8.30504 743.784C-7.40803 712.732 0.893689 677.825 18.8766 647.388C36.8594 616.952 63.8588 589.629 87.1463 561.051C136.794 500.089 169.173 423.093 123.363 360.638C110.195 342.695 91.1466 326.949 80.4246 308.215C65 281.231 68.3107 250.883 73.9413 222.053C81.4655 183.756 95.3727 142.458 138.486 118.538C183.306 93.6765 246.91 94.9321 302.527 103.822C385.168 117.031 461.789 144.003 538.687 169.115L539.502 169.379L549.384 172.593L553.798 174.012C560.244 176.097 566.719 178.156 573.223 180.19L575.593 180.918H575.769L576.772 181.232L577.7 181.508L579.268 182.011C587.293 184.522 595.357 186.954 603.458 189.306H603.621C604.75 189.645 605.866 189.971 606.994 190.285H607.07C611.693 191.641 616.324 192.964 620.964 194.253L622.557 194.705L622.845 194.781H623.021C681.02 210.903 740.963 223.12 802.95 224.916C881.164 227.189 972.42 210.238 1024.35 166.202C1074.77 123.41 1169.57 120.158 1237.92 146.012C1303.13 170.66 1345.32 222.844 1342.14 274.953C1337.52 350.806 1249.78 409.043 1197.43 475.403C1173.04 506.342 1155.8 543.509 1172.59 576.872C1203.1 637.481 1323.75 651.507 1367.39 707.973C1388.72 735.697 1386.15 771.157 1363.22 797.839Z" fill="#1CBF51"/>
<g clip-path="url(#clip0_154_466)">
<path d="M733.079 738.676L731.708 787.914C731.708 787.914 781.3 805.858 781.935 814.97L686.355 815.731L685.365 738.93L733.079 738.676Z" fill="#455A64"/>
<path d="M702.115 784.005C701.221 784.313 700.469 784.937 700.002 785.759C699.535 786.582 699.384 787.546 699.577 788.472C699.823 789.399 700.417 790.195 701.234 790.696C702.052 791.197 703.031 791.364 703.968 791.163C704.94 790.857 705.764 790.204 706.284 789.328C706.804 788.452 706.982 787.416 706.785 786.416C706.425 785.474 705.713 784.709 704.799 784.282C703.884 783.856 702.84 783.802 701.887 784.132" fill="#E0E0E0"/>
<g opacity="0.6">
<path opacity="0.6" d="M686.354 815.731L686.558 807.99L778.102 810.147C778.102 810.147 782.391 811.975 781.935 814.97L686.354 815.731Z" fill="white"/>
</g>
<path d="M733.256 787.381C733.256 787.863 730.921 788.092 728.637 789.614C726.353 791.137 725.135 793.092 724.703 792.914C724.272 792.736 724.957 790.021 727.749 788.244C730.541 786.467 733.358 786.975 733.256 787.381Z" fill="#263238"/>
<path d="M743.307 791.467C743.434 791.924 741.403 792.736 739.83 794.716C738.256 796.696 737.825 798.802 737.292 798.777C736.759 798.751 736.505 796.239 738.51 793.701C740.515 791.163 743.307 791.036 743.307 791.467Z" fill="#263238"/>
<path d="M749.093 803.421C748.687 803.421 748.002 801.213 749.093 798.65C750.185 796.086 752.443 795.046 752.647 795.427C752.85 795.807 751.504 797.203 750.565 799.31C749.626 801.416 749.55 803.371 749.093 803.421Z" fill="#263238"/>
<path d="M732.317 776.163C732.14 776.594 729.982 775.96 727.241 776.163C724.5 776.366 722.572 777.203 722.318 776.797C722.064 776.391 724.044 774.716 727.14 774.538C730.236 774.361 732.546 775.782 732.317 776.163Z" fill="#263238"/>
<g opacity="0.3">
<path opacity="0.3" d="M733.079 738.676L731.708 787.914C731.708 787.914 781.3 805.858 781.935 814.97L686.355 815.731L685.365 738.93L733.079 738.676Z" fill="#1E793B"/>
</g>
<path d="M673.157 739.361L671.761 788.599C671.761 788.599 721.353 806.518 721.988 815.655L626.433 816.416L625.418 739.589L673.157 739.361Z" fill="#1E793B"/>
<path d="M642.295 784.691C641.374 784.969 640.59 785.581 640.097 786.407C639.604 787.234 639.437 788.215 639.63 789.158C639.882 790.085 640.481 790.88 641.304 791.376C642.126 791.873 643.109 792.033 644.047 791.823C645.016 791.517 645.839 790.862 646.354 789.986C646.87 789.109 647.042 788.073 646.838 787.076C646.473 786.138 645.76 785.377 644.848 784.951C643.935 784.526 642.894 784.469 641.94 784.792" fill="#E0E0E0"/>
<g opacity="0.6">
<path opacity="0.6" d="M626.534 816.416L626.738 808.65L718.282 810.833C718.282 810.833 722.546 812.66 722.089 815.655L626.534 816.416Z" fill="white"/>
</g>
<path d="M673.411 788.091C673.411 788.548 671.076 788.777 668.792 790.3C666.508 791.822 665.289 793.802 664.858 793.624C664.426 793.447 665.112 790.731 667.904 788.929C670.695 787.127 673.512 787.66 673.411 788.091Z" fill="#263238"/>
<path d="M683.461 792.152C683.588 792.609 681.558 793.421 680.01 795.401C678.462 797.381 677.979 799.487 677.472 799.462C676.964 799.437 676.685 796.924 678.69 794.386C680.695 791.848 683.461 791.721 683.461 792.152Z" fill="#263238"/>
<path d="M689.273 804.107C688.842 804.107 688.182 801.873 689.273 799.31C690.365 796.746 692.623 795.731 692.826 796.112C693.029 796.493 691.684 797.863 690.745 799.995C689.806 802.127 689.73 804.056 689.273 804.107Z" fill="#263238"/>
<path d="M672.497 776.823C672.294 777.254 670.137 776.645 667.421 776.823C664.706 777 662.726 777.889 662.472 777.483C662.218 777.077 664.198 775.401 667.294 775.224C670.391 775.046 672.7 776.467 672.497 776.823Z" fill="#263238"/>
<path d="M746.302 327.993C746.302 327.993 761.885 389.871 762.24 420.886C762.595 451.901 757.494 542.712 757.494 542.712C756.986 551.418 739.728 774.995 739.728 774.995L680.34 775.655L681.507 560.86L679.35 400.125L681.888 318.907L746.302 327.993Z" fill="#263238"/>
<path d="M619.86 308.221C616.992 310.125 608.007 339.389 601.586 376.064C595.165 412.739 585.749 401.444 592.12 450.403C599.328 505.834 608.845 539.971 609.175 570.377C609.505 600.783 617.347 650.707 616.51 686.696C615.672 722.686 619.048 776.239 619.048 776.239L680.441 775.528L684.68 535.91L681.913 316.216L619.86 308.221Z" fill="#263238"/>
<path d="M684.07 775.604C683.715 775.604 682.497 695.173 681.38 595.961C680.263 496.748 679.654 416.292 680.01 416.266C680.365 416.241 681.583 496.697 682.7 595.935C683.817 695.173 684.451 775.604 684.07 775.604Z" fill="#455A64"/>
<path d="M609.226 355.429C609.352 355.175 611.891 356.648 616.408 357.637C622.325 358.884 628.471 358.48 634.174 356.47C639.868 354.571 644.828 350.942 648.361 346.089C649.709 344.009 650.624 341.678 651.051 339.236C651.376 341.843 650.695 344.475 649.148 346.597C645.698 351.841 640.571 355.76 634.605 357.713C628.721 359.787 622.356 360.079 616.306 358.551C614.5 358.064 612.748 357.392 611.078 356.546C610.411 356.264 609.787 355.888 609.226 355.429Z" fill="#455A64"/>
<path d="M723.257 352.714C724.572 355.293 726.064 357.777 727.723 360.15C729.71 362.255 731.829 364.23 734.068 366.064C731.161 365.143 728.585 363.395 726.656 361.033C724.726 358.67 723.527 355.797 723.206 352.764L723.257 352.714Z" fill="#455A64"/>
<path d="M680.06 420.53C679.908 420.175 684.476 418.221 689.172 414.414C693.867 410.606 696.786 406.647 697.166 406.799C695.556 410.226 693.092 413.18 690.009 415.378C687.199 417.934 683.769 419.71 680.06 420.53Z" fill="#455A64"/>
<path d="M688.613 397.637C689.519 397.734 690.428 397.48 691.151 396.927C691.986 396.232 692.559 395.274 692.775 394.211C693.03 392.735 693.174 391.241 693.207 389.744C693.639 383.018 694.298 373.729 695.136 363.475C695.973 353.221 696.786 343.932 697.445 337.206C697.775 334.084 698.08 331.419 698.308 329.262C698.367 328.283 698.529 327.313 698.79 326.369C698.917 327.346 698.917 328.335 698.79 329.313C698.79 331.47 698.537 334.135 698.359 337.282C697.928 344.008 697.268 353.323 696.43 363.576C695.593 373.83 694.781 383.119 694.121 389.82C694.037 391.359 693.816 392.888 693.461 394.388C693.164 395.584 692.442 396.63 691.43 397.333C689.73 398.449 688.512 397.637 688.613 397.637Z" fill="#455A64"/>
<path d="M684.629 331.064C684.006 331.097 683.396 331.253 682.834 331.523C682.273 331.793 681.77 332.172 681.355 332.638C680.911 333.103 680.574 333.66 680.368 334.27C680.162 334.879 680.092 335.526 680.162 336.165C680.285 336.909 680.637 337.595 681.17 338.127C681.702 338.66 682.388 339.012 683.131 339.135C683.831 339.229 684.544 339.125 685.188 338.835C685.832 338.545 686.382 338.081 686.776 337.495C687.169 336.908 687.391 336.223 687.415 335.517C687.439 334.811 687.265 334.113 686.913 333.501C685.872 331.394 684.121 331.166 684.223 330.962C684.324 330.759 684.629 330.81 685.339 330.962C686.341 331.338 687.183 332.046 687.725 332.967C688.168 333.66 688.43 334.453 688.488 335.273C688.545 336.093 688.396 336.915 688.055 337.663C687.584 338.576 686.846 339.325 685.939 339.81C685.033 340.295 684.001 340.493 682.979 340.379C681.952 340.223 681.003 339.738 680.275 338.996C679.548 338.255 679.081 337.297 678.944 336.267C678.863 335.458 678.978 334.642 679.278 333.887C679.578 333.131 680.056 332.459 680.67 331.927C681.04 331.536 681.484 331.222 681.976 331.004C682.468 330.787 682.999 330.669 683.538 330.658C684.299 330.759 684.654 330.988 684.629 331.064Z" fill="#455A64"/>
<path d="M596.206 210.659C596.206 210.659 589.15 269.034 586.891 280.937C584.633 292.841 577.07 304.82 576.74 322.079C576.41 339.338 577.755 412.434 577.755 412.434L593.922 412.84C593.922 412.84 610.139 317.815 617.601 301.546C625.063 285.277 627.118 256.47 627.118 256.47L622.651 219.085L596.206 210.659Z" fill="#C78976"/>
<path d="M577.678 412.434L570.42 440.581L575.674 464.845L605.266 469.489C605.266 469.489 606.967 466.951 603.693 464.033C600.419 461.114 587.018 459.134 587.018 459.134L587.83 433.424L587.602 412.333L577.678 412.434Z" fill="#C78976"/>
<path d="M593.769 410.937C593.769 412.485 596.536 421.977 595.546 429.109C594.556 436.241 591.993 450.429 591.993 450.429C591.993 450.429 591.993 458.322 591.003 458.728C590.013 459.134 585.47 459.896 584.302 456.951C583.135 454.007 584.886 439.566 584.302 438.982C583.322 434.15 582.593 429.27 582.12 424.363L582.907 412.333L593.769 410.937Z" fill="#C78976"/>
<path d="M671.71 145.608L641.432 151.827L664.249 209.897L697.039 220.1L721.734 214.72L743.383 183.349L747.317 167.994L736.809 148.146L671.71 145.608Z" fill="#C78976"/>
<path d="M755.388 156.344C755.388 156.344 781.173 161.598 786.249 181.725C791.325 201.852 798 237.892 798 237.892L753.027 255.075L755.388 156.344Z" fill="#005C99"/>
<path d="M734.576 152.055L761.123 157.943L756.809 246.775C756.809 246.775 753.89 310.227 752.469 315.303C751.047 320.379 752.469 326.622 746.91 329.034C741.352 331.445 620.012 319.16 617.118 314.947C614.225 310.734 620.595 289.567 621.89 279.085C623.184 268.602 620.722 217.816 621.154 214.973C621.585 212.131 634.58 150.329 634.58 150.329L651.533 150.151C651.533 150.151 656.838 201.953 691.278 204.39C725.718 206.826 734.576 152.055 734.576 152.055Z" fill="#005C99"/>
<path d="M575.42 234.922C575.42 234.922 603.82 161.522 613.489 155.735C619.958 152.201 627.209 150.343 634.58 150.329L624.2 252.207L575.42 234.922Z" fill="#005C99"/>
<path d="M624.58 212.562C624.758 212.562 623.667 215.506 622.778 220.354C621.641 226.683 621.547 233.156 622.499 239.516C623.48 245.869 625.477 252.022 628.413 257.74C630.722 262.003 632.55 264.541 632.55 264.541C632.037 264.032 631.577 263.47 631.179 262.866C629.995 261.257 628.935 259.56 628.007 257.79C621.683 246.287 619.658 232.909 622.296 220.049C622.682 218.119 623.208 216.219 623.87 214.364C624.05 213.743 624.288 213.139 624.58 212.562V212.562Z" fill="#263238"/>
<path d="M750.286 278.729C750.29 278.064 750.358 277.401 750.489 276.75C750.641 275.455 750.997 273.602 751.504 271.344C752.494 266.826 754.347 260.709 756.58 254.009C758.545 248.312 760.18 242.507 761.479 236.623C761.961 234.364 762.265 232.537 762.443 231.242C762.474 230.576 762.603 229.917 762.824 229.288C762.891 229.955 762.891 230.626 762.824 231.293C762.688 233.115 762.45 234.929 762.113 236.724C760.942 242.638 759.364 248.464 757.392 254.161C755.184 260.861 753.23 266.851 752.113 271.394C751.555 273.628 751.124 275.43 750.87 276.699C750.747 277.394 750.552 278.075 750.286 278.729V278.729Z" fill="#263238"/>
<path d="M767.468 203.044C767.542 201.671 767.764 200.31 768.128 198.984C768.661 196.446 769.549 193.095 770.666 189.39C771.783 185.684 773.204 182.41 774.143 180.075C774.612 178.784 775.225 177.549 775.97 176.395C775.648 177.726 775.206 179.026 774.651 180.278C773.788 182.664 772.595 185.963 771.402 189.618C770.209 193.273 769.27 196.674 768.61 199.11C768.348 200.453 767.966 201.77 767.468 203.044Z" fill="#263238"/>
<path d="M621.687 156.903C621.867 157.385 621.986 157.888 622.042 158.4C622.22 159.39 622.423 160.811 622.651 162.562C623.108 166.09 623.616 170.963 623.895 176.344C624.174 181.725 624.225 186.649 624.149 190.202C624.149 191.979 624.149 193.4 623.971 194.39C623.968 194.911 623.909 195.43 623.794 195.938C623.599 194.033 623.531 192.116 623.59 190.202C623.59 186.674 623.388 181.776 623.108 176.395C622.829 171.014 622.423 166.243 622.093 162.613C621.858 160.718 621.722 158.812 621.687 156.903V156.903Z" fill="#263238"/>
<path d="M693.791 180.786C698.757 179.434 703.967 179.243 709.019 180.227C703.979 180.981 698.872 181.168 693.791 180.786V180.786Z" fill="#BF654E"/>
<path d="M666.99 179.06C669.775 178.62 672.619 178.723 675.365 179.364C678.181 179.567 680.934 180.29 683.487 181.496C680.689 181.57 677.893 181.298 675.162 180.684C672.382 180.475 669.638 179.929 666.99 179.06V179.06Z" fill="#BF654E"/>
<path d="M744.22 446.672L583.034 814.234L571.537 808.65L736.606 433.119L744.22 446.672Z" fill="#E0E0E0"/>
<path d="M744.22 446.672C744.22 446.672 743.56 445.606 742.291 443.398L736.454 433.246H736.759C718.485 475.53 652.803 625.478 574.481 803.624L572.146 808.954L571.816 808.091L583.338 813.701L582.45 814.03C627.372 711.747 667.726 619.945 696.836 553.677C711.455 520.682 723.257 493.855 731.404 475.352C735.515 466.165 738.688 459.007 740.845 454.109C741.936 451.723 742.748 449.87 743.383 448.601C744.017 447.332 744.271 446.723 744.271 446.723C744.271 446.723 744.043 447.358 743.51 448.601L741.149 454.109L731.911 475.2L697.75 553.601C668.716 619.996 628.463 711.95 583.541 814.411L583.262 815.02L582.653 814.716L571.131 809.132L570.572 808.853L570.826 808.269L573.161 802.965C651.584 624.945 717.648 475.2 736.454 433.043V432.738L736.632 433.043L742.342 443.373C743.687 445.606 744.22 446.672 744.22 446.672Z" fill="#263238"/>
<path d="M763.839 386.8C763.839 386.8 768.661 419.388 766.707 422.332C766.02 423.225 765.115 423.927 764.08 424.371C763.045 424.815 761.914 424.987 760.793 424.87C760.793 424.87 758.966 438.246 754.524 439.287C753.295 439.595 751.999 439.491 750.834 438.992C749.67 438.492 748.701 437.624 748.078 436.52C748.078 436.52 749.677 447.281 744.22 446.342C742.595 446.045 741.049 445.416 739.678 444.494C738.307 443.573 737.14 442.379 736.251 440.987V433.068C736.251 433.068 731.835 437.078 730.312 433.068C728.789 429.058 729.982 403.881 729.982 403.881L743.053 377.51L763.839 386.8Z" fill="#C78976"/>
<path d="M793.939 239.719C793.939 239.719 798.025 303.755 794.853 318.729C791.681 333.704 763.839 386.8 763.839 386.8L742.951 377.637C742.951 377.637 755.997 341.445 758.712 322.181C761.428 302.917 764.397 251.115 764.397 251.115L793.939 239.719Z" fill="#C78976"/>
<path d="M586.079 815.731C586.917 811.518 589.15 801.619 589.15 801.619L576.46 796.01L568.415 808.396C568.275 808.605 568.182 808.843 568.144 809.092C568.105 809.34 568.122 809.595 568.192 809.837C568.262 810.078 568.384 810.302 568.55 810.491C568.716 810.681 568.921 810.832 569.151 810.934L584.201 816.949C584.405 817.005 584.618 817.018 584.828 816.985C585.037 816.953 585.236 816.877 585.414 816.762C585.591 816.647 585.742 816.495 585.857 816.318C585.972 816.14 586.047 815.94 586.079 815.731V815.731Z" fill="#1CBF51"/>
<path d="M648.006 36.6241C647.777 31.548 652.549 27.3602 657.371 25.4059C662.193 23.4516 667.523 22.6648 671.837 19.7207C675.619 17.1826 678.157 13.0456 681.355 9.74615C685.297 5.65261 690.259 2.68286 695.73 1.14218C701.2 -0.398506 706.982 -0.454549 712.482 0.979793C717.981 2.41414 723 5.28712 727.021 9.30345C731.042 13.3198 733.922 18.3346 735.363 23.8324C737.292 31.1927 736.124 39.9744 730.287 44.949C723.587 50.7357 713.536 49.5936 704.907 47.9185C696.278 46.2434 686.355 44.5937 679.172 49.7713C674.832 52.8931 672.396 57.9184 669.782 62.5884C667.167 67.2585 663.843 72.0047 658.817 73.8067C653.792 75.6087 646.889 72.6645 646.635 67.3346" fill="#603F00"/>
<path d="M751.682 66.4209C750.007 62.4361 747.114 59.0605 745.413 55.0757C743.332 49.9996 743.256 44.5428 742.038 39.289C740.71 33.5711 738.039 28.2519 734.246 23.7725C730.452 19.2931 725.645 15.7827 720.224 13.5322C714.803 11.2817 708.923 10.3561 703.073 10.832C697.222 11.308 691.569 13.1717 686.583 16.2689L647.777 38.4768C648.64 44.9996 643.031 49.4159 640.163 52.8169C637.295 56.2179 635.976 58.0707 635.925 62.4615C635.925 67.5376 639.148 70.4563 638.666 75.5578C638.336 78.8065 634.174 84.3903 633.006 87.4359C631.382 91.7253 632.194 97.9942 633.26 102.461C635.12 108.486 638.523 113.92 643.133 118.223C653.396 127.073 666 132.767 679.426 134.618C692.055 135.698 704.774 134.954 717.191 132.41C723.44 131.515 729.351 129.015 734.347 125.154C739.342 121.293 743.251 116.202 745.692 110.38C749.375 102.515 752.02 94.2057 753.56 85.6593C755.021 79.2115 754.362 72.4643 751.682 66.4209Z" fill="#603F00"/>
<path d="M740.49 56.4209C739.347 41.5987 729.272 23.4262 714.501 25.3044L668.513 37.5886C666.358 37.8596 664.382 38.9262 662.973 40.5792C661.565 42.2321 660.825 44.352 660.899 46.5225L667.193 155.329C667.294 157.176 667.751 158.985 668.538 160.659C672.04 168.273 683.766 187.258 708.283 179.187C714.323 177.232 717.013 170.583 718.13 163.755C718.13 162.943 718.46 162.232 718.46 161.446C718.993 156.384 718.993 151.279 718.46 146.217C718.46 137.233 718.46 133.527 718.46 133.527C718.46 133.527 737.368 130.126 740.946 105.329C742.647 92.9435 741.682 72.766 740.49 56.4209Z" fill="#C78976"/>
<path d="M734.068 74.3143C734.089 75.1405 733.784 75.9418 733.219 76.5449C732.654 77.148 731.874 77.5046 731.048 77.5376C730.645 77.5759 730.239 77.5327 729.853 77.4107C729.467 77.2888 729.11 77.0905 728.802 76.8277C728.494 76.5649 728.242 76.243 728.061 75.881C727.881 75.519 727.774 75.1243 727.749 74.7204C727.728 73.8984 728.03 73.1008 728.589 72.4984C729.149 71.896 729.922 71.5366 730.744 71.4971C731.148 71.4588 731.556 71.5018 731.943 71.6235C732.33 71.7451 732.689 71.943 732.999 72.2055C733.309 72.468 733.563 72.7898 733.747 73.1519C733.93 73.5141 734.04 73.9093 734.068 74.3143V74.3143Z" fill="#263238"/>
<path d="M701.456 74.6696C701.47 75.4966 701.163 76.297 700.6 76.9028C700.037 77.5085 699.261 77.8725 698.435 77.9183C698.032 77.9531 697.625 77.9077 697.239 77.7847C696.853 77.6617 696.496 77.4635 696.187 77.2017C695.878 76.9398 695.623 76.6194 695.439 76.2589C695.254 75.8984 695.143 75.5049 695.111 75.1011C695.096 74.2741 695.403 73.4738 695.966 72.868C696.529 72.2622 697.305 71.8982 698.131 71.8524C698.535 71.8142 698.943 71.8571 699.33 71.9788C699.717 72.1005 700.077 72.2984 700.386 72.5608C700.696 72.8233 700.95 73.1451 701.134 73.5073C701.318 73.8694 701.427 74.2646 701.456 74.6696V74.6696Z" fill="#263238"/>
<path d="M702.115 68.426C701.608 68.629 699.146 66.9539 695.288 66.294C691.431 65.6341 688.334 66.294 687.979 65.9895C687.624 65.6849 688.36 65.3803 689.705 65.0504C691.663 64.6411 693.685 64.6411 695.644 65.0504C697.558 65.3347 699.386 66.0366 700.999 67.1062C702.065 67.7661 702.344 68.3498 702.115 68.426Z" fill="#263238"/>
<path d="M735.667 65.761C735.236 66.1417 732.393 65.3042 728.51 65.761C724.627 66.2179 721.937 67.9945 721.48 67.7661C721.023 67.5377 721.658 67.0554 722.825 66.3194C724.548 65.3061 726.454 64.6421 728.434 64.3651C730.344 64.0402 732.301 64.1354 734.17 64.6443C735.414 65.1519 735.87 65.6087 735.667 65.761Z" fill="#263238"/>
<path d="M714.348 93.0959C716.144 92.5219 718.001 92.164 719.881 92.0299C720.744 92.0299 721.582 91.7507 721.708 91.1416C721.771 90.2531 721.558 89.367 721.099 88.6035C720.236 86.4969 719.348 84.2889 718.561 82.0046C716.099 76.4099 714.08 70.6308 712.521 64.7205C715.445 70.0921 717.924 75.6946 719.932 81.4716L722.47 88.1213C723.03 89.1614 723.209 90.3641 722.977 91.5223C722.855 91.8323 722.663 92.11 722.417 92.3344C722.171 92.5588 721.876 92.7238 721.556 92.8167C721.077 92.956 720.583 93.0327 720.084 93.0451C718.183 93.3146 716.254 93.3317 714.348 93.0959V93.0959Z" fill="#263238"/>
<path d="M718.358 133.451C706.715 133.784 695.207 130.885 685.111 125.075C685.111 125.075 693.664 142.08 718.384 139.415L718.358 133.451Z" fill="#BF654E"/>
<path d="M714.12 101.344C713.462 100.529 712.604 99.8981 711.63 99.5113C710.657 99.1245 709.6 98.9953 708.562 99.1364C707.811 99.2118 707.084 99.4398 706.425 99.8064C705.766 100.173 705.189 100.671 704.729 101.268C704.277 101.839 704.012 102.535 703.971 103.263C703.93 103.99 704.115 104.712 704.501 105.329C705.057 105.936 705.782 106.362 706.583 106.552C707.384 106.742 708.224 106.688 708.993 106.395C710.598 105.811 712.067 104.904 713.308 103.73C713.697 103.464 714.026 103.118 714.272 102.715C714.405 102.53 714.476 102.308 714.476 102.081C714.476 101.853 714.405 101.631 714.272 101.446" fill="#BF654E"/>
<path d="M705.44 95.5831C705.973 95.5831 706.049 99.2633 709.247 101.852C712.445 104.441 716.404 103.959 716.429 104.39C716.455 104.822 715.566 105.126 713.891 105.177C711.725 105.238 709.605 104.538 707.902 103.197C706.274 101.892 705.211 100.011 704.932 97.9435C704.78 96.4969 705.186 95.5831 705.44 95.5831Z" fill="#263238"/>
<path d="M705.871 57.9184C705.542 58.8575 702.141 58.4514 698.258 58.9844C694.374 59.5174 691.05 60.6596 690.491 59.8474C690.263 59.4413 690.796 58.5529 692.09 57.6392C693.808 56.4957 695.775 55.7819 697.826 55.5581C699.876 55.2799 701.963 55.4886 703.917 56.1672C705.262 56.7509 705.998 57.4616 705.871 57.9184Z" fill="#263238"/>
<path d="M734.855 57.0047C734.271 57.7661 731.911 57.0047 729.094 57.0047C726.277 57.0047 723.866 57.5884 723.307 56.8016C723.054 56.3955 723.307 55.6088 724.475 54.8727C725.857 53.9567 727.487 53.4871 729.145 53.5276C730.808 53.5515 732.425 54.0731 733.789 55.025C734.779 55.8118 735.134 56.624 734.855 57.0047Z" fill="#263238"/>
<path d="M730.211 20.8882L724.094 14.34C713.156 19.4161 700.846 20.3806 689.045 22.7663C677.243 25.1521 664.934 29.4922 657.701 39.1368C651.077 47.9438 649.833 59.5681 649.579 70.5579C649.416 83.264 649.89 95.9703 651.001 108.629C651.053 111.743 651.672 114.822 652.828 117.715C653.418 119.156 654.376 120.418 655.604 121.375C656.833 122.332 658.291 122.952 659.833 123.172C664.731 123.502 668.335 118.375 669.198 113.553C670.061 108.73 669.198 103.68 670.416 98.9334C671.254 95.71 672.954 92.7405 673.639 89.441C674.807 83.4004 671.99 77.0299 673.639 71.0909C675.746 63.4767 684.197 59.5935 691.786 57.2077C699.374 54.8219 707.902 52.1316 711.607 45.152C711.963 48.223 712.293 51.2941 712.623 54.3651C718.942 51.6396 724.135 46.8293 727.336 40.7368C730.537 34.6444 731.552 27.6384 730.211 20.8882Z" fill="#603F00"/>
<path d="M718.688 42.0302C724.903 32.9936 727.477 21.9441 725.896 11.0913C726.524 12.5908 726.885 14.1884 726.962 15.8121C727.383 19.7161 727.143 23.6631 726.252 27.4872C725.352 31.3076 723.825 34.9525 721.734 38.2739C720.937 39.688 719.907 40.9579 718.688 42.0302V42.0302Z" fill="#9D8443"/>
<path d="M652.853 92.1821C652.606 91.8217 652.409 91.4288 652.27 91.0146C651.94 90.2278 651.508 89.0603 651.001 87.5121C649.632 83.1365 648.98 78.5681 649.072 73.9843C649.163 67.1074 651.389 60.4288 655.442 54.8727C657.849 51.6006 660.93 48.883 664.477 46.9032C668.342 44.9072 672.54 43.6342 676.863 43.1469C681.228 42.5124 685.517 42.2332 689.552 41.5987C693.455 41.0545 697.258 39.9518 700.846 38.3246C706.908 35.4927 712.207 31.2553 716.303 25.9643C719.094 22.409 721.289 18.4229 722.8 14.1623L723.485 12.1572L723.891 10.6344C723.982 10.2179 724.109 9.81022 724.272 9.41614C724.269 9.84514 724.209 10.2719 724.094 10.6852C724.094 11.142 723.891 11.6496 723.79 12.2334L723.181 14.2892C721.806 18.6693 719.676 22.7751 716.886 26.4211C712.772 31.8677 707.387 36.2245 701.202 39.1114C697.539 40.8038 693.649 41.9497 689.654 42.5124C685.542 43.1723 681.253 43.4515 676.964 44.086C672.765 44.5711 668.685 45.791 664.909 47.69C661.489 49.5868 658.506 52.1809 656.153 55.3042C652.188 60.6967 649.958 67.1674 649.757 73.8574C649.607 78.3796 650.146 82.8982 651.356 87.2583C651.787 88.8065 652.168 89.974 652.422 90.7862C652.613 91.2354 652.758 91.7032 652.853 92.1821V92.1821Z" fill="#9D8443"/>
<path d="M648.463 42.8424C647.814 43.6533 647.212 44.5007 646.661 45.3805C644.911 47.5501 643.012 49.5941 640.976 51.4972C639.625 52.9416 638.418 54.5142 637.372 56.1926C636.226 58.2114 635.574 60.4726 635.468 62.7915C635.329 65.3393 635.718 67.8883 636.61 70.2788C637.499 72.6646 638.717 75.1011 637.879 77.4361C637.042 79.7711 634.961 81.6493 633.844 84.0858C632.73 86.3646 632.025 88.8217 631.763 91.3446C631.416 95.5795 631.952 99.8402 633.336 103.857C634.239 106.522 635.333 109.117 636.61 111.624C637.028 112.574 637.547 113.476 638.159 114.314C638.412 114.314 636.331 110.279 634.25 103.553C633.033 99.649 632.611 95.5412 633.006 91.4716C633.277 89.1055 633.956 86.8042 635.011 84.6696C636.51 82.4772 637.891 80.2066 639.148 77.8676C639.592 76.455 639.592 74.9401 639.148 73.5275C638.793 72.1824 638.235 70.9895 637.803 69.7966C636.948 67.5817 636.559 65.2143 636.661 62.8423C636.741 60.708 637.296 58.6184 638.285 56.7256C639.268 55.1007 640.389 53.5637 641.636 52.1317C643.613 50.1361 645.421 47.9798 647.041 45.6851C647.681 44.8298 648.162 43.8671 648.463 42.8424V42.8424Z" fill="#9D8443"/>
<path d="M678.893 31.4465C675.519 31.7659 672.125 31.8337 668.741 31.6495C665.439 31.0224 662.183 30.1745 658.995 29.1115C661.69 31.4006 665.059 32.7463 668.589 32.9439C672.094 33.6204 675.725 33.0928 678.893 31.4465V31.4465Z" fill="#9D8443"/>
<path d="M686.507 22.4111C686.304 21.9796 680.746 25.5075 673.005 26.345C668.312 26.6208 663.604 26.1757 659.046 25.0252C660.191 25.8949 661.519 26.4936 662.929 26.7765C666.22 27.7469 669.67 28.0574 673.081 27.6902C676.501 27.3015 679.826 26.3135 682.903 24.7714C684.259 24.2515 685.488 23.4466 686.507 22.4111Z" fill="#9D8443"/>
<path d="M718.841 73.6036C718.866 75.9025 719.572 78.1422 720.87 80.0397C722.168 81.9371 724 83.407 726.133 84.2635C728.267 85.12 730.606 85.3246 732.856 84.8514C735.106 84.3783 737.165 83.2487 738.772 81.6054C740.38 79.9621 741.464 77.8789 741.888 75.6194C742.312 73.3598 742.057 71.0252 741.154 68.9109C740.251 66.7966 738.742 64.9975 736.816 63.7411C734.891 62.4847 732.636 61.8274 730.338 61.8524C728.811 61.8689 727.303 62.186 725.899 62.7856C724.495 63.3851 723.223 64.2554 722.155 65.3466C721.088 66.4378 720.245 67.7286 719.677 69.1454C719.108 70.5621 718.824 72.077 718.841 73.6036V73.6036Z" fill="#263238"/>
<path d="M718.841 73.6036C718.743 72.6443 718.803 71.6754 719.018 70.7356C719.376 69.1079 720.076 67.575 721.071 66.2384C722.066 64.9019 723.335 63.7923 724.792 62.9834C726.248 62.1745 727.861 61.6848 729.522 61.5467C731.182 61.4085 732.853 61.6252 734.424 62.1824C736.754 62.9857 738.78 64.49 740.222 66.489C741.664 68.4881 742.454 70.8842 742.481 73.3492C742.509 75.8142 741.774 78.2275 740.377 80.2586C738.98 82.2897 736.989 83.8392 734.678 84.6949C732.803 85.3938 730.782 85.6068 728.802 85.3138C726.823 85.0209 724.95 84.2317 723.358 83.0198C721.22 81.4096 719.711 79.1022 719.094 76.497C718.853 75.5528 718.767 74.5755 718.841 73.6036C718.841 73.6036 718.841 74.6442 719.374 76.4209C720.104 78.8977 721.629 81.0651 723.714 82.5883C725.405 83.8319 727.409 84.5795 729.501 84.7473C731.594 84.9151 733.692 84.4964 735.559 83.5382C737.427 82.58 738.991 81.1203 740.075 79.3228C741.159 77.5252 741.721 75.4611 741.697 73.362C741.674 71.263 741.066 69.212 739.941 67.4393C738.817 65.6667 737.221 64.2425 735.332 63.3265C733.443 62.4106 731.336 62.0392 729.248 62.2541C727.16 62.4689 725.173 63.2614 723.511 64.5427C721.457 66.1091 719.984 68.3149 719.323 70.8117C718.841 72.5884 718.841 73.629 718.841 73.6036Z" fill="#455A64"/>
<path d="M684.147 74.0097C684.177 76.3074 684.887 78.5446 686.188 80.4387C687.489 82.3327 689.323 83.7987 691.457 84.6513C693.59 85.5039 695.929 85.7049 698.177 85.229C700.425 84.753 702.482 83.6214 704.087 81.9772C705.692 80.3329 706.774 78.2498 707.196 75.9909C707.618 73.7321 707.36 71.3989 706.457 69.286C705.553 67.1732 704.044 65.3756 702.119 64.1203C700.195 62.8649 697.941 62.2082 695.643 62.2331C694.115 62.2497 692.605 62.5676 691.199 63.1688C689.793 63.7699 688.52 64.6424 687.452 65.7363C686.384 66.8302 685.542 68.124 684.975 69.5437C684.408 70.9634 684.126 72.481 684.147 74.0097V74.0097Z" fill="#263238"/>
<path d="M684.146 74.0097C684.048 73.0419 684.108 72.0647 684.324 71.1163C684.9 68.4979 686.361 66.1583 688.461 64.492C690.025 63.2484 691.878 62.4197 693.848 62.0825C695.818 61.7453 697.841 61.9106 699.729 62.563C702.069 63.3611 704.103 64.8647 705.552 66.8667C707.002 68.8688 707.795 71.2708 707.823 73.7423C707.85 76.2137 707.112 78.6331 705.708 80.6673C704.304 82.7014 702.304 84.2504 699.983 85.101C698.112 85.7954 696.096 86.0059 694.121 85.713C692.147 85.4202 690.279 84.6335 688.689 83.4259C686.544 81.8061 685.028 79.4915 684.4 76.8777C684.158 75.9421 684.073 74.9731 684.146 74.0097C684.146 74.0097 684.146 75.0503 684.705 76.8015C685.412 79.2824 686.931 81.4542 689.019 82.969C690.71 84.2126 692.715 84.9602 694.807 85.128C696.9 85.2958 698.997 84.8771 700.865 83.9189C702.733 82.9607 704.296 81.501 705.381 79.7034C706.465 77.9059 707.027 75.8418 707.003 73.7427C706.979 71.6436 706.371 69.5927 705.247 67.8201C704.123 66.0474 702.526 64.6232 700.638 63.7073C698.749 62.7913 696.642 62.4199 694.554 62.6348C692.466 62.8496 690.479 63.6421 688.816 64.9235C686.767 66.4938 685.295 68.698 684.629 71.1925C684.172 72.9691 684.248 74.0097 684.146 74.0097Z" fill="#455A64"/>
<path d="M705.694 67.36C705.694 67.2331 706.176 66.4971 707.496 65.7103C709.231 64.7053 711.201 64.1761 713.206 64.1761C715.212 64.1761 717.181 64.7053 718.917 65.7103C720.211 66.4971 720.82 67.2585 720.719 67.3854C718.407 66.1523 715.827 65.5072 713.206 65.5072C710.586 65.5072 708.006 66.1523 705.694 67.3854V67.36Z" fill="#263238"/>
<path d="M699.527 78.2483C696.801 76.1572 694.405 73.6673 692.42 70.8625C693.861 71.7676 695.153 72.889 696.253 74.1874C697.561 75.3504 698.668 76.7227 699.527 78.2483V78.2483Z" fill="#455A64"/>
<path d="M699.273 80.8879C699.121 81.0401 697.852 80.101 696.557 78.6544C695.263 77.2077 694.527 75.7864 694.704 75.6595C694.882 75.5326 695.897 76.7001 697.242 78.1975C698.588 79.695 699.425 80.7102 699.273 80.8879Z" fill="#455A64"/>
<path d="M732.673 77.8167C731.234 76.8694 729.942 75.7148 728.84 74.3904C727.549 73.2494 726.445 71.9135 725.566 70.431C728.308 72.5046 730.706 74.997 732.673 77.8167V77.8167Z" fill="#455A64"/>
<path d="M732.419 80.4563C732.266 80.6086 730.972 79.6695 729.703 78.1975C728.434 76.7254 727.673 75.3295 727.85 75.228C728.028 75.1264 729.043 76.2686 730.388 77.766C731.733 79.2635 732.546 80.2787 732.419 80.4563Z" fill="#455A64"/>
<path d="M717.978 133.832C720.356 134.155 722.633 135.007 724.64 136.324C726.647 137.642 728.333 139.392 729.576 141.446C730.462 143.487 731.718 145.345 733.282 146.928C734.67 147.781 736.152 148.47 737.698 148.984C739.858 150.097 741.741 151.68 743.208 153.617C744.675 155.554 745.689 157.796 746.175 160.177C747.152 164.941 747.152 169.854 746.175 174.618C745.277 180.087 743.919 185.47 742.114 190.709C741.44 193.148 740.225 195.403 738.561 197.308C737.301 198.473 735.787 199.327 734.139 199.803C732.491 200.279 730.755 200.363 729.069 200.05C725.684 199.388 722.569 197.747 720.11 195.329C718.426 193.889 717.133 192.047 716.353 189.973C715.745 187.619 715.641 185.163 716.049 182.765C717.673 166.522 720.059 150.126 717.927 133.933" fill="#603F00"/>
<path d="M691.862 94.7456C691.71 94.7456 691.862 93.9588 692.319 92.9436C693.086 91.6058 694.235 90.5268 695.618 89.8443C697.001 89.1617 698.556 88.9065 700.085 89.1111C701.227 89.2888 701.836 89.6949 701.785 89.8471C699.881 89.9895 698.004 90.3821 696.202 91.0147C693.461 92.3852 692.192 94.9233 691.862 94.7456Z" fill="#BF654E"/>
<path d="M666.787 131.573C667.492 136.19 667.747 140.865 667.548 145.532C667.808 150.2 667.63 154.882 667.015 159.517C666.31 154.891 666.047 150.208 666.228 145.532C665.985 140.872 666.172 136.199 666.787 131.573V131.573Z" fill="#BF654E"/>
</g>
<defs>
<clipPath id="clip0_154_466">
<rect width="264" height="817" fill="white" transform="translate(534)"/>
</clipPath>
</defs>
</svg>
