<svg width="3340" height="754" viewBox="0 0 3340 754" fill="none" xmlns="http://www.w3.org/2000/svg">
<mask id="mask0_648_176" style="mask-type:alpha" maskUnits="userSpaceOnUse" x="0" y="0" width="3340" height="754">
<rect width="3340" height="754" fill="#C4C4C4"/>
</mask>
<g mask="url(#mask0_648_176)">
<path d="M403.157 694.871C518.323 647.881 609.07 586.615 675.398 511.071C757.398 418.015 805.765 306.078 820.498 175.261C826.024 133.802 827.866 86.8171 826.024 34.3051L823.266 31.541H740.349L737.584 32.921V34.3051C739.427 76.6784 738.966 113.53 736.201 144.859C717.78 395.448 592.947 574.638 361.701 682.429C314.717 704.541 259.901 724.35 197.253 741.855C195.411 741.855 194.49 743.237 194.49 746.002L197.253 747.384H198.63L263.585 736.328C316.099 725.271 362.623 711.452 403.157 694.871Z" fill="#D2DA34"/>
<path d="M620.736 239.448C620.736 204.44 614.747 166.665 602.769 126.123L597.241 120.602H561.305C436.007 120.602 328.21 149.163 237.915 206.286C196.449 233.923 163.741 265.248 139.792 300.26C115.835 338.036 103.858 376.734 103.861 416.354C103.861 462.413 120.445 507.097 153.612 550.406C186.776 592.787 231.462 626.875 287.668 652.671L290.433 654.059L291.811 652.671C389.478 616.737 468.715 561.918 529.522 488.214C590.332 411.742 620.736 328.82 620.736 239.448Z" fill="#3BAB47"/>
<path d="M461.803 705.201C498.657 709.808 531.824 712.108 561.303 712.101C688.45 712.101 795.787 683.08 883.314 625.038C926.619 598.323 959.327 566.998 981.437 531.061C1005.39 496.052 1017.37 457.816 1017.37 416.354C1017.55 382.064 1008.99 348.292 992.495 318.23C975.914 288.749 951.959 260.186 920.63 232.54H917.865L916.483 235.312C907.267 351.401 860.278 452.749 775.517 539.354C690.756 625.959 586.643 679.859 463.179 701.054L460.419 703.818L461.803 705.201Z" fill="#226DA8"/>
<path d="M1207.45 580.166L1261.35 654.796H1308.34L1233.71 553.911L1304.19 479.287H1258.59L1186.72 556.676V479.287H1149.41V654.796H1186.72V600.896L1207.45 580.166Z" fill="#226DA8"/>
<path d="M1443.76 600.896V591.217C1443.76 570.033 1438.69 552.99 1428.56 540.088C1416.58 525.354 1400 517.985 1378.81 517.981C1359.47 517.981 1343.81 524.891 1331.82 538.71C1318.93 552.53 1312.48 569.112 1312.48 588.458C1312.48 608.724 1319.39 625.307 1333.21 638.206C1346.1 651.103 1362.69 657.552 1382.96 657.552C1405.07 657.552 1423.49 649.261 1438.24 632.678L1416.12 613.333C1405.99 622.545 1394.93 627.151 1382.96 627.151C1364.53 627.151 1353.94 618.4 1351.17 600.896H1443.76L1443.76 600.896ZM1349.79 577.396C1352.55 558.058 1362.23 548.386 1378.81 548.381C1395.4 548.377 1405.07 558.048 1407.83 577.396H1349.79Z" fill="#226DA8"/>
<path d="M1547.41 520.749H1517.01V486.197H1478.32V520.749H1463.12V552.532H1478.32V616.106C1478.32 642.821 1491.21 656.18 1517.01 656.183C1527.55 656.3 1537.96 653.932 1547.41 649.27V618.87C1541.83 621.646 1535.67 623.067 1529.44 623.017C1521.15 623.017 1517 618.872 1517.01 610.581V552.532H1547.41L1547.41 520.749Z" fill="#226DA8"/>
<path d="M1696.66 600.896V591.217C1696.66 570.033 1691.59 552.99 1681.46 540.088C1669.47 525.354 1652.89 517.985 1631.7 517.981C1612.35 517.981 1596.69 524.891 1584.72 538.71C1571.81 552.53 1565.36 569.112 1565.37 588.458C1565.37 608.724 1572.28 625.307 1586.09 638.206C1598.99 651.103 1615.58 657.552 1635.85 657.552C1657.95 657.552 1675.92 649.261 1689.74 632.678L1669.01 613.333C1658.88 622.545 1647.82 627.151 1635.85 627.151C1617.42 627.151 1606.83 618.4 1604.06 600.896H1696.65L1696.66 600.896ZM1602.68 577.396C1605.45 558.058 1615.12 548.386 1631.7 548.381C1648.29 548.377 1657.96 558.048 1660.72 577.396H1602.68Z" fill="#226DA8"/>
<path d="M1847.29 654.796V567.729C1847.29 534.564 1832.09 517.981 1801.69 517.98C1786.95 517.98 1774.05 525.349 1762.99 540.087V520.744H1725.68V654.795H1762.99V580.16C1762.99 561.734 1770.82 552.523 1786.49 552.527C1802.15 552.531 1809.98 561.742 1809.98 580.16V654.795L1847.29 654.796Z" fill="#226DA8"/>
<path d="M1930.2 551.147C1949.55 551.147 1959.22 559.439 1959.22 576.023V578.782C1950.93 575.102 1939.88 573.262 1926.06 573.26C1890.12 573.26 1872.16 587.54 1872.16 616.098C1872.16 642.813 1887.82 656.171 1919.14 656.173C1936.65 656.173 1950 650.646 1959.22 639.592V654.792H1995.15V577.409C1995.15 538.716 1975.34 519.368 1935.72 519.364C1916.37 519.364 1899.33 523.048 1884.59 530.416L1892.88 559.439C1905.78 553.911 1918.22 551.147 1930.2 551.148L1930.2 551.147ZM1959.22 600.894V607.805C1959.22 623.467 1949.55 631.3 1930.2 631.305C1916.38 631.305 1909.47 625.777 1909.47 614.72C1909.47 601.825 1918.22 595.377 1935.73 595.375C1943.88 595.34 1951.93 597.231 1959.22 600.894V600.894Z" fill="#226DA8"/>
<path d="M2162.36 624.386V520.745H2125.06V538.709C2113.08 524.883 2098.8 517.974 2082.22 517.98C2065.64 517.987 2051.82 523.515 2040.76 534.563C2028.79 545.613 2022.8 560.814 2022.8 580.164V581.548C2022.8 599.978 2028.79 615.178 2040.76 627.147C2051.82 638.201 2065.64 643.73 2082.22 643.733C2098.8 643.737 2113.08 636.365 2125.06 621.618V628.532C2125.06 652.483 2112.62 664.459 2087.75 664.459C2071.69 664.602 2055.91 660.297 2042.15 652.021L2029.71 681.036C2047.7 690.15 2067.58 694.887 2087.75 694.861C2137.5 694.861 2162.37 671.368 2162.37 624.383L2162.36 624.386ZM2125.06 580.159V581.543C2125.06 590.754 2121.84 598.126 2115.39 603.66C2109.86 609.186 2102.49 611.948 2093.28 611.948C2083.14 611.948 2075.31 609.186 2069.78 603.66C2063.34 598.127 2060.11 590.755 2060.11 581.543V580.159C2060.11 559.893 2071.16 549.76 2093.28 549.76C2102.49 549.76 2109.86 552.526 2115.39 558.06C2121.83 563.587 2125.06 570.955 2125.06 580.163L2125.06 580.159Z" fill="#226DA8"/>
<path d="M2275.69 576.023V578.782C2267.4 575.102 2256.34 573.262 2242.52 573.26C2206.59 573.26 2188.62 587.54 2188.62 616.098C2188.62 628.998 2193.23 639.131 2202.44 646.498C2210.74 652.944 2221.33 656.167 2234.22 656.17C2252.65 656.17 2266.01 650.643 2274.31 639.589V654.789H2311.62V577.406C2311.62 538.713 2291.81 519.365 2252.19 519.361C2234.1 519.292 2216.21 523.058 2199.68 530.413L2209.35 559.436C2222.25 553.908 2234.69 551.144 2246.66 551.145C2266.01 551.145 2275.69 559.437 2275.69 576.021L2275.69 576.023ZM2275.69 600.892V607.803C2275.69 623.465 2266.01 631.298 2246.66 631.303C2232.85 631.303 2225.94 625.775 2225.94 614.718C2225.94 601.823 2234.69 595.375 2252.19 595.373C2258.64 595.373 2266.48 597.213 2275.69 600.894L2275.69 600.892Z" fill="#226DA8"/>
<path d="M2382.1 654.789V613.33L2395.92 599.511L2430.47 654.789H2473.31L2420.79 573.253L2471.93 520.744H2426.33L2382.11 569.105V472.374H2344.79V654.789H2382.1Z" fill="#226DA8"/>
<path d="M2610.12 600.896V591.217C2610.12 570.033 2605.05 552.99 2594.92 540.088C2582.94 525.354 2566.36 517.985 2545.17 517.981C2525.82 517.981 2510.16 524.891 2498.19 538.71C2485.28 552.53 2478.83 569.112 2478.83 588.458C2478.83 608.724 2485.74 625.307 2499.56 638.206C2512.46 651.103 2529.04 657.552 2549.31 657.552C2571.43 657.552 2589.39 649.261 2603.21 632.678L2582.49 613.333C2572.35 622.545 2561.3 627.151 2549.32 627.151C2530.9 627.151 2520.3 618.4 2517.54 600.896H2610.12L2610.12 600.896ZM2545.17 548.385C2561.75 548.385 2571.42 558.056 2574.18 577.399H2516.14C2518.91 558.061 2528.58 548.389 2545.17 548.385Z" fill="#226DA8"/>
<path d="M2717.91 558.059H2719.29V517.982C2699.95 517.055 2685.67 527.19 2676.45 548.389V520.743H2639.14V654.786H2676.45V605.041C2676.45 573.714 2690.27 558.053 2717.91 558.059Z" fill="#226DA8"/>
<path d="M2784.24 472.377H2744.16V505.545H2784.24V472.377ZM2782.86 520.747H2744.16V649.261C2744.16 659.398 2740.01 664.465 2731.72 664.461H2723.43V693.489L2740.01 694.873C2768.57 694.873 2782.85 680.592 2782.85 652.03L2782.86 520.747Z" fill="#226DA8"/>
<path d="M2874.07 519.362C2855.98 519.293 2838.08 523.06 2821.55 530.414L2831.22 559.437C2844.12 553.909 2856.56 551.145 2868.53 551.146C2887.88 551.146 2897.55 559.438 2897.55 576.022V578.781C2889.26 575.101 2878.21 573.261 2864.39 573.259C2828.45 573.259 2810.49 587.539 2810.5 616.097C2810.5 628.997 2815.1 639.13 2824.32 646.497C2832.6 652.943 2843.2 656.167 2856.1 656.169C2874.52 656.169 2887.88 650.643 2896.17 639.589V654.788H2933.48V577.405C2933.48 538.712 2913.68 519.364 2874.07 519.36L2874.07 519.362ZM2846.42 614.714C2846.42 601.819 2855.17 595.371 2872.68 595.37C2880.05 595.37 2888.34 597.21 2897.55 600.891V607.802C2897.55 623.464 2887.42 631.297 2867.15 631.302C2853.33 631.302 2846.42 625.774 2846.42 614.716L2846.42 614.714Z" fill="#226DA8"/>
<path d="M3021.94 519.362C3003.85 519.293 2985.95 523.06 2969.43 530.414L2979.09 559.437C2991.99 553.909 3004.43 551.145 3016.41 551.146C3034.84 551.146 3044.05 559.438 3044.05 576.022V578.781C3036.68 575.101 3026.08 573.261 3012.26 573.259C2976.34 573.259 2958.37 587.539 2958.36 616.097C2958.36 628.997 2962.97 639.13 2972.18 646.497C2980.48 652.943 2991.07 656.167 3003.97 656.169C3022.4 656.169 3035.75 650.643 3044.04 639.589V654.788H3081.35V577.405C3081.35 538.712 3061.55 519.364 3021.94 519.36L3021.94 519.362ZM2994.29 614.714C2994.29 601.819 3003.05 595.371 3020.55 595.37C3027.93 595.37 3036.22 597.21 3045.43 600.891V607.802C3045.43 623.464 3035.29 631.297 3015.02 631.302C3001.2 631.302 2994.29 625.774 2994.3 614.716L2994.29 614.714Z" fill="#226DA8"/>
<path d="M3236.14 654.796V567.729C3236.14 534.564 3220.94 517.981 3190.54 517.98C3175.8 517.98 3162.9 525.349 3151.85 540.087V520.744H3113.15V654.795H3151.85V580.16C3151.85 561.734 3159.68 552.523 3175.34 552.527C3190.99 552.531 3198.83 561.742 3198.84 580.16V654.795L3236.14 654.796Z" fill="#226DA8"/>
<path d="M1322.15 401.899C1335.97 389.001 1342.88 371.496 1342.88 349.383C1342.88 336.49 1338.74 324.514 1330.44 313.455C1322.15 301.481 1312.02 294.111 1300.04 291.346V289.965C1308.34 288.12 1315.25 282.592 1320.77 273.38C1327.11 264.514 1330.49 253.878 1330.45 242.98C1330.45 224.55 1323.54 208.887 1309.72 195.99C1295.9 183.094 1277.93 176.645 1255.82 176.644H1149.41V424.013H1255.82C1284.38 424.013 1306.49 416.641 1322.15 401.899V401.899ZM1243.39 273.38H1207.46V226.397H1243.39C1261.81 226.397 1271.02 234.229 1271.02 249.891C1271.02 265.554 1261.81 273.384 1243.39 273.38ZM1207.46 318.98H1248.92C1270.11 318.98 1280.7 328.192 1280.7 346.618C1280.7 365.043 1270.1 374.256 1248.92 374.257H1207.46V318.98Z" fill="#3BAB47"/>
<path d="M1550.17 198.755C1532.67 184.013 1508.71 176.643 1478.31 176.645H1384.34V424.014H1443.76V346.62H1478.31C1508.71 346.62 1532.67 339.249 1550.17 324.509C1567.68 308.849 1576.43 288.118 1576.43 262.318C1576.43 235.605 1567.68 214.417 1550.17 198.753L1550.17 198.755ZM1478.31 231.923C1502.26 231.923 1514.24 242.055 1514.24 262.318C1514.24 281.674 1502.27 291.349 1478.31 291.345H1443.76V231.925L1478.31 231.923Z" fill="#3BAB47"/>
<path d="M1762.99 176.644H1703.57V316.22C1703.57 353.989 1686.06 372.873 1651.05 372.873C1631.71 372.873 1617.43 365.504 1608.21 350.764L1550.17 365.97C1557.54 384.392 1570.44 399.133 1588.86 410.191C1607.29 422.165 1628.02 428.153 1651.05 428.155C1684.22 428.155 1710.93 418.48 1731.2 399.13C1752.39 378.864 1762.99 350.766 1762.99 314.837V176.644Z" fill="#3BAB47"/>
<path d="M1964.75 191.835C1947.24 178.938 1926.51 172.492 1902.56 172.497C1876.76 172.497 1855.11 179.864 1837.61 194.597C1820.11 209.344 1811.35 226.388 1811.36 245.731C1811.36 277.057 1832.54 300.55 1874.92 316.21C1886.9 320.817 1901.64 326.345 1919.14 332.795C1932.04 338.324 1938.49 345.695 1938.49 354.906C1938.49 368.725 1928.36 375.635 1908.09 375.634C1882.29 375.634 1865.71 363.197 1858.34 338.324L1801.68 353.524C1818.26 403.272 1852.81 428.149 1905.32 428.156C1933.88 428.156 1957.38 421.245 1975.8 407.423C1993.31 392.681 2002.06 374.256 2002.06 352.147C2002.06 318.978 1976.72 293.183 1926.05 274.76L1888.74 260.942C1877.68 255.409 1872.15 248.958 1872.16 241.591C1872.16 229.612 1881.37 223.623 1899.8 223.624C1921.91 223.624 1936.19 234.219 1942.64 255.409L1999.3 240.209C1993.77 220.86 1982.25 204.735 1964.75 191.835Z" fill="#3BAB47"/>
</g>
</svg>
