<svg width="3602" height="650" viewBox="0 0 3602 650" fill="none" xmlns="http://www.w3.org/2000/svg">
<g clip-path="url(#clip0_654_724)">
<path d="M772.718 170.072H772.593L701.103 200.599L603.29 242.366C602.908 242.527 602.498 242.61 602.083 242.613C601.669 242.615 601.258 242.535 600.874 242.378L499.959 200.512L426.713 170.122L426.601 170.072H426.476C425.321 170.074 424.213 170.533 423.395 171.35C422.578 172.168 422.118 173.276 422.117 174.431V363.743C422.118 364.899 422.578 366.007 423.395 366.824C424.213 367.642 425.321 368.101 426.476 368.103H772.718C773.874 368.101 774.982 367.642 775.799 366.824C776.616 366.007 777.076 364.899 777.077 363.743V174.431C777.076 173.276 776.616 172.168 775.799 171.35C774.982 170.533 773.874 170.074 772.718 170.072V170.072Z" fill="white"/>
<path d="M773.029 171.318C772.902 171.318 772.778 171.279 772.673 171.206L600.45 51.2648C599.926 50.9015 599.303 50.7074 598.665 50.7085C598.028 50.7095 597.405 50.9058 596.883 51.2709L425.9 171.205C425.764 171.299 425.597 171.336 425.435 171.307C425.273 171.278 425.129 171.186 425.034 171.051C424.939 170.916 424.902 170.75 424.93 170.587C424.959 170.425 425.05 170.28 425.184 170.185L596.167 50.2511C596.9 49.7401 597.771 49.4653 598.663 49.4639C599.556 49.4624 600.428 49.7343 601.162 50.2429L773.385 170.184C773.494 170.26 773.576 170.368 773.619 170.494C773.661 170.619 773.663 170.755 773.623 170.882C773.584 171.008 773.504 171.119 773.398 171.197C773.291 171.276 773.161 171.318 773.029 171.318H773.029Z" fill="#3F3D56"/>
<path d="M435.67 175.57L598.834 54.6445L763.237 184.174L607.241 276.65L522.549 257.346L435.67 175.57Z" fill="#E6E6E6"/>
<path d="M529.698 333.769H449.091C448.092 333.771 447.134 333.375 446.427 332.67C445.719 331.965 445.321 331.008 445.32 330.009C445.318 329.01 445.713 328.052 446.419 327.344C447.124 326.637 448.081 326.239 449.08 326.237H529.698C530.697 326.236 531.656 326.631 532.363 327.336C533.07 328.042 533.468 328.999 533.47 329.998C533.471 330.996 533.076 331.955 532.371 332.662C531.666 333.369 530.708 333.768 529.709 333.769H529.698Z" fill="#007BFF"/>
<path d="M478.011 317.578H449.091C448.093 317.579 447.135 317.183 446.428 316.478C445.721 315.773 445.324 314.816 445.322 313.817C445.321 312.819 445.716 311.861 446.42 311.154C447.125 310.447 448.082 310.048 449.08 310.046H478.011C478.506 310.045 478.996 310.141 479.453 310.33C479.911 310.518 480.327 310.795 480.677 311.144C481.028 311.493 481.306 311.908 481.496 312.365C481.686 312.822 481.784 313.311 481.785 313.806C481.786 314.301 481.689 314.791 481.5 315.248C481.312 315.706 481.035 316.121 480.685 316.472C480.336 316.822 479.921 317.1 479.464 317.29C479.007 317.479 478.517 317.577 478.022 317.578H478.011Z" fill="#007BFF"/>
<path d="M601.129 242.923C600.516 242.924 599.91 242.805 599.342 242.573L498.714 200.819V70.1228C498.715 68.9671 499.175 67.8591 499.992 67.0419C500.809 66.2247 501.917 65.765 503.073 65.7637H696.122C697.277 65.765 698.385 66.2247 699.202 67.0419C700.02 67.8591 700.479 68.9671 700.481 70.1228V200.91L700.292 200.991L602.97 242.553C602.387 242.797 601.761 242.923 601.129 242.923V242.923Z" fill="white"/>
<path d="M601.129 243.234C600.476 243.235 599.829 243.108 599.224 242.861L498.402 201.027V70.1227C498.404 68.8844 498.896 67.6972 499.772 66.8217C500.648 65.9461 501.835 65.4535 503.073 65.4521H696.122C697.36 65.4535 698.547 65.9461 699.422 66.8217C700.298 67.6972 700.791 68.8844 700.792 70.1227V201.116L603.092 242.839C602.471 243.1 601.803 243.234 601.129 243.234V243.234ZM499.648 200.195L599.699 241.71C600.632 242.088 601.677 242.082 602.606 241.692L699.547 200.294V70.1227C699.545 69.2146 699.184 68.3441 698.542 67.702C697.9 67.0599 697.03 66.6988 696.122 66.6977H503.073C502.165 66.6988 501.294 67.0599 500.652 67.702C500.01 68.3441 499.649 69.2146 499.648 70.1227L499.648 200.195Z" fill="#3F3D56"/>
<path d="M771.784 170.072H771.659L700.169 200.599L602.356 242.366C601.974 242.527 601.564 242.61 601.149 242.613C600.734 242.615 600.323 242.535 599.94 242.378L499.025 200.512L425.779 170.122L425.667 170.072H425.542C424.386 170.074 423.278 170.533 422.461 171.35C421.644 172.168 421.184 173.276 421.183 174.431V363.743C421.184 364.899 421.644 366.007 422.461 366.824C423.278 367.642 424.386 368.101 425.542 368.103H771.784C772.94 368.101 774.048 367.642 774.865 366.824C775.682 366.007 776.142 364.899 776.143 363.743V174.431C776.142 173.276 775.682 172.168 774.865 171.35C774.048 170.533 772.94 170.074 771.784 170.072V170.072ZM774.898 363.743C774.897 364.569 774.569 365.361 773.985 365.945C773.401 366.529 772.61 366.857 771.784 366.857H425.542C424.716 366.857 423.925 366.529 423.341 365.945C422.757 365.361 422.429 364.569 422.428 363.743V174.431C422.43 173.626 422.742 172.853 423.3 172.272C423.858 171.692 424.619 171.35 425.424 171.318L499.025 201.857L599.46 243.53C600.548 243.973 601.766 243.966 602.848 243.512L700.169 201.95L771.909 171.318C772.712 171.352 773.471 171.695 774.027 172.275C774.584 172.855 774.896 173.628 774.898 174.431V363.743Z" fill="#3F3D56"/>
<path d="M585.463 114.619H516.962C515.642 114.617 514.377 114.091 513.444 113.157C512.511 112.223 511.987 110.957 511.987 109.637C511.987 108.317 512.511 107.051 513.444 106.117C514.377 105.183 515.642 104.657 516.962 104.655H585.463C586.783 104.657 588.048 105.183 588.981 106.117C589.914 107.051 590.438 108.317 590.438 109.637C590.438 110.957 589.914 112.223 588.981 113.157C588.048 114.091 586.783 114.617 585.463 114.619V114.619Z" fill="#007BFF"/>
<path d="M549.967 93.4452H516.962C515.641 93.4452 514.373 92.9204 513.439 91.9861C512.505 91.0518 511.98 89.7846 511.98 88.4633C511.98 87.1421 512.505 85.8749 513.439 84.9406C514.373 84.0063 515.641 83.4814 516.962 83.4814H549.967C551.288 83.4814 552.555 84.0063 553.49 84.9406C554.424 85.8749 554.949 87.1421 554.949 88.4633C554.949 89.7846 554.424 91.0518 553.49 91.9861C552.555 92.9204 551.288 93.4452 549.967 93.4452V93.4452Z" fill="#007BFF"/>
<path d="M650.831 164.437H546.211C544.891 164.436 543.626 163.91 542.693 162.976C541.76 162.042 541.236 160.776 541.236 159.456C541.236 158.135 541.76 156.869 542.693 155.935C543.626 155.001 544.891 154.476 546.211 154.474H650.831C652.151 154.476 653.416 155.001 654.349 155.935C655.282 156.869 655.806 158.135 655.806 159.456C655.806 160.776 655.282 162.042 654.349 162.976C653.416 163.91 652.151 164.436 650.831 164.437V164.437Z" fill="#CCCCCC"/>
<path d="M650.831 187.479H546.211C544.89 187.479 543.622 186.955 542.688 186.02C541.754 185.086 541.229 183.819 541.229 182.498C541.229 181.176 541.754 179.909 542.688 178.975C543.622 178.041 544.89 177.516 546.211 177.516H650.831C652.152 177.516 653.419 178.041 654.353 178.975C655.288 179.909 655.813 181.176 655.813 182.498C655.813 183.819 655.288 185.086 654.353 186.02C653.419 186.955 652.152 187.479 650.831 187.479V187.479Z" fill="#CCCCCC"/>
<path d="M769.853 219.25C796.016 219.25 817.224 198.041 817.224 171.878C817.224 145.716 796.016 124.507 769.853 124.507C743.691 124.507 722.482 145.716 722.482 171.878C722.482 198.041 743.691 219.25 769.853 219.25Z" fill="#007BFF"/>
<path d="M765.339 191.875L751.161 173.644L759.406 167.231L766.119 175.863L788.798 151.922L796.382 159.107L765.339 191.875Z" fill="white"/>
<path d="M239.765 451.853C238.939 450.637 238.389 449.255 238.155 447.804C237.921 446.352 238.008 444.867 238.409 443.453C238.811 442.039 239.518 440.73 240.48 439.619C241.443 438.507 242.637 437.621 243.979 437.021L240.898 401.419L257.224 410.267L257.647 442.719C258.505 445.04 258.482 447.596 257.582 449.902C256.682 452.207 254.967 454.103 252.763 455.229C250.559 456.354 248.018 456.633 245.623 456.011C243.227 455.388 241.143 453.909 239.765 451.853H239.765Z" fill="#9F616A"/>
<path d="M242.859 429.33L242.726 428.994L224.714 383.491L221.856 297.238L222.336 297.204C225.854 296.953 229.386 297.407 232.725 298.54C236.064 299.673 239.143 301.461 241.782 303.801C244.42 306.14 246.564 308.983 248.088 312.163C249.612 315.343 250.486 318.795 250.657 322.317L253.299 368.691L260.787 428.334L242.859 429.33Z" fill="#E5E5E5"/>
<path d="M127.8 619.505L138.154 626.07L168.401 589.255L153.119 579.567L127.8 619.505Z" fill="#9F616A"/>
<path d="M127.302 614.45L147.693 627.378L147.694 627.378C151.14 629.563 153.577 633.028 154.469 637.01C155.361 640.992 154.635 645.165 152.45 648.612L152.182 649.034L118.796 627.868L127.302 614.45Z" fill="#2F2E41"/>
<path d="M225.692 637.15L237.952 637.149L243.784 589.861L225.69 589.862L225.692 637.15Z" fill="#9F616A"/>
<path d="M222.565 633.147L246.709 633.146H246.71C250.791 633.147 254.704 634.768 257.59 637.653C260.475 640.539 262.096 644.452 262.096 648.533V649.033L222.566 649.034L222.565 633.147Z" fill="#2F2E41"/>
<path d="M191.003 439.016L219.866 612.618C219.866 612.618 214.188 626.813 222.704 628.705C231.221 630.598 250.147 626.813 250.147 626.813C250.147 626.813 255.825 612.618 247.308 610.726L231.221 429.337L191.003 439.016Z" fill="#2F2E41"/>
<path d="M208.037 442.112L188.041 523.286L137.064 597.306C137.064 597.306 118.138 599.199 128.547 609.608C138.956 620.018 143.688 620.964 143.688 620.964C143.688 620.964 159.775 619.071 158.829 611.501L221.502 537.73L250.621 439.273L208.037 442.112Z" fill="#2F2E41"/>
<path d="M190.587 449.261L185.759 421.703C178.487 414.103 192.227 395.312 193.759 393.271L192.86 381.585C192.094 381.454 191.393 381.072 190.867 380.5C186.356 375.899 186.659 357.749 186.674 356.978L181.696 305.193L194.082 297.968L225.404 296.958L240.7 310.215L255.433 445.566L254.908 445.596L190.587 449.261Z" fill="#E5E5E5"/>
<path d="M201.427 458.927C200.165 458.173 199.083 457.152 198.258 455.936C197.433 454.719 196.884 453.336 196.652 451.885C196.419 450.433 196.507 448.948 196.91 447.534C197.313 446.121 198.021 444.812 198.984 443.702L181.159 412.73L199.694 413.858L213.78 443.096C215.538 444.838 216.596 447.164 216.754 449.634C216.912 452.105 216.158 454.547 214.635 456.498C213.113 458.449 210.927 459.774 208.493 460.222C206.059 460.669 203.545 460.209 201.427 458.927H201.427Z" fill="#9F616A"/>
<path d="M185.642 429.965L170.265 394.321L167.695 321.51C167.607 319.118 168.177 316.747 169.342 314.656C170.506 312.564 172.222 310.832 174.302 309.647L192.041 298.808L195.868 375.352L207.315 421.099L185.642 429.965Z" fill="#E5E5E5"/>
<path d="M213.238 290.053C225.393 290.053 235.247 280.199 235.247 268.045C235.247 255.89 225.393 246.036 213.238 246.036C201.083 246.036 191.23 255.89 191.23 268.045C191.23 280.199 201.083 290.053 213.238 290.053Z" fill="#9F616A"/>
<path d="M221.196 235.548C199.031 229.156 192.74 247.527 192.74 247.527C182.056 254.615 188.745 263.502 188.745 263.502C186.049 264.1 191.439 279.876 193.237 279.477C194.196 279.264 196.662 282.208 198.753 284.999C199.47 284.998 200.186 285.067 200.89 285.205L196.832 270.192C196.832 270.192 210.511 268.096 214.704 261.507C218.717 255.202 231.926 253.212 235.685 257.423C235.907 256.212 236.362 255.056 237.025 254.019C237.539 253.231 238.21 252.558 238.996 252.043C235.673 237.919 221.196 235.548 221.196 235.548Z" fill="#2F2E41"/>
<path opacity="0.2" d="M196.224 347.464L194.996 391.275L210.238 423.401L196.224 346.299" fill="black"/>
<path d="M382 649.464H1C0.734784 649.464 0.480429 649.358 0.292892 649.171C0.105356 648.983 0 648.729 0 648.464C0 648.199 0.105356 647.944 0.292892 647.757C0.480429 647.569 0.734784 647.464 1 647.464H382C382.265 647.464 382.52 647.569 382.707 647.757C382.895 647.944 383 648.199 383 648.464C383 648.729 382.895 648.983 382.707 649.171C382.52 649.358 382.265 649.464 382 649.464Z" fill="#3F3D56"/>
<path d="M329.336 89.2782C329.013 89.087 328.642 88.9909 328.267 89.0007C327.891 89.0105 327.526 89.1259 327.213 89.3338C326.9 89.5416 326.652 89.8333 326.498 90.1756C326.343 90.5179 326.288 90.8969 326.339 91.269L327.882 102.592C327.904 102.759 327.892 102.929 327.849 103.091C327.8 103.251 327.72 103.4 327.611 103.527L318.965 113.771C318.676 114.101 318.506 114.518 318.483 114.956C318.46 115.394 318.585 115.826 318.838 116.185L318.847 116.198C319.089 116.56 319.445 116.831 319.858 116.967C320.272 117.103 320.719 117.097 321.129 116.95L327.374 114.83C327.581 114.762 327.802 114.751 328.015 114.799C328.228 114.847 328.424 114.951 328.581 115.102C328.699 115.211 328.793 115.343 328.857 115.49C328.921 115.637 328.954 115.796 328.954 115.956L329.198 138.205C329.2 138.527 329.281 138.844 329.434 139.128C329.586 139.412 329.805 139.654 330.072 139.834C330.338 140.014 330.643 140.127 330.962 140.164C331.281 140.201 331.604 140.161 331.904 140.048L378.512 122.223C378.863 122.089 379.17 121.859 379.396 121.559C379.622 121.259 379.76 120.901 379.792 120.526C379.824 120.151 379.749 119.775 379.577 119.441C379.405 119.107 379.142 118.828 378.818 118.637L378.184 118.26L329.336 89.2782V89.2782ZM327.128 91.1602C327.098 90.9368 327.131 90.7094 327.224 90.5041C327.318 90.2988 327.467 90.1239 327.655 89.9994C327.843 89.8749 328.062 89.806 328.288 89.8003C328.513 89.7947 328.735 89.8527 328.929 89.9676L377.761 118.941L378.411 119.326C378.604 119.441 378.761 119.609 378.864 119.809C378.966 120.009 379.011 120.234 378.992 120.458C378.973 120.683 378.891 120.897 378.756 121.077C378.621 121.257 378.438 121.396 378.229 121.477L331.621 139.301C331.441 139.37 331.247 139.394 331.056 139.371C330.864 139.349 330.681 139.281 330.521 139.172C330.362 139.063 330.231 138.918 330.14 138.748C330.049 138.578 330 138.389 329.997 138.196L329.753 115.947C329.754 115.727 329.716 115.508 329.642 115.301L377.092 120.753C377.277 120.776 377.464 120.734 377.621 120.634C377.779 120.533 377.896 120.381 377.953 120.204C378.01 120.026 378.003 119.834 377.933 119.661C377.863 119.488 377.735 119.345 377.571 119.256C377.532 119.234 377.49 119.216 377.446 119.202L328.686 102.925C328.697 102.778 328.693 102.63 328.671 102.484L327.128 91.1603L327.128 91.1602Z" fill="#F1F1F1"/>
<path d="M329.336 89.2782C329.013 89.087 328.642 88.9909 328.267 89.0007C327.891 89.0105 327.526 89.1259 327.213 89.3338C326.9 89.5416 326.652 89.8333 326.498 90.1756C326.343 90.5179 326.288 90.8969 326.339 91.269L327.882 102.592C327.904 102.759 327.892 102.929 327.849 103.091C327.8 103.251 327.72 103.4 327.611 103.527L318.965 113.771C318.676 114.101 318.506 114.518 318.483 114.956C318.46 115.394 318.585 115.826 318.838 116.185L318.847 116.198C319.089 116.56 319.445 116.831 319.858 116.967C320.272 117.103 320.719 117.097 321.129 116.95L327.374 114.83C327.581 114.762 327.802 114.751 328.015 114.799C328.228 114.847 328.424 114.951 328.581 115.102C328.699 115.211 328.793 115.343 328.857 115.49C328.921 115.637 328.954 115.796 328.954 115.956L329.198 138.205C329.2 138.527 329.281 138.844 329.434 139.128C329.586 139.412 329.805 139.654 330.072 139.834C330.338 140.014 330.643 140.127 330.962 140.164C331.281 140.201 331.604 140.161 331.904 140.048L378.512 122.223C378.863 122.089 379.17 121.859 379.396 121.559C379.622 121.259 379.76 120.901 379.792 120.526C379.824 120.151 379.749 119.775 379.577 119.441C379.405 119.107 379.142 118.828 378.818 118.637L378.184 118.26L329.336 89.2782V89.2782ZM327.128 91.1602C327.098 90.9368 327.131 90.7094 327.224 90.5041C327.318 90.2988 327.467 90.1239 327.655 89.9994C327.843 89.8749 328.062 89.806 328.288 89.8003C328.513 89.7947 328.735 89.8527 328.929 89.9676L377.761 118.941L378.411 119.326C378.604 119.441 378.761 119.609 378.864 119.809C378.966 120.009 379.011 120.234 378.992 120.458C378.973 120.683 378.891 120.897 378.756 121.077C378.621 121.257 378.438 121.396 378.229 121.477L331.621 139.301C331.441 139.37 331.247 139.394 331.056 139.371C330.864 139.349 330.681 139.28 330.521 139.172C330.362 139.063 330.231 138.918 330.14 138.748C330.049 138.578 330 138.389 329.997 138.196L329.753 115.947C329.753 115.727 329.716 115.508 329.642 115.301C329.537 115.003 329.361 114.734 329.13 114.519C329.098 114.487 329.063 114.458 329.028 114.429L329.026 114.425C328.764 114.209 328.452 114.064 328.118 114.002C327.784 113.941 327.44 113.966 327.118 114.075L320.871 116.197C320.624 116.286 320.355 116.289 320.106 116.207C319.858 116.124 319.645 115.959 319.501 115.74L319.497 115.734C319.343 115.52 319.268 115.26 319.282 114.997C319.296 114.734 319.399 114.483 319.574 114.287L328.221 104.043C328.313 103.936 328.393 103.819 328.459 103.693L328.463 103.691C328.527 103.571 328.578 103.445 328.615 103.314C328.652 103.188 328.676 103.057 328.686 102.925C328.698 102.778 328.693 102.63 328.671 102.484L327.128 91.1603V91.1602Z" fill="#E5E5E5"/>
<path d="M328.686 102.926L377.446 119.202C377.49 119.216 377.532 119.234 377.571 119.256C377.735 119.345 377.863 119.488 377.933 119.661C378.003 119.834 378.009 120.026 377.953 120.204C377.896 120.381 377.779 120.533 377.621 120.634C377.464 120.734 377.277 120.776 377.092 120.753L329.642 115.301L328.804 115.206L328.896 114.413L329.026 114.426L329.028 114.429L377.182 119.958L328.463 103.691L328.459 103.694L328.249 103.621L328.502 102.863L328.686 102.926Z" fill="#E5E5E5"/>
<path d="M873.112 42.2782L824.265 71.2597L823.631 71.6366C823.307 71.828 823.044 72.1069 822.872 72.4412C822.7 72.7754 822.625 73.1515 822.657 73.5262C822.689 73.9008 822.826 74.2588 823.053 74.559C823.279 74.8592 823.586 75.0894 823.937 75.2231L870.544 93.0476C870.845 93.1614 871.168 93.2014 871.487 93.1643C871.805 93.1272 872.111 93.0139 872.377 92.8342C872.644 92.654 872.863 92.4116 873.015 92.1277C873.167 91.8439 873.248 91.5273 873.251 91.2052L873.495 68.9563C873.495 68.7959 873.528 68.6372 873.592 68.4902C873.656 68.3432 873.75 68.211 873.867 68.102C874.025 67.9514 874.221 67.8466 874.434 67.7988C874.646 67.7509 874.868 67.7618 875.075 67.8303L881.319 69.9498C881.729 70.0972 882.177 70.1032 882.59 69.9669C883.004 69.8307 883.36 69.5599 883.602 69.1978L883.611 69.1846C883.864 68.8264 883.989 68.3936 883.966 67.9559C883.942 67.5181 883.773 67.1008 883.484 66.7711L874.837 56.5275C874.729 56.3999 874.648 56.2515 874.6 56.0914C874.557 55.9288 874.545 55.7593 874.566 55.5924L876.11 44.269C876.161 43.8969 876.106 43.5179 875.951 43.1756C875.796 42.8333 875.548 42.5416 875.235 42.3338C874.923 42.126 874.557 42.0105 874.182 42.0007C873.807 41.9909 873.436 42.087 873.112 42.2782V42.2782ZM875.321 44.1603L873.777 55.4836C873.756 55.6298 873.751 55.778 873.763 55.9254L825.002 72.2017C824.959 72.2157 824.917 72.234 824.877 72.2561C824.713 72.3448 824.585 72.4881 824.516 72.6611C824.446 72.8341 824.439 73.026 824.496 73.2035C824.553 73.3811 824.67 73.5332 824.827 73.6336C824.985 73.7339 825.172 73.7762 825.357 73.7531L872.807 68.3011C872.733 68.5085 872.695 68.727 872.695 68.9471L872.451 91.1959C872.449 91.3887 872.4 91.5782 872.309 91.7481C872.218 91.918 872.087 92.0634 871.927 92.172C871.768 92.2805 871.585 92.3489 871.393 92.3715C871.202 92.394 871.008 92.37 870.827 92.3014L824.22 74.4769C824.01 74.3956 823.828 74.2571 823.693 74.077C823.558 73.8969 823.476 73.6826 823.457 73.4584C823.438 73.2342 823.482 73.0092 823.585 72.8089C823.688 72.6087 823.845 72.4413 824.038 72.3259L824.688 71.9405L873.519 42.9675C873.713 42.8526 873.936 42.7947 874.161 42.8003C874.387 42.8059 874.606 42.8749 874.794 42.9994C874.982 43.1238 875.131 43.2987 875.224 43.504C875.318 43.7093 875.351 43.9367 875.321 44.1602V44.1603Z" fill="#F1F1F1"/>
<path d="M873.112 42.2782L824.265 71.2597L823.631 71.6366C823.307 71.828 823.044 72.1069 822.872 72.4412C822.7 72.7754 822.625 73.1515 822.657 73.5262C822.689 73.9008 822.826 74.2588 823.053 74.559C823.279 74.8592 823.586 75.0894 823.937 75.2231L870.544 93.0476C870.845 93.1614 871.168 93.2014 871.487 93.1643C871.805 93.1272 872.111 93.0139 872.377 92.8342C872.644 92.654 872.863 92.4116 873.015 92.1277C873.167 91.8439 873.248 91.5273 873.251 91.2052L873.495 68.9563C873.495 68.7959 873.528 68.6372 873.592 68.4902C873.656 68.3432 873.75 68.211 873.867 68.102C874.025 67.9514 874.221 67.8466 874.434 67.7988C874.646 67.7509 874.868 67.7618 875.075 67.8303L881.319 69.9498C881.729 70.0972 882.177 70.1032 882.59 69.9669C883.004 69.8307 883.36 69.5599 883.602 69.1978L883.611 69.1846C883.864 68.8264 883.989 68.3936 883.966 67.9559C883.942 67.5181 883.773 67.1008 883.484 66.7711L874.837 56.5275C874.729 56.3999 874.648 56.2515 874.6 56.0914C874.557 55.9288 874.545 55.7593 874.566 55.5924L876.11 44.269C876.161 43.8969 876.106 43.5179 875.951 43.1756C875.796 42.8333 875.548 42.5416 875.235 42.3338C874.923 42.126 874.557 42.0105 874.182 42.0007C873.807 41.9909 873.436 42.087 873.112 42.2782V42.2782ZM875.321 44.1603L873.777 55.4836C873.756 55.6299 873.751 55.778 873.763 55.9254C873.773 56.0572 873.797 56.1876 873.834 56.3144C873.871 56.445 873.922 56.5714 873.986 56.6912L873.989 56.6935C874.055 56.8187 874.136 56.936 874.228 57.0433L882.875 67.2867C883.05 67.4833 883.153 67.7337 883.167 67.9967C883.181 68.2597 883.105 68.5196 882.952 68.7337L882.948 68.7402C882.804 68.9595 882.591 69.1238 882.342 69.2066C882.094 69.2895 881.824 69.2859 881.578 69.1965L875.331 67.0748C875.009 66.9658 874.665 66.9408 874.331 67.0022C873.997 67.0636 873.684 67.2092 873.422 67.4254L873.42 67.4286C873.385 67.458 873.351 67.4873 873.319 67.5188C873.087 67.7341 872.912 68.0026 872.807 68.3011C872.733 68.5084 872.695 68.727 872.695 68.9471L872.451 91.1959C872.449 91.3887 872.4 91.5781 872.309 91.7481C872.218 91.918 872.087 92.0634 871.927 92.1719C871.768 92.2805 871.585 92.3489 871.393 92.3714C871.202 92.394 871.008 92.37 870.827 92.3014L824.22 74.4769C824.01 74.3956 823.828 74.2571 823.693 74.077C823.558 73.8969 823.476 73.6826 823.457 73.4584C823.438 73.2342 823.482 73.0092 823.585 72.8089C823.688 72.6087 823.845 72.4413 824.038 72.3259L824.688 71.9405L873.519 42.9676C873.713 42.8526 873.936 42.7947 874.161 42.8003C874.387 42.806 874.606 42.8749 874.794 42.9994C874.982 43.1239 875.131 43.2987 875.224 43.504C875.318 43.7093 875.351 43.9368 875.321 44.1602V44.1603Z" fill="#E5E5E5"/>
<path d="M873.947 55.8633L874.2 56.621L873.989 56.6937L873.986 56.6914L825.266 72.9576L873.42 67.4288L873.423 67.4256L873.552 67.4134L873.645 68.2059L872.807 68.3013L825.357 73.7533C825.172 73.7764 824.984 73.7342 824.827 73.6338C824.67 73.5335 824.553 73.3814 824.496 73.2038C824.439 73.0262 824.446 72.8343 824.516 72.6613C824.585 72.4883 824.713 72.3451 824.877 72.2564C824.917 72.2342 824.959 72.216 825.002 72.202L873.763 55.9256L873.947 55.8633Z" fill="#E5E5E5"/>
<path d="M455.126 447.221C454.792 447.393 454.513 447.654 454.32 447.977C454.128 448.3 454.03 448.67 454.039 449.046C454.047 449.421 454.161 449.787 454.368 450.1C454.574 450.414 454.865 450.663 455.207 450.819L465.603 455.566C465.755 455.637 465.892 455.737 466.006 455.861C466.116 455.987 466.198 456.135 466.248 456.294L470.285 469.077C470.41 469.498 470.672 469.864 471.029 470.117C471.387 470.371 471.819 470.497 472.257 470.475L472.273 470.474C472.709 470.463 473.128 470.307 473.464 470.03C473.8 469.753 474.034 469.372 474.129 468.947L475.675 462.536C475.727 462.324 475.837 462.131 475.991 461.977C476.145 461.823 476.338 461.713 476.55 461.66C476.705 461.619 476.866 461.61 477.025 461.635C477.183 461.659 477.335 461.716 477.471 461.802L496.406 473.486C496.68 473.656 496.991 473.757 497.312 473.78C497.633 473.803 497.955 473.747 498.25 473.618C498.544 473.489 498.803 473.292 499.005 473.042C499.207 472.792 499.346 472.498 499.41 472.183L509.252 423.264C509.327 422.896 509.296 422.514 509.164 422.162C509.031 421.81 508.802 421.503 508.502 421.275C508.203 421.048 507.845 420.91 507.47 420.877C507.096 420.844 506.72 420.917 506.385 421.088L505.727 421.423L455.126 447.221V447.221ZM455.537 450.094C455.332 450 455.157 449.85 455.034 449.662C454.91 449.473 454.842 449.254 454.837 449.028C454.833 448.803 454.891 448.58 455.007 448.387C455.123 448.193 455.291 448.036 455.492 447.934L506.077 422.144L506.75 421.801C506.951 421.699 507.176 421.656 507.4 421.676C507.624 421.697 507.838 421.779 508.017 421.915C508.197 422.051 508.334 422.235 508.414 422.445C508.494 422.655 508.514 422.884 508.47 423.105L498.628 472.024C498.59 472.213 498.506 472.39 498.385 472.539C498.263 472.689 498.107 472.808 497.931 472.884C497.754 472.961 497.561 472.994 497.368 472.98C497.176 472.966 496.99 472.907 496.826 472.805L477.89 461.121C477.704 461.004 477.499 460.919 477.284 460.871L507.251 423.679C507.369 423.534 507.434 423.354 507.433 423.167C507.432 422.981 507.366 422.8 507.247 422.657C507.127 422.514 506.961 422.418 506.778 422.384C506.594 422.35 506.405 422.382 506.242 422.473C506.202 422.495 506.164 422.521 506.129 422.55L466.313 455.065C466.195 454.976 466.067 454.901 465.932 454.841L455.537 450.094V450.094Z" fill="#F1F1F1"/>
<path d="M455.126 447.221C454.792 447.393 454.513 447.654 454.32 447.977C454.128 448.3 454.03 448.67 454.039 449.046C454.047 449.421 454.161 449.787 454.368 450.1C454.574 450.414 454.865 450.663 455.207 450.819L465.603 455.566C465.755 455.637 465.892 455.737 466.006 455.861C466.116 455.987 466.198 456.135 466.248 456.294L470.285 469.077C470.41 469.498 470.672 469.864 471.029 470.117C471.387 470.371 471.819 470.497 472.257 470.475L472.273 470.474C472.709 470.463 473.128 470.307 473.464 470.03C473.8 469.753 474.034 469.372 474.129 468.947L475.675 462.536C475.727 462.324 475.837 462.131 475.991 461.977C476.145 461.823 476.338 461.713 476.55 461.66C476.705 461.619 476.866 461.61 477.025 461.635C477.183 461.659 477.335 461.716 477.471 461.802L496.406 473.486C496.68 473.656 496.991 473.757 497.312 473.78C497.633 473.803 497.955 473.747 498.25 473.618C498.544 473.489 498.803 473.292 499.005 473.042C499.207 472.792 499.346 472.498 499.41 472.183L509.252 423.264C509.327 422.896 509.296 422.514 509.164 422.162C509.031 421.81 508.802 421.503 508.502 421.275C508.203 421.048 507.845 420.91 507.47 420.877C507.096 420.844 506.72 420.917 506.385 421.088L505.727 421.423L455.126 447.221V447.221ZM455.537 450.094C455.332 450 455.157 449.85 455.034 449.662C454.91 449.473 454.842 449.254 454.837 449.028C454.833 448.803 454.891 448.58 455.007 448.387C455.123 448.193 455.291 448.036 455.492 447.934L506.077 422.144L506.75 421.801C506.951 421.699 507.176 421.656 507.4 421.676C507.624 421.697 507.838 421.779 508.017 421.915C508.197 422.051 508.334 422.235 508.414 422.445C508.494 422.655 508.514 422.884 508.47 423.105L498.628 472.024C498.59 472.213 498.506 472.39 498.385 472.539C498.263 472.689 498.107 472.808 497.931 472.884C497.754 472.961 497.561 472.994 497.368 472.98C497.176 472.966 496.99 472.907 496.826 472.805L477.89 461.121C477.704 461.004 477.499 460.919 477.284 460.871C476.976 460.799 476.655 460.804 476.35 460.885C476.306 460.895 476.263 460.909 476.219 460.923L476.215 460.923C475.893 461.029 475.603 461.215 475.372 461.464C475.142 461.714 474.979 462.018 474.899 462.348L473.354 468.763C473.298 469.019 473.157 469.248 472.954 469.414C472.751 469.58 472.498 469.672 472.236 469.676L472.228 469.676C471.965 469.692 471.705 469.617 471.49 469.464C471.276 469.312 471.119 469.091 471.047 468.838L467.01 456.055C466.968 455.92 466.912 455.789 466.842 455.666L466.842 455.662C466.774 455.544 466.695 455.434 466.604 455.332C466.517 455.233 466.42 455.143 466.313 455.065C466.195 454.976 466.067 454.901 465.932 454.841L455.537 450.094V450.094Z" fill="#E5E5E5"/>
<path d="M466.313 455.065L506.129 422.55C506.164 422.521 506.202 422.495 506.242 422.473C506.405 422.382 506.594 422.351 506.777 422.384C506.961 422.418 507.127 422.514 507.246 422.657C507.366 422.8 507.432 422.981 507.433 423.167C507.434 423.354 507.369 423.535 507.251 423.679L477.284 460.871L476.756 461.528L476.136 461.026L476.215 460.923L476.219 460.923L506.627 423.177L466.841 455.663L466.842 455.667L466.668 455.806L466.162 455.187L466.313 455.065Z" fill="#E5E5E5"/>
</g>
<g clip-path="url(#clip1_654_724)">
<path d="M1955.63 95.8518L1954.48 97.0625L2033.57 172.357L2034.72 171.146L1955.63 95.8518Z" fill="#E6E6E6"/>
<path d="M2034.84 162.982L2033.17 163.083L2033.68 171.309L2025.44 171.21L2025.42 172.882L2035.46 173.001L2034.84 162.982Z" fill="#E6E6E6"/>
<path d="M1963.78 95.326L1963.76 96.9981L1955.52 96.8991L1956.03 105.125L1954.36 105.226L1953.75 95.2061L1963.78 95.326Z" fill="#E6E6E6"/>
<path d="M1994.6 143.298C1999.68 143.298 2003.79 139.182 2003.79 134.105C2003.79 129.028 1999.68 124.912 1994.6 124.912C1989.52 124.912 1985.41 129.028 1985.41 134.105C1985.41 139.182 1989.52 143.298 1994.6 143.298Z" fill="#E6E6E6"/>
<path d="M1719.64 95.8519L1640.55 171.146L1641.71 172.357L1720.79 97.0626L1719.64 95.8519Z" fill="#E6E6E6"/>
<path d="M1639.81 173.001L1649.85 172.882L1649.83 171.21L1641.59 171.309L1642.1 163.083L1640.43 162.982L1639.81 173.001Z" fill="#E6E6E6"/>
<path d="M1721.53 95.2061L1720.92 105.226L1719.25 105.125L1719.75 96.8991L1711.51 96.9981L1711.49 95.326L1721.53 95.2061Z" fill="#E6E6E6"/>
<path d="M1680.67 143.298C1685.75 143.298 1689.86 139.182 1689.86 134.105C1689.86 129.028 1685.75 124.912 1680.67 124.912C1675.59 124.912 1671.48 129.028 1671.48 134.105C1671.48 139.182 1675.59 143.298 1680.67 143.298Z" fill="#E6E6E6"/>
<path d="M1906.16 209.543H1767.44C1765.44 209.541 1763.53 208.747 1762.12 207.337C1760.71 205.927 1759.92 204.016 1759.91 202.021V26.5214C1759.92 24.5273 1760.71 22.6155 1762.12 21.2055C1763.53 19.7954 1765.44 19.0023 1767.44 19H1906.16C1908.16 19.0023 1910.07 19.7954 1911.48 21.2055C1912.89 22.6155 1913.68 24.5273 1913.69 26.5214V202.021C1913.68 204.016 1912.89 205.927 1911.48 207.337C1910.07 208.747 1908.16 209.541 1906.16 209.543ZM1767.44 20.6714C1765.88 20.6732 1764.4 21.2901 1763.3 22.3868C1762.2 23.4835 1761.59 24.9704 1761.59 26.5214V202.021C1761.59 203.572 1762.2 205.059 1763.3 206.156C1764.4 207.253 1765.88 207.87 1767.44 207.871H1906.16C1907.72 207.87 1909.2 207.253 1910.3 206.156C1911.4 205.059 1912.01 203.572 1912.01 202.021V26.5214C1912.01 24.9704 1911.4 23.4835 1910.3 22.3868C1909.2 21.2901 1907.72 20.6732 1906.16 20.6714H1767.44Z" fill="#3F3D56"/>
<path d="M1825.26 103.359H1794.72C1793.73 103.358 1792.77 102.961 1792.06 102.256C1791.36 101.551 1790.96 100.595 1790.96 99.5982V63.5625C1790.96 62.5654 1791.36 61.6095 1792.06 60.9045C1792.77 60.1994 1793.73 59.8029 1794.72 59.8018H1825.26C1826.26 59.8029 1827.21 60.1994 1827.92 60.9045C1828.62 61.6095 1829.02 62.5654 1829.02 63.5625V99.5982C1829.02 100.595 1828.62 101.551 1827.92 102.256C1827.21 102.961 1826.26 103.358 1825.26 103.359Z" fill="#007BFF"/>
<path d="M1884.6 120.073H1854.06C1853.06 120.072 1852.11 119.675 1851.4 118.97C1850.7 118.265 1850.3 117.309 1850.3 116.312V80.2763C1850.3 79.2793 1850.7 78.3234 1851.4 77.6183C1852.11 76.9133 1853.06 76.5167 1854.06 76.5156H1884.6C1885.59 76.5167 1886.55 76.9133 1887.25 77.6183C1887.96 78.3234 1888.36 79.2793 1888.36 80.2763V116.312C1888.36 117.309 1887.96 118.265 1887.25 118.97C1886.55 119.675 1885.59 120.072 1884.6 120.073V120.073Z" fill="#CCCCCC"/>
<path d="M1836.96 171.051H1806.42C1805.43 171.05 1804.47 170.654 1803.76 169.949C1803.06 169.244 1802.66 168.288 1802.66 167.291V131.255C1802.66 130.258 1803.06 129.302 1803.76 128.597C1804.47 127.892 1805.43 127.495 1806.42 127.494H1836.96C1837.96 127.495 1838.91 127.892 1839.62 128.597C1840.32 129.302 1840.72 130.258 1840.72 131.255V167.291C1840.72 168.288 1840.32 169.244 1839.62 169.949C1838.91 170.654 1837.96 171.05 1836.96 171.051V171.051Z" fill="#FF6584"/>
<path d="M2130.08 390H1991.35C1989.36 389.998 1987.44 389.204 1986.03 387.794C1984.62 386.384 1983.83 384.473 1983.83 382.478V206.978C1983.83 204.984 1984.62 203.073 1986.03 201.663C1987.44 200.252 1989.36 199.459 1991.35 199.457H2130.08C2132.07 199.459 2133.98 200.252 2135.39 201.663C2136.8 203.073 2137.6 204.984 2137.6 206.978V382.478C2137.6 384.473 2136.8 386.384 2135.39 387.794C2133.98 389.204 2132.07 389.998 2130.08 390ZM1991.35 201.128C1989.8 201.13 1988.31 201.747 1987.22 202.844C1986.12 203.941 1985.5 205.427 1985.5 206.978V382.478C1985.5 384.029 1986.12 385.516 1987.22 386.613C1988.31 387.71 1989.8 388.327 1991.35 388.328H2130.08C2131.63 388.327 2133.12 387.71 2134.21 386.613C2135.31 385.516 2135.93 384.029 2135.93 382.478V206.978C2135.93 205.427 2135.31 203.941 2134.21 202.844C2133.12 201.747 2131.63 201.13 2130.08 201.128H1991.35Z" fill="#3F3D56"/>
<path d="M2084.53 238.318H2036.9C2036.01 238.318 2035.16 237.965 2034.53 237.338C2033.91 236.712 2033.55 235.861 2033.55 234.975C2033.55 234.088 2033.91 233.238 2034.53 232.611C2035.16 231.984 2036.01 231.632 2036.9 231.632H2084.53C2085.42 231.632 2086.27 231.984 2086.9 232.611C2087.52 233.238 2087.87 234.088 2087.87 234.975C2087.87 235.861 2087.52 236.712 2086.9 237.338C2086.27 237.965 2085.42 238.318 2084.53 238.318Z" fill="#007BFF"/>
<path d="M2107.93 270.075H2013.5C2013.06 270.076 2012.62 269.99 2012.22 269.823C2011.81 269.655 2011.44 269.409 2011.13 269.098C2010.82 268.788 2010.57 268.419 2010.4 268.013C2010.23 267.607 2010.15 267.172 2010.15 266.733C2010.15 266.293 2010.23 265.858 2010.4 265.452C2010.57 265.046 2010.82 264.677 2011.13 264.367C2011.44 264.056 2011.81 263.81 2012.22 263.642C2012.62 263.475 2013.06 263.389 2013.5 263.39H2107.93C2108.37 263.389 2108.81 263.475 2109.21 263.642C2109.62 263.81 2109.99 264.056 2110.3 264.367C2110.61 264.677 2110.86 265.046 2111.03 265.452C2111.19 265.858 2111.28 266.293 2111.28 266.733C2111.28 267.172 2111.19 267.607 2111.03 268.013C2110.86 268.419 2110.61 268.788 2110.3 269.098C2109.99 269.409 2109.62 269.655 2109.21 269.823C2108.81 269.99 2108.37 270.076 2107.93 270.075V270.075Z" fill="#CCCCCC"/>
<path d="M2107.93 287.625H2013.5C2013.06 287.626 2012.62 287.54 2012.22 287.372C2011.81 287.205 2011.44 286.959 2011.13 286.648C2010.82 286.338 2010.57 285.969 2010.4 285.563C2010.23 285.157 2010.15 284.722 2010.15 284.282C2010.15 283.843 2010.23 283.408 2010.4 283.002C2010.57 282.596 2010.82 282.227 2011.13 281.917C2011.44 281.606 2011.81 281.36 2012.22 281.192C2012.62 281.025 2013.06 280.939 2013.5 280.939H2107.93C2108.37 280.939 2108.81 281.025 2109.21 281.192C2109.62 281.36 2109.99 281.606 2110.3 281.917C2110.61 282.227 2110.86 282.596 2111.03 283.002C2111.19 283.408 2111.28 283.843 2111.28 284.282C2111.28 284.722 2111.19 285.157 2111.03 285.563C2110.86 285.969 2110.61 286.338 2110.3 286.648C2109.99 286.959 2109.62 287.205 2109.21 287.372C2108.81 287.54 2108.37 287.626 2107.93 287.625V287.625Z" fill="#CCCCCC"/>
<path d="M2107.93 305.175H2013.5C2013.06 305.176 2012.62 305.09 2012.22 304.922C2011.81 304.755 2011.44 304.508 2011.13 304.198C2010.82 303.887 2010.57 303.519 2010.4 303.113C2010.23 302.707 2010.15 302.272 2010.15 301.832C2010.15 301.393 2010.23 300.957 2010.4 300.552C2010.57 300.146 2010.82 299.777 2011.13 299.466C2011.44 299.156 2011.81 298.91 2012.22 298.742C2012.62 298.574 2013.06 298.489 2013.5 298.489H2107.93C2108.37 298.489 2108.81 298.574 2109.21 298.742C2109.62 298.91 2109.99 299.156 2110.3 299.466C2110.61 299.777 2110.86 300.146 2111.03 300.552C2111.19 300.957 2111.28 301.393 2111.28 301.832C2111.28 302.272 2111.19 302.707 2111.03 303.113C2110.86 303.519 2110.61 303.887 2110.3 304.198C2109.99 304.508 2109.62 304.755 2109.21 304.922C2108.81 305.09 2108.37 305.176 2107.93 305.175V305.175Z" fill="#CCCCCC"/>
<path d="M2107.93 322.725H2013.5C2013.06 322.726 2012.62 322.64 2012.22 322.472C2011.81 322.304 2011.44 322.058 2011.13 321.748C2010.82 321.437 2010.57 321.068 2010.4 320.663C2010.23 320.257 2010.15 319.821 2010.15 319.382C2010.15 318.942 2010.23 318.507 2010.4 318.101C2010.57 317.695 2010.82 317.327 2011.13 317.016C2011.44 316.706 2011.81 316.46 2012.22 316.292C2012.62 316.124 2013.06 316.038 2013.5 316.039H2107.93C2108.37 316.038 2108.81 316.124 2109.21 316.292C2109.62 316.46 2109.99 316.706 2110.3 317.016C2110.61 317.327 2110.86 317.695 2111.03 318.101C2111.19 318.507 2111.28 318.942 2111.28 319.382C2111.28 319.821 2111.19 320.257 2111.03 320.663C2110.86 321.068 2110.61 321.437 2110.3 321.748C2109.99 322.058 2109.62 322.304 2109.21 322.472C2108.81 322.64 2108.37 322.726 2107.93 322.725V322.725Z" fill="#CCCCCC"/>
<path d="M2107.93 340.275H2013.5C2013.06 340.275 2012.62 340.189 2012.22 340.022C2011.81 339.854 2011.44 339.608 2011.13 339.298C2010.82 338.987 2010.57 338.618 2010.4 338.212C2010.23 337.806 2010.15 337.371 2010.15 336.932C2010.15 336.492 2010.23 336.057 2010.4 335.651C2010.57 335.245 2010.82 334.876 2011.13 334.566C2011.44 334.255 2011.81 334.009 2012.22 333.842C2012.62 333.674 2013.06 333.588 2013.5 333.589H2107.93C2108.37 333.588 2108.81 333.674 2109.21 333.842C2109.62 334.009 2109.99 334.255 2110.3 334.566C2110.61 334.876 2110.86 335.245 2111.03 335.651C2111.19 336.057 2111.28 336.492 2111.28 336.932C2111.28 337.371 2111.19 337.806 2111.03 338.212C2110.86 338.618 2110.61 338.987 2110.3 339.298C2109.99 339.608 2109.62 339.854 2109.21 340.022C2108.81 340.189 2108.37 340.275 2107.93 340.275V340.275Z" fill="#CCCCCC"/>
<path d="M2107.93 357.825H2013.5C2013.06 357.826 2012.62 357.74 2012.22 357.573C2011.81 357.405 2011.44 357.159 2011.13 356.848C2010.82 356.538 2010.57 356.169 2010.4 355.763C2010.23 355.357 2010.15 354.922 2010.15 354.483C2010.15 354.043 2010.23 353.608 2010.4 353.202C2010.57 352.796 2010.82 352.427 2011.13 352.117C2011.44 351.806 2011.81 351.56 2012.22 351.392C2012.62 351.225 2013.06 351.139 2013.5 351.14H2107.93C2108.37 351.139 2108.81 351.225 2109.21 351.392C2109.62 351.56 2109.99 351.806 2110.3 352.117C2110.61 352.427 2110.86 352.796 2111.03 353.202C2111.19 353.608 2111.28 354.043 2111.28 354.483C2111.28 354.922 2111.19 355.357 2111.03 355.763C2110.86 356.169 2110.61 356.538 2110.3 356.848C2109.99 357.159 2109.62 357.405 2109.21 357.573C2108.81 357.74 2108.37 357.826 2107.93 357.825V357.825Z" fill="#CCCCCC"/>
<path d="M1682.25 390H1543.52C1541.53 389.998 1539.62 389.204 1538.21 387.794C1536.8 386.384 1536 384.473 1536 382.478V206.978C1536 204.984 1536.8 203.073 1538.21 201.663C1539.62 200.252 1541.53 199.459 1543.52 199.457H1682.25C1684.24 199.459 1686.16 200.252 1687.57 201.663C1688.98 203.073 1689.77 204.984 1689.77 206.978V382.478C1689.77 384.473 1688.98 386.384 1687.57 387.794C1686.16 389.204 1684.24 389.998 1682.25 390ZM1543.52 201.128C1541.97 201.13 1540.48 201.747 1539.39 202.844C1538.29 203.941 1537.67 205.427 1537.67 206.978V382.478C1537.67 384.029 1538.29 385.516 1539.39 386.613C1540.48 387.71 1541.97 388.327 1543.52 388.328H1682.25C1683.8 388.327 1685.29 387.71 1686.38 386.613C1687.48 385.516 1688.1 384.029 1688.1 382.478V206.978C1688.1 205.427 1687.48 203.941 1686.38 202.844C1685.29 201.747 1683.8 201.13 1682.25 201.128H1543.52Z" fill="#3F3D56"/>
<path d="M1660.25 240.893H1618.46C1617.58 240.893 1616.73 240.541 1616.1 239.914C1615.47 239.287 1615.12 238.436 1615.12 237.55C1615.12 236.663 1615.47 235.813 1616.1 235.186C1616.73 234.559 1617.58 234.207 1618.46 234.207H1660.25C1661.14 234.207 1661.99 234.559 1662.61 235.186C1663.24 235.813 1663.59 236.663 1663.59 237.55C1663.59 238.436 1663.24 239.287 1662.61 239.914C1661.99 240.541 1661.14 240.893 1660.25 240.893V240.893Z" fill="#3F3D56"/>
<path d="M1660.25 258.443H1618.46C1617.58 258.443 1616.73 258.09 1616.1 257.463C1615.47 256.837 1615.12 255.986 1615.12 255.1C1615.12 254.213 1615.47 253.363 1616.1 252.736C1616.73 252.109 1617.58 251.757 1618.46 251.757H1660.25C1661.14 251.757 1661.99 252.109 1662.61 252.736C1663.24 253.363 1663.59 254.213 1663.59 255.1C1663.59 255.986 1663.24 256.837 1662.61 257.463C1661.99 258.09 1661.14 258.443 1660.25 258.443V258.443Z" fill="#3F3D56"/>
<path d="M1597.02 268.436H1566.49C1565.49 268.435 1564.53 268.038 1563.83 267.333C1563.12 266.628 1562.73 265.672 1562.72 264.675V228.64C1562.73 227.643 1563.12 226.687 1563.83 225.982C1564.53 225.277 1565.49 224.88 1566.49 224.879H1597.02C1598.02 224.88 1598.98 225.277 1599.68 225.982C1600.39 226.687 1600.78 227.643 1600.78 228.64V264.675C1600.78 265.672 1600.39 266.628 1599.68 267.333C1598.98 268.038 1598.02 268.435 1597.02 268.436V268.436Z" fill="#007BFF"/>
<path d="M1659.96 294.378H1565.52C1565.08 294.379 1564.65 294.293 1564.24 294.125C1563.84 293.958 1563.47 293.712 1563.16 293.401C1562.84 293.091 1562.6 292.722 1562.43 292.316C1562.26 291.91 1562.17 291.475 1562.17 291.035C1562.17 290.596 1562.26 290.161 1562.43 289.755C1562.6 289.349 1562.84 288.98 1563.16 288.669C1563.47 288.359 1563.84 288.113 1564.24 287.945C1564.65 287.778 1565.08 287.692 1565.52 287.692H1659.96C1660.4 287.692 1660.83 287.778 1661.24 287.945C1661.65 288.113 1662.02 288.359 1662.33 288.669C1662.64 288.98 1662.88 289.349 1663.05 289.755C1663.22 290.161 1663.31 290.596 1663.31 291.035C1663.31 291.475 1663.22 291.91 1663.05 292.316C1662.88 292.722 1662.64 293.091 1662.33 293.401C1662.02 293.712 1661.65 293.958 1661.24 294.125C1660.83 294.293 1660.4 294.379 1659.96 294.378V294.378Z" fill="#CCCCCC"/>
<path d="M1659.96 311.929H1565.52C1565.08 311.93 1564.65 311.844 1564.24 311.676C1563.84 311.508 1563.47 311.262 1563.16 310.952C1562.84 310.641 1562.6 310.273 1562.43 309.867C1562.26 309.461 1562.17 309.026 1562.17 308.586C1562.17 308.147 1562.26 307.711 1562.43 307.305C1562.6 306.899 1562.84 306.531 1563.16 306.22C1563.47 305.91 1563.84 305.664 1564.24 305.496C1564.65 305.328 1565.08 305.242 1565.52 305.243H1659.96C1660.4 305.242 1660.83 305.328 1661.24 305.496C1661.65 305.664 1662.02 305.91 1662.33 306.22C1662.64 306.531 1662.88 306.899 1663.05 307.305C1663.22 307.711 1663.31 308.147 1663.31 308.586C1663.31 309.026 1663.22 309.461 1663.05 309.867C1662.88 310.273 1662.64 310.641 1662.33 310.952C1662.02 311.262 1661.65 311.508 1661.24 311.676C1660.83 311.844 1660.4 311.93 1659.96 311.929V311.929Z" fill="#CCCCCC"/>
<path d="M1659.96 329.479H1565.52C1565.08 329.479 1564.65 329.394 1564.24 329.226C1563.84 329.058 1563.47 328.812 1563.16 328.502C1562.84 328.191 1562.6 327.822 1562.43 327.416C1562.26 327.01 1562.17 326.575 1562.17 326.136C1562.17 325.696 1562.26 325.261 1562.43 324.855C1562.6 324.449 1562.84 324.081 1563.16 323.77C1563.47 323.46 1563.84 323.213 1564.24 323.046C1564.65 322.878 1565.08 322.792 1565.52 322.793H1659.96C1660.4 322.792 1660.83 322.878 1661.24 323.046C1661.65 323.213 1662.02 323.46 1662.33 323.77C1662.64 324.081 1662.88 324.449 1663.05 324.855C1663.22 325.261 1663.31 325.696 1663.31 326.136C1663.31 326.575 1663.22 327.01 1663.05 327.416C1662.88 327.822 1662.64 328.191 1662.33 328.502C1662.02 328.812 1661.65 329.058 1661.24 329.226C1660.83 329.394 1660.4 329.479 1659.96 329.479V329.479Z" fill="#CCCCCC"/>
<path d="M1659.96 347.028H1565.52C1565.08 347.029 1564.65 346.943 1564.24 346.776C1563.84 346.608 1563.47 346.362 1563.16 346.051C1562.84 345.741 1562.6 345.372 1562.43 344.966C1562.26 344.56 1562.17 344.125 1562.17 343.686C1562.17 343.246 1562.26 342.811 1562.43 342.405C1562.6 341.999 1562.84 341.63 1563.16 341.32C1563.47 341.009 1563.84 340.763 1564.24 340.596C1564.65 340.428 1565.08 340.342 1565.52 340.343H1659.96C1660.4 340.342 1660.83 340.428 1661.24 340.596C1661.65 340.763 1662.02 341.009 1662.33 341.32C1662.64 341.63 1662.88 341.999 1663.05 342.405C1663.22 342.811 1663.31 343.246 1663.31 343.686C1663.31 344.125 1663.22 344.56 1663.05 344.966C1662.88 345.372 1662.64 345.741 1662.33 346.051C1662.02 346.362 1661.65 346.608 1661.24 346.776C1660.83 346.943 1660.4 347.029 1659.96 347.028V347.028Z" fill="#CCCCCC"/>
<path d="M1659.96 364.578H1565.52C1565.08 364.579 1564.65 364.493 1564.24 364.326C1563.84 364.158 1563.47 363.912 1563.16 363.601C1562.84 363.291 1562.6 362.922 1562.43 362.516C1562.26 362.11 1562.17 361.675 1562.17 361.235C1562.17 360.796 1562.26 360.361 1562.43 359.955C1562.6 359.549 1562.84 359.18 1563.16 358.87C1563.47 358.559 1563.84 358.313 1564.24 358.145C1564.65 357.978 1565.08 357.892 1565.52 357.893H1659.96C1660.4 357.892 1660.83 357.978 1661.24 358.145C1661.65 358.313 1662.02 358.559 1662.33 358.87C1662.64 359.18 1662.88 359.549 1663.05 359.955C1663.22 360.361 1663.31 360.796 1663.31 361.235C1663.31 361.675 1663.22 362.11 1663.05 362.516C1662.88 362.922 1662.64 363.291 1662.33 363.601C1662.02 363.912 1661.65 364.158 1661.24 364.326C1660.83 364.493 1660.4 364.579 1659.96 364.578V364.578Z" fill="#CCCCCC"/>
<path d="M1734.7 491.718V455.683C1734.7 454.685 1735.09 453.73 1735.8 453.025C1736.5 452.32 1737.46 451.923 1738.46 451.922H1768.99C1769.99 451.923 1770.95 452.32 1771.65 453.025C1772.36 453.73 1772.75 454.685 1772.75 455.683V491.718C1772.75 492.715 1772.36 493.671 1771.65 494.376C1770.95 495.081 1769.99 495.478 1768.99 495.479H1738.46C1737.46 495.478 1736.5 495.081 1735.8 494.376C1735.09 493.671 1734.7 492.715 1734.7 491.718V491.718Z" fill="#E6E6E6"/>
<path d="M1745.7 479.718V443.683C1745.7 442.685 1746.09 441.73 1746.8 441.025C1747.5 440.32 1748.46 439.923 1749.46 439.922H1779.99C1780.99 439.923 1781.95 440.32 1782.65 441.025C1783.36 441.73 1783.75 442.685 1783.75 443.683V479.718C1783.75 480.715 1783.36 481.671 1782.65 482.376C1781.95 483.081 1780.99 483.478 1779.99 483.479H1749.46C1748.46 483.478 1747.5 483.081 1746.8 482.376C1746.09 481.671 1745.7 480.715 1745.7 479.718V479.718Z" fill="#007BFF"/>
<path d="M1882.58 468.188C1881.44 467.524 1880.45 466.617 1879.69 465.529C1878.93 464.441 1878.41 463.2 1878.18 461.893C1877.96 460.585 1878.02 459.244 1878.36 457.963C1878.71 456.681 1879.33 455.492 1880.19 454.477L1870.72 385.289L1890.44 386.257L1893.53 453.742C1895.14 455.293 1896.13 457.379 1896.3 459.607C1896.47 461.834 1895.83 464.048 1894.48 465.829C1893.13 467.61 1891.17 468.833 1888.98 469.268C1886.79 469.703 1884.51 469.319 1882.58 468.188V468.188Z" fill="#A0616A"/>
<path d="M1893.14 387.178C1892.74 387.654 1892.22 388.02 1891.64 388.243L1873.92 395.006C1873.03 395.345 1872.04 395.331 1871.16 394.965C1870.28 394.6 1869.58 393.911 1869.19 393.041L1853.49 357.766C1851.99 354.494 1851.73 350.783 1852.77 347.334C1853.54 344.873 1854.96 342.665 1856.88 340.944C1858.8 339.222 1861.15 338.051 1863.68 337.552C1865.63 337.152 1867.64 337.18 1869.57 337.635C1871.89 338.152 1874.04 339.238 1875.84 340.796C1877.63 342.354 1879 344.334 1879.84 346.557L1893.79 383.447C1894.03 384.07 1894.09 384.745 1893.98 385.401C1893.86 386.057 1893.58 386.671 1893.14 387.178V387.178Z" fill="#CCCCCC"/>
<path d="M1800.81 637.06H1788.55L1784.1 589.549L1800.81 589.773L1800.81 637.06Z" fill="#A0616A"/>
<path d="M1779.79 633.557H1803.43V648.444H1764.9C1764.9 646.489 1765.29 644.553 1766.04 642.747C1766.78 640.94 1767.88 639.299 1769.26 637.917C1770.65 636.535 1772.29 635.438 1774.09 634.69C1775.9 633.942 1777.84 633.557 1779.79 633.557V633.557Z" fill="#2F2E41"/>
<path d="M1857.81 637.06H1845.55L1839.72 589.771L1857.81 589.773L1857.81 637.06Z" fill="#A0616A"/>
<path d="M1836.79 633.557H1860.43V648.444H1821.9C1821.9 646.489 1822.29 644.553 1823.04 642.747C1823.78 640.94 1824.88 639.299 1826.26 637.917C1827.65 636.535 1829.29 635.438 1831.09 634.69C1832.9 633.942 1834.84 633.557 1836.79 633.557V633.557Z" fill="#2F2E41"/>
<path d="M1859.35 620.236L1840.09 618.81C1839 618.728 1837.97 618.248 1837.21 617.462C1836.44 616.675 1835.99 615.636 1835.93 614.539L1831.64 525.809C1831.6 524.957 1831.25 524.15 1830.65 523.539C1830.06 522.927 1829.26 522.554 1828.41 522.489C1827.56 522.423 1826.72 522.67 1826.04 523.183C1825.35 523.696 1824.88 524.441 1824.71 525.276L1806.8 612.683C1806.58 613.758 1805.97 614.716 1805.1 615.375C1804.22 616.035 1803.13 616.351 1802.03 616.265L1784.63 614.872C1784.03 614.825 1783.45 614.658 1782.92 614.384C1782.39 614.109 1781.92 613.73 1781.53 613.271C1781.15 612.812 1780.86 612.281 1780.69 611.708C1780.51 611.136 1780.45 610.535 1780.51 609.94L1796.66 448.463C1796.72 447.832 1796.92 447.221 1797.23 446.671C1797.55 446.121 1797.98 445.644 1798.49 445.271C1799 444.898 1799.59 444.638 1800.21 444.507C1800.83 444.377 1801.47 444.379 1802.09 444.514L1863.5 457.863C1864.51 458.086 1865.42 458.654 1866.07 459.471C1866.71 460.288 1867.06 461.303 1867.04 462.344L1864.18 615.832C1864.16 617.009 1863.68 618.13 1862.84 618.956C1862 619.781 1860.87 620.245 1859.69 620.248C1859.58 620.248 1859.46 620.243 1859.35 620.236Z" fill="#2F2E41"/>
<path d="M1842.5 313.448C1856.07 313.448 1867.06 302.452 1867.06 288.887C1867.06 275.323 1856.07 264.326 1842.5 264.326C1828.94 264.326 1817.94 275.323 1817.94 288.887C1817.94 302.452 1828.94 313.448 1842.5 313.448Z" fill="#A0616A"/>
<path d="M1804.4 460.915C1802.03 458.797 1800.16 456.193 1798.9 453.282C1797.64 450.37 1797.03 447.22 1797.1 444.049C1797.1 408.748 1827.66 329.881 1828.62 327.42C1828.71 326.827 1829.52 326.571 1833.74 323.714C1837.98 320.855 1844.08 320.415 1851.88 322.408C1852.68 322.611 1853.4 323.028 1853.97 323.613C1854.55 324.198 1854.95 324.929 1855.13 325.727L1856.59 327.824C1856.71 328.356 1856.96 328.851 1857.31 329.269C1857.67 329.687 1858.11 330.016 1858.61 330.231C1864.91 332.882 1884.91 345.109 1878.1 391.122C1871.76 433.865 1869.19 459.003 1868.38 467.827C1868.29 468.874 1867.83 469.855 1867.08 470.598C1866.34 471.34 1865.36 471.799 1864.31 471.893C1861.23 472.169 1855.93 472.536 1849.62 472.536C1835 472.536 1814.95 470.564 1804.4 460.915Z" fill="#CCCCCC"/>
<path d="M1775.05 447.837C1774.46 446.645 1774.15 445.34 1774.12 444.013C1774.1 442.686 1774.36 441.37 1774.9 440.157C1775.44 438.944 1776.24 437.864 1777.24 436.993C1778.24 436.122 1779.42 435.481 1780.7 435.115L1811.39 372.39L1827.22 384.18L1792.19 441.943C1792.66 444.127 1792.32 446.408 1791.22 448.354C1790.12 450.301 1788.35 451.777 1786.24 452.504C1784.12 453.23 1781.82 453.156 1779.75 452.296C1777.69 451.436 1776.02 449.85 1775.05 447.837L1775.05 447.837Z" fill="#A0616A"/>
<path d="M1828.96 386.454C1828.36 386.624 1827.72 386.639 1827.11 386.499L1808.63 382.241C1807.7 382.027 1806.89 381.466 1806.37 380.672C1805.84 379.878 1805.64 378.913 1805.8 377.974L1812.42 339.937C1812.99 336.38 1814.85 333.156 1817.64 330.873C1819.65 329.259 1822.06 328.217 1824.61 327.858C1827.16 327.498 1829.77 327.834 1832.15 328.831C1833.99 329.582 1835.64 330.726 1836.99 332.182C1838.63 333.902 1839.81 336.003 1840.43 338.295C1841.05 340.587 1841.09 342.998 1840.54 345.309L1831.57 383.717C1831.42 384.366 1831.1 384.961 1830.64 385.443C1830.18 385.924 1829.6 386.273 1828.96 386.454Z" fill="#CCCCCC"/>
<path d="M1836.75 311.079C1835.56 309.859 1834.68 308.369 1834.18 306.734C1833.69 305.1 1833.59 303.37 1833.91 301.692C1834.77 297.213 1835.27 294.282 1835.37 293.216C1835.69 289.568 1832.01 286.615 1828.36 286.145C1828.22 286.127 1828.1 286.114 1828 286.107C1828.09 286.198 1828.19 286.291 1828.28 286.374C1828.97 287.024 1829.84 287.835 1829.63 288.671C1829.51 289.175 1829.05 289.532 1828.22 289.762C1822.52 291.359 1818.12 289.893 1814.39 285.146C1813.35 283.797 1812.62 282.223 1812.29 280.548C1810.95 273.993 1814.51 268.405 1817.73 264.872C1820.39 261.959 1824.7 258.423 1830.13 258.12C1834.35 257.884 1839.37 260.315 1840.88 264.694C1841.59 263.644 1842.53 262.772 1843.63 262.15C1844.74 261.528 1845.97 261.171 1847.24 261.108C1850.12 261.046 1852.96 261.835 1855.4 263.377C1867.31 270.199 1872.42 286.45 1866.57 298.865C1862.89 306.674 1854.92 312.488 1845.76 314.037C1845.19 314.134 1844.61 314.184 1844.03 314.184C1842.67 314.182 1841.32 313.906 1840.07 313.372C1838.82 312.839 1837.69 312.059 1836.75 311.079V311.079Z" fill="#2F2E41"/>
<path d="M1721.58 649H1916.58C1916.84 649 1917.1 648.895 1917.29 648.707C1917.47 648.52 1917.58 648.265 1917.58 648C1917.58 647.735 1917.47 647.48 1917.29 647.293C1917.1 647.105 1916.84 647 1916.58 647H1721.58C1721.31 647 1721.06 647.105 1720.87 647.293C1720.68 647.48 1720.58 647.735 1720.58 648C1720.58 648.265 1720.68 648.52 1720.87 648.707C1721.06 648.895 1721.31 649 1721.58 649V649Z" fill="#3F3D56"/>
</g>
<g clip-path="url(#clip2_654_724)">
<path d="M2864.91 619.032L2864.87 619.278C2864.83 619.038 2864.79 618.793 2864.75 618.552C2864.67 618.162 2864.61 617.772 2864.54 617.379C2862.11 602.034 2863.45 586.325 2868.45 571.615C2869.41 568.744 2870.51 565.925 2871.74 563.159C2876.44 552.448 2883.1 542.711 2891.39 534.451C2894.08 531.698 2897.14 529.344 2900.5 527.458C2900.99 527.197 2901.49 526.95 2901.99 526.722C2905.1 525.217 2908.59 524.711 2911.99 525.273C2913.23 525.506 2914.42 525.908 2915.55 526.468C2915.95 526.66 2916.33 526.871 2916.7 527.096C2918.97 528.587 2920.91 530.532 2922.4 532.808C2923.89 535.085 2924.89 537.644 2925.34 540.325C2925.99 544.325 2925.84 548.414 2924.91 552.356C2924.83 552.733 2924.74 553.108 2924.65 553.482C2923.99 556.11 2923.16 558.692 2922.16 561.213C2912.19 586.862 2890.77 609.619 2864.91 619.032Z" fill="#F2F2F2"/>
<path d="M2915.48 526.551C2907.71 537.729 2900.36 549.19 2893.44 560.935C2886.53 572.67 2880.07 584.655 2874.07 596.892C2870.71 603.738 2867.5 610.654 2864.43 617.639C2864.09 618.412 2865.24 619.084 2865.58 618.301C2871.06 605.832 2877 593.583 2883.41 581.553C2889.81 569.535 2896.66 557.771 2903.97 546.262C2908.05 539.824 2912.28 533.474 2916.63 527.213C2917.12 526.513 2915.97 525.853 2915.48 526.551Z" fill="white"/>
<path d="M2923.81 552.424C2917.96 560.021 2909.36 565.007 2899.86 566.303C2897.21 566.664 2894.53 566.717 2891.87 566.461C2891.02 566.381 2891.01 567.708 2891.85 567.788C2901.76 568.621 2911.59 565.513 2919.22 559.139C2921.36 557.351 2923.29 555.32 2924.96 553.087C2925.47 552.406 2924.32 551.748 2923.81 552.424V552.424Z" fill="white"/>
<path d="M2873.88 593.632C2872.52 591.696 2871.4 589.608 2870.52 587.411C2868.52 582.402 2867.81 576.971 2868.45 571.615C2869.41 568.744 2870.51 565.925 2871.74 563.159C2871.81 563.268 2871.86 563.394 2871.87 563.526C2871.88 563.657 2871.86 563.789 2871.8 563.908C2870.93 565.983 2870.31 568.152 2869.95 570.37C2868.63 578.28 2870.46 586.391 2875.04 592.974C2875.09 593.045 2875.13 593.131 2875.15 593.222C2875.16 593.313 2875.15 593.406 2875.12 593.493C2875.07 593.609 2874.99 593.709 2874.89 593.783C2874.79 593.858 2874.67 593.904 2874.54 593.918C2874.42 593.932 2874.29 593.913 2874.18 593.863C2874.06 593.812 2873.96 593.733 2873.88 593.632V593.632Z" fill="white"/>
<path d="M2900.7 526.619C2899.1 532.994 2899.57 539.713 2902.06 545.798C2902.15 545.95 2902.29 546.061 2902.46 546.108C2902.63 546.154 2902.81 546.131 2902.96 546.045C2903.11 545.955 2903.22 545.811 2903.27 545.642C2903.31 545.474 2903.29 545.294 2903.21 545.14C2900.88 539.366 2900.45 533.003 2901.98 526.968C2902.02 526.8 2901.99 526.624 2901.9 526.476C2901.81 526.328 2901.67 526.22 2901.51 526.175C2901.34 526.129 2901.16 526.15 2901.01 526.233C2900.86 526.316 2900.75 526.454 2900.7 526.619H2900.7Z" fill="white"/>
<path d="M2864.75 586.997L2864.83 587.232C2864.68 587.041 2864.53 586.844 2864.38 586.65C2864.13 586.339 2863.89 586.024 2863.66 585.704C2854.37 573.248 2848.26 558.714 2845.86 543.363C2845.38 540.373 2845.04 537.368 2844.84 534.348C2844.03 522.678 2845.41 510.96 2848.9 499.798C2850.01 496.111 2851.63 492.6 2853.73 489.372C2854.04 488.913 2854.36 488.463 2854.71 488.026C2856.75 485.252 2859.61 483.181 2862.89 482.099C2864.09 481.731 2865.34 481.53 2866.59 481.504C2867.03 481.491 2867.47 481.501 2867.9 481.527C2870.61 481.791 2873.23 482.611 2875.61 483.936C2877.98 485.261 2880.06 487.062 2881.7 489.226C2884.14 492.468 2885.9 496.157 2886.91 500.082C2887.01 500.453 2887.11 500.825 2887.2 501.199C2887.84 503.833 2888.3 506.506 2888.59 509.201C2891.68 536.546 2883.28 566.65 2864.75 586.997Z" fill="#F2F2F2"/>
<path d="M2866.57 481.608C2864.88 495.12 2863.69 508.683 2863.02 522.297C2862.36 535.898 2862.21 549.512 2862.57 563.138C2862.78 570.761 2863.15 578.377 2863.68 585.987C2863.73 586.829 2865.06 586.893 2865 586.04C2864.06 572.455 2863.63 558.847 2863.72 545.217C2863.8 531.599 2864.41 517.998 2865.53 504.414C2866.16 496.814 2866.95 489.229 2867.9 481.661C2868.01 480.814 2866.68 480.765 2866.57 481.608V481.608Z" fill="white"/>
<path d="M2885.96 500.654C2884.32 510.096 2879.01 518.509 2871.2 524.068C2869.03 525.619 2866.67 526.912 2864.2 527.921C2863.41 528.246 2864.02 529.424 2864.8 529.102C2873.96 525.239 2881.23 517.918 2885.02 508.73C2886.09 506.153 2886.85 503.46 2887.29 500.707C2887.43 499.867 2886.1 499.819 2885.96 500.654V500.654Z" fill="white"/>
<path d="M2860.89 560.337C2858.79 559.254 2856.82 557.93 2855.03 556.392C2850.93 552.886 2847.77 548.406 2845.86 543.364C2845.38 540.374 2845.04 537.369 2844.84 534.349C2844.96 534.41 2845.05 534.501 2845.13 534.613C2845.2 534.724 2845.24 534.852 2845.24 534.984C2845.44 537.223 2845.9 539.433 2846.6 541.567C2849.11 549.183 2854.5 555.518 2861.61 559.22C2861.69 559.257 2861.77 559.314 2861.82 559.388C2861.88 559.461 2861.92 559.548 2861.93 559.639C2861.94 559.765 2861.91 559.891 2861.86 560.004C2861.8 560.117 2861.72 560.214 2861.61 560.285C2861.51 560.355 2861.39 560.397 2861.26 560.407C2861.13 560.416 2861.01 560.392 2860.89 560.337V560.337Z" fill="white"/>
<path d="M2853.51 488.537C2855.06 494.926 2858.6 500.655 2863.62 504.89C2863.77 504.984 2863.95 505.015 2864.12 504.977C2864.3 504.94 2864.45 504.836 2864.54 504.688C2864.63 504.539 2864.66 504.361 2864.62 504.19C2864.59 504.02 2864.48 503.87 2864.34 503.772C2859.6 499.739 2856.26 494.305 2854.81 488.252C2854.76 488.085 2854.66 487.942 2854.51 487.851C2854.36 487.761 2854.19 487.731 2854.02 487.768C2853.85 487.805 2853.71 487.906 2853.61 488.05C2853.52 488.193 2853.48 488.368 2853.51 488.537L2853.51 488.537Z" fill="white"/>
<path d="M2865.32 619.195L2865.52 619.35C2865.29 619.27 2865.05 619.186 2864.82 619.102C2864.45 618.974 2864.08 618.837 2863.71 618.696C2849.17 613.201 2836.2 604.245 2825.91 592.604C2823.89 590.345 2821.99 587.996 2820.19 585.556C2813.22 576.162 2808.07 565.546 2805.01 554.257C2803.95 550.556 2803.43 546.724 2803.46 542.876C2803.48 542.318 2803.51 541.766 2803.56 541.213C2803.79 537.772 2805.08 534.488 2807.26 531.813C2808.08 530.855 2809.02 530.014 2810.06 529.315C2810.43 529.067 2810.8 528.842 2811.18 528.629C2813.6 527.394 2816.25 526.673 2818.97 526.51C2821.68 526.347 2824.4 526.747 2826.95 527.683C2830.75 529.106 2834.22 531.262 2837.19 534.028C2837.47 534.285 2837.76 534.545 2838.03 534.811C2839.99 536.689 2841.82 538.692 2843.51 540.806C2860.84 562.184 2869.98 592.074 2865.32 619.195Z" fill="#F2F2F2"/>
<path d="M2810.1 529.414C2815.95 541.712 2822.26 553.777 2829.03 565.609C2835.79 577.428 2842.99 588.98 2850.64 600.264C2854.92 606.577 2859.33 612.796 2863.87 618.923C2864.38 619.601 2865.53 618.94 2865.02 618.253C2856.91 607.315 2849.22 596.08 2841.95 584.549C2834.69 573.027 2827.88 561.241 2821.51 549.191C2817.94 542.449 2814.52 535.634 2811.25 528.744C2810.88 527.974 2809.74 528.646 2810.1 529.414Z" fill="white"/>
<path d="M2836.7 535.019C2840.39 543.862 2840.46 553.807 2836.87 562.696C2835.87 565.176 2834.59 567.531 2833.04 569.716C2832.55 570.415 2833.7 571.079 2834.19 570.385C2839.83 562.197 2842 552.116 2840.25 542.331C2839.76 539.586 2838.95 536.907 2837.84 534.349C2837.5 533.568 2836.36 534.243 2836.7 535.019Z" fill="white"/>
<path d="M2847.72 598.807C2845.36 599.027 2842.99 598.972 2840.65 598.644C2835.3 597.898 2830.24 595.821 2825.91 592.604C2823.89 590.345 2821.99 587.995 2820.19 585.556C2820.32 585.546 2820.46 585.569 2820.58 585.625C2820.7 585.681 2820.8 585.767 2820.87 585.875C2822.25 587.655 2823.82 589.271 2825.57 590.69C2831.78 595.755 2839.73 598.192 2847.72 597.481C2847.81 597.466 2847.9 597.475 2847.99 597.507C2848.08 597.539 2848.15 597.592 2848.21 597.662C2848.29 597.764 2848.33 597.883 2848.35 598.009C2848.36 598.134 2848.34 598.261 2848.29 598.377C2848.24 598.493 2848.16 598.593 2848.06 598.669C2847.96 598.744 2847.84 598.792 2847.72 598.807V598.807Z" fill="white"/>
<path d="M2802.83 542.286C2807.57 546.837 2813.64 549.756 2820.16 550.618C2820.51 550.666 2820.82 550.279 2820.82 549.955C2820.81 549.78 2820.74 549.614 2820.62 549.49C2820.5 549.367 2820.33 549.296 2820.16 549.292C2813.99 548.447 2808.25 545.665 2803.76 541.348C2803.15 540.756 2802.21 541.692 2802.83 542.286H2802.83Z" fill="white"/>
<path d="M2955.86 444.248C2957.16 443.36 2958.24 442.199 2959.04 440.847C2959.84 439.494 2960.33 437.983 2960.48 436.419C2960.63 434.856 2960.44 433.279 2959.91 431.799C2959.39 430.318 2958.54 428.971 2957.44 427.852L2961.61 334.834L2940.39 337.215L2941.63 428.2C2939.87 430.175 2938.9 432.727 2938.9 435.371C2938.89 438.015 2939.86 440.568 2941.62 442.546C2943.37 444.525 2945.79 445.791 2948.42 446.104C2951.04 446.418 2953.69 445.758 2955.86 444.248V444.248Z" fill="#FFE4E4"/>
<path d="M2994.56 601.708L3006.64 603.83L3018.57 558.267L3002.75 555.134L2994.56 601.708Z" fill="#FFE4E4"/>
<path d="M3027.95 619.137L2990.01 612.465L2992.58 597.803L3015.87 601.897C3017.8 602.236 3019.64 602.95 3021.28 604C3022.93 605.049 3024.36 606.413 3025.48 608.014C3026.6 609.615 3027.4 611.421 3027.82 613.33C3028.25 615.238 3028.29 617.211 3027.95 619.137V619.137V619.137Z" fill="#A6A6A6"/>
<path d="M2961.42 607.752L2973.68 607.751L2979.51 560.463L2961.42 560.464L2961.42 607.752Z" fill="#FFE4E4"/>
<path d="M2997.33 619.135L2958.8 619.137L2958.79 604.25L2982.44 604.249C2986.39 604.248 2990.17 605.817 2992.97 608.608C2995.76 611.4 2997.33 615.187 2997.33 619.135V619.135L2997.33 619.135Z" fill="#A6A6A6"/>
<path d="M3013.57 594.803C3013.38 594.803 3013.19 594.792 3013 594.769L2998.57 593.582C2997.91 593.504 2997.28 593.294 2996.71 592.964C2996.13 592.634 2995.63 592.191 2995.24 591.662C2994.84 591.132 2994.56 590.528 2994.4 589.885C2994.24 589.242 2994.22 588.574 2994.33 587.922L3007.65 513.241L2998.65 465.767C2998.58 465.381 2998.37 465.035 2998.06 464.793C2997.75 464.55 2997.36 464.427 2996.97 464.446C2996.58 464.466 2996.21 464.626 2995.92 464.899C2995.64 465.171 2995.47 465.536 2995.43 465.927L2984.18 592.555C2984.05 593.825 2983.44 594.998 2982.47 595.826C2981.5 596.654 2980.24 597.072 2978.97 596.992L2965.37 596.486C2964.18 596.401 2963.06 595.884 2962.23 595.03C2961.39 594.177 2960.89 593.047 2960.83 591.855L2959.92 440.087L3030.4 431.277L3035.33 507.318L3035.31 507.398L3018.32 591.073C3018.06 592.136 3017.45 593.081 3016.59 593.757C3015.73 594.433 3014.67 594.802 3013.57 594.803V594.803Z" fill="#A6A6A6"/>
<path d="M2983.16 274.558C2996.72 274.558 3007.72 263.561 3007.72 249.997C3007.72 236.432 2996.72 225.436 2983.16 225.436C2969.59 225.436 2958.6 236.432 2958.6 249.997C2958.6 263.561 2969.59 274.558 2983.16 274.558Z" fill="#FFE4E4"/>
<path d="M3006.3 451.179C3002.46 451.202 2998.69 450.124 2995.44 448.073C2983.55 440.637 2970.03 443.592 2963.04 446.016C2962.34 446.259 2961.6 446.342 2960.87 446.259C2960.14 446.176 2959.44 445.928 2958.82 445.535C2958.2 445.149 2957.68 444.629 2957.3 444.014C2956.91 443.399 2956.67 442.705 2956.59 441.983L2943.87 328.358C2941.74 309.32 2953.21 291.421 2971.14 285.798C2971.81 285.587 2972.5 285.387 2973.19 285.197C2978.77 283.684 2984.62 283.413 2990.31 284.401C2996.01 285.39 3001.42 287.615 3006.16 290.92C3011 294.261 3015.04 298.621 3018 303.692C3020.97 308.763 3022.79 314.423 3023.33 320.273L3034.04 434.66C3034.12 435.4 3034.02 436.148 3033.75 436.843C3033.49 437.539 3033.06 438.163 3032.51 438.667C3028.76 442.14 3017.86 451.178 3006.3 451.179Z" fill="#CCCCCC"/>
<path d="M2967.56 352.725L2938.86 349.569C2938.04 349.479 2937.25 349.214 2936.55 348.793C2935.84 348.371 2935.24 347.802 2934.77 347.125C2934.3 346.448 2933.99 345.679 2933.85 344.869C2933.71 344.06 2933.74 343.23 2933.95 342.435L2941.26 314.589C2941.74 310.413 2943.86 306.599 2947.15 303.983C2950.44 301.368 2954.64 300.164 2958.81 300.635C2962.99 301.107 2966.81 303.216 2969.43 306.5C2972.06 309.783 2973.27 313.973 2972.81 318.152L2973.9 346.827C2973.93 347.648 2973.78 348.466 2973.47 349.226C2973.15 349.985 2972.68 350.668 2972.08 351.227C2971.48 351.787 2970.76 352.21 2969.98 352.469C2969.2 352.727 2968.38 352.815 2967.56 352.725V352.725Z" fill="#CCCCCC"/>
<path d="M3033.93 440.266C3035.11 439.228 3036.04 437.945 3036.67 436.506C3037.3 435.067 3037.61 433.507 3037.57 431.937C3037.53 430.367 3037.15 428.825 3036.45 427.419C3035.75 426.012 3034.75 424.777 3033.52 423.798L3026.45 330.956L3005.66 335.636L3017.86 426.05C3016.36 428.223 3015.7 430.873 3016.02 433.498C3016.33 436.123 3017.6 438.541 3019.58 440.293C3021.56 442.045 3024.12 443.01 3026.76 443.005C3029.4 443 3031.95 442.026 3033.93 440.266V440.266Z" fill="#FFE4E4"/>
<path d="M2997.69 346.888C2997.09 346.329 2996.61 345.646 2996.3 344.887C2995.99 344.127 2995.84 343.309 2995.87 342.488L2996.96 313.813C2996.5 309.635 2997.71 305.444 3000.34 302.161C3002.96 298.877 3006.78 296.768 3010.96 296.297C3015.13 295.825 3019.33 297.029 3022.62 299.645C3025.91 302.26 3028.03 306.074 3028.51 310.25L3035.82 338.096C3036.03 338.891 3036.06 339.721 3035.92 340.531C3035.78 341.34 3035.46 342.109 3035 342.786C3034.53 343.463 3033.93 344.032 3033.22 344.454C3032.52 344.875 3031.73 345.14 3030.91 345.23L3002.21 348.386C3001.39 348.476 3000.57 348.389 2999.79 348.131C2999.01 347.872 2998.29 347.448 2997.69 346.888V346.888Z" fill="#CCCCCC"/>
<path d="M2981.7 275.483C2981.26 275.482 2980.83 275.431 2980.4 275.331L2980.28 275.301C2958.68 271.997 2953.91 259.49 2952.86 254.266C2951.78 248.858 2953.01 243.637 2955.8 241.61C2954.28 236.807 2954.53 232.549 2956.53 228.948C2960.03 222.668 2967.61 220.544 2968.63 220.284C2974.69 215.815 2981.93 218.799 2983.25 219.404C2994.97 215.068 2999.45 218.677 3000.26 219.483C3005.5 220.424 3008.69 222.447 3009.75 225.498C3011.74 231.229 3005.45 238.358 3005.18 238.659L3005.04 238.815L2995.66 239.261C2994.77 239.304 2993.9 239.533 2993.1 239.934C2992.3 240.335 2991.6 240.898 2991.04 241.588C2990.47 242.278 2990.06 243.079 2989.83 243.939C2989.59 244.798 2989.54 245.698 2989.68 246.578V246.578C2989.93 247.715 2990.25 248.835 2990.64 249.934C2992.24 254.94 2993.44 259.217 2991.89 260.843C2991.54 261.158 2991.11 261.367 2990.64 261.448C2990.18 261.528 2989.7 261.476 2989.27 261.298C2987.8 260.907 2986.8 260.989 2986.31 261.543C2985.54 262.402 2985.77 264.577 2986.97 267.668C2987.35 268.646 2987.45 269.707 2987.26 270.738C2987.08 271.768 2986.61 272.729 2985.92 273.515C2985.4 274.129 2984.76 274.623 2984.03 274.963C2983.3 275.302 2982.5 275.48 2981.7 275.483Z" fill="#A6A6A6"/>
<path d="M3271.76 354H3150.76C3146.25 353.994 3141.93 352.202 3138.74 349.015C3135.56 345.828 3133.76 341.507 3133.76 337V155.168C3133.76 150.661 3135.56 146.34 3138.74 143.153C3141.93 139.966 3146.25 138.173 3150.76 138.168H3271.76C3276.27 138.173 3280.59 139.966 3283.77 143.153C3286.96 146.34 3288.75 150.661 3288.76 155.168V337C3288.75 341.507 3286.96 345.828 3283.77 349.015C3280.59 352.202 3276.27 353.994 3271.76 354V354ZM3150.76 140.168C3146.78 140.172 3142.97 141.754 3140.16 144.566C3137.35 147.378 3135.76 151.191 3135.76 155.168V337C3135.76 340.976 3137.35 344.789 3140.16 347.601C3142.97 350.413 3146.78 351.995 3150.76 352H3271.76C3275.74 351.995 3279.55 350.413 3282.36 347.601C3285.17 344.789 3286.76 340.976 3286.76 337V155.168C3286.76 151.191 3285.17 147.378 3282.36 144.566C3279.55 141.754 3275.74 140.172 3271.76 140.168H3150.76Z" fill="#CCCCCC"/>
<path d="M3253.26 225.584H3169.26C3167.01 225.581 3164.85 224.685 3163.25 223.092C3161.66 221.498 3160.76 219.338 3160.76 217.084V177.084C3160.76 174.83 3161.66 172.67 3163.25 171.076C3164.85 169.483 3167.01 168.587 3169.26 168.584H3253.26C3255.51 168.587 3257.67 169.483 3259.27 171.076C3260.86 172.67 3261.76 174.83 3261.76 177.084V217.084C3261.76 219.338 3260.86 221.498 3259.27 223.092C3257.67 224.685 3255.51 225.581 3253.26 225.584Z" fill="#CCCCCC"/>
<path d="M3247.26 263.084H3175.26C3173.14 263.084 3171.1 262.241 3169.6 260.741C3168.1 259.241 3167.26 257.206 3167.26 255.084C3167.26 252.962 3168.1 250.927 3169.6 249.427C3171.1 247.927 3173.14 247.084 3175.26 247.084H3247.26C3249.38 247.084 3251.42 247.927 3252.92 249.427C3254.42 250.927 3255.26 252.962 3255.26 255.084C3255.26 257.206 3254.42 259.241 3252.92 260.741C3251.42 262.241 3249.38 263.084 3247.26 263.084Z" fill="#CCCCCC"/>
<path d="M3247.26 293.084H3175.26C3173.14 293.084 3171.1 292.241 3169.6 290.741C3168.1 289.241 3167.26 287.206 3167.26 285.084C3167.26 282.962 3168.1 280.927 3169.6 279.427C3171.1 277.927 3173.14 277.084 3175.26 277.084H3247.26C3249.38 277.084 3251.42 277.927 3252.92 279.427C3254.42 280.927 3255.26 282.962 3255.26 285.084C3255.26 287.206 3254.42 289.241 3252.92 290.741C3251.42 292.241 3249.38 293.084 3247.26 293.084Z" fill="#CCCCCC"/>
<path d="M3247.26 323.084H3175.26C3173.14 323.084 3171.1 322.241 3169.6 320.741C3168.1 319.241 3167.26 317.206 3167.26 315.084C3167.26 312.962 3168.1 310.927 3169.6 309.427C3171.1 307.927 3173.14 307.084 3175.26 307.084H3247.26C3249.38 307.084 3251.42 307.927 3252.92 309.427C3254.42 310.927 3255.26 312.962 3255.26 315.084C3255.26 317.206 3254.42 319.241 3252.92 320.741C3251.42 322.241 3249.38 323.084 3247.26 323.084Z" fill="#CCCCCC"/>
<path d="M3566.76 456H3445.76C3441.25 455.994 3436.93 454.202 3433.74 451.015C3430.56 447.828 3428.76 443.507 3428.76 439V257.168C3428.76 252.661 3430.56 248.34 3433.74 245.153C3436.93 241.966 3441.25 240.173 3445.76 240.168H3566.76C3571.27 240.173 3575.59 241.966 3578.77 245.153C3581.96 248.34 3583.75 252.661 3583.76 257.168V439C3583.75 443.507 3581.96 447.828 3578.77 451.015C3575.59 454.202 3571.27 455.994 3566.76 456ZM3445.76 242.168C3441.78 242.172 3437.97 243.754 3435.16 246.566C3432.35 249.378 3430.76 253.191 3430.76 257.168V439C3430.76 442.976 3432.35 446.789 3435.16 449.601C3437.97 452.413 3441.78 453.995 3445.76 454H3566.76C3570.74 453.995 3574.55 452.413 3577.36 449.601C3580.17 446.789 3581.76 442.976 3581.76 439V257.168C3581.76 253.191 3580.17 249.378 3577.36 246.566C3574.55 243.754 3570.74 242.172 3566.76 242.168H3445.76Z" fill="#CCCCCC"/>
<path d="M3542.26 285.084H3470.26C3468.14 285.084 3466.1 284.241 3464.6 282.741C3463.1 281.241 3462.26 279.206 3462.26 277.084C3462.26 274.962 3463.1 272.927 3464.6 271.427C3466.1 269.927 3468.14 269.084 3470.26 269.084H3542.26C3544.38 269.084 3546.42 269.927 3547.92 271.427C3549.42 272.927 3550.26 274.962 3550.26 277.084C3550.26 279.206 3549.42 281.241 3547.92 282.741C3546.42 284.241 3544.38 285.084 3542.26 285.084Z" fill="#CCCCCC"/>
<path d="M3542.26 315.084H3470.26C3468.14 315.084 3466.1 314.241 3464.6 312.741C3463.1 311.241 3462.26 309.206 3462.26 307.084C3462.26 304.962 3463.1 302.927 3464.6 301.427C3466.1 299.927 3468.14 299.084 3470.26 299.084H3542.26C3544.38 299.084 3546.42 299.927 3547.92 301.427C3549.42 302.927 3550.26 304.962 3550.26 307.084C3550.26 309.206 3549.42 311.241 3547.92 312.741C3546.42 314.241 3544.38 315.084 3542.26 315.084Z" fill="#CCCCCC"/>
<path d="M3548.26 391.584H3464.26C3462.01 391.581 3459.85 390.685 3458.25 389.091C3456.66 387.498 3455.76 385.337 3455.76 383.084V343.084C3455.76 340.83 3456.66 338.67 3458.25 337.077C3459.85 335.483 3462.01 334.587 3464.26 334.584H3548.26C3550.51 334.587 3552.67 335.483 3554.27 337.077C3555.86 338.67 3556.76 340.83 3556.76 343.084V383.084C3556.76 385.337 3555.86 387.498 3554.27 389.091C3552.67 390.685 3550.51 391.581 3548.26 391.584V391.584Z" fill="#E6E6E6"/>
<path d="M3542.26 427.084H3470.26C3468.14 427.084 3466.1 426.241 3464.6 424.741C3463.1 423.241 3462.26 421.206 3462.26 419.084C3462.26 416.962 3463.1 414.927 3464.6 413.427C3466.1 411.927 3468.14 411.084 3470.26 411.084H3542.26C3544.38 411.084 3546.42 411.927 3547.92 413.427C3549.42 414.927 3550.26 416.962 3550.26 419.084C3550.26 421.206 3549.42 423.241 3547.92 424.741C3546.42 426.241 3544.38 427.084 3542.26 427.084Z" fill="#CCCCCC"/>
<path d="M3492.76 167H3371.76C3367.25 166.994 3362.93 165.202 3359.74 162.015C3356.56 158.828 3354.76 154.507 3354.76 150V37.168C3354.76 32.6608 3356.56 28.3398 3359.74 25.1528C3362.93 21.9657 3367.25 20.173 3371.76 20.168H3492.76C3497.27 20.173 3501.59 21.9657 3504.77 25.1528C3507.96 28.3398 3509.75 32.6608 3509.76 37.168V150C3509.75 154.507 3507.96 158.828 3504.77 162.015C3501.59 165.202 3497.27 166.994 3492.76 167V167ZM3371.76 22.168C3367.78 22.1725 3363.97 23.7543 3361.16 26.5663C3358.35 29.3784 3356.76 33.1911 3356.76 37.168V150C3356.76 153.976 3358.35 157.789 3361.16 160.601C3363.97 163.413 3367.78 164.995 3371.76 165H3492.76C3496.74 164.995 3500.55 163.413 3503.36 160.601C3506.17 157.789 3507.76 153.976 3507.76 150V37.168C3507.76 33.1911 3506.17 29.3784 3503.36 26.5663C3500.55 23.7543 3496.74 22.1725 3492.76 22.168H3371.76Z" fill="#CCCCCC"/>
<path d="M3468.26 131.584H3396.26C3394.14 131.584 3392.1 130.741 3390.6 129.241C3389.1 127.741 3388.26 125.706 3388.26 123.584C3388.26 121.462 3389.1 119.427 3390.6 117.927C3392.1 116.427 3394.14 115.584 3396.26 115.584H3468.26C3470.38 115.584 3472.42 116.427 3473.92 117.927C3475.42 119.427 3476.26 121.462 3476.26 123.584C3476.26 125.706 3475.42 127.741 3473.92 129.241C3472.42 130.741 3470.38 131.584 3468.26 131.584Z" fill="#CCCCCC"/>
<path d="M3468.26 101.584H3396.26C3394.14 101.584 3392.1 100.741 3390.6 99.2408C3389.1 97.7406 3388.26 95.7057 3388.26 93.584C3388.26 91.4623 3389.1 89.4274 3390.6 87.9271C3392.1 86.4268 3394.14 85.584 3396.26 85.584H3468.26C3470.38 85.584 3472.42 86.4268 3473.92 87.9271C3475.42 89.4274 3476.26 91.4623 3476.26 93.584C3476.26 95.7057 3475.42 97.7406 3473.92 99.2408C3472.42 100.741 3470.38 101.584 3468.26 101.584Z" fill="#CCCCCC"/>
<path d="M3468.26 71.584H3396.26C3394.14 71.584 3392.1 70.7411 3390.6 69.2408C3389.1 67.7406 3388.26 65.7057 3388.26 63.584C3388.26 61.4623 3389.1 59.4274 3390.6 57.9271C3392.1 56.4268 3394.14 55.584 3396.26 55.584H3468.26C3470.38 55.584 3472.42 56.4268 3473.92 57.9271C3475.42 59.4274 3476.26 61.4623 3476.26 63.584C3476.26 65.7057 3475.42 67.7406 3473.92 69.2408C3472.42 70.7411 3470.38 71.584 3468.26 71.584Z" fill="#CCCCCC"/>
<path d="M3278.76 166C3291.46 166 3301.76 155.703 3301.76 143C3301.76 130.297 3291.46 120 3278.76 120C3266.06 120 3255.76 130.297 3255.76 143C3255.76 155.703 3266.06 166 3278.76 166Z" fill="#CCCCCC"/>
<path d="M3276.48 151.774C3275.96 151.775 3275.46 151.607 3275.04 151.297L3275.02 151.278L3269.61 147.139C3269.36 146.948 3269.15 146.709 3268.99 146.436C3268.83 146.162 3268.73 145.86 3268.69 145.547C3268.65 145.234 3268.67 144.915 3268.75 144.61C3268.83 144.305 3268.97 144.018 3269.16 143.767C3269.35 143.516 3269.59 143.306 3269.87 143.148C3270.14 142.99 3270.44 142.888 3270.76 142.847C3271.07 142.806 3271.39 142.827 3271.69 142.909C3272 142.992 3272.28 143.134 3272.54 143.327L3276.04 146.011L3284.31 135.221C3284.5 134.971 3284.74 134.761 3285.01 134.603C3285.29 134.446 3285.59 134.343 3285.9 134.302C3286.21 134.261 3286.53 134.281 3286.84 134.363C3287.14 134.444 3287.43 134.585 3287.68 134.777L3287.63 134.847L3287.68 134.778C3288.18 135.166 3288.51 135.738 3288.6 136.37C3288.68 137.001 3288.51 137.639 3288.12 138.145L3278.39 150.836C3278.17 151.129 3277.88 151.366 3277.54 151.528C3277.21 151.691 3276.85 151.775 3276.48 151.774V151.774Z" fill="white"/>
<path d="M3578.76 269C3591.46 269 3601.76 258.703 3601.76 246C3601.76 233.297 3591.46 223 3578.76 223C3566.06 223 3555.76 233.297 3555.76 246C3555.76 258.703 3566.06 269 3578.76 269Z" fill="#CCCCCC"/>
<path d="M3576.48 254.774C3575.96 254.775 3575.46 254.607 3575.04 254.297L3575.02 254.278L3569.61 250.139C3569.36 249.948 3569.15 249.709 3568.99 249.436C3568.83 249.162 3568.73 248.86 3568.69 248.547C3568.65 248.234 3568.67 247.915 3568.75 247.61C3568.83 247.305 3568.97 247.018 3569.16 246.767C3569.35 246.516 3569.59 246.306 3569.87 246.148C3570.14 245.99 3570.44 245.888 3570.76 245.847C3571.07 245.806 3571.39 245.827 3571.69 245.909C3572 245.992 3572.28 246.134 3572.54 246.327L3576.04 249.011L3584.31 238.221C3584.5 237.971 3584.74 237.761 3585.01 237.603C3585.29 237.446 3585.59 237.343 3585.9 237.302C3586.21 237.261 3586.53 237.281 3586.84 237.363C3587.14 237.444 3587.43 237.585 3587.68 237.777L3587.63 237.847L3587.68 237.778C3588.18 238.166 3588.51 238.738 3588.6 239.37C3588.68 240.001 3588.51 240.639 3588.12 241.145L3578.39 253.836C3578.17 254.129 3577.88 254.366 3577.54 254.528C3577.21 254.691 3576.85 254.775 3576.48 254.774Z" fill="white"/>
<path d="M3505.76 46C3518.46 46 3528.76 35.7025 3528.76 23C3528.76 10.2975 3518.46 0 3505.76 0C3493.06 0 3482.76 10.2975 3482.76 23C3482.76 35.7025 3493.06 46 3505.76 46Z" fill="#CCCCCC"/>
<path d="M3503.48 31.7736C3502.96 31.7745 3502.46 31.6072 3502.04 31.2968L3502.02 31.2775L3496.61 27.1392C3496.36 26.9478 3496.15 26.7087 3495.99 26.4355C3495.83 26.1623 3495.73 25.8604 3495.69 25.5472C3495.65 25.2339 3495.67 24.9154 3495.75 24.61C3495.83 24.3046 3495.97 24.0182 3496.16 23.7673C3496.35 23.5164 3496.59 23.3059 3496.87 23.1479C3497.14 22.99 3497.44 22.8876 3497.76 22.8466C3498.07 22.8057 3498.39 22.827 3498.69 22.9094C3499 22.9918 3499.28 23.1337 3499.54 23.3268L3503.04 26.0114L3511.31 15.2215C3511.5 14.9712 3511.74 14.7612 3512.01 14.6034C3512.29 14.4456 3512.59 14.3432 3512.9 14.3019C3513.21 14.2606 3513.53 14.2813 3513.84 14.3629C3514.14 14.4444 3514.43 14.5851 3514.68 14.777L3514.63 14.8469L3514.68 14.778C3515.18 15.166 3515.51 15.7384 3515.6 16.3696C3515.68 17.0008 3515.51 17.6392 3515.12 18.1449L3505.39 30.8364C3505.17 31.1288 3504.88 31.3655 3504.54 31.528C3504.21 31.6906 3503.85 31.7746 3503.48 31.7736Z" fill="white"/>
<path d="M3172 620H2791C2790.73 620 2790.48 619.895 2790.29 619.707C2790.11 619.52 2790 619.265 2790 619C2790 618.735 2790.11 618.48 2790.29 618.293C2790.48 618.105 2790.73 618 2791 618H3172C3172.27 618 3172.52 618.105 3172.71 618.293C3172.89 618.48 3173 618.735 3173 619C3173 619.265 3172.89 619.52 3172.71 619.707C3172.52 619.895 3172.27 620 3172 620Z" fill="#A6A6A6"/>
</g>
<line x1="1027" y1="329" x2="1400" y2="329" stroke="#007BFF" stroke-width="10"/>
<circle cx="1021" cy="329" r="19" fill="#007BFF"/>
<circle cx="1021" cy="329" r="13" fill="white"/>
<circle cx="1399" cy="329" r="19" fill="#007BFF"/>
<circle cx="1399" cy="329" r="13" fill="white"/>
<line x1="2281" y1="323" x2="2654" y2="323" stroke="#CCCCCC" stroke-width="10"/>
<circle cx="2275" cy="323" r="19" fill="#CCCCCC"/>
<circle cx="2275" cy="323" r="13" fill="#F1F1F1"/>
<circle cx="2653" cy="323" r="19" fill="#CCCCCC"/>
<circle cx="2653" cy="323" r="13" fill="#F1F1F1"/>
<defs>
<clipPath id="clip0_654_724">
<rect width="883.968" height="607.464" fill="white" transform="translate(0 42)"/>
</clipPath>
<clipPath id="clip1_654_724">
<rect width="601.6" height="630" fill="white" transform="translate(1536 19)"/>
</clipPath>
<clipPath id="clip2_654_724">
<rect width="811.76" height="620" fill="white" transform="translate(2790)"/>
</clipPath>
</defs>
</svg>
