<svg width="3602" height="631" viewBox="0 0 3602 631" fill="none" xmlns="http://www.w3.org/2000/svg">
<g clip-path="url(#clip0_654_725)">
<path d="M772.718 151.072H772.593L701.103 181.599L603.29 223.366C602.908 223.527 602.498 223.61 602.083 223.613C601.669 223.615 601.258 223.535 600.874 223.378L499.959 181.512L426.713 151.122L426.601 151.072H426.476C425.321 151.074 424.213 151.533 423.395 152.35C422.578 153.168 422.118 154.276 422.117 155.431V344.743C422.118 345.899 422.578 347.007 423.395 347.824C424.213 348.642 425.321 349.101 426.476 349.103H772.718C773.874 349.101 774.982 348.642 775.799 347.824C776.616 347.007 777.076 345.899 777.077 344.743V155.431C777.076 154.276 776.616 153.168 775.799 152.35C774.982 151.533 773.874 151.074 772.718 151.072Z" fill="white"/>
<path d="M773.029 152.318C772.902 152.318 772.778 152.279 772.673 152.206L600.45 32.2648C599.926 31.9015 599.303 31.7074 598.665 31.7085C598.028 31.7095 597.405 31.9058 596.883 32.2709L425.9 152.205C425.764 152.299 425.597 152.336 425.435 152.307C425.273 152.278 425.129 152.186 425.034 152.051C424.939 151.916 424.902 151.75 424.93 151.587C424.959 151.425 425.05 151.28 425.184 151.185L596.167 31.2511C596.9 30.7401 597.771 30.4653 598.663 30.4639C599.556 30.4624 600.428 30.7343 601.162 31.2429L773.385 151.184C773.494 151.26 773.576 151.368 773.619 151.494C773.661 151.619 773.663 151.755 773.623 151.882C773.584 152.008 773.504 152.119 773.398 152.197C773.291 152.276 773.161 152.318 773.029 152.318H773.029Z" fill="#3F3D56"/>
<path d="M435.67 156.57L598.834 35.6445L763.237 165.174L607.241 257.65L522.549 238.346L435.67 156.57Z" fill="#E6E6E6"/>
<path d="M529.698 314.769H449.091C448.092 314.771 447.134 314.375 446.427 313.67C445.719 312.965 445.321 312.008 445.32 311.009C445.318 310.01 445.713 309.052 446.419 308.344C447.124 307.637 448.081 307.239 449.08 307.237H529.698C530.697 307.236 531.656 307.631 532.363 308.336C533.07 309.042 533.468 309.999 533.47 310.998C533.471 311.996 533.076 312.955 532.371 313.662C531.666 314.369 530.708 314.768 529.709 314.769H529.698Z" fill="#007BFF"/>
<path d="M478.011 298.578H449.091C448.093 298.579 447.135 298.183 446.428 297.478C445.721 296.773 445.324 295.816 445.322 294.817C445.321 293.819 445.716 292.861 446.42 292.154C447.125 291.447 448.082 291.048 449.08 291.046H478.011C478.506 291.045 478.996 291.141 479.453 291.33C479.911 291.518 480.327 291.795 480.677 292.144C481.028 292.493 481.306 292.908 481.496 293.365C481.686 293.822 481.784 294.311 481.785 294.806C481.786 295.301 481.689 295.791 481.5 296.248C481.312 296.706 481.035 297.121 480.685 297.472C480.336 297.822 479.921 298.1 479.464 298.29C479.007 298.479 478.517 298.577 478.022 298.578H478.011Z" fill="#007BFF"/>
<path d="M601.129 223.923C600.516 223.924 599.91 223.805 599.342 223.573L498.714 181.819V51.1228C498.715 49.9671 499.175 48.8591 499.992 48.0419C500.809 47.2247 501.917 46.765 503.073 46.7637H696.122C697.277 46.765 698.385 47.2247 699.202 48.0419C700.02 48.8591 700.479 49.9671 700.481 51.1228V181.91L700.292 181.991L602.97 223.553C602.387 223.797 601.761 223.923 601.129 223.923Z" fill="white"/>
<path d="M601.129 224.234C600.476 224.235 599.829 224.108 599.224 223.861L498.402 182.027V51.1227C498.404 49.8844 498.896 48.6972 499.772 47.8217C500.648 46.9461 501.835 46.4535 503.073 46.4521H696.122C697.36 46.4535 698.547 46.9461 699.422 47.8217C700.298 48.6972 700.791 49.8844 700.792 51.1227V182.116L603.092 223.839C602.471 224.1 601.803 224.234 601.129 224.234ZM499.648 181.195L599.699 222.71C600.632 223.088 601.677 223.082 602.606 222.692L699.547 181.294V51.1227C699.545 50.2146 699.184 49.3441 698.542 48.702C697.9 48.0599 697.03 47.6988 696.122 47.6977H503.073C502.165 47.6988 501.294 48.0599 500.652 48.702C500.01 49.3441 499.649 50.2146 499.648 51.1227L499.648 181.195Z" fill="#3F3D56"/>
<path d="M771.784 151.072H771.659L700.169 181.599L602.356 223.366C601.974 223.527 601.564 223.61 601.149 223.613C600.734 223.615 600.323 223.535 599.94 223.378L499.025 181.512L425.779 151.122L425.667 151.072H425.542C424.386 151.074 423.278 151.533 422.461 152.35C421.644 153.168 421.184 154.276 421.183 155.431V344.743C421.184 345.899 421.644 347.007 422.461 347.824C423.278 348.642 424.386 349.101 425.542 349.103H771.784C772.94 349.101 774.048 348.642 774.865 347.824C775.682 347.007 776.142 345.899 776.143 344.743V155.431C776.142 154.276 775.682 153.168 774.865 152.35C774.048 151.533 772.94 151.074 771.784 151.072ZM774.898 344.743C774.897 345.569 774.569 346.361 773.985 346.945C773.401 347.529 772.61 347.857 771.784 347.857H425.542C424.716 347.857 423.925 347.529 423.341 346.945C422.757 346.361 422.429 345.569 422.428 344.743V155.431C422.43 154.626 422.742 153.853 423.3 153.272C423.858 152.692 424.619 152.35 425.424 152.318L499.025 182.857L599.46 224.53C600.548 224.973 601.766 224.966 602.848 224.512L700.169 182.95L771.909 152.318C772.712 152.352 773.471 152.695 774.027 153.275C774.584 153.855 774.896 154.628 774.898 155.431V344.743Z" fill="#3F3D56"/>
<path d="M585.463 95.6191H516.962C515.642 95.6172 514.377 95.0915 513.444 94.1574C512.511 93.2233 511.987 91.9572 511.987 90.6372C511.987 89.3171 512.511 88.051 513.444 87.1169C514.377 86.1828 515.642 85.6571 516.962 85.6553H585.463C586.783 85.6571 588.048 86.1828 588.981 87.1169C589.914 88.051 590.438 89.3171 590.438 90.6372C590.438 91.9572 589.914 93.2233 588.981 94.1574C588.048 95.0915 586.783 95.6172 585.463 95.6191Z" fill="#007BFF"/>
<path d="M549.967 74.4452H516.962C515.641 74.4452 514.373 73.9204 513.439 72.9861C512.505 72.0518 511.98 70.7846 511.98 69.4633C511.98 68.1421 512.505 66.8749 513.439 65.9406C514.373 65.0063 515.641 64.4814 516.962 64.4814H549.967C551.288 64.4814 552.555 65.0063 553.49 65.9406C554.424 66.8749 554.949 68.1421 554.949 69.4633C554.949 70.7846 554.424 72.0518 553.49 72.9861C552.555 73.9204 551.288 74.4452 549.967 74.4452Z" fill="#007BFF"/>
<path d="M650.831 145.437H546.211C544.891 145.436 543.626 144.91 542.693 143.976C541.76 143.042 541.236 141.776 541.236 140.456C541.236 139.135 541.76 137.869 542.693 136.935C543.626 136.001 544.891 135.476 546.211 135.474H650.831C652.151 135.476 653.416 136.001 654.349 136.935C655.282 137.869 655.806 139.135 655.806 140.456C655.806 141.776 655.282 143.042 654.349 143.976C653.416 144.91 652.151 145.436 650.831 145.437Z" fill="#CCCCCC"/>
<path d="M650.831 168.479H546.211C544.89 168.479 543.622 167.955 542.688 167.02C541.754 166.086 541.229 164.819 541.229 163.498C541.229 162.176 541.754 160.909 542.688 159.975C543.622 159.041 544.89 158.516 546.211 158.516H650.831C652.152 158.516 653.419 159.041 654.353 159.975C655.288 160.909 655.813 162.176 655.813 163.498C655.813 164.819 655.288 166.086 654.353 167.02C653.419 167.955 652.152 168.479 650.831 168.479Z" fill="#CCCCCC"/>
<path d="M769.853 200.25C796.016 200.25 817.224 179.041 817.224 152.878C817.224 126.716 796.016 105.507 769.853 105.507C743.691 105.507 722.482 126.716 722.482 152.878C722.482 179.041 743.691 200.25 769.853 200.25Z" fill="#007BFF"/>
<path d="M765.339 172.875L751.161 154.644L759.406 148.231L766.119 156.863L788.798 132.922L796.382 140.107L765.339 172.875Z" fill="white"/>
<path d="M239.765 432.853C238.939 431.637 238.389 430.255 238.155 428.804C237.921 427.352 238.008 425.867 238.409 424.453C238.811 423.039 239.518 421.73 240.48 420.619C241.443 419.507 242.637 418.621 243.979 418.021L240.898 382.419L257.224 391.267L257.647 423.719C258.505 426.04 258.482 428.596 257.582 430.902C256.682 433.207 254.967 435.103 252.763 436.229C250.559 437.354 248.018 437.633 245.623 437.011C243.227 436.388 241.143 434.909 239.765 432.853H239.765Z" fill="#9F616A"/>
<path d="M242.859 410.33L242.726 409.994L224.714 364.491L221.856 278.238L222.336 278.204C225.854 277.953 229.386 278.407 232.725 279.54C236.064 280.673 239.143 282.461 241.782 284.801C244.42 287.14 246.564 289.983 248.088 293.163C249.612 296.343 250.486 299.795 250.657 303.317L253.299 349.691L260.787 409.334L242.859 410.33Z" fill="#E5E5E5"/>
<path d="M127.8 600.505L138.154 607.07L168.401 570.255L153.119 560.567L127.8 600.505Z" fill="#9F616A"/>
<path d="M127.302 595.45L147.693 608.378L147.694 608.378C151.14 610.563 153.577 614.028 154.469 618.01C155.361 621.992 154.635 626.165 152.45 629.612L152.182 630.034L118.796 608.868L127.302 595.45Z" fill="#2F2E41"/>
<path d="M225.692 618.15L237.952 618.149L243.784 570.861L225.69 570.862L225.692 618.15Z" fill="#9F616A"/>
<path d="M222.565 614.147L246.709 614.146H246.71C250.791 614.147 254.704 615.768 257.59 618.653C260.475 621.539 262.096 625.452 262.096 629.533V630.033L222.566 630.034L222.565 614.147Z" fill="#2F2E41"/>
<path d="M191.003 420.016L219.866 593.618C219.866 593.618 214.188 607.813 222.704 609.705C231.221 611.598 250.147 607.813 250.147 607.813C250.147 607.813 255.825 593.618 247.308 591.726L231.221 410.337L191.003 420.016Z" fill="#2F2E41"/>
<path d="M208.037 423.112L188.041 504.286L137.064 578.306C137.064 578.306 118.138 580.199 128.547 590.608C138.956 601.018 143.688 601.964 143.688 601.964C143.688 601.964 159.775 600.071 158.829 592.501L221.502 518.73L250.621 420.273L208.037 423.112Z" fill="#2F2E41"/>
<path d="M190.587 430.261L185.759 402.703C178.487 395.103 192.227 376.312 193.759 374.271L192.86 362.585C192.094 362.454 191.393 362.072 190.867 361.5C186.356 356.899 186.659 338.749 186.674 337.978L181.696 286.193L194.082 278.968L225.404 277.958L240.7 291.215L255.433 426.566L254.908 426.596L190.587 430.261Z" fill="#E5E5E5"/>
<path d="M201.427 439.927C200.165 439.173 199.083 438.152 198.258 436.936C197.433 435.719 196.884 434.336 196.652 432.885C196.419 431.433 196.507 429.948 196.91 428.534C197.313 427.121 198.021 425.812 198.984 424.702L181.159 393.73L199.694 394.858L213.78 424.096C215.538 425.838 216.596 428.164 216.754 430.634C216.912 433.105 216.158 435.547 214.635 437.498C213.113 439.449 210.927 440.774 208.493 441.222C206.059 441.669 203.545 441.209 201.427 439.927H201.427Z" fill="#9F616A"/>
<path d="M185.642 410.965L170.265 375.321L167.695 302.51C167.607 300.118 168.177 297.747 169.342 295.656C170.506 293.564 172.222 291.832 174.302 290.647L192.041 279.808L195.868 356.352L207.315 402.099L185.642 410.965Z" fill="#E5E5E5"/>
<path d="M213.238 271.053C225.393 271.053 235.247 261.199 235.247 249.045C235.247 236.89 225.393 227.036 213.238 227.036C201.083 227.036 191.23 236.89 191.23 249.045C191.23 261.199 201.083 271.053 213.238 271.053Z" fill="#9F616A"/>
<path d="M221.196 216.548C199.031 210.156 192.74 228.527 192.74 228.527C182.056 235.615 188.745 244.502 188.745 244.502C186.049 245.1 191.439 260.876 193.237 260.477C194.196 260.264 196.662 263.208 198.753 265.999C199.47 265.998 200.186 266.067 200.89 266.205L196.832 251.192C196.832 251.192 210.511 249.096 214.704 242.507C218.717 236.202 231.926 234.212 235.685 238.423C235.907 237.212 236.362 236.056 237.025 235.019C237.539 234.231 238.21 233.558 238.996 233.043C235.673 218.919 221.196 216.548 221.196 216.548Z" fill="#2F2E41"/>
<path opacity="0.2" d="M196.224 328.464L194.996 372.275L210.238 404.401L196.224 327.299" fill="black"/>
<path d="M382 630.464H1C0.734784 630.464 0.480429 630.358 0.292892 630.171C0.105356 629.983 0 629.729 0 629.464C0 629.199 0.105356 628.944 0.292892 628.757C0.480429 628.569 0.734784 628.464 1 628.464H382C382.265 628.464 382.52 628.569 382.707 628.757C382.895 628.944 383 629.199 383 629.464C383 629.729 382.895 629.983 382.707 630.171C382.52 630.358 382.265 630.464 382 630.464Z" fill="#3F3D56"/>
<path d="M329.336 70.2782C329.013 70.087 328.642 69.9909 328.267 70.0007C327.891 70.0105 327.526 70.1259 327.213 70.3338C326.9 70.5416 326.652 70.8333 326.498 71.1756C326.343 71.5179 326.288 71.8969 326.339 72.269L327.882 83.5924C327.904 83.7593 327.892 83.9288 327.849 84.0914C327.8 84.2515 327.72 84.3999 327.611 84.5275L318.965 94.7711C318.676 95.1008 318.506 95.5181 318.483 95.9559C318.46 96.3936 318.585 96.8264 318.838 97.1846L318.847 97.1978C319.089 97.5599 319.445 97.8306 319.858 97.9669C320.272 98.1032 320.719 98.0972 321.129 97.9498L327.374 95.8303C327.581 95.7618 327.802 95.7509 328.015 95.7988C328.228 95.8466 328.424 95.9514 328.581 96.102C328.699 96.211 328.793 96.3431 328.857 96.4902C328.921 96.6372 328.954 96.7959 328.954 96.9563L329.198 119.205C329.2 119.527 329.281 119.844 329.434 120.128C329.586 120.412 329.805 120.654 330.072 120.834C330.338 121.014 330.643 121.127 330.962 121.164C331.281 121.201 331.604 121.161 331.904 121.048L378.512 103.223C378.863 103.089 379.17 102.859 379.396 102.559C379.622 102.259 379.76 101.901 379.792 101.526C379.824 101.151 379.749 100.775 379.577 100.441C379.405 100.107 379.142 99.828 378.818 99.6366L378.184 99.2597L329.336 70.2782V70.2782ZM327.128 72.1602C327.098 71.9368 327.131 71.7094 327.224 71.5041C327.318 71.2988 327.467 71.1239 327.655 70.9994C327.843 70.8749 328.062 70.806 328.288 70.8003C328.513 70.7947 328.735 70.8527 328.929 70.9676L377.761 99.9405L378.411 100.326C378.604 100.441 378.761 100.609 378.864 100.809C378.966 101.009 379.011 101.234 378.992 101.458C378.973 101.683 378.891 101.897 378.756 102.077C378.621 102.257 378.438 102.396 378.229 102.477L331.621 120.301C331.441 120.37 331.247 120.394 331.056 120.371C330.864 120.349 330.681 120.281 330.521 120.172C330.362 120.063 330.231 119.918 330.14 119.748C330.049 119.578 330 119.389 329.997 119.196L329.753 96.9472C329.754 96.727 329.716 96.5085 329.642 96.3012L377.092 101.753C377.277 101.776 377.464 101.734 377.621 101.634C377.779 101.533 377.896 101.381 377.953 101.204C378.01 101.026 378.003 100.834 377.933 100.661C377.863 100.488 377.735 100.345 377.571 100.256C377.532 100.234 377.49 100.216 377.446 100.202L328.686 83.9253C328.697 83.778 328.693 83.6298 328.671 83.4835L327.128 72.1603L327.128 72.1602Z" fill="#F1F1F1"/>
<path d="M329.336 70.2782C329.013 70.087 328.642 69.9909 328.267 70.0007C327.891 70.0105 327.526 70.1259 327.213 70.3338C326.9 70.5416 326.652 70.8333 326.498 71.1756C326.343 71.5179 326.288 71.8969 326.339 72.269L327.882 83.5924C327.904 83.7593 327.892 83.9288 327.849 84.0914C327.8 84.2515 327.72 84.3999 327.611 84.5275L318.965 94.7711C318.676 95.1008 318.506 95.5181 318.483 95.9559C318.46 96.3936 318.585 96.8264 318.838 97.1846L318.847 97.1978C319.089 97.5599 319.445 97.8306 319.858 97.9669C320.272 98.1032 320.719 98.0972 321.129 97.9498L327.374 95.8303C327.581 95.7618 327.802 95.7509 328.015 95.7988C328.228 95.8466 328.424 95.9514 328.581 96.102C328.699 96.211 328.793 96.3431 328.857 96.4902C328.921 96.6372 328.954 96.7959 328.954 96.9563L329.198 119.205C329.2 119.527 329.281 119.844 329.434 120.128C329.586 120.412 329.805 120.654 330.072 120.834C330.338 121.014 330.643 121.127 330.962 121.164C331.281 121.201 331.604 121.161 331.904 121.048L378.512 103.223C378.863 103.089 379.17 102.859 379.396 102.559C379.622 102.259 379.76 101.901 379.792 101.526C379.824 101.151 379.749 100.775 379.577 100.441C379.405 100.107 379.142 99.828 378.818 99.6366L378.184 99.2597L329.336 70.2782V70.2782ZM327.128 72.1602C327.098 71.9368 327.131 71.7094 327.224 71.5041C327.318 71.2988 327.467 71.1239 327.655 70.9994C327.843 70.8749 328.062 70.806 328.288 70.8003C328.513 70.7947 328.735 70.8527 328.929 70.9676L377.761 99.9405L378.411 100.326C378.604 100.441 378.761 100.609 378.864 100.809C378.966 101.009 379.011 101.234 378.992 101.458C378.973 101.683 378.891 101.897 378.756 102.077C378.621 102.257 378.438 102.396 378.229 102.477L331.621 120.301C331.441 120.37 331.247 120.394 331.056 120.371C330.864 120.349 330.681 120.28 330.521 120.172C330.362 120.063 330.231 119.918 330.14 119.748C330.049 119.578 330 119.389 329.997 119.196L329.753 96.9471C329.753 96.727 329.716 96.5084 329.642 96.3011C329.537 96.0026 329.361 95.7341 329.13 95.5189C329.098 95.4873 329.063 95.458 329.028 95.4286L329.026 95.4254C328.764 95.2092 328.452 95.0636 328.118 95.0022C327.784 94.9408 327.44 94.9658 327.118 95.0748L320.871 97.1965C320.624 97.2859 320.355 97.2895 320.106 97.2066C319.858 97.1238 319.645 96.9595 319.501 96.7403L319.497 96.7337C319.343 96.5196 319.268 96.2597 319.282 95.9967C319.296 95.7337 319.399 95.4834 319.574 95.2868L328.221 85.0433C328.313 84.936 328.393 84.8187 328.459 84.6935L328.463 84.6912C328.527 84.5714 328.578 84.445 328.615 84.3144C328.652 84.1876 328.676 84.0572 328.686 83.9254C328.698 83.7781 328.693 83.6299 328.671 83.4836L327.128 72.1603V72.1602Z" fill="#E5E5E5"/>
<path d="M328.686 83.9256L377.446 100.202C377.49 100.216 377.532 100.234 377.571 100.256C377.735 100.345 377.863 100.488 377.933 100.661C378.003 100.834 378.009 101.026 377.953 101.204C377.896 101.381 377.779 101.533 377.621 101.634C377.464 101.734 377.277 101.776 377.092 101.753L329.642 96.3013L328.804 96.2059L328.896 95.4134L329.026 95.4256L329.028 95.4288L377.182 100.958L328.463 84.6914L328.459 84.6937L328.249 84.621L328.502 83.8633L328.686 83.9256Z" fill="#E5E5E5"/>
<path d="M873.112 23.2782L824.265 52.2597L823.631 52.6366C823.307 52.828 823.044 53.1069 822.872 53.4412C822.7 53.7754 822.625 54.1515 822.657 54.5262C822.689 54.9008 822.826 55.2588 823.053 55.559C823.279 55.8592 823.586 56.0894 823.937 56.2231L870.544 74.0476C870.845 74.1614 871.168 74.2014 871.487 74.1643C871.805 74.1272 872.111 74.0139 872.377 73.8342C872.644 73.654 872.863 73.4116 873.015 73.1277C873.167 72.8439 873.248 72.5273 873.251 72.2052L873.495 49.9563C873.495 49.7959 873.528 49.6372 873.592 49.4902C873.656 49.3432 873.75 49.211 873.867 49.102C874.025 48.9514 874.221 48.8466 874.434 48.7988C874.646 48.7509 874.868 48.7618 875.075 48.8303L881.319 50.9498C881.729 51.0972 882.177 51.1032 882.59 50.9669C883.004 50.8307 883.36 50.5599 883.602 50.1978L883.611 50.1846C883.864 49.8264 883.989 49.3936 883.966 48.9559C883.942 48.5181 883.773 48.1008 883.484 47.7711L874.837 37.5275C874.729 37.3999 874.648 37.2515 874.6 37.0914C874.557 36.9288 874.545 36.7593 874.566 36.5924L876.11 25.269C876.161 24.8969 876.106 24.5179 875.951 24.1756C875.796 23.8333 875.548 23.5416 875.235 23.3338C874.923 23.126 874.557 23.0105 874.182 23.0007C873.806 22.9909 873.436 23.087 873.112 23.2782V23.2782ZM875.321 25.1603L873.777 36.4836C873.756 36.6298 873.751 36.778 873.763 36.9254L825.002 53.2017C824.959 53.2157 824.917 53.234 824.877 53.2561C824.713 53.3448 824.585 53.4881 824.516 53.6611C824.446 53.8341 824.439 54.026 824.496 54.2035C824.553 54.3811 824.67 54.5332 824.827 54.6336C824.985 54.7339 825.172 54.7762 825.357 54.7531L872.807 49.3011C872.733 49.5085 872.695 49.727 872.695 49.9471L872.451 72.1959C872.449 72.3887 872.4 72.5782 872.309 72.7481C872.218 72.918 872.087 73.0634 871.927 73.172C871.768 73.2805 871.585 73.3489 871.393 73.3715C871.202 73.394 871.008 73.37 870.827 73.3014L824.22 55.4769C824.01 55.3956 823.828 55.2571 823.693 55.077C823.558 54.8969 823.476 54.6826 823.457 54.4584C823.438 54.2342 823.482 54.0092 823.585 53.8089C823.688 53.6087 823.845 53.4413 824.038 53.3259L824.688 52.9405L873.519 23.9675C873.713 23.8526 873.936 23.7947 874.161 23.8003C874.387 23.8059 874.606 23.8749 874.794 23.9994C874.982 24.1238 875.131 24.2987 875.224 24.504C875.318 24.7093 875.351 24.9367 875.321 25.1602V25.1603Z" fill="#F1F1F1"/>
<path d="M873.112 23.2782L824.265 52.2597L823.631 52.6366C823.307 52.828 823.044 53.1069 822.872 53.4412C822.7 53.7754 822.625 54.1515 822.657 54.5262C822.689 54.9008 822.826 55.2588 823.053 55.559C823.279 55.8592 823.586 56.0894 823.937 56.2231L870.544 74.0476C870.845 74.1614 871.168 74.2014 871.487 74.1643C871.805 74.1272 872.111 74.0139 872.377 73.8342C872.644 73.654 872.863 73.4116 873.015 73.1277C873.167 72.8439 873.248 72.5273 873.251 72.2052L873.495 49.9563C873.495 49.7959 873.528 49.6372 873.592 49.4902C873.656 49.3432 873.75 49.211 873.867 49.102C874.025 48.9514 874.221 48.8466 874.434 48.7988C874.646 48.7509 874.868 48.7618 875.075 48.8303L881.319 50.9498C881.729 51.0972 882.177 51.1032 882.59 50.9669C883.004 50.8307 883.36 50.5599 883.602 50.1978L883.611 50.1846C883.864 49.8264 883.989 49.3936 883.966 48.9559C883.942 48.5181 883.773 48.1008 883.484 47.7711L874.837 37.5275C874.729 37.3999 874.648 37.2515 874.6 37.0914C874.557 36.9288 874.545 36.7593 874.566 36.5924L876.11 25.269C876.161 24.8969 876.106 24.5179 875.951 24.1756C875.796 23.8333 875.548 23.5416 875.235 23.3338C874.923 23.126 874.557 23.0105 874.182 23.0007C873.806 22.9909 873.436 23.087 873.112 23.2782V23.2782ZM875.321 25.1603L873.777 36.4836C873.756 36.6299 873.751 36.778 873.763 36.9254C873.773 37.0572 873.797 37.1876 873.834 37.3144C873.871 37.445 873.922 37.5714 873.986 37.6912L873.989 37.6935C874.055 37.8187 874.136 37.936 874.228 38.0433L882.875 48.2867C883.05 48.4833 883.153 48.7337 883.167 48.9967C883.181 49.2597 883.105 49.5196 882.952 49.7337L882.948 49.7402C882.804 49.9595 882.591 50.1238 882.342 50.2066C882.094 50.2895 881.824 50.2859 881.578 50.1965L875.331 48.0748C875.009 47.9658 874.665 47.9408 874.331 48.0022C873.997 48.0636 873.684 48.2092 873.422 48.4254L873.42 48.4286C873.385 48.458 873.351 48.4873 873.319 48.5188C873.087 48.7341 872.912 49.0026 872.807 49.3011C872.733 49.5084 872.695 49.727 872.695 49.9471L872.451 72.1959C872.449 72.3887 872.4 72.5781 872.309 72.7481C872.218 72.918 872.087 73.0634 871.927 73.1719C871.768 73.2805 871.585 73.3489 871.393 73.3714C871.202 73.394 871.008 73.37 870.827 73.3014L824.22 55.4769C824.01 55.3956 823.828 55.2571 823.693 55.077C823.558 54.8969 823.476 54.6826 823.457 54.4584C823.438 54.2342 823.482 54.0092 823.585 53.8089C823.688 53.6087 823.845 53.4413 824.038 53.3259L824.688 52.9405L873.519 23.9676C873.713 23.8526 873.936 23.7947 874.161 23.8003C874.387 23.806 874.606 23.8749 874.794 23.9994C874.982 24.1239 875.131 24.2987 875.224 24.504C875.318 24.7093 875.351 24.9368 875.321 25.1602V25.1603Z" fill="#E5E5E5"/>
<path d="M873.947 36.8633L874.2 37.621L873.989 37.6937L873.986 37.6914L825.266 53.9576L873.42 48.4288L873.423 48.4256L873.552 48.4134L873.645 49.2059L872.807 49.3013L825.357 54.7533C825.172 54.7764 824.984 54.7342 824.827 54.6338C824.67 54.5335 824.553 54.3814 824.496 54.2038C824.439 54.0262 824.446 53.8343 824.516 53.6613C824.585 53.4883 824.713 53.3451 824.877 53.2564C824.917 53.2342 824.959 53.216 825.002 53.202L873.763 36.9256L873.947 36.8633Z" fill="#E5E5E5"/>
<path d="M455.126 428.221C454.792 428.393 454.513 428.654 454.32 428.977C454.128 429.3 454.03 429.67 454.039 430.046C454.047 430.421 454.161 430.787 454.368 431.1C454.574 431.414 454.865 431.663 455.207 431.819L465.603 436.566C465.755 436.637 465.892 436.737 466.006 436.861C466.116 436.987 466.198 437.135 466.248 437.294L470.285 450.077C470.41 450.498 470.672 450.864 471.029 451.117C471.387 451.371 471.819 451.497 472.257 451.475L472.273 451.474C472.709 451.463 473.128 451.307 473.464 451.03C473.8 450.753 474.034 450.372 474.129 449.947L475.675 443.536C475.727 443.324 475.837 443.131 475.991 442.977C476.145 442.823 476.338 442.713 476.55 442.66C476.705 442.619 476.866 442.61 477.025 442.635C477.183 442.659 477.335 442.716 477.471 442.802L496.406 454.486C496.68 454.656 496.991 454.757 497.312 454.78C497.633 454.803 497.955 454.747 498.25 454.618C498.544 454.489 498.803 454.292 499.005 454.042C499.207 453.792 499.346 453.498 499.41 453.183L509.252 404.264C509.327 403.896 509.296 403.514 509.164 403.162C509.031 402.81 508.802 402.503 508.502 402.275C508.203 402.048 507.845 401.91 507.47 401.877C507.096 401.844 506.72 401.917 506.385 402.088L505.727 402.423L455.126 428.221ZM455.537 431.094C455.332 431 455.157 430.85 455.034 430.662C454.91 430.473 454.842 430.254 454.837 430.028C454.833 429.803 454.891 429.58 455.007 429.387C455.123 429.193 455.291 429.036 455.492 428.934L506.077 403.144L506.75 402.801C506.951 402.699 507.176 402.656 507.4 402.676C507.624 402.697 507.838 402.779 508.017 402.915C508.197 403.051 508.334 403.235 508.414 403.445C508.494 403.655 508.514 403.884 508.47 404.105L498.628 453.024C498.59 453.213 498.506 453.39 498.385 453.539C498.263 453.689 498.107 453.808 497.931 453.884C497.754 453.961 497.561 453.994 497.368 453.98C497.176 453.966 496.99 453.907 496.826 453.805L477.89 442.121C477.704 442.004 477.499 441.919 477.284 441.871L507.251 404.679C507.369 404.534 507.434 404.354 507.433 404.167C507.432 403.981 507.366 403.8 507.247 403.657C507.127 403.514 506.961 403.418 506.778 403.384C506.594 403.35 506.405 403.382 506.242 403.473C506.202 403.495 506.164 403.521 506.129 403.55L466.313 436.065C466.195 435.976 466.067 435.901 465.932 435.841L455.537 431.094Z" fill="#F1F1F1"/>
<path d="M455.126 428.221C454.792 428.393 454.513 428.654 454.32 428.977C454.128 429.3 454.03 429.67 454.039 430.046C454.047 430.421 454.161 430.787 454.368 431.1C454.574 431.414 454.865 431.663 455.207 431.819L465.603 436.566C465.755 436.637 465.892 436.737 466.006 436.861C466.116 436.987 466.198 437.135 466.248 437.294L470.285 450.077C470.41 450.498 470.672 450.864 471.029 451.117C471.387 451.371 471.819 451.497 472.257 451.475L472.273 451.474C472.709 451.463 473.128 451.307 473.464 451.03C473.8 450.753 474.034 450.372 474.129 449.947L475.675 443.536C475.727 443.324 475.837 443.131 475.991 442.977C476.145 442.823 476.338 442.713 476.55 442.66C476.705 442.619 476.866 442.61 477.025 442.635C477.183 442.659 477.335 442.716 477.471 442.802L496.406 454.486C496.68 454.656 496.991 454.757 497.312 454.78C497.633 454.803 497.955 454.747 498.25 454.618C498.544 454.489 498.803 454.292 499.005 454.042C499.207 453.792 499.346 453.498 499.41 453.183L509.252 404.264C509.327 403.896 509.296 403.514 509.164 403.162C509.031 402.81 508.802 402.503 508.502 402.275C508.203 402.048 507.845 401.91 507.47 401.877C507.096 401.844 506.72 401.917 506.385 402.088L505.727 402.423L455.126 428.221ZM455.537 431.094C455.332 431 455.157 430.85 455.034 430.662C454.91 430.473 454.842 430.254 454.837 430.028C454.833 429.803 454.891 429.58 455.007 429.387C455.123 429.193 455.291 429.036 455.492 428.934L506.077 403.144L506.75 402.801C506.951 402.699 507.176 402.656 507.4 402.676C507.624 402.697 507.838 402.779 508.017 402.915C508.197 403.051 508.334 403.235 508.414 403.445C508.494 403.655 508.514 403.884 508.47 404.105L498.628 453.024C498.59 453.213 498.506 453.39 498.385 453.539C498.263 453.689 498.107 453.808 497.931 453.884C497.754 453.961 497.561 453.994 497.368 453.98C497.176 453.966 496.99 453.907 496.826 453.805L477.89 442.121C477.704 442.004 477.499 441.919 477.284 441.871C476.976 441.799 476.655 441.804 476.35 441.885C476.306 441.895 476.263 441.909 476.219 441.923L476.215 441.923C475.893 442.029 475.603 442.215 475.372 442.464C475.142 442.714 474.979 443.018 474.899 443.348L473.354 449.763C473.298 450.019 473.157 450.248 472.954 450.414C472.751 450.58 472.498 450.672 472.236 450.676L472.228 450.676C471.965 450.692 471.705 450.617 471.49 450.464C471.276 450.312 471.119 450.091 471.047 449.838L467.01 437.055C466.968 436.92 466.912 436.789 466.842 436.666L466.842 436.662C466.774 436.544 466.695 436.434 466.604 436.332C466.517 436.233 466.42 436.143 466.313 436.065C466.195 435.976 466.067 435.901 465.932 435.841L455.537 431.094Z" fill="#E5E5E5"/>
<path d="M466.313 436.065L506.129 403.55C506.164 403.521 506.202 403.495 506.242 403.473C506.405 403.382 506.594 403.351 506.777 403.384C506.961 403.418 507.127 403.514 507.246 403.657C507.366 403.8 507.432 403.981 507.433 404.167C507.434 404.354 507.369 404.535 507.251 404.679L477.284 441.871L476.756 442.528L476.136 442.026L476.215 441.923L476.219 441.923L506.627 404.177L466.841 436.663L466.842 436.667L466.668 436.806L466.162 436.187L466.313 436.065Z" fill="#E5E5E5"/>
</g>
<g clip-path="url(#clip1_654_725)">
<path d="M2864.91 619.032L2864.87 619.278C2864.83 619.038 2864.79 618.793 2864.75 618.552C2864.67 618.162 2864.61 617.772 2864.54 617.379C2862.11 602.034 2863.45 586.325 2868.45 571.615C2869.41 568.744 2870.51 565.925 2871.74 563.159C2876.44 552.448 2883.1 542.711 2891.39 534.451C2894.08 531.698 2897.14 529.344 2900.5 527.458C2900.99 527.197 2901.49 526.95 2901.99 526.722C2905.1 525.217 2908.59 524.711 2911.99 525.273C2913.23 525.506 2914.42 525.908 2915.55 526.468C2915.95 526.66 2916.33 526.871 2916.7 527.096C2918.97 528.587 2920.91 530.532 2922.4 532.808C2923.89 535.085 2924.89 537.644 2925.34 540.325C2925.99 544.325 2925.84 548.414 2924.91 552.356C2924.83 552.733 2924.74 553.108 2924.65 553.482C2923.99 556.11 2923.16 558.692 2922.16 561.213C2912.19 586.862 2890.77 609.619 2864.91 619.032Z" fill="#F2F2F2"/>
<path d="M2915.48 526.551C2907.71 537.729 2900.36 549.19 2893.44 560.935C2886.53 572.67 2880.07 584.655 2874.07 596.892C2870.71 603.738 2867.5 610.654 2864.43 617.639C2864.09 618.412 2865.24 619.084 2865.58 618.301C2871.06 605.832 2877 593.583 2883.41 581.553C2889.81 569.535 2896.66 557.771 2903.97 546.262C2908.05 539.824 2912.28 533.474 2916.63 527.213C2917.12 526.513 2915.97 525.853 2915.48 526.551Z" fill="white"/>
<path d="M2923.81 552.424C2917.96 560.021 2909.36 565.007 2899.86 566.303C2897.21 566.664 2894.53 566.717 2891.87 566.461C2891.02 566.381 2891.01 567.708 2891.85 567.788C2901.76 568.621 2911.59 565.513 2919.22 559.139C2921.36 557.351 2923.29 555.32 2924.96 553.087C2925.47 552.406 2924.32 551.748 2923.81 552.424Z" fill="white"/>
<path d="M2873.88 593.632C2872.52 591.696 2871.4 589.608 2870.52 587.411C2868.52 582.402 2867.81 576.971 2868.45 571.615C2869.41 568.744 2870.51 565.925 2871.74 563.159C2871.81 563.268 2871.86 563.394 2871.87 563.526C2871.88 563.657 2871.86 563.789 2871.8 563.908C2870.93 565.983 2870.31 568.152 2869.95 570.37C2868.63 578.28 2870.46 586.391 2875.04 592.974C2875.09 593.045 2875.13 593.131 2875.15 593.222C2875.16 593.313 2875.15 593.406 2875.12 593.493C2875.07 593.609 2874.99 593.709 2874.89 593.783C2874.79 593.858 2874.67 593.904 2874.54 593.918C2874.42 593.932 2874.29 593.913 2874.18 593.863C2874.06 593.812 2873.96 593.733 2873.88 593.632Z" fill="white"/>
<path d="M2900.7 526.619C2899.1 532.994 2899.57 539.713 2902.06 545.798C2902.15 545.95 2902.29 546.061 2902.46 546.108C2902.63 546.154 2902.81 546.131 2902.96 546.045C2903.11 545.955 2903.22 545.811 2903.27 545.642C2903.31 545.474 2903.29 545.294 2903.21 545.14C2900.88 539.366 2900.45 533.003 2901.98 526.968C2902.02 526.8 2901.99 526.624 2901.9 526.476C2901.81 526.328 2901.67 526.22 2901.51 526.175C2901.34 526.129 2901.16 526.15 2901.01 526.233C2900.86 526.316 2900.75 526.454 2900.7 526.619H2900.7Z" fill="white"/>
<path d="M2864.75 586.997L2864.83 587.232C2864.68 587.041 2864.53 586.844 2864.38 586.65C2864.13 586.339 2863.89 586.024 2863.66 585.704C2854.37 573.248 2848.26 558.714 2845.86 543.363C2845.38 540.373 2845.04 537.368 2844.84 534.348C2844.03 522.678 2845.41 510.96 2848.9 499.798C2850.01 496.111 2851.63 492.6 2853.73 489.372C2854.04 488.913 2854.36 488.463 2854.71 488.026C2856.75 485.252 2859.61 483.181 2862.89 482.099C2864.09 481.731 2865.34 481.53 2866.59 481.504C2867.03 481.491 2867.47 481.501 2867.9 481.527C2870.61 481.791 2873.23 482.611 2875.61 483.936C2877.98 485.261 2880.06 487.062 2881.7 489.226C2884.14 492.468 2885.9 496.157 2886.91 500.082C2887.01 500.453 2887.11 500.825 2887.2 501.199C2887.84 503.833 2888.3 506.506 2888.59 509.201C2891.68 536.546 2883.28 566.65 2864.75 586.997Z" fill="#F2F2F2"/>
<path d="M2866.57 481.608C2864.88 495.12 2863.69 508.683 2863.02 522.297C2862.36 535.898 2862.21 549.512 2862.57 563.138C2862.78 570.761 2863.15 578.377 2863.68 585.987C2863.73 586.829 2865.06 586.893 2865 586.04C2864.06 572.455 2863.63 558.847 2863.72 545.217C2863.8 531.599 2864.41 517.998 2865.53 504.414C2866.16 496.814 2866.95 489.229 2867.9 481.661C2868.01 480.814 2866.68 480.765 2866.57 481.608V481.608Z" fill="white"/>
<path d="M2885.96 500.654C2884.32 510.096 2879.01 518.509 2871.2 524.068C2869.03 525.619 2866.67 526.912 2864.2 527.921C2863.41 528.246 2864.02 529.424 2864.8 529.102C2873.96 525.239 2881.23 517.918 2885.02 508.73C2886.09 506.153 2886.85 503.46 2887.29 500.707C2887.43 499.867 2886.1 499.819 2885.96 500.654V500.654Z" fill="white"/>
<path d="M2860.89 560.337C2858.79 559.254 2856.82 557.93 2855.03 556.392C2850.93 552.886 2847.77 548.406 2845.86 543.364C2845.38 540.374 2845.04 537.369 2844.84 534.349C2844.96 534.41 2845.05 534.501 2845.13 534.613C2845.2 534.724 2845.24 534.852 2845.24 534.984C2845.44 537.223 2845.9 539.433 2846.6 541.567C2849.11 549.183 2854.5 555.518 2861.61 559.22C2861.69 559.257 2861.77 559.314 2861.82 559.388C2861.88 559.461 2861.92 559.548 2861.93 559.639C2861.94 559.765 2861.91 559.891 2861.86 560.004C2861.8 560.117 2861.72 560.214 2861.61 560.285C2861.51 560.355 2861.39 560.397 2861.26 560.407C2861.13 560.416 2861.01 560.392 2860.89 560.337Z" fill="white"/>
<path d="M2853.51 488.537C2855.06 494.926 2858.6 500.655 2863.62 504.89C2863.77 504.984 2863.95 505.015 2864.12 504.977C2864.3 504.94 2864.45 504.836 2864.54 504.688C2864.63 504.539 2864.66 504.361 2864.62 504.19C2864.59 504.02 2864.48 503.87 2864.34 503.772C2859.6 499.739 2856.26 494.305 2854.81 488.252C2854.76 488.085 2854.66 487.942 2854.51 487.851C2854.36 487.761 2854.19 487.731 2854.02 487.768C2853.85 487.805 2853.71 487.906 2853.61 488.05C2853.52 488.193 2853.48 488.368 2853.51 488.537L2853.51 488.537Z" fill="white"/>
<path d="M2865.32 619.195L2865.52 619.35C2865.29 619.27 2865.05 619.186 2864.82 619.102C2864.45 618.974 2864.08 618.837 2863.71 618.696C2849.17 613.201 2836.2 604.245 2825.91 592.604C2823.89 590.345 2821.99 587.996 2820.19 585.556C2813.22 576.162 2808.07 565.546 2805.01 554.257C2803.95 550.556 2803.43 546.724 2803.46 542.876C2803.48 542.318 2803.51 541.766 2803.56 541.213C2803.79 537.772 2805.08 534.488 2807.26 531.813C2808.08 530.855 2809.02 530.014 2810.06 529.315C2810.43 529.067 2810.8 528.842 2811.18 528.629C2813.6 527.394 2816.25 526.673 2818.97 526.51C2821.68 526.347 2824.4 526.747 2826.95 527.683C2830.75 529.106 2834.22 531.262 2837.19 534.028C2837.47 534.285 2837.76 534.545 2838.03 534.811C2839.99 536.689 2841.82 538.692 2843.51 540.806C2860.84 562.184 2869.98 592.074 2865.32 619.195Z" fill="#F2F2F2"/>
<path d="M2810.1 529.414C2815.95 541.712 2822.26 553.777 2829.03 565.609C2835.79 577.428 2842.99 588.98 2850.64 600.264C2854.92 606.577 2859.33 612.796 2863.87 618.923C2864.38 619.601 2865.53 618.94 2865.02 618.253C2856.91 607.315 2849.22 596.08 2841.95 584.549C2834.69 573.027 2827.88 561.241 2821.51 549.191C2817.94 542.449 2814.52 535.634 2811.25 528.744C2810.88 527.974 2809.74 528.646 2810.1 529.414Z" fill="white"/>
<path d="M2836.7 535.019C2840.39 543.862 2840.46 553.807 2836.87 562.696C2835.87 565.176 2834.59 567.531 2833.04 569.716C2832.55 570.415 2833.7 571.079 2834.19 570.385C2839.83 562.197 2842 552.116 2840.25 542.331C2839.76 539.586 2838.95 536.907 2837.84 534.349C2837.5 533.568 2836.36 534.243 2836.7 535.019Z" fill="white"/>
<path d="M2847.72 598.807C2845.36 599.027 2842.99 598.972 2840.65 598.644C2835.3 597.898 2830.24 595.821 2825.91 592.604C2823.89 590.345 2821.99 587.995 2820.19 585.556C2820.32 585.546 2820.46 585.569 2820.58 585.625C2820.7 585.681 2820.8 585.767 2820.87 585.875C2822.25 587.655 2823.82 589.271 2825.57 590.69C2831.78 595.755 2839.73 598.192 2847.72 597.481C2847.81 597.466 2847.9 597.475 2847.99 597.507C2848.08 597.539 2848.15 597.592 2848.21 597.662C2848.29 597.764 2848.33 597.883 2848.35 598.009C2848.36 598.134 2848.34 598.261 2848.29 598.377C2848.24 598.493 2848.16 598.593 2848.06 598.669C2847.96 598.744 2847.84 598.792 2847.72 598.807Z" fill="white"/>
<path d="M2802.83 542.286C2807.57 546.837 2813.64 549.756 2820.16 550.618C2820.51 550.666 2820.82 550.279 2820.82 549.955C2820.81 549.78 2820.74 549.614 2820.62 549.49C2820.5 549.367 2820.33 549.296 2820.16 549.292C2813.99 548.447 2808.25 545.665 2803.76 541.348C2803.15 540.756 2802.21 541.692 2802.83 542.286H2802.83Z" fill="white"/>
<path d="M2955.86 444.248C2957.16 443.36 2958.24 442.199 2959.04 440.847C2959.84 439.494 2960.33 437.983 2960.48 436.419C2960.63 434.856 2960.44 433.279 2959.91 431.799C2959.39 430.318 2958.54 428.971 2957.44 427.852L2961.61 334.834L2940.39 337.215L2941.63 428.2C2939.87 430.175 2938.9 432.727 2938.9 435.371C2938.89 438.015 2939.86 440.568 2941.62 442.546C2943.37 444.525 2945.79 445.791 2948.42 446.104C2951.04 446.418 2953.69 445.758 2955.86 444.248Z" fill="#FFB8B8"/>
<path d="M2994.56 601.708L3006.64 603.83L3018.57 558.267L3002.75 555.134L2994.56 601.708Z" fill="#FFB8B8"/>
<path d="M3027.95 619.137L2990.01 612.465L2992.58 597.803L3015.87 601.897C3017.8 602.236 3019.64 602.95 3021.28 604C3022.93 605.049 3024.36 606.413 3025.48 608.014C3026.6 609.615 3027.4 611.421 3027.82 613.33C3028.25 615.238 3028.29 617.211 3027.95 619.137Z" fill="#2F2E41"/>
<path d="M2961.42 607.752L2973.68 607.751L2979.51 560.463L2961.42 560.464L2961.42 607.752Z" fill="#FFB8B8"/>
<path d="M2997.33 619.135L2958.8 619.137L2958.79 604.25L2982.44 604.249C2986.39 604.248 2990.17 605.817 2992.97 608.608C2995.76 611.4 2997.33 615.187 2997.33 619.135L2997.33 619.135Z" fill="#2F2E41"/>
<path d="M3013.57 594.803C3013.38 594.803 3013.19 594.792 3013 594.769L2998.57 593.582C2997.91 593.504 2997.28 593.294 2996.71 592.964C2996.13 592.634 2995.63 592.191 2995.24 591.662C2994.84 591.132 2994.56 590.528 2994.4 589.885C2994.24 589.242 2994.22 588.574 2994.33 587.922L3007.65 513.241L2998.65 465.767C2998.58 465.381 2998.37 465.035 2998.06 464.793C2997.75 464.55 2997.36 464.427 2996.97 464.446C2996.58 464.466 2996.21 464.626 2995.92 464.899C2995.64 465.171 2995.47 465.536 2995.43 465.927L2984.18 592.555C2984.05 593.825 2983.44 594.998 2982.47 595.826C2981.5 596.654 2980.24 597.072 2978.97 596.992L2965.37 596.486C2964.18 596.401 2963.06 595.884 2962.23 595.03C2961.39 594.177 2960.89 593.047 2960.83 591.855L2959.92 440.087L3030.4 431.277L3035.33 507.318L3035.31 507.398L3018.32 591.073C3018.06 592.136 3017.45 593.081 3016.59 593.757C3015.73 594.433 3014.67 594.802 3013.57 594.803Z" fill="#2F2E41"/>
<path d="M2983.16 274.558C2996.72 274.558 3007.72 263.561 3007.72 249.997C3007.72 236.432 2996.72 225.436 2983.16 225.436C2969.59 225.436 2958.6 236.432 2958.6 249.997C2958.6 263.561 2969.59 274.558 2983.16 274.558Z" fill="#FFB8B8"/>
<path d="M3006.3 451.179C3002.46 451.202 2998.69 450.124 2995.44 448.073C2983.55 440.637 2970.03 443.592 2963.04 446.016C2962.34 446.259 2961.6 446.342 2960.87 446.259C2960.14 446.176 2959.44 445.928 2958.82 445.535C2958.2 445.149 2957.68 444.629 2957.3 444.014C2956.91 443.399 2956.67 442.705 2956.59 441.983L2943.87 328.358C2941.74 309.32 2953.21 291.421 2971.14 285.798C2971.81 285.587 2972.5 285.387 2973.19 285.197C2978.77 283.684 2984.62 283.413 2990.31 284.401C2996.01 285.39 3001.42 287.615 3006.16 290.92C3011 294.261 3015.04 298.621 3018 303.692C3020.97 308.763 3022.79 314.423 3023.33 320.273L3034.04 434.66C3034.12 435.4 3034.02 436.148 3033.75 436.843C3033.49 437.539 3033.06 438.163 3032.51 438.667C3028.76 442.14 3017.86 451.178 3006.3 451.179Z" fill="#007BFF"/>
<path d="M2967.56 352.725L2938.86 349.569C2938.04 349.479 2937.25 349.214 2936.55 348.793C2935.84 348.371 2935.24 347.802 2934.77 347.125C2934.3 346.448 2933.99 345.679 2933.85 344.869C2933.71 344.06 2933.74 343.23 2933.95 342.435L2941.26 314.589C2941.74 310.413 2943.86 306.599 2947.15 303.983C2950.44 301.368 2954.64 300.164 2958.81 300.635C2962.99 301.107 2966.81 303.216 2969.43 306.5C2972.06 309.783 2973.27 313.973 2972.81 318.152L2973.9 346.827C2973.93 347.648 2973.78 348.466 2973.47 349.226C2973.15 349.985 2972.68 350.668 2972.08 351.227C2971.48 351.787 2970.76 352.21 2969.98 352.469C2969.2 352.727 2968.38 352.815 2967.56 352.725V352.725Z" fill="#007BFF"/>
<path d="M3033.93 440.266C3035.11 439.228 3036.04 437.945 3036.67 436.506C3037.3 435.067 3037.61 433.507 3037.57 431.937C3037.53 430.367 3037.15 428.825 3036.45 427.419C3035.75 426.012 3034.75 424.777 3033.52 423.798L3026.45 330.956L3005.66 335.636L3017.86 426.05C3016.36 428.223 3015.7 430.873 3016.02 433.498C3016.33 436.123 3017.6 438.541 3019.58 440.293C3021.56 442.045 3024.12 443.01 3026.76 443.005C3029.4 443 3031.95 442.026 3033.93 440.266V440.266Z" fill="#FFB8B8"/>
<path d="M2997.69 346.888C2997.09 346.329 2996.61 345.646 2996.3 344.887C2995.99 344.127 2995.84 343.309 2995.87 342.488L2996.96 313.813C2996.5 309.635 2997.71 305.444 3000.34 302.161C3002.96 298.877 3006.78 296.768 3010.96 296.297C3015.13 295.825 3019.33 297.029 3022.62 299.645C3025.91 302.26 3028.03 306.074 3028.51 310.25L3035.82 338.096C3036.03 338.891 3036.06 339.721 3035.92 340.531C3035.78 341.34 3035.46 342.109 3035 342.786C3034.53 343.463 3033.93 344.032 3033.22 344.454C3032.52 344.875 3031.73 345.14 3030.91 345.23L3002.21 348.386C3001.39 348.476 3000.57 348.389 2999.79 348.131C2999.01 347.872 2998.29 347.448 2997.69 346.888Z" fill="#007BFF"/>
<path d="M2981.7 275.483C2981.26 275.482 2980.83 275.431 2980.4 275.331L2980.28 275.301C2958.68 271.997 2953.91 259.49 2952.86 254.266C2951.78 248.858 2953.01 243.637 2955.8 241.61C2954.28 236.807 2954.53 232.549 2956.53 228.948C2960.03 222.668 2967.61 220.544 2968.63 220.284C2974.69 215.815 2981.93 218.799 2983.25 219.404C2994.97 215.068 2999.45 218.677 3000.26 219.483C3005.5 220.424 3008.69 222.447 3009.75 225.498C3011.74 231.229 3005.45 238.358 3005.18 238.659L3005.04 238.815L2995.66 239.261C2994.77 239.304 2993.9 239.533 2993.1 239.934C2992.3 240.335 2991.6 240.898 2991.04 241.588C2990.47 242.278 2990.06 243.079 2989.83 243.939C2989.59 244.798 2989.54 245.698 2989.68 246.578C2989.93 247.715 2990.25 248.835 2990.64 249.934C2992.24 254.94 2993.44 259.217 2991.89 260.843C2991.54 261.158 2991.11 261.367 2990.64 261.448C2990.18 261.528 2989.7 261.476 2989.27 261.298C2987.8 260.907 2986.8 260.989 2986.31 261.543C2985.54 262.402 2985.77 264.577 2986.97 267.668C2987.35 268.646 2987.45 269.707 2987.26 270.738C2987.08 271.768 2986.61 272.729 2985.92 273.515C2985.4 274.129 2984.76 274.623 2984.03 274.963C2983.3 275.302 2982.5 275.48 2981.7 275.483Z" fill="#2F2E41"/>
<path d="M3271.76 354H3150.76C3146.25 353.994 3141.93 352.202 3138.74 349.015C3135.56 345.828 3133.76 341.507 3133.76 337V155.168C3133.76 150.661 3135.56 146.34 3138.74 143.153C3141.93 139.966 3146.25 138.173 3150.76 138.168H3271.76C3276.27 138.173 3280.59 139.966 3283.77 143.153C3286.96 146.34 3288.75 150.661 3288.76 155.168V337C3288.75 341.507 3286.96 345.828 3283.77 349.015C3280.59 352.202 3276.27 353.994 3271.76 354ZM3150.76 140.168C3146.78 140.172 3142.97 141.754 3140.16 144.566C3137.35 147.378 3135.76 151.191 3135.76 155.168V337C3135.76 340.976 3137.35 344.789 3140.16 347.601C3142.97 350.413 3146.78 351.995 3150.76 352H3271.76C3275.74 351.995 3279.55 350.413 3282.36 347.601C3285.17 344.789 3286.76 340.976 3286.76 337V155.168C3286.76 151.191 3285.17 147.378 3282.36 144.566C3279.55 141.754 3275.74 140.172 3271.76 140.168H3150.76Z" fill="#3F3D56"/>
<path d="M3253.26 225.584H3169.26C3167.01 225.581 3164.85 224.685 3163.25 223.092C3161.66 221.498 3160.76 219.338 3160.76 217.084V177.084C3160.76 174.83 3161.66 172.67 3163.25 171.076C3164.85 169.483 3167.01 168.587 3169.26 168.584H3253.26C3255.51 168.587 3257.67 169.483 3259.27 171.076C3260.86 172.67 3261.76 174.83 3261.76 177.084V217.084C3261.76 219.338 3260.86 221.498 3259.27 223.092C3257.67 224.685 3255.51 225.581 3253.26 225.584Z" fill="#3FC600"/>
<path d="M3247.26 263.084H3175.26C3173.14 263.084 3171.1 262.241 3169.6 260.741C3168.1 259.241 3167.26 257.206 3167.26 255.084C3167.26 252.962 3168.1 250.927 3169.6 249.427C3171.1 247.927 3173.14 247.084 3175.26 247.084H3247.26C3249.38 247.084 3251.42 247.927 3252.92 249.427C3254.42 250.927 3255.26 252.962 3255.26 255.084C3255.26 257.206 3254.42 259.241 3252.92 260.741C3251.42 262.241 3249.38 263.084 3247.26 263.084Z" fill="#CCCCCC"/>
<path d="M3247.26 293.084H3175.26C3173.14 293.084 3171.1 292.241 3169.6 290.741C3168.1 289.241 3167.26 287.206 3167.26 285.084C3167.26 282.962 3168.1 280.927 3169.6 279.427C3171.1 277.927 3173.14 277.084 3175.26 277.084H3247.26C3249.38 277.084 3251.42 277.927 3252.92 279.427C3254.42 280.927 3255.26 282.962 3255.26 285.084C3255.26 287.206 3254.42 289.241 3252.92 290.741C3251.42 292.241 3249.38 293.084 3247.26 293.084Z" fill="#CCCCCC"/>
<path d="M3247.26 323.084H3175.26C3173.14 323.084 3171.1 322.241 3169.6 320.741C3168.1 319.241 3167.26 317.206 3167.26 315.084C3167.26 312.962 3168.1 310.927 3169.6 309.427C3171.1 307.927 3173.14 307.084 3175.26 307.084H3247.26C3249.38 307.084 3251.42 307.927 3252.92 309.427C3254.42 310.927 3255.26 312.962 3255.26 315.084C3255.26 317.206 3254.42 319.241 3252.92 320.741C3251.42 322.241 3249.38 323.084 3247.26 323.084Z" fill="#CCCCCC"/>
<path d="M3566.76 456H3445.76C3441.25 455.994 3436.93 454.202 3433.74 451.015C3430.56 447.828 3428.76 443.507 3428.76 439V257.168C3428.76 252.661 3430.56 248.34 3433.74 245.153C3436.93 241.966 3441.25 240.173 3445.76 240.168H3566.76C3571.27 240.173 3575.59 241.966 3578.77 245.153C3581.96 248.34 3583.75 252.661 3583.76 257.168V439C3583.75 443.507 3581.96 447.828 3578.77 451.015C3575.59 454.202 3571.27 455.994 3566.76 456ZM3445.76 242.168C3441.78 242.172 3437.97 243.754 3435.16 246.566C3432.35 249.378 3430.76 253.191 3430.76 257.168V439C3430.76 442.976 3432.35 446.789 3435.16 449.601C3437.97 452.413 3441.78 453.995 3445.76 454H3566.76C3570.74 453.995 3574.55 452.413 3577.36 449.601C3580.17 446.789 3581.76 442.976 3581.76 439V257.168C3581.76 253.191 3580.17 249.378 3577.36 246.566C3574.55 243.754 3570.74 242.172 3566.76 242.168H3445.76Z" fill="#3F3D56"/>
<path d="M3542.26 285.084H3470.26C3468.14 285.084 3466.1 284.241 3464.6 282.741C3463.1 281.241 3462.26 279.206 3462.26 277.084C3462.26 274.962 3463.1 272.927 3464.6 271.427C3466.1 269.927 3468.14 269.084 3470.26 269.084H3542.26C3544.38 269.084 3546.42 269.927 3547.92 271.427C3549.42 272.927 3550.26 274.962 3550.26 277.084C3550.26 279.206 3549.42 281.241 3547.92 282.741C3546.42 284.241 3544.38 285.084 3542.26 285.084Z" fill="#CCCCCC"/>
<path d="M3542.26 315.084H3470.26C3468.14 315.084 3466.1 314.241 3464.6 312.741C3463.1 311.241 3462.26 309.206 3462.26 307.084C3462.26 304.962 3463.1 302.927 3464.6 301.427C3466.1 299.927 3468.14 299.084 3470.26 299.084H3542.26C3544.38 299.084 3546.42 299.927 3547.92 301.427C3549.42 302.927 3550.26 304.962 3550.26 307.084C3550.26 309.206 3549.42 311.241 3547.92 312.741C3546.42 314.241 3544.38 315.084 3542.26 315.084Z" fill="#CCCCCC"/>
<path d="M3548.26 391.584H3464.26C3462.01 391.581 3459.85 390.685 3458.25 389.091C3456.66 387.498 3455.76 385.337 3455.76 383.084V343.084C3455.76 340.83 3456.66 338.67 3458.25 337.077C3459.85 335.483 3462.01 334.587 3464.26 334.584H3548.26C3550.51 334.587 3552.67 335.483 3554.27 337.077C3555.86 338.67 3556.76 340.83 3556.76 343.084V383.084C3556.76 385.337 3555.86 387.498 3554.27 389.091C3552.67 390.685 3550.51 391.581 3548.26 391.584Z" fill="#E6E6E6"/>
<path d="M3542.26 427.084H3470.26C3468.14 427.084 3466.1 426.241 3464.6 424.741C3463.1 423.241 3462.26 421.206 3462.26 419.084C3462.26 416.962 3463.1 414.927 3464.6 413.427C3466.1 411.927 3468.14 411.084 3470.26 411.084H3542.26C3544.38 411.084 3546.42 411.927 3547.92 413.427C3549.42 414.927 3550.26 416.962 3550.26 419.084C3550.26 421.206 3549.42 423.241 3547.92 424.741C3546.42 426.241 3544.38 427.084 3542.26 427.084Z" fill="#CCCCCC"/>
<path d="M3492.76 167H3371.76C3367.25 166.994 3362.93 165.202 3359.74 162.015C3356.56 158.828 3354.76 154.507 3354.76 150V37.168C3354.76 32.6608 3356.56 28.3398 3359.74 25.1528C3362.93 21.9657 3367.25 20.173 3371.76 20.168H3492.76C3497.27 20.173 3501.59 21.9657 3504.77 25.1528C3507.96 28.3398 3509.75 32.6608 3509.76 37.168V150C3509.75 154.507 3507.96 158.828 3504.77 162.015C3501.59 165.202 3497.27 166.994 3492.76 167ZM3371.76 22.168C3367.78 22.1725 3363.97 23.7543 3361.16 26.5663C3358.35 29.3784 3356.76 33.1911 3356.76 37.168V150C3356.76 153.976 3358.35 157.789 3361.16 160.601C3363.97 163.413 3367.78 164.995 3371.76 165H3492.76C3496.74 164.995 3500.55 163.413 3503.36 160.601C3506.17 157.789 3507.76 153.976 3507.76 150V37.168C3507.76 33.1911 3506.17 29.3784 3503.36 26.5663C3500.55 23.7543 3496.74 22.1725 3492.76 22.168H3371.76Z" fill="#3F3D56"/>
<path d="M3468.26 131.584H3396.26C3394.14 131.584 3392.1 130.741 3390.6 129.241C3389.1 127.741 3388.26 125.706 3388.26 123.584C3388.26 121.462 3389.1 119.427 3390.6 117.927C3392.1 116.427 3394.14 115.584 3396.26 115.584H3468.26C3470.38 115.584 3472.42 116.427 3473.92 117.927C3475.42 119.427 3476.26 121.462 3476.26 123.584C3476.26 125.706 3475.42 127.741 3473.92 129.241C3472.42 130.741 3470.38 131.584 3468.26 131.584Z" fill="#CCCCCC"/>
<path d="M3468.26 101.584H3396.26C3394.14 101.584 3392.1 100.741 3390.6 99.2408C3389.1 97.7406 3388.26 95.7057 3388.26 93.584C3388.26 91.4623 3389.1 89.4274 3390.6 87.9271C3392.1 86.4268 3394.14 85.584 3396.26 85.584H3468.26C3470.38 85.584 3472.42 86.4268 3473.92 87.9271C3475.42 89.4274 3476.26 91.4623 3476.26 93.584C3476.26 95.7057 3475.42 97.7406 3473.92 99.2408C3472.42 100.741 3470.38 101.584 3468.26 101.584Z" fill="#CCCCCC"/>
<path d="M3468.26 71.584H3396.26C3394.14 71.584 3392.1 70.7411 3390.6 69.2408C3389.1 67.7406 3388.26 65.7057 3388.26 63.584C3388.26 61.4623 3389.1 59.4274 3390.6 57.9271C3392.1 56.4268 3394.14 55.584 3396.26 55.584H3468.26C3470.38 55.584 3472.42 56.4268 3473.92 57.9271C3475.42 59.4274 3476.26 61.4623 3476.26 63.584C3476.26 65.7057 3475.42 67.7406 3473.92 69.2408C3472.42 70.7411 3470.38 71.584 3468.26 71.584Z" fill="#CCCCCC"/>
<path d="M3278.76 166C3291.46 166 3301.76 155.703 3301.76 143C3301.76 130.297 3291.46 120 3278.76 120C3266.06 120 3255.76 130.297 3255.76 143C3255.76 155.703 3266.06 166 3278.76 166Z" fill="#3FC600"/>
<path d="M3276.48 151.774C3275.96 151.775 3275.46 151.607 3275.04 151.297L3275.02 151.278L3269.61 147.139C3269.36 146.948 3269.15 146.709 3268.99 146.436C3268.83 146.162 3268.73 145.86 3268.69 145.547C3268.65 145.234 3268.67 144.915 3268.75 144.61C3268.83 144.305 3268.97 144.018 3269.16 143.767C3269.35 143.516 3269.59 143.306 3269.87 143.148C3270.14 142.99 3270.44 142.888 3270.76 142.847C3271.07 142.806 3271.39 142.827 3271.69 142.909C3272 142.992 3272.28 143.134 3272.54 143.327L3276.04 146.011L3284.31 135.221C3284.5 134.971 3284.74 134.761 3285.01 134.603C3285.29 134.446 3285.59 134.343 3285.9 134.302C3286.21 134.261 3286.53 134.281 3286.84 134.363C3287.14 134.444 3287.43 134.585 3287.68 134.777L3287.63 134.847L3287.68 134.778C3288.18 135.166 3288.51 135.738 3288.6 136.37C3288.68 137.001 3288.51 137.639 3288.12 138.145L3278.39 150.836C3278.17 151.129 3277.88 151.366 3277.54 151.528C3277.21 151.691 3276.85 151.775 3276.48 151.774Z" fill="white"/>
<path d="M3578.76 269C3591.46 269 3601.76 258.703 3601.76 246C3601.76 233.297 3591.46 223 3578.76 223C3566.06 223 3555.76 233.297 3555.76 246C3555.76 258.703 3566.06 269 3578.76 269Z" fill="#3F3D56"/>
<path d="M3576.48 254.774C3575.96 254.775 3575.46 254.607 3575.04 254.297L3575.02 254.278L3569.61 250.139C3569.36 249.948 3569.15 249.709 3568.99 249.436C3568.83 249.162 3568.73 248.86 3568.69 248.547C3568.65 248.234 3568.67 247.915 3568.75 247.61C3568.83 247.305 3568.97 247.018 3569.16 246.767C3569.35 246.516 3569.59 246.306 3569.87 246.148C3570.14 245.99 3570.44 245.888 3570.76 245.847C3571.07 245.806 3571.39 245.827 3571.69 245.909C3572 245.992 3572.28 246.134 3572.54 246.327L3576.04 249.011L3584.31 238.221C3584.5 237.971 3584.74 237.761 3585.01 237.603C3585.29 237.446 3585.59 237.343 3585.9 237.302C3586.21 237.261 3586.53 237.281 3586.84 237.363C3587.14 237.444 3587.43 237.585 3587.68 237.777L3587.63 237.847L3587.68 237.778C3588.18 238.166 3588.51 238.738 3588.6 239.37C3588.68 240.001 3588.51 240.639 3588.12 241.145L3578.39 253.836C3578.17 254.129 3577.88 254.366 3577.54 254.528C3577.21 254.691 3576.85 254.775 3576.48 254.774Z" fill="white"/>
<path d="M3505.76 46C3518.46 46 3528.76 35.7025 3528.76 23C3528.76 10.2975 3518.46 0 3505.76 0C3493.06 0 3482.76 10.2975 3482.76 23C3482.76 35.7025 3493.06 46 3505.76 46Z" fill="#3F3D56"/>
<path d="M3503.48 31.7736C3502.96 31.7745 3502.46 31.6072 3502.04 31.2968L3502.02 31.2775L3496.61 27.1392C3496.36 26.9478 3496.15 26.7087 3495.99 26.4355C3495.83 26.1623 3495.73 25.8604 3495.69 25.5472C3495.65 25.2339 3495.67 24.9154 3495.75 24.61C3495.83 24.3046 3495.97 24.0182 3496.16 23.7673C3496.35 23.5164 3496.59 23.3059 3496.87 23.1479C3497.14 22.99 3497.44 22.8876 3497.76 22.8466C3498.07 22.8057 3498.39 22.827 3498.69 22.9094C3499 22.9918 3499.28 23.1337 3499.54 23.3268L3503.04 26.0114L3511.31 15.2215C3511.5 14.9712 3511.74 14.7612 3512.01 14.6034C3512.29 14.4456 3512.59 14.3432 3512.9 14.3019C3513.21 14.2606 3513.53 14.2813 3513.84 14.3629C3514.14 14.4444 3514.43 14.5851 3514.68 14.777L3514.63 14.8469L3514.68 14.778C3515.18 15.166 3515.51 15.7384 3515.6 16.3696C3515.68 17.0008 3515.51 17.6392 3515.12 18.1449L3505.39 30.8364C3505.17 31.1288 3504.88 31.3655 3504.54 31.528C3504.21 31.6906 3503.85 31.7746 3503.48 31.7736Z" fill="white"/>
<path d="M3172 620H2791C2790.73 620 2790.48 619.895 2790.29 619.707C2790.11 619.52 2790 619.265 2790 619C2790 618.735 2790.11 618.48 2790.29 618.293C2790.48 618.105 2790.73 618 2791 618H3172C3172.27 618 3172.52 618.105 3172.71 618.293C3172.89 618.48 3173 618.735 3173 619C3173 619.265 3172.89 619.52 3172.71 619.707C3172.52 619.895 3172.27 620 3172 620Z" fill="#3F3D56"/>
</g>
<g clip-path="url(#clip2_654_725)">
<path d="M1955.63 76.8518L1954.48 78.0625L2033.57 153.357L2034.72 152.146L1955.63 76.8518Z" fill="#E6E6E6"/>
<path d="M2034.84 143.982L2033.17 144.083L2033.68 152.309L2025.44 152.21L2025.42 153.882L2035.46 154.001L2034.84 143.982Z" fill="#E6E6E6"/>
<path d="M1963.78 76.326L1963.76 77.9981L1955.52 77.8991L1956.03 86.1251L1954.36 86.2261L1953.75 76.2061L1963.78 76.326Z" fill="#E6E6E6"/>
<path d="M1994.6 124.298C1999.68 124.298 2003.79 120.182 2003.79 115.105C2003.79 110.028 1999.68 105.912 1994.6 105.912C1989.52 105.912 1985.41 110.028 1985.41 115.105C1985.41 120.182 1989.52 124.298 1994.6 124.298Z" fill="#E6E6E6"/>
<path d="M1719.64 76.8519L1640.55 152.146L1641.71 153.357L1720.79 78.0626L1719.64 76.8519Z" fill="#E6E6E6"/>
<path d="M1639.81 154.001L1649.85 153.882L1649.83 152.21L1641.59 152.309L1642.1 144.083L1640.43 143.982L1639.81 154.001Z" fill="#E6E6E6"/>
<path d="M1721.53 76.2061L1720.92 86.2261L1719.25 86.1251L1719.75 77.8991L1711.51 77.9981L1711.49 76.326L1721.53 76.2061Z" fill="#E6E6E6"/>
<path d="M1680.67 124.298C1685.75 124.298 1689.86 120.182 1689.86 115.105C1689.86 110.028 1685.75 105.912 1680.67 105.912C1675.59 105.912 1671.48 110.028 1671.48 115.105C1671.48 120.182 1675.59 124.298 1680.67 124.298Z" fill="#E6E6E6"/>
<path d="M1906.16 190.543H1767.44C1765.44 190.541 1763.53 189.747 1762.12 188.337C1760.71 186.927 1759.92 185.016 1759.91 183.021V7.52142C1759.92 5.52731 1760.71 3.61554 1762.12 2.20549C1763.53 0.79544 1765.44 0.00227088 1767.44 0H1906.16C1908.16 0.00227088 1910.07 0.79544 1911.48 2.20549C1912.89 3.61554 1913.68 5.52731 1913.69 7.52142V183.021C1913.68 185.016 1912.89 186.927 1911.48 188.337C1910.07 189.747 1908.16 190.541 1906.16 190.543ZM1767.44 1.67143C1765.88 1.67317 1764.4 2.29007 1763.3 3.38678C1762.2 4.48349 1761.59 5.97044 1761.59 7.52142V183.021C1761.59 184.572 1762.2 186.059 1763.3 187.156C1764.4 188.253 1765.88 188.87 1767.44 188.871H1906.16C1907.72 188.87 1909.2 188.253 1910.3 187.156C1911.4 186.059 1912.01 184.572 1912.01 183.021V7.52142C1912.01 5.97044 1911.4 4.48349 1910.3 3.38678C1909.2 2.29007 1907.72 1.67317 1906.16 1.67143H1767.44Z" fill="#3F3D56"/>
<path d="M1825.26 84.3589H1794.72C1793.73 84.3578 1792.77 83.9612 1792.06 83.2562C1791.36 82.5512 1790.96 81.5953 1790.96 80.5982V44.5625C1790.96 43.5654 1791.36 42.6095 1792.06 41.9045C1792.77 41.1994 1793.73 40.8029 1794.72 40.8018H1825.26C1826.26 40.8029 1827.21 41.1994 1827.92 41.9045C1828.62 42.6095 1829.02 43.5654 1829.02 44.5625V80.5982C1829.02 81.5952 1828.62 82.5511 1827.92 83.2562C1827.21 83.9612 1826.26 84.3578 1825.26 84.3589Z" fill="#007BFF"/>
<path d="M1884.6 101.073H1854.06C1853.06 101.072 1852.11 100.675 1851.4 99.97C1850.7 99.265 1850.3 98.3091 1850.3 97.312V61.2763C1850.3 60.2793 1850.7 59.3234 1851.4 58.6183C1852.11 57.9133 1853.06 57.5167 1854.06 57.5156H1884.6C1885.59 57.5167 1886.55 57.9133 1887.25 58.6183C1887.96 59.3234 1888.36 60.2793 1888.36 61.2763V97.312C1888.36 98.3091 1887.96 99.265 1887.25 99.97C1886.55 100.675 1885.59 101.072 1884.6 101.073Z" fill="#CCCCCC"/>
<path d="M1836.96 152.051H1806.42C1805.43 152.05 1804.47 151.654 1803.76 150.949C1803.06 150.244 1802.66 149.288 1802.66 148.291V112.255C1802.66 111.258 1803.06 110.302 1803.76 109.597C1804.47 108.892 1805.43 108.495 1806.42 108.494H1836.96C1837.96 108.495 1838.91 108.892 1839.62 109.597C1840.32 110.302 1840.72 111.258 1840.72 112.255V148.291C1840.72 149.288 1840.32 150.244 1839.62 150.949C1838.91 151.654 1837.96 152.05 1836.96 152.051Z" fill="#FF6584"/>
<path d="M2130.08 371H1991.35C1989.36 370.998 1987.44 370.204 1986.03 368.794C1984.62 367.384 1983.83 365.473 1983.83 363.478V187.978C1983.83 185.984 1984.62 184.073 1986.03 182.663C1987.44 181.252 1989.36 180.459 1991.35 180.457H2130.08C2132.07 180.459 2133.98 181.252 2135.39 182.663C2136.8 184.073 2137.6 185.984 2137.6 187.978V363.478C2137.6 365.473 2136.8 367.384 2135.39 368.794C2133.98 370.204 2132.07 370.998 2130.08 371ZM1991.35 182.128C1989.8 182.13 1988.31 182.747 1987.22 183.844C1986.12 184.941 1985.5 186.427 1985.5 187.978V363.478C1985.5 365.029 1986.12 366.516 1987.22 367.613C1988.31 368.71 1989.8 369.327 1991.35 369.328H2130.08C2131.63 369.327 2133.12 368.71 2134.21 367.613C2135.31 366.516 2135.93 365.029 2135.93 363.478V187.978C2135.93 186.427 2135.31 184.941 2134.21 183.844C2133.12 182.747 2131.63 182.13 2130.08 182.128H1991.35Z" fill="#3F3D56"/>
<path d="M2084.53 219.318H2036.9C2036.01 219.318 2035.16 218.965 2034.53 218.338C2033.91 217.712 2033.55 216.861 2033.55 215.975C2033.55 215.088 2033.91 214.238 2034.53 213.611C2035.16 212.984 2036.01 212.632 2036.9 212.632H2084.53C2085.42 212.632 2086.27 212.984 2086.9 213.611C2087.52 214.238 2087.87 215.088 2087.87 215.975C2087.87 216.861 2087.52 217.712 2086.9 218.338C2086.27 218.965 2085.42 219.318 2084.53 219.318Z" fill="#007BFF"/>
<path d="M2107.93 251.075H2013.5C2013.06 251.076 2012.62 250.99 2012.22 250.823C2011.81 250.655 2011.44 250.409 2011.13 250.098C2010.82 249.788 2010.57 249.419 2010.4 249.013C2010.23 248.607 2010.15 248.172 2010.15 247.733C2010.15 247.293 2010.23 246.858 2010.4 246.452C2010.57 246.046 2010.82 245.677 2011.13 245.367C2011.44 245.056 2011.81 244.81 2012.22 244.642C2012.62 244.475 2013.06 244.389 2013.5 244.39H2107.93C2108.37 244.389 2108.81 244.475 2109.21 244.642C2109.62 244.81 2109.99 245.056 2110.3 245.367C2110.61 245.677 2110.86 246.046 2111.03 246.452C2111.19 246.858 2111.28 247.293 2111.28 247.733C2111.28 248.172 2111.19 248.607 2111.03 249.013C2110.86 249.419 2110.61 249.788 2110.3 250.098C2109.99 250.409 2109.62 250.655 2109.21 250.823C2108.81 250.99 2108.37 251.076 2107.93 251.075Z" fill="#CCCCCC"/>
<path d="M2107.93 268.625H2013.5C2013.06 268.626 2012.62 268.54 2012.22 268.372C2011.81 268.205 2011.44 267.959 2011.13 267.648C2010.82 267.338 2010.57 266.969 2010.4 266.563C2010.23 266.157 2010.15 265.722 2010.15 265.282C2010.15 264.843 2010.23 264.408 2010.4 264.002C2010.57 263.596 2010.82 263.227 2011.13 262.917C2011.44 262.606 2011.81 262.36 2012.22 262.192C2012.62 262.025 2013.06 261.939 2013.5 261.939H2107.93C2108.37 261.939 2108.81 262.025 2109.21 262.192C2109.62 262.36 2109.99 262.606 2110.3 262.917C2110.61 263.227 2110.86 263.596 2111.03 264.002C2111.19 264.408 2111.28 264.843 2111.28 265.282C2111.28 265.722 2111.19 266.157 2111.03 266.563C2110.86 266.969 2110.61 267.338 2110.3 267.648C2109.99 267.959 2109.62 268.205 2109.21 268.372C2108.81 268.54 2108.37 268.626 2107.93 268.625Z" fill="#CCCCCC"/>
<path d="M2107.93 286.175H2013.5C2013.06 286.176 2012.62 286.09 2012.22 285.922C2011.81 285.755 2011.44 285.508 2011.13 285.198C2010.82 284.887 2010.57 284.519 2010.4 284.113C2010.23 283.707 2010.15 283.272 2010.15 282.832C2010.15 282.393 2010.23 281.957 2010.4 281.552C2010.57 281.146 2010.82 280.777 2011.13 280.466C2011.44 280.156 2011.81 279.91 2012.22 279.742C2012.62 279.574 2013.06 279.489 2013.5 279.489H2107.93C2108.37 279.489 2108.81 279.574 2109.21 279.742C2109.62 279.91 2109.99 280.156 2110.3 280.466C2110.61 280.777 2110.86 281.146 2111.03 281.552C2111.19 281.957 2111.28 282.393 2111.28 282.832C2111.28 283.272 2111.19 283.707 2111.03 284.113C2110.86 284.519 2110.61 284.887 2110.3 285.198C2109.99 285.508 2109.62 285.755 2109.21 285.922C2108.81 286.09 2108.37 286.176 2107.93 286.175Z" fill="#CCCCCC"/>
<path d="M2107.93 303.725H2013.5C2013.06 303.726 2012.62 303.64 2012.22 303.472C2011.81 303.304 2011.44 303.058 2011.13 302.748C2010.82 302.437 2010.57 302.068 2010.4 301.663C2010.23 301.257 2010.15 300.821 2010.15 300.382C2010.15 299.942 2010.23 299.507 2010.4 299.101C2010.57 298.695 2010.82 298.327 2011.13 298.016C2011.44 297.706 2011.81 297.46 2012.22 297.292C2012.62 297.124 2013.06 297.038 2013.5 297.039H2107.93C2108.37 297.038 2108.81 297.124 2109.21 297.292C2109.62 297.46 2109.99 297.706 2110.3 298.016C2110.61 298.327 2110.86 298.695 2111.03 299.101C2111.19 299.507 2111.28 299.942 2111.28 300.382C2111.28 300.821 2111.19 301.257 2111.03 301.663C2110.86 302.068 2110.61 302.437 2110.3 302.748C2109.99 303.058 2109.62 303.304 2109.21 303.472C2108.81 303.64 2108.37 303.726 2107.93 303.725Z" fill="#CCCCCC"/>
<path d="M2107.93 321.275H2013.5C2013.06 321.275 2012.62 321.189 2012.22 321.022C2011.81 320.854 2011.44 320.608 2011.13 320.298C2010.82 319.987 2010.57 319.618 2010.4 319.212C2010.23 318.806 2010.15 318.371 2010.15 317.932C2010.15 317.492 2010.23 317.057 2010.4 316.651C2010.57 316.245 2010.82 315.876 2011.13 315.566C2011.44 315.255 2011.81 315.009 2012.22 314.842C2012.62 314.674 2013.06 314.588 2013.5 314.589H2107.93C2108.37 314.588 2108.81 314.674 2109.21 314.842C2109.62 315.009 2109.99 315.255 2110.3 315.566C2110.61 315.876 2110.86 316.245 2111.03 316.651C2111.19 317.057 2111.28 317.492 2111.28 317.932C2111.28 318.371 2111.19 318.806 2111.03 319.212C2110.86 319.618 2110.61 319.987 2110.3 320.298C2109.99 320.608 2109.62 320.854 2109.21 321.022C2108.81 321.189 2108.37 321.275 2107.93 321.275Z" fill="#CCCCCC"/>
<path d="M2107.93 338.825H2013.5C2013.06 338.826 2012.62 338.74 2012.22 338.573C2011.81 338.405 2011.44 338.159 2011.13 337.848C2010.82 337.538 2010.57 337.169 2010.4 336.763C2010.23 336.357 2010.15 335.922 2010.15 335.483C2010.15 335.043 2010.23 334.608 2010.4 334.202C2010.57 333.796 2010.82 333.427 2011.13 333.117C2011.44 332.806 2011.81 332.56 2012.22 332.392C2012.62 332.225 2013.06 332.139 2013.5 332.14H2107.93C2108.37 332.139 2108.81 332.225 2109.21 332.392C2109.62 332.56 2109.99 332.806 2110.3 333.117C2110.61 333.427 2110.86 333.796 2111.03 334.202C2111.19 334.608 2111.28 335.043 2111.28 335.483C2111.28 335.922 2111.19 336.357 2111.03 336.763C2110.86 337.169 2110.61 337.538 2110.3 337.848C2109.99 338.159 2109.62 338.405 2109.21 338.573C2108.81 338.74 2108.37 338.826 2107.93 338.825Z" fill="#CCCCCC"/>
<path d="M1682.25 371H1543.52C1541.53 370.998 1539.62 370.204 1538.21 368.794C1536.8 367.384 1536 365.473 1536 363.478V187.978C1536 185.984 1536.8 184.073 1538.21 182.663C1539.62 181.252 1541.53 180.459 1543.52 180.457H1682.25C1684.24 180.459 1686.16 181.252 1687.57 182.663C1688.98 184.073 1689.77 185.984 1689.77 187.978V363.478C1689.77 365.473 1688.98 367.384 1687.57 368.794C1686.16 370.204 1684.24 370.998 1682.25 371ZM1543.52 182.128C1541.97 182.13 1540.48 182.747 1539.39 183.844C1538.29 184.941 1537.67 186.427 1537.67 187.978V363.478C1537.67 365.029 1538.29 366.516 1539.39 367.613C1540.48 368.71 1541.97 369.327 1543.52 369.328H1682.25C1683.8 369.327 1685.29 368.71 1686.38 367.613C1687.48 366.516 1688.1 365.029 1688.1 363.478V187.978C1688.1 186.427 1687.48 184.941 1686.38 183.844C1685.29 182.747 1683.8 182.13 1682.25 182.128H1543.52Z" fill="#3F3D56"/>
<path d="M1660.25 221.893H1618.46C1617.58 221.893 1616.73 221.541 1616.1 220.914C1615.47 220.287 1615.12 219.436 1615.12 218.55C1615.12 217.663 1615.47 216.813 1616.1 216.186C1616.73 215.559 1617.58 215.207 1618.46 215.207H1660.25C1661.14 215.207 1661.99 215.559 1662.61 216.186C1663.24 216.813 1663.59 217.663 1663.59 218.55C1663.59 219.436 1663.24 220.287 1662.61 220.914C1661.99 221.541 1661.14 221.893 1660.25 221.893Z" fill="#3F3D56"/>
<path d="M1660.25 239.443H1618.46C1617.58 239.443 1616.73 239.09 1616.1 238.463C1615.47 237.837 1615.12 236.986 1615.12 236.1C1615.12 235.213 1615.47 234.363 1616.1 233.736C1616.73 233.109 1617.58 232.757 1618.46 232.757H1660.25C1661.14 232.757 1661.99 233.109 1662.61 233.736C1663.24 234.363 1663.59 235.213 1663.59 236.1C1663.59 236.986 1663.24 237.837 1662.61 238.463C1661.99 239.09 1661.14 239.443 1660.25 239.443Z" fill="#3F3D56"/>
<path d="M1597.02 249.436H1566.49C1565.49 249.435 1564.53 249.038 1563.83 248.333C1563.12 247.628 1562.73 246.672 1562.72 245.675V209.64C1562.73 208.643 1563.12 207.687 1563.83 206.982C1564.53 206.277 1565.49 205.88 1566.49 205.879H1597.02C1598.02 205.88 1598.98 206.277 1599.68 206.982C1600.39 207.687 1600.78 208.643 1600.78 209.64V245.675C1600.78 246.672 1600.39 247.628 1599.68 248.333C1598.98 249.038 1598.02 249.435 1597.02 249.436Z" fill="#007BFF"/>
<path d="M1659.96 275.378H1565.52C1565.08 275.379 1564.65 275.293 1564.24 275.125C1563.84 274.958 1563.47 274.712 1563.16 274.401C1562.84 274.091 1562.6 273.722 1562.43 273.316C1562.26 272.91 1562.17 272.475 1562.17 272.035C1562.17 271.596 1562.26 271.161 1562.43 270.755C1562.6 270.349 1562.84 269.98 1563.16 269.669C1563.47 269.359 1563.84 269.113 1564.24 268.945C1564.65 268.778 1565.08 268.692 1565.52 268.692H1659.96C1660.4 268.692 1660.83 268.778 1661.24 268.945C1661.65 269.113 1662.02 269.359 1662.33 269.669C1662.64 269.98 1662.88 270.349 1663.05 270.755C1663.22 271.161 1663.31 271.596 1663.31 272.035C1663.31 272.475 1663.22 272.91 1663.05 273.316C1662.88 273.722 1662.64 274.091 1662.33 274.401C1662.02 274.712 1661.65 274.958 1661.24 275.125C1660.83 275.293 1660.4 275.379 1659.96 275.378Z" fill="#CCCCCC"/>
<path d="M1659.96 292.929H1565.52C1565.08 292.93 1564.65 292.844 1564.24 292.676C1563.84 292.508 1563.47 292.262 1563.16 291.952C1562.84 291.641 1562.6 291.273 1562.43 290.867C1562.26 290.461 1562.17 290.026 1562.17 289.586C1562.17 289.147 1562.26 288.711 1562.43 288.305C1562.6 287.899 1562.84 287.531 1563.16 287.22C1563.47 286.91 1563.84 286.664 1564.24 286.496C1564.65 286.328 1565.08 286.242 1565.52 286.243H1659.96C1660.4 286.242 1660.83 286.328 1661.24 286.496C1661.65 286.664 1662.02 286.91 1662.33 287.22C1662.64 287.531 1662.88 287.899 1663.05 288.305C1663.22 288.711 1663.31 289.147 1663.31 289.586C1663.31 290.026 1663.22 290.461 1663.05 290.867C1662.88 291.273 1662.64 291.641 1662.33 291.952C1662.02 292.262 1661.65 292.508 1661.24 292.676C1660.83 292.844 1660.4 292.93 1659.96 292.929Z" fill="#CCCCCC"/>
<path d="M1659.96 310.479H1565.52C1565.08 310.479 1564.65 310.394 1564.24 310.226C1563.84 310.058 1563.47 309.812 1563.16 309.502C1562.84 309.191 1562.6 308.822 1562.43 308.416C1562.26 308.01 1562.17 307.575 1562.17 307.136C1562.17 306.696 1562.26 306.261 1562.43 305.855C1562.6 305.449 1562.84 305.081 1563.16 304.77C1563.47 304.46 1563.84 304.213 1564.24 304.046C1564.65 303.878 1565.08 303.792 1565.52 303.793H1659.96C1660.4 303.792 1660.83 303.878 1661.24 304.046C1661.65 304.213 1662.02 304.46 1662.33 304.77C1662.64 305.081 1662.88 305.449 1663.05 305.855C1663.22 306.261 1663.31 306.696 1663.31 307.136C1663.31 307.575 1663.22 308.01 1663.05 308.416C1662.88 308.822 1662.64 309.191 1662.33 309.502C1662.02 309.812 1661.65 310.058 1661.24 310.226C1660.83 310.394 1660.4 310.479 1659.96 310.479Z" fill="#CCCCCC"/>
<path d="M1659.96 328.028H1565.52C1565.08 328.029 1564.65 327.943 1564.24 327.776C1563.84 327.608 1563.47 327.362 1563.16 327.051C1562.84 326.741 1562.6 326.372 1562.43 325.966C1562.26 325.56 1562.17 325.125 1562.17 324.686C1562.17 324.246 1562.26 323.811 1562.43 323.405C1562.6 322.999 1562.84 322.63 1563.16 322.32C1563.47 322.009 1563.84 321.763 1564.24 321.596C1564.65 321.428 1565.08 321.342 1565.52 321.343H1659.96C1660.4 321.342 1660.83 321.428 1661.24 321.596C1661.65 321.763 1662.02 322.009 1662.33 322.32C1662.64 322.63 1662.88 322.999 1663.05 323.405C1663.22 323.811 1663.31 324.246 1663.31 324.686C1663.31 325.125 1663.22 325.56 1663.05 325.966C1662.88 326.372 1662.64 326.741 1662.33 327.051C1662.02 327.362 1661.65 327.608 1661.24 327.776C1660.83 327.943 1660.4 328.029 1659.96 328.028Z" fill="#CCCCCC"/>
<path d="M1659.96 345.578H1565.52C1565.08 345.579 1564.65 345.493 1564.24 345.326C1563.84 345.158 1563.47 344.912 1563.16 344.601C1562.84 344.291 1562.6 343.922 1562.43 343.516C1562.26 343.11 1562.17 342.675 1562.17 342.235C1562.17 341.796 1562.26 341.361 1562.43 340.955C1562.6 340.549 1562.84 340.18 1563.16 339.87C1563.47 339.559 1563.84 339.313 1564.24 339.145C1564.65 338.978 1565.08 338.892 1565.52 338.893H1659.96C1660.4 338.892 1660.83 338.978 1661.24 339.145C1661.65 339.313 1662.02 339.559 1662.33 339.87C1662.64 340.18 1662.88 340.549 1663.05 340.955C1663.22 341.361 1663.31 341.796 1663.31 342.235C1663.31 342.675 1663.22 343.11 1663.05 343.516C1662.88 343.922 1662.64 344.291 1662.33 344.601C1662.02 344.912 1661.65 345.158 1661.24 345.326C1660.83 345.493 1660.4 345.579 1659.96 345.578Z" fill="#CCCCCC"/>
<path d="M1734.7 472.718V436.683C1734.7 435.685 1735.09 434.73 1735.8 434.025C1736.5 433.32 1737.46 432.923 1738.46 432.922H1768.99C1769.99 432.923 1770.95 433.32 1771.65 434.025C1772.36 434.73 1772.75 435.685 1772.75 436.683V472.718C1772.75 473.715 1772.36 474.671 1771.65 475.376C1770.95 476.081 1769.99 476.478 1768.99 476.479H1738.46C1737.46 476.478 1736.5 476.081 1735.8 475.376C1735.09 474.671 1734.7 473.715 1734.7 472.718Z" fill="#E6E6E6"/>
<path d="M1745.7 460.718V424.683C1745.7 423.685 1746.09 422.73 1746.8 422.025C1747.5 421.32 1748.46 420.923 1749.46 420.922H1779.99C1780.99 420.923 1781.95 421.32 1782.65 422.025C1783.36 422.73 1783.75 423.685 1783.75 424.683V460.718C1783.75 461.715 1783.36 462.671 1782.65 463.376C1781.95 464.081 1780.99 464.478 1779.99 464.479H1749.46C1748.46 464.478 1747.5 464.081 1746.8 463.376C1746.09 462.671 1745.7 461.715 1745.7 460.718Z" fill="#007BFF"/>
<path d="M1882.58 449.188C1881.44 448.524 1880.45 447.617 1879.69 446.529C1878.93 445.441 1878.41 444.2 1878.18 442.893C1877.96 441.585 1878.02 440.244 1878.36 438.963C1878.71 437.681 1879.33 436.492 1880.19 435.477L1870.72 366.289L1890.44 367.257L1893.53 434.742C1895.14 436.293 1896.13 438.379 1896.3 440.607C1896.47 442.834 1895.83 445.048 1894.48 446.829C1893.13 448.61 1891.17 449.833 1888.98 450.268C1886.79 450.703 1884.51 450.319 1882.58 449.188V449.188Z" fill="#A0616A"/>
<path d="M1893.14 368.178C1892.74 368.654 1892.22 369.02 1891.64 369.243L1873.92 376.006C1873.03 376.345 1872.04 376.331 1871.16 375.965C1870.28 375.6 1869.58 374.911 1869.19 374.041L1853.49 338.766C1851.99 335.494 1851.73 331.783 1852.77 328.334C1853.54 325.873 1854.96 323.665 1856.88 321.944C1858.8 320.222 1861.15 319.051 1863.68 318.552C1865.63 318.152 1867.64 318.18 1869.57 318.635C1871.89 319.152 1874.04 320.238 1875.84 321.796C1877.63 323.354 1879 325.334 1879.84 327.557L1893.79 364.447C1894.03 365.07 1894.09 365.745 1893.98 366.401C1893.86 367.057 1893.58 367.671 1893.14 368.178Z" fill="#CCCCCC"/>
<path d="M1800.81 618.06H1788.55L1784.1 570.549L1800.81 570.773L1800.81 618.06Z" fill="#A0616A"/>
<path d="M1779.79 614.557H1803.43V629.444H1764.9C1764.9 627.489 1765.29 625.553 1766.04 623.747C1766.78 621.94 1767.88 620.299 1769.26 618.917C1770.65 617.535 1772.29 616.438 1774.09 615.69C1775.9 614.942 1777.84 614.557 1779.79 614.557Z" fill="#2F2E41"/>
<path d="M1857.81 618.06H1845.55L1839.72 570.771L1857.81 570.773L1857.81 618.06Z" fill="#A0616A"/>
<path d="M1836.79 614.557H1860.43V629.444H1821.9C1821.9 627.489 1822.29 625.553 1823.04 623.747C1823.78 621.94 1824.88 620.299 1826.26 618.917C1827.65 617.535 1829.29 616.438 1831.09 615.69C1832.9 614.942 1834.84 614.557 1836.79 614.557Z" fill="#2F2E41"/>
<path d="M1859.35 601.236L1840.09 599.81C1839 599.728 1837.97 599.248 1837.21 598.462C1836.44 597.675 1835.99 596.636 1835.93 595.539L1831.64 506.809C1831.6 505.957 1831.25 505.15 1830.65 504.539C1830.06 503.927 1829.26 503.554 1828.41 503.489C1827.56 503.423 1826.72 503.67 1826.04 504.183C1825.35 504.696 1824.88 505.44 1824.71 506.276L1806.8 593.683C1806.58 594.758 1805.97 595.716 1805.1 596.375C1804.22 597.035 1803.13 597.351 1802.03 597.265L1784.63 595.872C1784.03 595.825 1783.45 595.658 1782.92 595.384C1782.39 595.109 1781.92 594.73 1781.53 594.271C1781.15 593.812 1780.86 593.281 1780.69 592.708C1780.51 592.136 1780.45 591.535 1780.51 590.94L1796.66 429.463C1796.72 428.832 1796.92 428.221 1797.23 427.671C1797.55 427.121 1797.98 426.644 1798.49 426.271C1799 425.898 1799.59 425.638 1800.21 425.507C1800.83 425.377 1801.47 425.379 1802.09 425.514L1863.5 438.863C1864.51 439.086 1865.42 439.654 1866.07 440.471C1866.71 441.288 1867.06 442.303 1867.04 443.344L1864.18 596.832C1864.16 598.009 1863.68 599.13 1862.84 599.956C1862 600.781 1860.87 601.245 1859.69 601.248C1859.58 601.248 1859.46 601.243 1859.35 601.236Z" fill="#2F2E41"/>
<path d="M1842.5 294.448C1856.07 294.448 1867.06 283.452 1867.06 269.887C1867.06 256.323 1856.07 245.326 1842.5 245.326C1828.94 245.326 1817.94 256.323 1817.94 269.887C1817.94 283.452 1828.94 294.448 1842.5 294.448Z" fill="#A0616A"/>
<path d="M1804.4 441.915C1802.03 439.797 1800.16 437.193 1798.9 434.282C1797.64 431.37 1797.03 428.22 1797.1 425.049C1797.1 389.748 1827.66 310.881 1828.62 308.42C1828.71 307.827 1829.52 307.571 1833.74 304.714C1837.98 301.855 1844.08 301.415 1851.88 303.408C1852.68 303.611 1853.4 304.028 1853.97 304.613C1854.55 305.198 1854.95 305.929 1855.13 306.727L1856.59 308.824C1856.71 309.356 1856.96 309.851 1857.31 310.269C1857.67 310.687 1858.11 311.016 1858.61 311.231C1864.91 313.882 1884.91 326.109 1878.1 372.122C1871.76 414.865 1869.19 440.003 1868.38 448.827C1868.29 449.874 1867.83 450.855 1867.08 451.598C1866.34 452.34 1865.36 452.799 1864.31 452.893C1861.23 453.169 1855.93 453.536 1849.62 453.536C1835 453.536 1814.95 451.564 1804.4 441.915Z" fill="#CCCCCC"/>
<path d="M1775.05 428.837C1774.46 427.645 1774.15 426.34 1774.12 425.013C1774.1 423.686 1774.36 422.37 1774.9 421.157C1775.44 419.944 1776.24 418.864 1777.24 417.993C1778.24 417.122 1779.42 416.481 1780.7 416.115L1811.39 353.39L1827.22 365.18L1792.19 422.943C1792.66 425.127 1792.32 427.408 1791.22 429.354C1790.12 431.301 1788.35 432.777 1786.24 433.504C1784.12 434.23 1781.82 434.156 1779.75 433.296C1777.69 432.436 1776.02 430.85 1775.05 428.837L1775.05 428.837Z" fill="#A0616A"/>
<path d="M1828.96 367.454C1828.36 367.624 1827.72 367.639 1827.11 367.499L1808.63 363.241C1807.7 363.027 1806.89 362.466 1806.37 361.672C1805.84 360.878 1805.64 359.913 1805.8 358.974L1812.42 320.937C1812.99 317.38 1814.85 314.156 1817.64 311.873C1819.65 310.259 1822.06 309.217 1824.61 308.858C1827.16 308.498 1829.77 308.834 1832.15 309.831C1833.99 310.582 1835.64 311.726 1836.99 313.182C1838.63 314.902 1839.81 317.003 1840.43 319.295C1841.05 321.587 1841.09 323.998 1840.54 326.309L1831.57 364.717C1831.42 365.366 1831.1 365.961 1830.64 366.443C1830.18 366.924 1829.6 367.273 1828.96 367.454Z" fill="#CCCCCC"/>
<path d="M1836.75 292.079C1835.56 290.859 1834.68 289.369 1834.18 287.734C1833.69 286.1 1833.59 284.37 1833.91 282.692C1834.77 278.213 1835.27 275.282 1835.37 274.216C1835.69 270.568 1832.01 267.615 1828.36 267.145C1828.22 267.127 1828.1 267.114 1828 267.107C1828.09 267.198 1828.19 267.291 1828.28 267.374C1828.97 268.024 1829.84 268.835 1829.63 269.671C1829.51 270.175 1829.05 270.532 1828.22 270.762C1822.52 272.359 1818.12 270.893 1814.39 266.146C1813.35 264.797 1812.62 263.223 1812.29 261.548C1810.95 254.993 1814.51 249.405 1817.73 245.872C1820.39 242.959 1824.7 239.423 1830.13 239.12C1834.35 238.884 1839.37 241.315 1840.88 245.694C1841.59 244.644 1842.53 243.772 1843.63 243.15C1844.74 242.528 1845.97 242.171 1847.24 242.108C1850.12 242.046 1852.96 242.835 1855.4 244.377C1867.31 251.199 1872.42 267.45 1866.57 279.865C1862.89 287.674 1854.92 293.488 1845.76 295.037C1845.19 295.134 1844.61 295.184 1844.03 295.184C1842.67 295.182 1841.32 294.906 1840.07 294.372C1838.82 293.839 1837.69 293.059 1836.75 292.079Z" fill="#2F2E41"/>
<path d="M1721.58 630H1916.58C1916.84 630 1917.1 629.895 1917.29 629.707C1917.47 629.52 1917.58 629.265 1917.58 629C1917.58 628.735 1917.47 628.48 1917.29 628.293C1917.1 628.105 1916.84 628 1916.58 628H1721.58C1721.31 628 1721.06 628.105 1720.87 628.293C1720.68 628.48 1720.58 628.735 1720.58 629C1720.58 629.265 1720.68 629.52 1720.87 629.707C1721.06 629.895 1721.31 630 1721.58 630Z" fill="#3F3D56"/>
</g>
<line x1="1027" y1="310" x2="1400" y2="310" stroke="#007BFF" stroke-width="10"/>
<circle cx="1021" cy="310" r="19" fill="#007BFF"/>
<circle cx="1021" cy="310" r="13" fill="white"/>
<circle cx="1399" cy="310" r="19" fill="#007BFF"/>
<circle cx="1399" cy="310" r="13" fill="white"/>
<line x1="2281" y1="310" x2="2654" y2="310" stroke="#007BFF" stroke-width="10"/>
<circle cx="2275" cy="310" r="19" fill="#007BFF"/>
<circle cx="2275" cy="310" r="13" fill="white"/>
<circle cx="2653" cy="310" r="19" fill="#007BFF"/>
<circle cx="2653" cy="310" r="13" fill="white"/>
<defs>
<clipPath id="clip0_654_725">
<rect width="883.968" height="607.464" fill="white" transform="translate(0 23)"/>
</clipPath>
<clipPath id="clip1_654_725">
<rect width="811.76" height="620" fill="white" transform="translate(2790)"/>
</clipPath>
<clipPath id="clip2_654_725">
<rect width="601.6" height="630" fill="white" transform="translate(1536)"/>
</clipPath>
</defs>
</svg>
