<svg id="Layer_1" data-name="Layer 1" xmlns="http://www.w3.org/2000/svg" viewBox="0 0 672.13 191.88"><defs><style>.cls-1{fill:#0086ff;}.cls-2{fill:#102f4f;}</style></defs><path class="cls-1" d="M116-.09h0L51.34,82.53a30,30,0,0,0-.42,36.5l64,72.92h0c21.82,0,34.47-24.71,21.71-42.41L90.84,99.19l45.34-57.86C149.37,24.53,137.4-.09,116-.09Z"/><ellipse class="cls-1" cx="22.47" cy="23.07" rx="22.51" ry="22.43" transform="translate(-9.73 22.64) rotate(-44.99)"/><path class="cls-1" d="M44.94,81.88v84.79A25.28,25.28,0,0,1,19.66,192H0V81.88A22.48,22.48,0,0,1,22.53,59.41h0A22.46,22.46,0,0,1,44.94,81.88Z"/><path class="cls-2" d="M253.43,112.47l32.24,39.4a2,2,0,0,1-1.56,3.31H264a2,2,0,0,1-1.57-.76l-30.12-37.57v36.3a2,2,0,0,1-2,2H212.57a2,2,0,0,1-2-2V39a2,2,0,0,1,2-2h17.74a2,2,0,0,1,2,2v68.88l28.43-36.36a2,2,0,0,1,1.59-.78h20.76a2,2,0,0,1,1.57,3.3Z"/><path class="cls-2" d="M352.24,80.73V72.79a2,2,0,0,1,2-2H372a2,2,0,0,1,2,2v80.36a2,2,0,0,1-2,2H354.26a2,2,0,0,1-2-2v-7.93q-9.8,12.32-27.52,12.32-16.87,0-29-12.83-12-13-12-31.74,0-18.57,12-31.56,12.15-13,29-13Q342.45,68.41,352.24,80.73Zm-40.18,49.46q6.58,6.59,16.72,6.58t16.71-6.58q6.75-6.75,6.75-17.22t-6.75-17a24.07,24.07,0,0,0-33.43,0q-6.58,6.58-6.58,17T312.06,130.19Z"/><path class="cls-2" d="M452.64,60.64a13.56,13.56,0,0,1-13.33-13.33,13.07,13.07,0,0,1,4-9.46,12.66,12.66,0,0,1,9.36-4.05,12.86,12.86,0,0,1,9.54,4.05,13.11,13.11,0,0,1,4,9.46,12.81,12.81,0,0,1-4,9.36A13,13,0,0,1,452.64,60.64Zm9,94.54H443.86a2,2,0,0,1-2-2V72.79a2,2,0,0,1,2-2H461.6a2,2,0,0,1,2,2v80.36A2,2,0,0,1,461.6,155.18Z"/><path class="cls-2" d="M523.22,68.41q17,0,29,13Q564.4,94.4,564.4,113q0,18.91-12.15,31.74a37.94,37.94,0,0,1-29,12.83q-17.73,0-27.35-12.32v7.93a2,2,0,0,1-2,2H476.11a2,2,0,0,1-2-2V39a2,2,0,0,1,2-2h17.74a2,2,0,0,1,2,2v41.7Q505.48,68.41,523.22,68.41Zm-20.77,61.78q6.58,6.59,16.71,6.58t16.72-6.58q6.75-6.75,6.75-17.22t-6.75-17a24.07,24.07,0,0,0-33.43,0q-6.58,6.58-6.58,17T502.45,130.19Z"/><path class="cls-2" d="M645,155.11H628a2,2,0,0,1-2-2V107.41a38.9,38.9,0,0,1,38.9-38.9h5.28a2,2,0,0,1,2,2V87.59a2,2,0,0,1-2,2h-5.28a17.8,17.8,0,0,0-17.8,17.8v45.68A2,2,0,0,1,645,155.11Z"/><path class="cls-2" d="M594.3,155.11H577.24a2,2,0,0,1-2-2V107.41a38.89,38.89,0,0,1,38.89-38.9h5.29a2,2,0,0,1,2,2V87.59a2,2,0,0,1-2,2h-5.29a17.8,17.8,0,0,0-17.79,17.8v45.68A2,2,0,0,1,594.3,155.11Z"/><path class="cls-2" d="M429,155h-5.28a38.9,38.9,0,0,1-38.9-38.9V39a2,2,0,0,1,2-2h17.06a2,2,0,0,1,2,2v77.08a17.8,17.8,0,0,0,17.8,17.8H429a2,2,0,0,1,2,2V153A2,2,0,0,1,429,155Z"/></svg>