<svg width="1185" height="336" viewBox="0 0 1185 336" fill="none" xmlns="http://www.w3.org/2000/svg">
<path d="M0 336L1185 336V0L0 0V336Z" fill="#B3CEDF"/>
<g opacity="0.71">
<path opacity="0.71" d="M1076.71 104.022V76.0568H994.88V46H889.68V122.197H865.24V140.023H846.11V182.664H823.79V123.94H768.53V106.815H737.18V134.253L707.96 143.864V199.088H638.88V77.8065H564.49V100.523H506.04L490.1 105.766V118.35H416.78L402.96 122.892V165.538H372.14V99.8277H314.76V111.363H223.9V139.148L207.43 144.565V171.86H180.03V104.502L142.84 99.606V81.4317H42.94V158.329H34V322.239H114.28H180.03H366.11V322.048L1107 321.76V113.981L1076.71 104.022Z" fill="url(#paint0_linear_165_98)"/>
</g>
<path d="M1050.75 124.945L1035.69 134.853V165.243H1019.63V82H947.85V275.901L926.27 261.694V150.048H766.65V178.457H682.33V267.639V306.908H608.25V190.927H586.82V145.803H542.89V220.539H522.54V234.645L496.83 207.853H451.83V111.258H365.05L357.55 116.198V145.803V178.941H332.91V90.8129H258.99V105.619L244.52 115.138V265.31H227.92V144.75H218.27V133.117H133.1L118.64 142.636V156.029H38.29L34 327H301.84V326.647H573.96V327H682.33H838.59H1115V124.945H1050.75Z" fill="url(#paint1_linear_165_98)"/>
<path d="M1114.56 127.355V225.107H1088.59V186.202L1051.8 171.045V112.199H1005.27L978.22 101.05H943.59V160.344H860.27V227.667H838.62V133.597L778.03 146.523V202.698H761.8V116.211H741.24V90.8002H720.68V85H712.02V89.9063H661.16V109.522H613.55L601.64 116.211V196.456H561.07V180.188L535.64 169.709V131.367H446.91V163.02H414.44V189.772L375.49 207.605H350.6V122.895L281.35 103.28V181.747H265.11V127.802H182.87V146.523H145V236.134H128.77V197.35H73.58V185.313L63.84 179.517H4.33L0 336H1027.08H1088.59H1114.56H1185V127.355H1114.56Z" fill="url(#paint2_linear_165_98)"/>
<defs>
<linearGradient id="paint0_linear_165_98" x1="570.5" y1="322.239" x2="570.5" y2="46" gradientUnits="userSpaceOnUse">
<stop stop-color="#403E40"/>
<stop offset="0.13" stop-color="#4E4D4E"/>
<stop offset="0.31" stop-color="#5A5A5A"/>
<stop offset="0.55" stop-color="#626262"/>
<stop offset="1" stop-color="#646464"/>
</linearGradient>
<linearGradient id="paint1_linear_165_98" x1="574.5" y1="327" x2="574.5" y2="82" gradientUnits="userSpaceOnUse">
<stop offset="0.16" stop-color="#403E40"/>
<stop offset="1" stop-color="#555455"/>
</linearGradient>
<linearGradient id="paint2_linear_165_98" x1="592.5" y1="85" x2="592.5" y2="336" gradientUnits="userSpaceOnUse">
<stop stop-color="#403E40"/>
<stop offset="1" stop-color="#161F21"/>
</linearGradient>
</defs>
</svg>
