<svg width="3602" height="644" viewBox="0 0 3602 644" fill="none" xmlns="http://www.w3.org/2000/svg">
<g clip-path="url(#clip0_654_723)">
<path d="M772.718 164.072H772.593L701.103 194.599L603.29 236.366C602.908 236.527 602.498 236.61 602.083 236.613C601.669 236.615 601.258 236.535 600.874 236.378L499.959 194.512L426.713 164.122L426.601 164.072H426.476C425.321 164.074 424.213 164.533 423.395 165.35C422.578 166.168 422.118 167.276 422.117 168.431V357.743C422.118 358.899 422.578 360.007 423.395 360.824C424.213 361.642 425.321 362.101 426.476 362.103H772.718C773.874 362.101 774.982 361.642 775.799 360.824C776.616 360.007 777.076 358.899 777.077 357.743V168.431C777.076 167.276 776.616 166.168 775.799 165.35C774.982 164.533 773.874 164.074 772.718 164.072V164.072Z" fill="white"/>
<path d="M773.029 165.318C772.902 165.318 772.778 165.279 772.673 165.206L600.45 45.2648C599.926 44.9015 599.303 44.7074 598.665 44.7085C598.028 44.7095 597.405 44.9058 596.883 45.2709L425.9 165.205C425.764 165.299 425.597 165.336 425.435 165.307C425.273 165.278 425.129 165.186 425.034 165.051C424.939 164.916 424.902 164.75 424.93 164.587C424.959 164.425 425.05 164.28 425.184 164.185L596.167 44.2511C596.9 43.7401 597.771 43.4653 598.663 43.4639C599.556 43.4624 600.428 43.7343 601.162 44.2429L773.385 164.184C773.494 164.26 773.576 164.368 773.619 164.494C773.661 164.619 773.663 164.755 773.623 164.882C773.584 165.008 773.504 165.119 773.398 165.197C773.291 165.276 773.161 165.318 773.029 165.318H773.029Z" fill="#3F3D56"/>
<path d="M435.67 169.57L598.834 48.6445L763.237 178.174L607.241 270.65L522.549 251.346L435.67 169.57Z" fill="#E6E6E6"/>
<path d="M529.698 327.769H449.091C448.092 327.771 447.134 327.375 446.427 326.67C445.719 325.965 445.321 325.008 445.32 324.009C445.318 323.01 445.713 322.052 446.419 321.344C447.124 320.637 448.081 320.239 449.08 320.237H529.698C530.697 320.236 531.656 320.631 532.363 321.336C533.07 322.042 533.468 322.999 533.47 323.998C533.471 324.996 533.076 325.955 532.371 326.662C531.666 327.369 530.708 327.768 529.709 327.769H529.698Z" fill="#007BFF"/>
<path d="M478.011 311.578H449.091C448.093 311.579 447.135 311.183 446.428 310.478C445.721 309.773 445.324 308.816 445.322 307.817C445.321 306.819 445.716 305.861 446.42 305.154C447.125 304.447 448.082 304.048 449.08 304.046H478.011C478.506 304.045 478.996 304.141 479.453 304.33C479.911 304.518 480.327 304.795 480.677 305.144C481.028 305.493 481.306 305.908 481.496 306.365C481.686 306.822 481.784 307.311 481.785 307.806C481.786 308.301 481.689 308.791 481.5 309.248C481.312 309.706 481.035 310.121 480.685 310.472C480.336 310.822 479.921 311.1 479.464 311.29C479.007 311.479 478.517 311.577 478.022 311.578H478.011Z" fill="#007BFF"/>
<path d="M601.129 236.923C600.516 236.924 599.91 236.805 599.342 236.573L498.714 194.819V64.1228C498.715 62.9671 499.175 61.8591 499.992 61.0419C500.809 60.2247 501.917 59.765 503.073 59.7637H696.122C697.277 59.765 698.385 60.2247 699.202 61.0419C700.02 61.8591 700.479 62.9671 700.481 64.1228V194.91L700.292 194.991L602.97 236.553C602.387 236.797 601.761 236.923 601.129 236.923V236.923Z" fill="white"/>
<path d="M601.129 237.234C600.476 237.235 599.829 237.108 599.224 236.861L498.402 195.027V64.1227C498.404 62.8844 498.896 61.6972 499.772 60.8217C500.648 59.9461 501.835 59.4535 503.073 59.4521H696.122C697.36 59.4535 698.547 59.9461 699.422 60.8217C700.298 61.6972 700.791 62.8844 700.792 64.1227V195.116L603.092 236.839C602.471 237.1 601.803 237.234 601.129 237.234V237.234ZM499.648 194.195L599.699 235.71C600.632 236.088 601.677 236.082 602.606 235.692L699.547 194.294V64.1227C699.545 63.2146 699.184 62.3441 698.542 61.702C697.9 61.0599 697.03 60.6988 696.122 60.6977H503.073C502.165 60.6988 501.294 61.0599 500.652 61.702C500.01 62.3441 499.649 63.2146 499.648 64.1227L499.648 194.195Z" fill="#3F3D56"/>
<path d="M771.784 164.072H771.659L700.169 194.599L602.356 236.366C601.974 236.527 601.564 236.61 601.149 236.613C600.734 236.615 600.323 236.535 599.94 236.378L499.025 194.512L425.779 164.122L425.667 164.072H425.542C424.386 164.074 423.278 164.533 422.461 165.35C421.644 166.168 421.184 167.276 421.183 168.431V357.743C421.184 358.899 421.644 360.007 422.461 360.824C423.278 361.642 424.386 362.101 425.542 362.103H771.784C772.94 362.101 774.048 361.642 774.865 360.824C775.682 360.007 776.142 358.899 776.143 357.743V168.431C776.142 167.276 775.682 166.168 774.865 165.35C774.048 164.533 772.94 164.074 771.784 164.072V164.072ZM774.898 357.743C774.897 358.569 774.569 359.361 773.985 359.945C773.401 360.529 772.61 360.857 771.784 360.857H425.542C424.716 360.857 423.925 360.529 423.341 359.945C422.757 359.361 422.429 358.569 422.428 357.743V168.431C422.43 167.626 422.742 166.853 423.3 166.272C423.858 165.692 424.619 165.35 425.424 165.318L499.025 195.857L599.46 237.53C600.548 237.973 601.766 237.966 602.848 237.512L700.169 195.95L771.909 165.318C772.712 165.352 773.471 165.695 774.027 166.275C774.584 166.855 774.896 167.628 774.898 168.431V357.743Z" fill="#3F3D56"/>
<path d="M585.463 108.619H516.962C515.642 108.617 514.377 108.091 513.444 107.157C512.511 106.223 511.987 104.957 511.987 103.637C511.987 102.317 512.511 101.051 513.444 100.117C514.377 99.1828 515.642 98.6571 516.962 98.6553H585.463C586.783 98.6571 588.048 99.1828 588.981 100.117C589.914 101.051 590.438 102.317 590.438 103.637C590.438 104.957 589.914 106.223 588.981 107.157C588.048 108.091 586.783 108.617 585.463 108.619V108.619Z" fill="#007BFF"/>
<path d="M549.967 87.4452H516.962C515.641 87.4452 514.373 86.9204 513.439 85.9861C512.505 85.0518 511.98 83.7846 511.98 82.4633C511.98 81.1421 512.505 79.8749 513.439 78.9406C514.373 78.0063 515.641 77.4814 516.962 77.4814H549.967C551.288 77.4814 552.555 78.0063 553.49 78.9406C554.424 79.8749 554.949 81.1421 554.949 82.4633C554.949 83.7846 554.424 85.0518 553.49 85.9861C552.555 86.9204 551.288 87.4452 549.967 87.4452V87.4452Z" fill="#007BFF"/>
<path d="M650.831 158.437H546.211C544.891 158.436 543.626 157.91 542.693 156.976C541.76 156.042 541.236 154.776 541.236 153.456C541.236 152.135 541.76 150.869 542.693 149.935C543.626 149.001 544.891 148.476 546.211 148.474H650.831C652.151 148.476 653.416 149.001 654.349 149.935C655.282 150.869 655.806 152.135 655.806 153.456C655.806 154.776 655.282 156.042 654.349 156.976C653.416 157.91 652.151 158.436 650.831 158.437V158.437Z" fill="#CCCCCC"/>
<path d="M650.831 181.479H546.211C544.89 181.479 543.622 180.955 542.688 180.02C541.754 179.086 541.229 177.819 541.229 176.498C541.229 175.176 541.754 173.909 542.688 172.975C543.622 172.041 544.89 171.516 546.211 171.516H650.831C652.152 171.516 653.419 172.041 654.353 172.975C655.288 173.909 655.813 175.176 655.813 176.498C655.813 177.819 655.288 179.086 654.353 180.02C653.419 180.955 652.152 181.479 650.831 181.479V181.479Z" fill="#CCCCCC"/>
<path d="M769.853 213.25C796.016 213.25 817.224 192.041 817.224 165.878C817.224 139.716 796.016 118.507 769.853 118.507C743.691 118.507 722.482 139.716 722.482 165.878C722.482 192.041 743.691 213.25 769.853 213.25Z" fill="#007BFF"/>
<path d="M765.339 185.875L751.161 167.644L759.406 161.231L766.119 169.863L788.798 145.922L796.382 153.107L765.339 185.875Z" fill="white"/>
<path d="M239.765 445.853C238.939 444.637 238.389 443.255 238.155 441.804C237.921 440.352 238.008 438.867 238.409 437.453C238.811 436.039 239.518 434.73 240.48 433.619C241.443 432.507 242.637 431.621 243.979 431.021L240.898 395.419L257.224 404.267L257.647 436.719C258.505 439.04 258.482 441.596 257.582 443.902C256.682 446.207 254.967 448.103 252.763 449.229C250.559 450.354 248.018 450.633 245.623 450.011C243.227 449.388 241.143 447.909 239.765 445.853H239.765Z" fill="#9F616A"/>
<path d="M242.859 423.33L242.726 422.994L224.714 377.491L221.856 291.238L222.336 291.204C225.854 290.953 229.386 291.407 232.725 292.54C236.064 293.673 239.143 295.461 241.782 297.801C244.42 300.14 246.564 302.983 248.088 306.163C249.612 309.343 250.486 312.795 250.657 316.317L253.299 362.691L260.787 422.334L242.859 423.33Z" fill="#E5E5E5"/>
<path d="M127.8 613.505L138.154 620.07L168.401 583.255L153.119 573.567L127.8 613.505Z" fill="#9F616A"/>
<path d="M127.302 608.45L147.693 621.378L147.694 621.378C151.14 623.563 153.577 627.028 154.469 631.01C155.361 634.992 154.635 639.165 152.45 642.612L152.182 643.034L118.796 621.868L127.302 608.45Z" fill="#2F2E41"/>
<path d="M225.692 631.15L237.952 631.149L243.784 583.861L225.69 583.862L225.692 631.15Z" fill="#9F616A"/>
<path d="M222.565 627.147L246.709 627.146H246.71C250.791 627.147 254.704 628.768 257.59 631.653C260.475 634.539 262.096 638.452 262.096 642.533V643.033L222.566 643.034L222.565 627.147Z" fill="#2F2E41"/>
<path d="M191.003 433.016L219.866 606.618C219.866 606.618 214.188 620.813 222.704 622.705C231.221 624.598 250.147 620.813 250.147 620.813C250.147 620.813 255.825 606.618 247.308 604.726L231.221 423.337L191.003 433.016Z" fill="#2F2E41"/>
<path d="M208.037 436.112L188.041 517.286L137.064 591.306C137.064 591.306 118.138 593.199 128.547 603.608C138.956 614.018 143.688 614.964 143.688 614.964C143.688 614.964 159.775 613.071 158.829 605.501L221.502 531.73L250.621 433.273L208.037 436.112Z" fill="#2F2E41"/>
<path d="M190.587 443.261L185.759 415.703C178.487 408.103 192.227 389.312 193.759 387.271L192.86 375.585C192.094 375.454 191.393 375.072 190.867 374.5C186.356 369.899 186.659 351.749 186.674 350.978L181.696 299.193L194.082 291.968L225.404 290.958L240.7 304.215L255.433 439.566L254.908 439.596L190.587 443.261Z" fill="#E5E5E5"/>
<path d="M201.427 452.927C200.165 452.173 199.083 451.152 198.258 449.936C197.433 448.719 196.884 447.336 196.652 445.885C196.419 444.433 196.507 442.948 196.91 441.534C197.313 440.121 198.021 438.812 198.984 437.702L181.159 406.73L199.694 407.858L213.78 437.096C215.538 438.838 216.596 441.164 216.754 443.634C216.912 446.105 216.158 448.547 214.635 450.498C213.113 452.449 210.927 453.774 208.493 454.222C206.059 454.669 203.545 454.209 201.427 452.927H201.427Z" fill="#9F616A"/>
<path d="M185.642 423.965L170.265 388.321L167.695 315.51C167.607 313.118 168.177 310.747 169.342 308.656C170.506 306.564 172.222 304.832 174.302 303.647L192.041 292.808L195.868 369.352L207.315 415.099L185.642 423.965Z" fill="#E5E5E5"/>
<path d="M213.238 284.053C225.393 284.053 235.247 274.199 235.247 262.045C235.247 249.89 225.393 240.036 213.238 240.036C201.083 240.036 191.23 249.89 191.23 262.045C191.23 274.199 201.083 284.053 213.238 284.053Z" fill="#9F616A"/>
<path d="M221.196 229.548C199.031 223.156 192.74 241.527 192.74 241.527C182.056 248.615 188.745 257.502 188.745 257.502C186.049 258.1 191.439 273.876 193.237 273.477C194.196 273.264 196.662 276.208 198.753 278.999C199.47 278.998 200.186 279.067 200.89 279.205L196.832 264.192C196.832 264.192 210.511 262.096 214.704 255.507C218.717 249.202 231.926 247.212 235.685 251.423C235.907 250.212 236.362 249.056 237.025 248.019C237.539 247.231 238.21 246.558 238.996 246.043C235.673 231.919 221.196 229.548 221.196 229.548Z" fill="#2F2E41"/>
<path opacity="0.2" d="M196.224 341.464L194.996 385.275L210.238 417.401L196.224 340.299" fill="black"/>
<path d="M382 643.464H1C0.734784 643.464 0.480429 643.358 0.292892 643.171C0.105356 642.983 0 642.729 0 642.464C0 642.199 0.105356 641.944 0.292892 641.757C0.480429 641.569 0.734784 641.464 1 641.464H382C382.265 641.464 382.52 641.569 382.707 641.757C382.895 641.944 383 642.199 383 642.464C383 642.729 382.895 642.983 382.707 643.171C382.52 643.358 382.265 643.464 382 643.464Z" fill="#3F3D56"/>
<path d="M329.336 83.2782C329.013 83.087 328.642 82.9909 328.267 83.0007C327.891 83.0105 327.526 83.1259 327.213 83.3338C326.9 83.5416 326.652 83.8333 326.498 84.1756C326.343 84.5179 326.288 84.8969 326.339 85.269L327.882 96.5924C327.904 96.7593 327.892 96.9288 327.849 97.0914C327.8 97.2515 327.72 97.3999 327.611 97.5275L318.965 107.771C318.676 108.101 318.506 108.518 318.483 108.956C318.46 109.394 318.585 109.826 318.838 110.185L318.847 110.198C319.089 110.56 319.445 110.831 319.858 110.967C320.272 111.103 320.719 111.097 321.129 110.95L327.374 108.83C327.581 108.762 327.802 108.751 328.015 108.799C328.228 108.847 328.424 108.951 328.581 109.102C328.699 109.211 328.793 109.343 328.857 109.49C328.921 109.637 328.954 109.796 328.954 109.956L329.198 132.205C329.2 132.527 329.281 132.844 329.434 133.128C329.586 133.412 329.805 133.654 330.072 133.834C330.338 134.014 330.643 134.127 330.962 134.164C331.281 134.201 331.604 134.161 331.904 134.048L378.512 116.223C378.863 116.089 379.17 115.859 379.396 115.559C379.622 115.259 379.76 114.901 379.792 114.526C379.824 114.151 379.749 113.775 379.577 113.441C379.405 113.107 379.142 112.828 378.818 112.637L378.184 112.26L329.336 83.2782V83.2782ZM327.128 85.1602C327.098 84.9368 327.131 84.7094 327.224 84.5041C327.318 84.2988 327.467 84.1239 327.655 83.9994C327.843 83.8749 328.062 83.806 328.288 83.8003C328.513 83.7947 328.735 83.8527 328.929 83.9676L377.761 112.941L378.411 113.326C378.604 113.441 378.761 113.609 378.864 113.809C378.966 114.009 379.011 114.234 378.992 114.458C378.973 114.683 378.891 114.897 378.756 115.077C378.621 115.257 378.438 115.396 378.229 115.477L331.621 133.301C331.441 133.37 331.247 133.394 331.056 133.371C330.864 133.349 330.681 133.281 330.521 133.172C330.362 133.063 330.231 132.918 330.14 132.748C330.049 132.578 330 132.389 329.997 132.196L329.753 109.947C329.754 109.727 329.716 109.508 329.642 109.301L377.092 114.753C377.277 114.776 377.464 114.734 377.621 114.634C377.779 114.533 377.896 114.381 377.953 114.204C378.01 114.026 378.003 113.834 377.933 113.661C377.863 113.488 377.735 113.345 377.571 113.256C377.532 113.234 377.49 113.216 377.446 113.202L328.686 96.9253C328.697 96.778 328.693 96.6298 328.671 96.4835L327.128 85.1603L327.128 85.1602Z" fill="#F1F1F1"/>
<path d="M329.336 83.2782C329.013 83.087 328.642 82.9909 328.267 83.0007C327.891 83.0105 327.526 83.1259 327.213 83.3338C326.9 83.5416 326.652 83.8333 326.498 84.1756C326.343 84.5179 326.288 84.8969 326.339 85.269L327.882 96.5924C327.904 96.7593 327.892 96.9288 327.849 97.0914C327.8 97.2515 327.72 97.3999 327.611 97.5275L318.965 107.771C318.676 108.101 318.506 108.518 318.483 108.956C318.46 109.394 318.585 109.826 318.838 110.185L318.847 110.198C319.089 110.56 319.445 110.831 319.858 110.967C320.272 111.103 320.719 111.097 321.129 110.95L327.374 108.83C327.581 108.762 327.802 108.751 328.015 108.799C328.228 108.847 328.424 108.951 328.581 109.102C328.699 109.211 328.793 109.343 328.857 109.49C328.921 109.637 328.954 109.796 328.954 109.956L329.198 132.205C329.2 132.527 329.281 132.844 329.434 133.128C329.586 133.412 329.805 133.654 330.072 133.834C330.338 134.014 330.643 134.127 330.962 134.164C331.281 134.201 331.604 134.161 331.904 134.048L378.512 116.223C378.863 116.089 379.17 115.859 379.396 115.559C379.622 115.259 379.76 114.901 379.792 114.526C379.824 114.151 379.749 113.775 379.577 113.441C379.405 113.107 379.142 112.828 378.818 112.637L378.184 112.26L329.336 83.2782V83.2782ZM327.128 85.1602C327.098 84.9368 327.131 84.7094 327.224 84.5041C327.318 84.2988 327.467 84.1239 327.655 83.9994C327.843 83.8749 328.062 83.806 328.288 83.8003C328.513 83.7947 328.735 83.8527 328.929 83.9676L377.761 112.941L378.411 113.326C378.604 113.441 378.761 113.609 378.864 113.809C378.966 114.009 379.011 114.234 378.992 114.458C378.973 114.683 378.891 114.897 378.756 115.077C378.621 115.257 378.438 115.396 378.229 115.477L331.621 133.301C331.441 133.37 331.247 133.394 331.056 133.371C330.864 133.349 330.681 133.28 330.521 133.172C330.362 133.063 330.231 132.918 330.14 132.748C330.049 132.578 330 132.389 329.997 132.196L329.753 109.947C329.753 109.727 329.716 109.508 329.642 109.301C329.537 109.003 329.361 108.734 329.13 108.519C329.098 108.487 329.063 108.458 329.028 108.429L329.026 108.425C328.764 108.209 328.452 108.064 328.118 108.002C327.784 107.941 327.44 107.966 327.118 108.075L320.871 110.197C320.624 110.286 320.355 110.289 320.106 110.207C319.858 110.124 319.645 109.959 319.501 109.74L319.497 109.734C319.343 109.52 319.268 109.26 319.282 108.997C319.296 108.734 319.399 108.483 319.574 108.287L328.221 98.0433C328.313 97.936 328.393 97.8187 328.459 97.6935L328.463 97.6912C328.527 97.5714 328.578 97.445 328.615 97.3144C328.652 97.1876 328.676 97.0572 328.686 96.9254C328.698 96.7781 328.693 96.6299 328.671 96.4836L327.128 85.1603V85.1602Z" fill="#E5E5E5"/>
<path d="M328.686 96.9256L377.446 113.202C377.49 113.216 377.532 113.234 377.571 113.256C377.735 113.345 377.863 113.488 377.933 113.661C378.003 113.834 378.009 114.026 377.953 114.204C377.896 114.381 377.779 114.533 377.621 114.634C377.464 114.734 377.277 114.776 377.092 114.753L329.642 109.301L328.804 109.206L328.896 108.413L329.026 108.426L329.028 108.429L377.182 113.958L328.463 97.6914L328.459 97.6937L328.249 97.621L328.502 96.8633L328.686 96.9256Z" fill="#E5E5E5"/>
<path d="M873.112 36.2782L824.265 65.2597L823.631 65.6366C823.307 65.828 823.044 66.1069 822.872 66.4412C822.7 66.7754 822.625 67.1515 822.657 67.5262C822.689 67.9008 822.826 68.2588 823.053 68.559C823.279 68.8592 823.586 69.0894 823.937 69.2231L870.544 87.0476C870.845 87.1614 871.168 87.2014 871.487 87.1643C871.805 87.1272 872.111 87.0139 872.377 86.8342C872.644 86.654 872.863 86.4116 873.015 86.1277C873.167 85.8439 873.248 85.5273 873.251 85.2052L873.495 62.9563C873.495 62.7959 873.528 62.6372 873.592 62.4902C873.656 62.3432 873.75 62.211 873.867 62.102C874.025 61.9514 874.221 61.8466 874.434 61.7988C874.646 61.7509 874.868 61.7618 875.075 61.8303L881.319 63.9498C881.729 64.0972 882.177 64.1032 882.59 63.9669C883.004 63.8307 883.36 63.5599 883.602 63.1978L883.611 63.1846C883.864 62.8264 883.989 62.3936 883.966 61.9559C883.942 61.5181 883.773 61.1008 883.484 60.7711L874.837 50.5275C874.729 50.3999 874.648 50.2515 874.6 50.0914C874.557 49.9288 874.545 49.7593 874.566 49.5924L876.11 38.269C876.161 37.8969 876.106 37.5179 875.951 37.1756C875.796 36.8333 875.548 36.5416 875.235 36.3338C874.923 36.126 874.557 36.0105 874.182 36.0007C873.807 35.9909 873.436 36.087 873.112 36.2782V36.2782ZM875.321 38.1603L873.777 49.4836C873.756 49.6298 873.751 49.778 873.763 49.9254L825.002 66.2017C824.959 66.2157 824.917 66.234 824.877 66.2561C824.713 66.3448 824.585 66.4881 824.516 66.6611C824.446 66.8341 824.439 67.026 824.496 67.2035C824.553 67.3811 824.67 67.5332 824.827 67.6336C824.985 67.7339 825.172 67.7762 825.357 67.7531L872.807 62.3011C872.733 62.5085 872.695 62.727 872.695 62.9471L872.451 85.1959C872.449 85.3887 872.4 85.5782 872.309 85.7481C872.218 85.918 872.087 86.0634 871.927 86.172C871.768 86.2805 871.585 86.3489 871.393 86.3715C871.202 86.394 871.008 86.37 870.827 86.3014L824.22 68.4769C824.01 68.3956 823.828 68.2571 823.693 68.077C823.558 67.8969 823.476 67.6826 823.457 67.4584C823.438 67.2342 823.482 67.0092 823.585 66.8089C823.688 66.6087 823.845 66.4413 824.038 66.3259L824.688 65.9405L873.519 36.9675C873.713 36.8526 873.936 36.7947 874.161 36.8003C874.387 36.8059 874.606 36.8749 874.794 36.9994C874.982 37.1238 875.131 37.2987 875.224 37.504C875.318 37.7093 875.351 37.9367 875.321 38.1602V38.1603Z" fill="#F1F1F1"/>
<path d="M873.112 36.2782L824.265 65.2597L823.631 65.6366C823.307 65.828 823.044 66.1069 822.872 66.4412C822.7 66.7754 822.625 67.1515 822.657 67.5262C822.689 67.9008 822.826 68.2588 823.053 68.559C823.279 68.8592 823.586 69.0894 823.937 69.2231L870.544 87.0476C870.845 87.1614 871.168 87.2014 871.487 87.1643C871.805 87.1272 872.111 87.0139 872.377 86.8342C872.644 86.654 872.863 86.4116 873.015 86.1277C873.167 85.8439 873.248 85.5273 873.251 85.2052L873.495 62.9563C873.495 62.7959 873.528 62.6372 873.592 62.4902C873.656 62.3432 873.75 62.211 873.867 62.102C874.025 61.9514 874.221 61.8466 874.434 61.7988C874.646 61.7509 874.868 61.7618 875.075 61.8303L881.319 63.9498C881.729 64.0972 882.177 64.1032 882.59 63.9669C883.004 63.8307 883.36 63.5599 883.602 63.1978L883.611 63.1846C883.864 62.8264 883.989 62.3936 883.966 61.9559C883.942 61.5181 883.773 61.1008 883.484 60.7711L874.837 50.5275C874.729 50.3999 874.648 50.2515 874.6 50.0914C874.557 49.9288 874.545 49.7593 874.566 49.5924L876.11 38.269C876.161 37.8969 876.106 37.5179 875.951 37.1756C875.796 36.8333 875.548 36.5416 875.235 36.3338C874.923 36.126 874.557 36.0105 874.182 36.0007C873.807 35.9909 873.436 36.087 873.112 36.2782V36.2782ZM875.321 38.1603L873.777 49.4836C873.756 49.6299 873.751 49.778 873.763 49.9254C873.773 50.0572 873.797 50.1876 873.834 50.3144C873.871 50.445 873.922 50.5714 873.986 50.6912L873.989 50.6935C874.055 50.8187 874.136 50.936 874.228 51.0433L882.875 61.2867C883.05 61.4833 883.153 61.7337 883.167 61.9967C883.181 62.2597 883.105 62.5196 882.952 62.7337L882.948 62.7402C882.804 62.9595 882.591 63.1238 882.342 63.2066C882.094 63.2895 881.824 63.2859 881.578 63.1965L875.331 61.0748C875.009 60.9658 874.665 60.9408 874.331 61.0022C873.997 61.0636 873.684 61.2092 873.422 61.4254L873.42 61.4286C873.385 61.458 873.351 61.4873 873.319 61.5188C873.087 61.7341 872.912 62.0026 872.807 62.3011C872.733 62.5084 872.695 62.727 872.695 62.9471L872.451 85.1959C872.449 85.3887 872.4 85.5781 872.309 85.7481C872.218 85.918 872.087 86.0634 871.927 86.1719C871.768 86.2805 871.585 86.3489 871.393 86.3714C871.202 86.394 871.008 86.37 870.827 86.3014L824.22 68.4769C824.01 68.3956 823.828 68.2571 823.693 68.077C823.558 67.8969 823.476 67.6826 823.457 67.4584C823.438 67.2342 823.482 67.0092 823.585 66.8089C823.688 66.6087 823.845 66.4413 824.038 66.3259L824.688 65.9405L873.519 36.9676C873.713 36.8526 873.936 36.7947 874.161 36.8003C874.387 36.806 874.606 36.8749 874.794 36.9994C874.982 37.1239 875.131 37.2987 875.224 37.504C875.318 37.7093 875.351 37.9368 875.321 38.1602V38.1603Z" fill="#E5E5E5"/>
<path d="M873.947 49.8633L874.2 50.621L873.989 50.6937L873.986 50.6914L825.266 66.9576L873.42 61.4288L873.423 61.4256L873.552 61.4134L873.645 62.2059L872.807 62.3013L825.357 67.7533C825.172 67.7764 824.984 67.7342 824.827 67.6338C824.67 67.5335 824.553 67.3814 824.496 67.2038C824.439 67.0262 824.446 66.8343 824.516 66.6613C824.585 66.4883 824.713 66.3451 824.877 66.2564C824.917 66.2342 824.959 66.216 825.002 66.202L873.763 49.9256L873.947 49.8633Z" fill="#E5E5E5"/>
<path d="M455.126 441.221C454.792 441.393 454.513 441.654 454.32 441.977C454.128 442.3 454.03 442.67 454.039 443.046C454.047 443.421 454.161 443.787 454.368 444.1C454.574 444.414 454.865 444.663 455.207 444.819L465.603 449.566C465.755 449.637 465.892 449.737 466.006 449.861C466.116 449.987 466.198 450.135 466.248 450.294L470.285 463.077C470.41 463.498 470.672 463.864 471.029 464.117C471.387 464.371 471.819 464.497 472.257 464.475L472.273 464.474C472.709 464.463 473.128 464.307 473.464 464.03C473.8 463.753 474.034 463.372 474.129 462.947L475.675 456.536C475.727 456.324 475.837 456.131 475.991 455.977C476.145 455.823 476.338 455.713 476.55 455.66C476.705 455.619 476.866 455.61 477.025 455.635C477.183 455.659 477.335 455.716 477.471 455.802L496.406 467.486C496.68 467.656 496.991 467.757 497.312 467.78C497.633 467.803 497.955 467.747 498.25 467.618C498.544 467.489 498.803 467.292 499.005 467.042C499.207 466.792 499.346 466.498 499.41 466.183L509.252 417.264C509.327 416.896 509.296 416.514 509.164 416.162C509.031 415.81 508.802 415.503 508.502 415.275C508.203 415.048 507.845 414.91 507.47 414.877C507.096 414.844 506.72 414.917 506.385 415.088L505.727 415.423L455.126 441.221V441.221ZM455.537 444.094C455.332 444 455.157 443.85 455.034 443.662C454.91 443.473 454.842 443.254 454.837 443.028C454.833 442.803 454.891 442.58 455.007 442.387C455.123 442.193 455.291 442.036 455.492 441.934L506.077 416.144L506.75 415.801C506.951 415.699 507.176 415.656 507.4 415.676C507.624 415.697 507.838 415.779 508.017 415.915C508.197 416.051 508.334 416.235 508.414 416.445C508.494 416.655 508.514 416.884 508.47 417.105L498.628 466.024C498.59 466.213 498.506 466.39 498.385 466.539C498.263 466.689 498.107 466.808 497.931 466.884C497.754 466.961 497.561 466.994 497.368 466.98C497.176 466.966 496.99 466.907 496.826 466.805L477.89 455.121C477.704 455.004 477.499 454.919 477.284 454.871L507.251 417.679C507.369 417.534 507.434 417.354 507.433 417.167C507.432 416.981 507.366 416.8 507.247 416.657C507.127 416.514 506.961 416.418 506.778 416.384C506.594 416.35 506.405 416.382 506.242 416.473C506.202 416.495 506.164 416.521 506.129 416.55L466.313 449.065C466.195 448.976 466.067 448.901 465.932 448.841L455.537 444.094V444.094Z" fill="#F1F1F1"/>
<path d="M455.126 441.221C454.792 441.393 454.513 441.654 454.32 441.977C454.128 442.3 454.03 442.67 454.039 443.046C454.047 443.421 454.161 443.787 454.368 444.1C454.574 444.414 454.865 444.663 455.207 444.819L465.603 449.566C465.755 449.637 465.892 449.737 466.006 449.861C466.116 449.987 466.198 450.135 466.248 450.294L470.285 463.077C470.41 463.498 470.672 463.864 471.029 464.117C471.387 464.371 471.819 464.497 472.257 464.475L472.273 464.474C472.709 464.463 473.128 464.307 473.464 464.03C473.8 463.753 474.034 463.372 474.129 462.947L475.675 456.536C475.727 456.324 475.837 456.131 475.991 455.977C476.145 455.823 476.338 455.713 476.55 455.66C476.705 455.619 476.866 455.61 477.025 455.635C477.183 455.659 477.335 455.716 477.471 455.802L496.406 467.486C496.68 467.656 496.991 467.757 497.312 467.78C497.633 467.803 497.955 467.747 498.25 467.618C498.544 467.489 498.803 467.292 499.005 467.042C499.207 466.792 499.346 466.498 499.41 466.183L509.252 417.264C509.327 416.896 509.296 416.514 509.164 416.162C509.031 415.81 508.802 415.503 508.502 415.275C508.203 415.048 507.845 414.91 507.47 414.877C507.096 414.844 506.72 414.917 506.385 415.088L505.727 415.423L455.126 441.221V441.221ZM455.537 444.094C455.332 444 455.157 443.85 455.034 443.662C454.91 443.473 454.842 443.254 454.837 443.028C454.833 442.803 454.891 442.58 455.007 442.387C455.123 442.193 455.291 442.036 455.492 441.934L506.077 416.144L506.75 415.801C506.951 415.699 507.176 415.656 507.4 415.676C507.624 415.697 507.838 415.779 508.017 415.915C508.197 416.051 508.334 416.235 508.414 416.445C508.494 416.655 508.514 416.884 508.47 417.105L498.628 466.024C498.59 466.213 498.506 466.39 498.385 466.539C498.263 466.689 498.107 466.808 497.931 466.884C497.754 466.961 497.561 466.994 497.368 466.98C497.176 466.966 496.99 466.907 496.826 466.805L477.89 455.121C477.704 455.004 477.499 454.919 477.284 454.871C476.976 454.799 476.655 454.804 476.35 454.885C476.306 454.895 476.263 454.909 476.219 454.923L476.215 454.923C475.893 455.029 475.603 455.215 475.372 455.464C475.142 455.714 474.979 456.018 474.899 456.348L473.354 462.763C473.298 463.019 473.157 463.248 472.954 463.414C472.751 463.58 472.498 463.672 472.236 463.676L472.228 463.676C471.965 463.692 471.705 463.617 471.49 463.464C471.276 463.312 471.119 463.091 471.047 462.838L467.01 450.055C466.968 449.92 466.912 449.789 466.842 449.666L466.842 449.662C466.774 449.544 466.695 449.434 466.604 449.332C466.517 449.233 466.42 449.143 466.313 449.065C466.195 448.976 466.067 448.901 465.932 448.841L455.537 444.094V444.094Z" fill="#E5E5E5"/>
<path d="M466.313 449.065L506.129 416.55C506.164 416.521 506.202 416.495 506.242 416.473C506.405 416.382 506.594 416.351 506.777 416.384C506.961 416.418 507.127 416.514 507.246 416.657C507.366 416.8 507.432 416.981 507.433 417.167C507.434 417.354 507.369 417.535 507.251 417.679L477.284 454.871L476.756 455.528L476.136 455.026L476.215 454.923L476.219 454.923L506.627 417.177L466.841 449.663L466.842 449.667L466.668 449.806L466.162 449.187L466.313 449.065Z" fill="#E5E5E5"/>
</g>
<g clip-path="url(#clip1_654_723)">
<path d="M1955.63 89.8518L1954.48 91.0625L2033.57 166.357L2034.72 165.146L1955.63 89.8518Z" fill="#E6E6E6"/>
<path d="M2034.84 156.982L2033.17 157.083L2033.68 165.309L2025.44 165.21L2025.42 166.882L2035.46 167.001L2034.84 156.982Z" fill="#E6E6E6"/>
<path d="M1963.78 89.326L1963.76 90.9981L1955.52 90.8991L1956.03 99.1251L1954.36 99.2261L1953.75 89.2061L1963.78 89.326Z" fill="#E6E6E6"/>
<path d="M1994.6 137.298C1999.68 137.298 2003.79 133.182 2003.79 128.105C2003.79 123.028 1999.68 118.912 1994.6 118.912C1989.52 118.912 1985.41 123.028 1985.41 128.105C1985.41 133.182 1989.52 137.298 1994.6 137.298Z" fill="#E6E6E6"/>
<path d="M1719.64 89.8519L1640.55 165.146L1641.71 166.357L1720.79 91.0626L1719.64 89.8519Z" fill="#E6E6E6"/>
<path d="M1639.81 167.001L1649.85 166.882L1649.83 165.21L1641.59 165.309L1642.1 157.083L1640.43 156.982L1639.81 167.001Z" fill="#E6E6E6"/>
<path d="M1721.53 89.2061L1720.92 99.2261L1719.25 99.1251L1719.75 90.8991L1711.51 90.9981L1711.49 89.326L1721.53 89.2061Z" fill="#E6E6E6"/>
<path d="M1680.67 137.298C1685.75 137.298 1689.86 133.182 1689.86 128.105C1689.86 123.028 1685.75 118.912 1680.67 118.912C1675.59 118.912 1671.48 123.028 1671.48 128.105C1671.48 133.182 1675.59 137.298 1680.67 137.298Z" fill="#E6E6E6"/>
<path d="M1906.16 203.543H1767.44C1765.44 203.541 1763.53 202.747 1762.12 201.337C1760.71 199.927 1759.92 198.016 1759.91 196.021V20.5214C1759.92 18.5273 1760.71 16.6155 1762.12 15.2055C1763.53 13.7954 1765.44 13.0023 1767.44 13H1906.16C1908.16 13.0023 1910.07 13.7954 1911.48 15.2055C1912.89 16.6155 1913.68 18.5273 1913.69 20.5214V196.021C1913.68 198.016 1912.89 199.927 1911.48 201.337C1910.07 202.747 1908.16 203.541 1906.16 203.543ZM1767.44 14.6714C1765.88 14.6732 1764.4 15.2901 1763.3 16.3868C1762.2 17.4835 1761.59 18.9704 1761.59 20.5214V196.021C1761.59 197.572 1762.2 199.059 1763.3 200.156C1764.4 201.253 1765.88 201.87 1767.44 201.871H1906.16C1907.72 201.87 1909.2 201.253 1910.3 200.156C1911.4 199.059 1912.01 197.572 1912.01 196.021V20.5214C1912.01 18.9704 1911.4 17.4835 1910.3 16.3868C1909.2 15.2901 1907.72 14.6732 1906.16 14.6714H1767.44Z" fill="#A5A5A5"/>
<path d="M1825.26 97.3589H1794.72C1793.73 97.3578 1792.77 96.9612 1792.06 96.2562C1791.36 95.5512 1790.96 94.5953 1790.96 93.5982V57.5625C1790.96 56.5654 1791.36 55.6095 1792.06 54.9045C1792.77 54.1994 1793.73 53.8029 1794.72 53.8018H1825.26C1826.26 53.8029 1827.21 54.1994 1827.92 54.9045C1828.62 55.6095 1829.02 56.5654 1829.02 57.5625V93.5982C1829.02 94.5952 1828.62 95.5511 1827.92 96.2562C1827.21 96.9612 1826.26 97.3578 1825.26 97.3589Z" fill="#CCCCCC"/>
<path d="M1884.6 114.073H1854.06C1853.06 114.072 1852.11 113.675 1851.4 112.97C1850.7 112.265 1850.3 111.309 1850.3 110.312V74.2763C1850.3 73.2793 1850.7 72.3234 1851.4 71.6183C1852.11 70.9133 1853.06 70.5167 1854.06 70.5156H1884.6C1885.59 70.5167 1886.55 70.9133 1887.25 71.6183C1887.96 72.3234 1888.36 73.2793 1888.36 74.2763V110.312C1888.36 111.309 1887.96 112.265 1887.25 112.97C1886.55 113.675 1885.59 114.072 1884.6 114.073V114.073Z" fill="#CCCCCC"/>
<path d="M1836.96 165.051H1806.42C1805.43 165.05 1804.47 164.654 1803.76 163.949C1803.06 163.244 1802.66 162.288 1802.66 161.291V125.255C1802.66 124.258 1803.06 123.302 1803.76 122.597C1804.47 121.892 1805.43 121.495 1806.42 121.494H1836.96C1837.96 121.495 1838.91 121.892 1839.62 122.597C1840.32 123.302 1840.72 124.258 1840.72 125.255V161.291C1840.72 162.288 1840.32 163.244 1839.62 163.949C1838.91 164.654 1837.96 165.05 1836.96 165.051V165.051Z" fill="#CCCCCC"/>
<path d="M2130.08 384H1991.35C1989.36 383.998 1987.44 383.204 1986.03 381.794C1984.62 380.384 1983.83 378.473 1983.83 376.478V200.978C1983.83 198.984 1984.62 197.073 1986.03 195.663C1987.44 194.252 1989.36 193.459 1991.35 193.457H2130.08C2132.07 193.459 2133.98 194.252 2135.39 195.663C2136.8 197.073 2137.6 198.984 2137.6 200.978V376.478C2137.6 378.473 2136.8 380.384 2135.39 381.794C2133.98 383.204 2132.07 383.998 2130.08 384ZM1991.35 195.128C1989.8 195.13 1988.31 195.747 1987.22 196.844C1986.12 197.941 1985.5 199.427 1985.5 200.978V376.478C1985.5 378.029 1986.12 379.516 1987.22 380.613C1988.31 381.71 1989.8 382.327 1991.35 382.328H2130.08C2131.63 382.327 2133.12 381.71 2134.21 380.613C2135.31 379.516 2135.93 378.029 2135.93 376.478V200.978C2135.93 199.427 2135.31 197.941 2134.21 196.844C2133.12 195.747 2131.63 195.13 2130.08 195.128H1991.35Z" fill="#A5A5A5"/>
<path d="M2084.53 232.318H2036.9C2036.01 232.318 2035.16 231.965 2034.53 231.338C2033.91 230.712 2033.55 229.861 2033.55 228.975C2033.55 228.088 2033.91 227.238 2034.53 226.611C2035.16 225.984 2036.01 225.632 2036.9 225.632H2084.53C2085.42 225.632 2086.27 225.984 2086.9 226.611C2087.52 227.238 2087.87 228.088 2087.87 228.975C2087.87 229.861 2087.52 230.712 2086.9 231.338C2086.27 231.965 2085.42 232.318 2084.53 232.318Z" fill="#CCCCCC"/>
<path d="M2107.93 264.075H2013.5C2013.06 264.076 2012.62 263.99 2012.22 263.823C2011.81 263.655 2011.44 263.409 2011.13 263.098C2010.82 262.788 2010.57 262.419 2010.4 262.013C2010.23 261.607 2010.15 261.172 2010.15 260.733C2010.15 260.293 2010.23 259.858 2010.4 259.452C2010.57 259.046 2010.82 258.677 2011.13 258.367C2011.44 258.056 2011.81 257.81 2012.22 257.642C2012.62 257.475 2013.06 257.389 2013.5 257.39H2107.93C2108.37 257.389 2108.81 257.475 2109.21 257.642C2109.62 257.81 2109.99 258.056 2110.3 258.367C2110.61 258.677 2110.86 259.046 2111.03 259.452C2111.19 259.858 2111.28 260.293 2111.28 260.733C2111.28 261.172 2111.19 261.607 2111.03 262.013C2110.86 262.419 2110.61 262.788 2110.3 263.098C2109.99 263.409 2109.62 263.655 2109.21 263.823C2108.81 263.99 2108.37 264.076 2107.93 264.075V264.075Z" fill="#CCCCCC"/>
<path d="M2107.93 281.625H2013.5C2013.06 281.626 2012.62 281.54 2012.22 281.372C2011.81 281.205 2011.44 280.959 2011.13 280.648C2010.82 280.338 2010.57 279.969 2010.4 279.563C2010.23 279.157 2010.15 278.722 2010.15 278.282C2010.15 277.843 2010.23 277.408 2010.4 277.002C2010.57 276.596 2010.82 276.227 2011.13 275.917C2011.44 275.606 2011.81 275.36 2012.22 275.192C2012.62 275.025 2013.06 274.939 2013.5 274.939H2107.93C2108.37 274.939 2108.81 275.025 2109.21 275.192C2109.62 275.36 2109.99 275.606 2110.3 275.917C2110.61 276.227 2110.86 276.596 2111.03 277.002C2111.19 277.408 2111.28 277.843 2111.28 278.282C2111.28 278.722 2111.19 279.157 2111.03 279.563C2110.86 279.969 2110.61 280.338 2110.3 280.648C2109.99 280.959 2109.62 281.205 2109.21 281.372C2108.81 281.54 2108.37 281.626 2107.93 281.625V281.625Z" fill="#CCCCCC"/>
<path d="M2107.93 299.175H2013.5C2013.06 299.176 2012.62 299.09 2012.22 298.922C2011.81 298.755 2011.44 298.508 2011.13 298.198C2010.82 297.887 2010.57 297.519 2010.4 297.113C2010.23 296.707 2010.15 296.272 2010.15 295.832C2010.15 295.393 2010.23 294.957 2010.4 294.552C2010.57 294.146 2010.82 293.777 2011.13 293.466C2011.44 293.156 2011.81 292.91 2012.22 292.742C2012.62 292.574 2013.06 292.489 2013.5 292.489H2107.93C2108.37 292.489 2108.81 292.574 2109.21 292.742C2109.62 292.91 2109.99 293.156 2110.3 293.466C2110.61 293.777 2110.86 294.146 2111.03 294.552C2111.19 294.957 2111.28 295.393 2111.28 295.832C2111.28 296.272 2111.19 296.707 2111.03 297.113C2110.86 297.519 2110.61 297.887 2110.3 298.198C2109.99 298.508 2109.62 298.755 2109.21 298.922C2108.81 299.09 2108.37 299.176 2107.93 299.175V299.175Z" fill="#CCCCCC"/>
<path d="M2107.93 316.725H2013.5C2013.06 316.726 2012.62 316.64 2012.22 316.472C2011.81 316.304 2011.44 316.058 2011.13 315.748C2010.82 315.437 2010.57 315.068 2010.4 314.663C2010.23 314.257 2010.15 313.821 2010.15 313.382C2010.15 312.942 2010.23 312.507 2010.4 312.101C2010.57 311.695 2010.82 311.327 2011.13 311.016C2011.44 310.706 2011.81 310.46 2012.22 310.292C2012.62 310.124 2013.06 310.038 2013.5 310.039H2107.93C2108.37 310.038 2108.81 310.124 2109.21 310.292C2109.62 310.46 2109.99 310.706 2110.3 311.016C2110.61 311.327 2110.86 311.695 2111.03 312.101C2111.19 312.507 2111.28 312.942 2111.28 313.382C2111.28 313.821 2111.19 314.257 2111.03 314.663C2110.86 315.068 2110.61 315.437 2110.3 315.748C2109.99 316.058 2109.62 316.304 2109.21 316.472C2108.81 316.64 2108.37 316.726 2107.93 316.725V316.725Z" fill="#CCCCCC"/>
<path d="M2107.93 334.275H2013.5C2013.06 334.275 2012.62 334.189 2012.22 334.022C2011.81 333.854 2011.44 333.608 2011.13 333.298C2010.82 332.987 2010.57 332.618 2010.4 332.212C2010.23 331.806 2010.15 331.371 2010.15 330.932C2010.15 330.492 2010.23 330.057 2010.4 329.651C2010.57 329.245 2010.82 328.876 2011.13 328.566C2011.44 328.255 2011.81 328.009 2012.22 327.842C2012.62 327.674 2013.06 327.588 2013.5 327.589H2107.93C2108.37 327.588 2108.81 327.674 2109.21 327.842C2109.62 328.009 2109.99 328.255 2110.3 328.566C2110.61 328.876 2110.86 329.245 2111.03 329.651C2111.19 330.057 2111.28 330.492 2111.28 330.932C2111.28 331.371 2111.19 331.806 2111.03 332.212C2110.86 332.618 2110.61 332.987 2110.3 333.298C2109.99 333.608 2109.62 333.854 2109.21 334.022C2108.81 334.189 2108.37 334.275 2107.93 334.275V334.275Z" fill="#CCCCCC"/>
<path d="M2107.93 351.825H2013.5C2013.06 351.826 2012.62 351.74 2012.22 351.573C2011.81 351.405 2011.44 351.159 2011.13 350.848C2010.82 350.538 2010.57 350.169 2010.4 349.763C2010.23 349.357 2010.15 348.922 2010.15 348.483C2010.15 348.043 2010.23 347.608 2010.4 347.202C2010.57 346.796 2010.82 346.427 2011.13 346.117C2011.44 345.806 2011.81 345.56 2012.22 345.392C2012.62 345.225 2013.06 345.139 2013.5 345.14H2107.93C2108.37 345.139 2108.81 345.225 2109.21 345.392C2109.62 345.56 2109.99 345.806 2110.3 346.117C2110.61 346.427 2110.86 346.796 2111.03 347.202C2111.19 347.608 2111.28 348.043 2111.28 348.483C2111.28 348.922 2111.19 349.357 2111.03 349.763C2110.86 350.169 2110.61 350.538 2110.3 350.848C2109.99 351.159 2109.62 351.405 2109.21 351.573C2108.81 351.74 2108.37 351.826 2107.93 351.825V351.825Z" fill="#CCCCCC"/>
<path d="M1682.25 384H1543.52C1541.53 383.998 1539.62 383.204 1538.21 381.794C1536.8 380.384 1536 378.473 1536 376.478V200.978C1536 198.984 1536.8 197.073 1538.21 195.663C1539.62 194.252 1541.53 193.459 1543.52 193.457H1682.25C1684.24 193.459 1686.16 194.252 1687.57 195.663C1688.98 197.073 1689.77 198.984 1689.77 200.978V376.478C1689.77 378.473 1688.98 380.384 1687.57 381.794C1686.16 383.204 1684.24 383.998 1682.25 384ZM1543.52 195.128C1541.97 195.13 1540.48 195.747 1539.39 196.844C1538.29 197.941 1537.67 199.427 1537.67 200.978V376.478C1537.67 378.029 1538.29 379.516 1539.39 380.613C1540.48 381.71 1541.97 382.327 1543.52 382.328H1682.25C1683.8 382.327 1685.29 381.71 1686.38 380.613C1687.48 379.516 1688.1 378.029 1688.1 376.478V200.978C1688.1 199.427 1687.48 197.941 1686.38 196.844C1685.29 195.747 1683.8 195.13 1682.25 195.128H1543.52Z" fill="#A5A5A5"/>
<path d="M1660.25 234.893H1618.46C1617.58 234.893 1616.73 234.541 1616.1 233.914C1615.47 233.287 1615.12 232.436 1615.12 231.55C1615.12 230.663 1615.47 229.813 1616.1 229.186C1616.73 228.559 1617.58 228.207 1618.46 228.207H1660.25C1661.14 228.207 1661.99 228.559 1662.61 229.186C1663.24 229.813 1663.59 230.663 1663.59 231.55C1663.59 232.436 1663.24 233.287 1662.61 233.914C1661.99 234.541 1661.14 234.893 1660.25 234.893V234.893Z" fill="#CCCCCC"/>
<path d="M1660.25 252.443H1618.46C1617.58 252.443 1616.73 252.09 1616.1 251.463C1615.47 250.837 1615.12 249.986 1615.12 249.1C1615.12 248.213 1615.47 247.363 1616.1 246.736C1616.73 246.109 1617.58 245.757 1618.46 245.757H1660.25C1661.14 245.757 1661.99 246.109 1662.61 246.736C1663.24 247.363 1663.59 248.213 1663.59 249.1C1663.59 249.986 1663.24 250.837 1662.61 251.463C1661.99 252.09 1661.14 252.443 1660.25 252.443V252.443Z" fill="#CCCCCC"/>
<path d="M1597.02 262.436H1566.49C1565.49 262.435 1564.53 262.038 1563.83 261.333C1563.12 260.628 1562.73 259.672 1562.72 258.675V222.64C1562.73 221.643 1563.12 220.687 1563.83 219.982C1564.53 219.277 1565.49 218.88 1566.49 218.879H1597.02C1598.02 218.88 1598.98 219.277 1599.68 219.982C1600.39 220.687 1600.78 221.643 1600.78 222.64V258.675C1600.78 259.672 1600.39 260.628 1599.68 261.333C1598.98 262.038 1598.02 262.435 1597.02 262.436V262.436Z" fill="#CCCCCC"/>
<path d="M1659.96 288.378H1565.52C1565.08 288.379 1564.65 288.293 1564.24 288.125C1563.84 287.958 1563.47 287.712 1563.16 287.401C1562.84 287.091 1562.6 286.722 1562.43 286.316C1562.26 285.91 1562.17 285.475 1562.17 285.035C1562.17 284.596 1562.26 284.161 1562.43 283.755C1562.6 283.349 1562.84 282.98 1563.16 282.669C1563.47 282.359 1563.84 282.113 1564.24 281.945C1564.65 281.778 1565.08 281.692 1565.52 281.692H1659.96C1660.4 281.692 1660.83 281.778 1661.24 281.945C1661.65 282.113 1662.02 282.359 1662.33 282.669C1662.64 282.98 1662.88 283.349 1663.05 283.755C1663.22 284.161 1663.31 284.596 1663.31 285.035C1663.31 285.475 1663.22 285.91 1663.05 286.316C1662.88 286.722 1662.64 287.091 1662.33 287.401C1662.02 287.712 1661.65 287.958 1661.24 288.125C1660.83 288.293 1660.4 288.379 1659.96 288.378V288.378Z" fill="#CCCCCC"/>
<path d="M1659.96 305.929H1565.52C1565.08 305.93 1564.65 305.844 1564.24 305.676C1563.84 305.508 1563.47 305.262 1563.16 304.952C1562.84 304.641 1562.6 304.273 1562.43 303.867C1562.26 303.461 1562.17 303.026 1562.17 302.586C1562.17 302.147 1562.26 301.711 1562.43 301.305C1562.6 300.899 1562.84 300.531 1563.16 300.22C1563.47 299.91 1563.84 299.664 1564.24 299.496C1564.65 299.328 1565.08 299.242 1565.52 299.243H1659.96C1660.4 299.242 1660.83 299.328 1661.24 299.496C1661.65 299.664 1662.02 299.91 1662.33 300.22C1662.64 300.531 1662.88 300.899 1663.05 301.305C1663.22 301.711 1663.31 302.147 1663.31 302.586C1663.31 303.026 1663.22 303.461 1663.05 303.867C1662.88 304.273 1662.64 304.641 1662.33 304.952C1662.02 305.262 1661.65 305.508 1661.24 305.676C1660.83 305.844 1660.4 305.93 1659.96 305.929V305.929Z" fill="#CCCCCC"/>
<path d="M1659.96 323.479H1565.52C1565.08 323.479 1564.65 323.394 1564.24 323.226C1563.84 323.058 1563.47 322.812 1563.16 322.502C1562.84 322.191 1562.6 321.822 1562.43 321.416C1562.26 321.01 1562.17 320.575 1562.17 320.136C1562.17 319.696 1562.26 319.261 1562.43 318.855C1562.6 318.449 1562.84 318.081 1563.16 317.77C1563.47 317.46 1563.84 317.213 1564.24 317.046C1564.65 316.878 1565.08 316.792 1565.52 316.793H1659.96C1660.4 316.792 1660.83 316.878 1661.24 317.046C1661.65 317.213 1662.02 317.46 1662.33 317.77C1662.64 318.081 1662.88 318.449 1663.05 318.855C1663.22 319.261 1663.31 319.696 1663.31 320.136C1663.31 320.575 1663.22 321.01 1663.05 321.416C1662.88 321.822 1662.64 322.191 1662.33 322.502C1662.02 322.812 1661.65 323.058 1661.24 323.226C1660.83 323.394 1660.4 323.479 1659.96 323.479V323.479Z" fill="#CCCCCC"/>
<path d="M1659.96 341.028H1565.52C1565.08 341.029 1564.65 340.943 1564.24 340.776C1563.84 340.608 1563.47 340.362 1563.16 340.051C1562.84 339.741 1562.6 339.372 1562.43 338.966C1562.26 338.56 1562.17 338.125 1562.17 337.686C1562.17 337.246 1562.26 336.811 1562.43 336.405C1562.6 335.999 1562.84 335.63 1563.16 335.32C1563.47 335.009 1563.84 334.763 1564.24 334.596C1564.65 334.428 1565.08 334.342 1565.52 334.343H1659.96C1660.4 334.342 1660.83 334.428 1661.24 334.596C1661.65 334.763 1662.02 335.009 1662.33 335.32C1662.64 335.63 1662.88 335.999 1663.05 336.405C1663.22 336.811 1663.31 337.246 1663.31 337.686C1663.31 338.125 1663.22 338.56 1663.05 338.966C1662.88 339.372 1662.64 339.741 1662.33 340.051C1662.02 340.362 1661.65 340.608 1661.24 340.776C1660.83 340.943 1660.4 341.029 1659.96 341.028V341.028Z" fill="#CCCCCC"/>
<path d="M1659.96 358.578H1565.52C1565.08 358.579 1564.65 358.493 1564.24 358.326C1563.84 358.158 1563.47 357.912 1563.16 357.601C1562.84 357.291 1562.6 356.922 1562.43 356.516C1562.26 356.11 1562.17 355.675 1562.17 355.235C1562.17 354.796 1562.26 354.361 1562.43 353.955C1562.6 353.549 1562.84 353.18 1563.16 352.87C1563.47 352.559 1563.84 352.313 1564.24 352.145C1564.65 351.978 1565.08 351.892 1565.52 351.893H1659.96C1660.4 351.892 1660.83 351.978 1661.24 352.145C1661.65 352.313 1662.02 352.559 1662.33 352.87C1662.64 353.18 1662.88 353.549 1663.05 353.955C1663.22 354.361 1663.31 354.796 1663.31 355.235C1663.31 355.675 1663.22 356.11 1663.05 356.516C1662.88 356.922 1662.64 357.291 1662.33 357.601C1662.02 357.912 1661.65 358.158 1661.24 358.326C1660.83 358.493 1660.4 358.579 1659.96 358.578V358.578Z" fill="#CCCCCC"/>
<path d="M1734.7 485.718V449.683C1734.7 448.685 1735.09 447.73 1735.8 447.025C1736.5 446.32 1737.46 445.923 1738.46 445.922H1768.99C1769.99 445.923 1770.95 446.32 1771.65 447.025C1772.36 447.73 1772.75 448.685 1772.75 449.683V485.718C1772.75 486.715 1772.36 487.671 1771.65 488.376C1770.95 489.081 1769.99 489.478 1768.99 489.479H1738.46C1737.46 489.478 1736.5 489.081 1735.8 488.376C1735.09 487.671 1734.7 486.715 1734.7 485.718V485.718Z" fill="#E6E6E6"/>
<path d="M1745.7 473.718V437.683C1745.7 436.685 1746.09 435.73 1746.8 435.025C1747.5 434.32 1748.46 433.923 1749.46 433.922H1779.99C1780.99 433.923 1781.95 434.32 1782.65 435.025C1783.36 435.73 1783.75 436.685 1783.75 437.683V473.718C1783.75 474.715 1783.36 475.671 1782.65 476.376C1781.95 477.081 1780.99 477.478 1779.99 477.479H1749.46C1748.46 477.478 1747.5 477.081 1746.8 476.376C1746.09 475.671 1745.7 474.715 1745.7 473.718V473.718Z" fill="#CCCCCC"/>
<path d="M1882.58 462.188C1881.44 461.524 1880.45 460.617 1879.69 459.529C1878.93 458.441 1878.41 457.2 1878.18 455.893C1877.96 454.585 1878.02 453.244 1878.36 451.963C1878.71 450.681 1879.33 449.492 1880.19 448.477L1870.72 379.289L1890.44 380.257L1893.53 447.742C1895.14 449.293 1896.13 451.379 1896.3 453.607C1896.47 455.834 1895.83 458.048 1894.48 459.829C1893.13 461.61 1891.17 462.833 1888.98 463.268C1886.79 463.703 1884.51 463.319 1882.58 462.188V462.188Z" fill="#C6A0A5"/>
<path d="M1893.14 381.178C1892.74 381.654 1892.22 382.02 1891.64 382.243L1873.92 389.006C1873.03 389.345 1872.04 389.331 1871.16 388.965C1870.28 388.6 1869.58 387.911 1869.19 387.041L1853.49 351.766C1851.99 348.494 1851.73 344.783 1852.77 341.334C1853.54 338.873 1854.96 336.665 1856.88 334.944C1858.8 333.222 1861.15 332.051 1863.68 331.552C1865.63 331.152 1867.64 331.18 1869.57 331.635C1871.89 332.152 1874.04 333.238 1875.84 334.796C1877.63 336.354 1879 338.334 1879.84 340.557L1893.79 377.447C1894.03 378.07 1894.09 378.745 1893.98 379.401C1893.86 380.057 1893.58 380.671 1893.14 381.178V381.178Z" fill="#CCCCCC"/>
<path d="M1800.81 631.06H1788.55L1784.1 583.549L1800.81 583.773L1800.81 631.06Z" fill="#C6A0A5"/>
<path d="M1779.79 627.557H1803.43V642.444H1764.9C1764.9 640.489 1765.29 638.553 1766.04 636.747C1766.78 634.94 1767.88 633.299 1769.26 631.917C1770.65 630.535 1772.29 629.438 1774.09 628.69C1775.9 627.942 1777.84 627.557 1779.79 627.557V627.557Z" fill="#A6A6A6"/>
<path d="M1857.81 631.06H1845.55L1839.72 583.771L1857.81 583.773L1857.81 631.06Z" fill="#C6A0A5"/>
<path d="M1836.79 627.557H1860.43V642.444H1821.9C1821.9 640.489 1822.29 638.553 1823.04 636.747C1823.78 634.94 1824.88 633.299 1826.26 631.917C1827.65 630.535 1829.29 629.438 1831.09 628.69C1832.9 627.942 1834.84 627.557 1836.79 627.557V627.557Z" fill="#A6A6A6"/>
<path d="M1859.35 614.236L1840.09 612.81C1839 612.728 1837.97 612.248 1837.21 611.462C1836.44 610.675 1835.99 609.636 1835.93 608.539L1831.64 519.809C1831.6 518.957 1831.25 518.15 1830.65 517.539C1830.06 516.927 1829.26 516.554 1828.41 516.489C1827.56 516.423 1826.72 516.67 1826.04 517.183C1825.35 517.696 1824.88 518.441 1824.71 519.276L1806.8 606.683C1806.58 607.758 1805.97 608.716 1805.1 609.375C1804.22 610.035 1803.13 610.351 1802.03 610.265L1784.63 608.872C1784.03 608.825 1783.45 608.658 1782.92 608.384C1782.39 608.109 1781.92 607.73 1781.53 607.271C1781.15 606.812 1780.86 606.281 1780.69 605.708C1780.51 605.136 1780.45 604.535 1780.51 603.94L1796.66 442.463C1796.72 441.832 1796.92 441.221 1797.23 440.671C1797.55 440.121 1797.98 439.644 1798.49 439.271C1799 438.898 1799.59 438.638 1800.21 438.507C1800.83 438.377 1801.47 438.379 1802.09 438.514L1863.5 451.863C1864.51 452.086 1865.42 452.654 1866.07 453.471C1866.71 454.288 1867.06 455.303 1867.04 456.344L1864.18 609.832C1864.16 611.009 1863.68 612.13 1862.84 612.956C1862 613.781 1860.87 614.245 1859.69 614.248C1859.58 614.248 1859.46 614.243 1859.35 614.236Z" fill="#A6A6A6"/>
<path d="M1842.5 307.448C1856.07 307.448 1867.06 296.452 1867.06 282.887C1867.06 269.323 1856.07 258.326 1842.5 258.326C1828.94 258.326 1817.94 269.323 1817.94 282.887C1817.94 296.452 1828.94 307.448 1842.5 307.448Z" fill="#C6A0A5"/>
<path d="M1804.4 454.915C1802.03 452.797 1800.16 450.193 1798.9 447.282C1797.64 444.37 1797.03 441.22 1797.1 438.049C1797.1 402.748 1827.66 323.881 1828.62 321.42C1828.71 320.827 1829.52 320.571 1833.74 317.714C1837.98 314.855 1844.08 314.415 1851.88 316.408C1852.68 316.611 1853.4 317.028 1853.97 317.613C1854.55 318.198 1854.95 318.929 1855.13 319.727L1856.59 321.824C1856.71 322.356 1856.96 322.851 1857.31 323.269C1857.67 323.687 1858.11 324.016 1858.61 324.231C1864.91 326.882 1884.91 339.109 1878.1 385.122C1871.76 427.865 1869.19 453.003 1868.38 461.827C1868.29 462.874 1867.83 463.855 1867.08 464.598C1866.34 465.34 1865.36 465.799 1864.31 465.893C1861.23 466.169 1855.93 466.536 1849.62 466.536C1835 466.536 1814.95 464.564 1804.4 454.915Z" fill="#CCCCCC"/>
<path d="M1775.05 441.837C1774.46 440.645 1774.15 439.34 1774.12 438.013C1774.1 436.686 1774.36 435.37 1774.9 434.157C1775.44 432.944 1776.24 431.864 1777.24 430.993C1778.24 430.122 1779.42 429.481 1780.7 429.115L1811.39 366.39L1827.22 378.18L1792.19 435.943C1792.66 438.127 1792.32 440.408 1791.22 442.354C1790.12 444.301 1788.35 445.777 1786.24 446.504C1784.12 447.23 1781.82 447.156 1779.75 446.296C1777.69 445.436 1776.02 443.85 1775.05 441.837L1775.05 441.837Z" fill="#C6A0A5"/>
<path d="M1828.96 380.454C1828.36 380.624 1827.72 380.639 1827.11 380.499L1808.63 376.241C1807.7 376.027 1806.89 375.466 1806.37 374.672C1805.84 373.878 1805.64 372.913 1805.8 371.974L1812.42 333.937C1812.99 330.38 1814.85 327.156 1817.64 324.873C1819.65 323.259 1822.06 322.217 1824.61 321.858C1827.16 321.498 1829.77 321.834 1832.15 322.831C1833.99 323.582 1835.64 324.726 1836.99 326.182C1838.63 327.902 1839.81 330.003 1840.43 332.295C1841.05 334.587 1841.09 336.998 1840.54 339.309L1831.57 377.717C1831.42 378.366 1831.1 378.961 1830.64 379.443C1830.18 379.924 1829.6 380.273 1828.96 380.454Z" fill="#CCCCCC"/>
<path d="M1836.75 305.079C1835.56 303.859 1834.68 302.369 1834.18 300.734C1833.69 299.1 1833.59 297.37 1833.91 295.692C1834.77 291.213 1835.27 288.282 1835.37 287.216C1835.69 283.568 1832.01 280.615 1828.36 280.145C1828.22 280.127 1828.1 280.114 1828 280.107C1828.09 280.198 1828.19 280.291 1828.28 280.374C1828.97 281.024 1829.84 281.835 1829.63 282.671C1829.51 283.175 1829.05 283.532 1828.22 283.762C1822.52 285.359 1818.12 283.893 1814.39 279.146C1813.35 277.797 1812.62 276.223 1812.29 274.548C1810.95 267.993 1814.51 262.405 1817.73 258.872C1820.39 255.959 1824.7 252.423 1830.13 252.12C1834.35 251.884 1839.37 254.315 1840.88 258.694C1841.59 257.644 1842.53 256.772 1843.63 256.15C1844.74 255.528 1845.97 255.171 1847.24 255.108C1850.12 255.046 1852.96 255.835 1855.4 257.377C1867.31 264.199 1872.42 280.45 1866.57 292.865C1862.89 300.674 1854.92 306.488 1845.76 308.037C1845.19 308.134 1844.61 308.184 1844.03 308.184C1842.67 308.182 1841.32 307.906 1840.07 307.372C1838.82 306.839 1837.69 306.059 1836.75 305.079V305.079Z" fill="#A6A6A6"/>
<path d="M1721.58 643H1916.58C1916.84 643 1917.1 642.895 1917.29 642.707C1917.47 642.52 1917.58 642.265 1917.58 642C1917.58 641.735 1917.47 641.48 1917.29 641.293C1917.1 641.105 1916.84 641 1916.58 641H1721.58C1721.31 641 1721.06 641.105 1720.87 641.293C1720.68 641.48 1720.58 641.735 1720.58 642C1720.58 642.265 1720.68 642.52 1720.87 642.707C1721.06 642.895 1721.31 643 1721.58 643V643Z" fill="#CCCCCC"/>
</g>
<g clip-path="url(#clip2_654_723)">
<path d="M2864.91 619.032L2864.87 619.278C2864.83 619.038 2864.79 618.793 2864.75 618.552C2864.67 618.162 2864.61 617.772 2864.54 617.379C2862.11 602.034 2863.45 586.325 2868.45 571.615C2869.41 568.744 2870.51 565.925 2871.74 563.159C2876.44 552.448 2883.1 542.711 2891.39 534.451C2894.08 531.698 2897.14 529.344 2900.5 527.458C2900.99 527.197 2901.49 526.95 2901.99 526.722C2905.1 525.217 2908.59 524.711 2911.99 525.273C2913.23 525.506 2914.42 525.908 2915.55 526.468C2915.95 526.66 2916.33 526.871 2916.7 527.096C2918.97 528.587 2920.91 530.532 2922.4 532.808C2923.89 535.085 2924.89 537.644 2925.34 540.325C2925.99 544.325 2925.84 548.414 2924.91 552.356C2924.83 552.733 2924.74 553.108 2924.65 553.482C2923.99 556.11 2923.16 558.692 2922.16 561.213C2912.19 586.862 2890.77 609.619 2864.91 619.032Z" fill="#F2F2F2"/>
<path d="M2915.48 526.551C2907.71 537.729 2900.36 549.19 2893.44 560.935C2886.53 572.67 2880.07 584.655 2874.07 596.892C2870.71 603.738 2867.5 610.654 2864.43 617.639C2864.09 618.412 2865.24 619.084 2865.58 618.301C2871.06 605.832 2877 593.583 2883.41 581.553C2889.81 569.535 2896.66 557.771 2903.97 546.262C2908.05 539.824 2912.28 533.474 2916.63 527.213C2917.12 526.513 2915.97 525.853 2915.48 526.551Z" fill="white"/>
<path d="M2923.81 552.424C2917.96 560.021 2909.36 565.007 2899.86 566.303C2897.21 566.664 2894.53 566.717 2891.87 566.461C2891.02 566.381 2891.01 567.708 2891.85 567.788C2901.76 568.621 2911.59 565.513 2919.22 559.139C2921.36 557.351 2923.29 555.32 2924.96 553.087C2925.47 552.406 2924.32 551.748 2923.81 552.424V552.424Z" fill="white"/>
<path d="M2873.88 593.632C2872.52 591.696 2871.4 589.608 2870.52 587.411C2868.52 582.402 2867.81 576.971 2868.45 571.615C2869.41 568.744 2870.51 565.925 2871.74 563.159C2871.81 563.268 2871.86 563.394 2871.87 563.526C2871.88 563.657 2871.86 563.789 2871.8 563.908C2870.93 565.983 2870.31 568.152 2869.95 570.37C2868.63 578.28 2870.46 586.391 2875.04 592.974C2875.09 593.045 2875.13 593.131 2875.15 593.222C2875.16 593.313 2875.15 593.406 2875.12 593.493C2875.07 593.609 2874.99 593.709 2874.89 593.783C2874.79 593.858 2874.67 593.904 2874.54 593.918C2874.42 593.932 2874.29 593.913 2874.18 593.863C2874.06 593.812 2873.96 593.733 2873.88 593.632V593.632Z" fill="white"/>
<path d="M2900.7 526.619C2899.1 532.994 2899.57 539.713 2902.06 545.798C2902.15 545.95 2902.29 546.061 2902.46 546.108C2902.63 546.154 2902.81 546.131 2902.96 546.045C2903.11 545.955 2903.22 545.811 2903.27 545.642C2903.31 545.474 2903.29 545.294 2903.21 545.14C2900.88 539.366 2900.45 533.003 2901.98 526.968C2902.02 526.8 2901.99 526.624 2901.9 526.476C2901.81 526.328 2901.67 526.22 2901.51 526.175C2901.34 526.129 2901.16 526.15 2901.01 526.233C2900.86 526.316 2900.75 526.454 2900.7 526.619H2900.7Z" fill="white"/>
<path d="M2864.75 586.997L2864.83 587.232C2864.68 587.041 2864.53 586.844 2864.38 586.65C2864.13 586.339 2863.89 586.024 2863.66 585.704C2854.37 573.248 2848.26 558.714 2845.86 543.363C2845.38 540.373 2845.04 537.368 2844.84 534.348C2844.03 522.678 2845.41 510.96 2848.9 499.798C2850.01 496.111 2851.63 492.6 2853.73 489.372C2854.04 488.913 2854.36 488.463 2854.71 488.026C2856.75 485.252 2859.61 483.181 2862.89 482.099C2864.09 481.731 2865.34 481.53 2866.59 481.504C2867.03 481.491 2867.47 481.501 2867.9 481.527C2870.61 481.791 2873.23 482.611 2875.61 483.936C2877.98 485.261 2880.06 487.062 2881.7 489.226C2884.14 492.468 2885.9 496.157 2886.91 500.082C2887.01 500.453 2887.11 500.825 2887.2 501.199C2887.84 503.833 2888.3 506.506 2888.59 509.201C2891.68 536.546 2883.28 566.65 2864.75 586.997Z" fill="#F2F2F2"/>
<path d="M2866.57 481.608C2864.88 495.12 2863.69 508.683 2863.02 522.297C2862.36 535.898 2862.21 549.512 2862.57 563.138C2862.78 570.761 2863.15 578.377 2863.68 585.987C2863.73 586.829 2865.06 586.893 2865 586.04C2864.06 572.455 2863.63 558.847 2863.72 545.217C2863.8 531.599 2864.41 517.998 2865.53 504.414C2866.16 496.814 2866.95 489.229 2867.9 481.661C2868.01 480.814 2866.68 480.765 2866.57 481.608V481.608Z" fill="white"/>
<path d="M2885.96 500.654C2884.32 510.096 2879.01 518.509 2871.2 524.068C2869.03 525.619 2866.67 526.912 2864.2 527.921C2863.41 528.246 2864.02 529.424 2864.8 529.102C2873.96 525.239 2881.23 517.918 2885.02 508.73C2886.09 506.153 2886.85 503.46 2887.29 500.707C2887.43 499.867 2886.1 499.819 2885.96 500.654V500.654Z" fill="white"/>
<path d="M2860.89 560.337C2858.79 559.254 2856.82 557.93 2855.03 556.392C2850.93 552.886 2847.77 548.406 2845.86 543.364C2845.38 540.374 2845.04 537.369 2844.84 534.349C2844.96 534.41 2845.05 534.501 2845.13 534.613C2845.2 534.724 2845.24 534.852 2845.24 534.984C2845.44 537.223 2845.9 539.433 2846.6 541.567C2849.11 549.183 2854.5 555.518 2861.61 559.22C2861.69 559.257 2861.77 559.314 2861.82 559.388C2861.88 559.461 2861.92 559.548 2861.93 559.639C2861.94 559.765 2861.91 559.891 2861.86 560.004C2861.8 560.117 2861.72 560.214 2861.61 560.285C2861.51 560.355 2861.39 560.397 2861.26 560.407C2861.13 560.416 2861.01 560.392 2860.89 560.337V560.337Z" fill="white"/>
<path d="M2853.51 488.537C2855.06 494.926 2858.6 500.655 2863.62 504.89C2863.77 504.984 2863.95 505.015 2864.12 504.977C2864.3 504.94 2864.45 504.836 2864.54 504.688C2864.63 504.539 2864.66 504.361 2864.62 504.19C2864.59 504.02 2864.48 503.87 2864.34 503.772C2859.6 499.739 2856.26 494.305 2854.81 488.252C2854.76 488.085 2854.66 487.942 2854.51 487.851C2854.36 487.761 2854.19 487.731 2854.02 487.768C2853.85 487.805 2853.71 487.906 2853.61 488.05C2853.52 488.193 2853.48 488.368 2853.51 488.537L2853.51 488.537Z" fill="white"/>
<path d="M2865.32 619.195L2865.52 619.35C2865.29 619.27 2865.05 619.186 2864.82 619.102C2864.45 618.974 2864.08 618.837 2863.71 618.696C2849.17 613.201 2836.2 604.245 2825.91 592.604C2823.89 590.345 2821.99 587.996 2820.19 585.556C2813.22 576.162 2808.07 565.546 2805.01 554.257C2803.95 550.556 2803.43 546.724 2803.46 542.876C2803.48 542.318 2803.51 541.766 2803.56 541.213C2803.79 537.772 2805.08 534.488 2807.26 531.813C2808.08 530.855 2809.02 530.014 2810.06 529.315C2810.43 529.067 2810.8 528.842 2811.18 528.629C2813.6 527.394 2816.25 526.673 2818.97 526.51C2821.68 526.347 2824.4 526.747 2826.95 527.683C2830.75 529.106 2834.22 531.262 2837.19 534.028C2837.47 534.285 2837.76 534.545 2838.03 534.811C2839.99 536.689 2841.82 538.692 2843.51 540.806C2860.84 562.184 2869.98 592.074 2865.32 619.195Z" fill="#F2F2F2"/>
<path d="M2810.1 529.414C2815.95 541.712 2822.26 553.777 2829.03 565.609C2835.79 577.428 2842.99 588.98 2850.64 600.264C2854.92 606.577 2859.33 612.796 2863.87 618.923C2864.38 619.601 2865.53 618.94 2865.02 618.253C2856.91 607.315 2849.22 596.08 2841.95 584.549C2834.69 573.027 2827.88 561.241 2821.51 549.191C2817.94 542.449 2814.52 535.634 2811.25 528.744C2810.88 527.974 2809.74 528.646 2810.1 529.414Z" fill="white"/>
<path d="M2836.7 535.019C2840.39 543.862 2840.46 553.807 2836.87 562.696C2835.87 565.176 2834.59 567.531 2833.04 569.716C2832.55 570.415 2833.7 571.079 2834.19 570.385C2839.83 562.197 2842 552.116 2840.25 542.331C2839.76 539.586 2838.95 536.907 2837.84 534.349C2837.5 533.568 2836.36 534.243 2836.7 535.019Z" fill="white"/>
<path d="M2847.72 598.807C2845.36 599.027 2842.99 598.972 2840.65 598.644C2835.3 597.898 2830.24 595.821 2825.91 592.604C2823.89 590.345 2821.99 587.995 2820.19 585.556C2820.32 585.546 2820.46 585.569 2820.58 585.625C2820.7 585.681 2820.8 585.767 2820.87 585.875C2822.25 587.655 2823.82 589.271 2825.57 590.69C2831.78 595.755 2839.73 598.192 2847.72 597.481C2847.81 597.466 2847.9 597.475 2847.99 597.507C2848.08 597.539 2848.15 597.592 2848.21 597.662C2848.29 597.764 2848.33 597.883 2848.35 598.009C2848.36 598.134 2848.34 598.261 2848.29 598.377C2848.24 598.493 2848.16 598.593 2848.06 598.669C2847.96 598.744 2847.84 598.792 2847.72 598.807V598.807Z" fill="white"/>
<path d="M2802.83 542.286C2807.57 546.837 2813.64 549.756 2820.16 550.618C2820.51 550.666 2820.82 550.279 2820.82 549.955C2820.81 549.78 2820.74 549.614 2820.62 549.49C2820.5 549.367 2820.33 549.296 2820.16 549.292C2813.99 548.447 2808.25 545.665 2803.76 541.348C2803.15 540.756 2802.21 541.692 2802.83 542.286H2802.83Z" fill="white"/>
<path d="M2955.86 444.248C2957.16 443.36 2958.24 442.199 2959.04 440.847C2959.84 439.494 2960.33 437.983 2960.48 436.419C2960.63 434.856 2960.44 433.279 2959.91 431.799C2959.39 430.318 2958.54 428.971 2957.44 427.852L2961.61 334.834L2940.39 337.215L2941.63 428.2C2939.87 430.175 2938.9 432.727 2938.9 435.371C2938.89 438.015 2939.86 440.568 2941.62 442.546C2943.37 444.525 2945.79 445.791 2948.42 446.104C2951.04 446.418 2953.69 445.758 2955.86 444.248V444.248Z" fill="#FFE4E4"/>
<path d="M2994.56 601.708L3006.64 603.83L3018.57 558.267L3002.75 555.134L2994.56 601.708Z" fill="#FFE4E4"/>
<path d="M3027.95 619.137L2990.01 612.465L2992.58 597.803L3015.87 601.897C3017.8 602.236 3019.64 602.95 3021.28 604C3022.93 605.049 3024.36 606.413 3025.48 608.014C3026.6 609.615 3027.4 611.421 3027.82 613.33C3028.25 615.238 3028.29 617.211 3027.95 619.137V619.137V619.137Z" fill="#A6A6A6"/>
<path d="M2961.42 607.752L2973.68 607.751L2979.51 560.463L2961.42 560.464L2961.42 607.752Z" fill="#FFE4E4"/>
<path d="M2997.33 619.135L2958.8 619.137L2958.79 604.25L2982.44 604.249C2986.39 604.248 2990.17 605.817 2992.97 608.608C2995.76 611.4 2997.33 615.187 2997.33 619.135V619.135L2997.33 619.135Z" fill="#A6A6A6"/>
<path d="M3013.57 594.803C3013.38 594.803 3013.19 594.792 3013 594.769L2998.57 593.582C2997.91 593.504 2997.28 593.294 2996.71 592.964C2996.13 592.634 2995.63 592.191 2995.24 591.662C2994.84 591.132 2994.56 590.528 2994.4 589.885C2994.24 589.242 2994.22 588.574 2994.33 587.922L3007.65 513.241L2998.65 465.767C2998.58 465.381 2998.37 465.035 2998.06 464.793C2997.75 464.55 2997.36 464.427 2996.97 464.446C2996.58 464.466 2996.21 464.626 2995.92 464.899C2995.64 465.171 2995.47 465.536 2995.43 465.927L2984.18 592.555C2984.05 593.825 2983.44 594.998 2982.47 595.826C2981.5 596.654 2980.24 597.072 2978.97 596.992L2965.37 596.486C2964.18 596.401 2963.06 595.884 2962.23 595.03C2961.39 594.177 2960.89 593.047 2960.83 591.855L2959.92 440.087L3030.4 431.277L3035.33 507.318L3035.31 507.398L3018.32 591.073C3018.06 592.136 3017.45 593.081 3016.59 593.757C3015.73 594.433 3014.67 594.802 3013.57 594.803V594.803Z" fill="#A6A6A6"/>
<path d="M2983.16 274.558C2996.72 274.558 3007.72 263.561 3007.72 249.997C3007.72 236.432 2996.72 225.436 2983.16 225.436C2969.59 225.436 2958.6 236.432 2958.6 249.997C2958.6 263.561 2969.59 274.558 2983.16 274.558Z" fill="#FFE4E4"/>
<path d="M3006.3 451.179C3002.46 451.202 2998.69 450.124 2995.44 448.073C2983.55 440.637 2970.03 443.592 2963.04 446.016C2962.34 446.259 2961.6 446.342 2960.87 446.259C2960.14 446.176 2959.44 445.928 2958.82 445.535C2958.2 445.149 2957.68 444.629 2957.3 444.014C2956.91 443.399 2956.67 442.705 2956.59 441.983L2943.87 328.358C2941.74 309.32 2953.21 291.421 2971.14 285.798C2971.81 285.587 2972.5 285.387 2973.19 285.197C2978.77 283.684 2984.62 283.413 2990.31 284.401C2996.01 285.39 3001.42 287.615 3006.16 290.92C3011 294.261 3015.04 298.621 3018 303.692C3020.97 308.763 3022.79 314.423 3023.33 320.273L3034.04 434.66C3034.12 435.4 3034.02 436.148 3033.75 436.843C3033.49 437.539 3033.06 438.163 3032.51 438.667C3028.76 442.14 3017.86 451.178 3006.3 451.179Z" fill="#CCCCCC"/>
<path d="M2967.56 352.725L2938.86 349.569C2938.04 349.479 2937.25 349.214 2936.55 348.793C2935.84 348.371 2935.24 347.802 2934.77 347.125C2934.3 346.448 2933.99 345.679 2933.85 344.869C2933.71 344.06 2933.74 343.23 2933.95 342.435L2941.26 314.589C2941.74 310.413 2943.86 306.599 2947.15 303.983C2950.44 301.368 2954.64 300.164 2958.81 300.635C2962.99 301.107 2966.81 303.216 2969.43 306.5C2972.06 309.783 2973.27 313.973 2972.81 318.152L2973.9 346.827C2973.93 347.648 2973.78 348.466 2973.47 349.226C2973.15 349.985 2972.68 350.668 2972.08 351.227C2971.48 351.787 2970.76 352.21 2969.98 352.469C2969.2 352.727 2968.38 352.815 2967.56 352.725V352.725Z" fill="#CCCCCC"/>
<path d="M3033.93 440.266C3035.11 439.228 3036.04 437.945 3036.67 436.506C3037.3 435.067 3037.61 433.507 3037.57 431.937C3037.53 430.367 3037.15 428.825 3036.45 427.419C3035.75 426.012 3034.75 424.777 3033.52 423.798L3026.45 330.956L3005.66 335.636L3017.86 426.05C3016.36 428.223 3015.7 430.873 3016.02 433.498C3016.33 436.123 3017.6 438.541 3019.58 440.293C3021.56 442.045 3024.12 443.01 3026.76 443.005C3029.4 443 3031.95 442.026 3033.93 440.266V440.266Z" fill="#FFE4E4"/>
<path d="M2997.69 346.888C2997.09 346.329 2996.61 345.646 2996.3 344.887C2995.99 344.127 2995.84 343.309 2995.87 342.488L2996.96 313.813C2996.5 309.635 2997.71 305.444 3000.34 302.161C3002.96 298.877 3006.78 296.768 3010.96 296.297C3015.13 295.825 3019.33 297.029 3022.62 299.645C3025.91 302.26 3028.03 306.074 3028.51 310.25L3035.82 338.096C3036.03 338.891 3036.06 339.721 3035.92 340.531C3035.78 341.34 3035.46 342.109 3035 342.786C3034.53 343.463 3033.93 344.032 3033.22 344.454C3032.52 344.875 3031.73 345.14 3030.91 345.23L3002.21 348.386C3001.39 348.476 3000.57 348.389 2999.79 348.131C2999.01 347.872 2998.29 347.448 2997.69 346.888V346.888Z" fill="#CCCCCC"/>
<path d="M2981.7 275.483C2981.26 275.482 2980.83 275.431 2980.4 275.331L2980.28 275.301C2958.68 271.997 2953.91 259.49 2952.86 254.266C2951.78 248.858 2953.01 243.637 2955.8 241.61C2954.28 236.807 2954.53 232.549 2956.53 228.948C2960.03 222.668 2967.61 220.544 2968.63 220.284C2974.69 215.815 2981.93 218.799 2983.25 219.404C2994.97 215.068 2999.45 218.677 3000.26 219.483C3005.5 220.424 3008.69 222.447 3009.75 225.498C3011.74 231.229 3005.45 238.358 3005.18 238.659L3005.04 238.815L2995.66 239.261C2994.77 239.304 2993.9 239.533 2993.1 239.934C2992.3 240.335 2991.6 240.898 2991.04 241.588C2990.47 242.278 2990.06 243.079 2989.83 243.939C2989.59 244.798 2989.54 245.698 2989.68 246.578V246.578C2989.93 247.715 2990.25 248.835 2990.64 249.934C2992.24 254.94 2993.44 259.217 2991.89 260.843C2991.54 261.158 2991.11 261.367 2990.64 261.448C2990.18 261.528 2989.7 261.476 2989.27 261.298C2987.8 260.907 2986.8 260.989 2986.31 261.543C2985.54 262.402 2985.77 264.577 2986.97 267.668C2987.35 268.646 2987.45 269.707 2987.26 270.738C2987.08 271.768 2986.61 272.729 2985.92 273.515C2985.4 274.129 2984.76 274.623 2984.03 274.963C2983.3 275.302 2982.5 275.48 2981.7 275.483Z" fill="#A6A6A6"/>
<path d="M3271.76 354H3150.76C3146.25 353.994 3141.93 352.202 3138.74 349.015C3135.56 345.828 3133.76 341.507 3133.76 337V155.168C3133.76 150.661 3135.56 146.34 3138.74 143.153C3141.93 139.966 3146.25 138.173 3150.76 138.168H3271.76C3276.27 138.173 3280.59 139.966 3283.77 143.153C3286.96 146.34 3288.75 150.661 3288.76 155.168V337C3288.75 341.507 3286.96 345.828 3283.77 349.015C3280.59 352.202 3276.27 353.994 3271.76 354V354ZM3150.76 140.168C3146.78 140.172 3142.97 141.754 3140.16 144.566C3137.35 147.378 3135.76 151.191 3135.76 155.168V337C3135.76 340.976 3137.35 344.789 3140.16 347.601C3142.97 350.413 3146.78 351.995 3150.76 352H3271.76C3275.74 351.995 3279.55 350.413 3282.36 347.601C3285.17 344.789 3286.76 340.976 3286.76 337V155.168C3286.76 151.191 3285.17 147.378 3282.36 144.566C3279.55 141.754 3275.74 140.172 3271.76 140.168H3150.76Z" fill="#CCCCCC"/>
<path d="M3253.26 225.584H3169.26C3167.01 225.581 3164.85 224.685 3163.25 223.092C3161.66 221.498 3160.76 219.338 3160.76 217.084V177.084C3160.76 174.83 3161.66 172.67 3163.25 171.076C3164.85 169.483 3167.01 168.587 3169.26 168.584H3253.26C3255.51 168.587 3257.67 169.483 3259.27 171.076C3260.86 172.67 3261.76 174.83 3261.76 177.084V217.084C3261.76 219.338 3260.86 221.498 3259.27 223.092C3257.67 224.685 3255.51 225.581 3253.26 225.584Z" fill="#CCCCCC"/>
<path d="M3247.26 263.084H3175.26C3173.14 263.084 3171.1 262.241 3169.6 260.741C3168.1 259.241 3167.26 257.206 3167.26 255.084C3167.26 252.962 3168.1 250.927 3169.6 249.427C3171.1 247.927 3173.14 247.084 3175.26 247.084H3247.26C3249.38 247.084 3251.42 247.927 3252.92 249.427C3254.42 250.927 3255.26 252.962 3255.26 255.084C3255.26 257.206 3254.42 259.241 3252.92 260.741C3251.42 262.241 3249.38 263.084 3247.26 263.084Z" fill="#CCCCCC"/>
<path d="M3247.26 293.084H3175.26C3173.14 293.084 3171.1 292.241 3169.6 290.741C3168.1 289.241 3167.26 287.206 3167.26 285.084C3167.26 282.962 3168.1 280.927 3169.6 279.427C3171.1 277.927 3173.14 277.084 3175.26 277.084H3247.26C3249.38 277.084 3251.42 277.927 3252.92 279.427C3254.42 280.927 3255.26 282.962 3255.26 285.084C3255.26 287.206 3254.42 289.241 3252.92 290.741C3251.42 292.241 3249.38 293.084 3247.26 293.084Z" fill="#CCCCCC"/>
<path d="M3247.26 323.084H3175.26C3173.14 323.084 3171.1 322.241 3169.6 320.741C3168.1 319.241 3167.26 317.206 3167.26 315.084C3167.26 312.962 3168.1 310.927 3169.6 309.427C3171.1 307.927 3173.14 307.084 3175.26 307.084H3247.26C3249.38 307.084 3251.42 307.927 3252.92 309.427C3254.42 310.927 3255.26 312.962 3255.26 315.084C3255.26 317.206 3254.42 319.241 3252.92 320.741C3251.42 322.241 3249.38 323.084 3247.26 323.084Z" fill="#CCCCCC"/>
<path d="M3566.76 456H3445.76C3441.25 455.994 3436.93 454.202 3433.74 451.015C3430.56 447.828 3428.76 443.507 3428.76 439V257.168C3428.76 252.661 3430.56 248.34 3433.74 245.153C3436.93 241.966 3441.25 240.173 3445.76 240.168H3566.76C3571.27 240.173 3575.59 241.966 3578.77 245.153C3581.96 248.34 3583.75 252.661 3583.76 257.168V439C3583.75 443.507 3581.96 447.828 3578.77 451.015C3575.59 454.202 3571.27 455.994 3566.76 456ZM3445.76 242.168C3441.78 242.172 3437.97 243.754 3435.16 246.566C3432.35 249.378 3430.76 253.191 3430.76 257.168V439C3430.76 442.976 3432.35 446.789 3435.16 449.601C3437.97 452.413 3441.78 453.995 3445.76 454H3566.76C3570.74 453.995 3574.55 452.413 3577.36 449.601C3580.17 446.789 3581.76 442.976 3581.76 439V257.168C3581.76 253.191 3580.17 249.378 3577.36 246.566C3574.55 243.754 3570.74 242.172 3566.76 242.168H3445.76Z" fill="#CCCCCC"/>
<path d="M3542.26 285.084H3470.26C3468.14 285.084 3466.1 284.241 3464.6 282.741C3463.1 281.241 3462.26 279.206 3462.26 277.084C3462.26 274.962 3463.1 272.927 3464.6 271.427C3466.1 269.927 3468.14 269.084 3470.26 269.084H3542.26C3544.38 269.084 3546.42 269.927 3547.92 271.427C3549.42 272.927 3550.26 274.962 3550.26 277.084C3550.26 279.206 3549.42 281.241 3547.92 282.741C3546.42 284.241 3544.38 285.084 3542.26 285.084Z" fill="#CCCCCC"/>
<path d="M3542.26 315.084H3470.26C3468.14 315.084 3466.1 314.241 3464.6 312.741C3463.1 311.241 3462.26 309.206 3462.26 307.084C3462.26 304.962 3463.1 302.927 3464.6 301.427C3466.1 299.927 3468.14 299.084 3470.26 299.084H3542.26C3544.38 299.084 3546.42 299.927 3547.92 301.427C3549.42 302.927 3550.26 304.962 3550.26 307.084C3550.26 309.206 3549.42 311.241 3547.92 312.741C3546.42 314.241 3544.38 315.084 3542.26 315.084Z" fill="#CCCCCC"/>
<path d="M3548.26 391.584H3464.26C3462.01 391.581 3459.85 390.685 3458.25 389.091C3456.66 387.498 3455.76 385.337 3455.76 383.084V343.084C3455.76 340.83 3456.66 338.67 3458.25 337.077C3459.85 335.483 3462.01 334.587 3464.26 334.584H3548.26C3550.51 334.587 3552.67 335.483 3554.27 337.077C3555.86 338.67 3556.76 340.83 3556.76 343.084V383.084C3556.76 385.337 3555.86 387.498 3554.27 389.091C3552.67 390.685 3550.51 391.581 3548.26 391.584V391.584Z" fill="#E6E6E6"/>
<path d="M3542.26 427.084H3470.26C3468.14 427.084 3466.1 426.241 3464.6 424.741C3463.1 423.241 3462.26 421.206 3462.26 419.084C3462.26 416.962 3463.1 414.927 3464.6 413.427C3466.1 411.927 3468.14 411.084 3470.26 411.084H3542.26C3544.38 411.084 3546.42 411.927 3547.92 413.427C3549.42 414.927 3550.26 416.962 3550.26 419.084C3550.26 421.206 3549.42 423.241 3547.92 424.741C3546.42 426.241 3544.38 427.084 3542.26 427.084Z" fill="#CCCCCC"/>
<path d="M3492.76 167H3371.76C3367.25 166.994 3362.93 165.202 3359.74 162.015C3356.56 158.828 3354.76 154.507 3354.76 150V37.168C3354.76 32.6608 3356.56 28.3398 3359.74 25.1528C3362.93 21.9657 3367.25 20.173 3371.76 20.168H3492.76C3497.27 20.173 3501.59 21.9657 3504.77 25.1528C3507.96 28.3398 3509.75 32.6608 3509.76 37.168V150C3509.75 154.507 3507.96 158.828 3504.77 162.015C3501.59 165.202 3497.27 166.994 3492.76 167V167ZM3371.76 22.168C3367.78 22.1725 3363.97 23.7543 3361.16 26.5663C3358.35 29.3784 3356.76 33.1911 3356.76 37.168V150C3356.76 153.976 3358.35 157.789 3361.16 160.601C3363.97 163.413 3367.78 164.995 3371.76 165H3492.76C3496.74 164.995 3500.55 163.413 3503.36 160.601C3506.17 157.789 3507.76 153.976 3507.76 150V37.168C3507.76 33.1911 3506.17 29.3784 3503.36 26.5663C3500.55 23.7543 3496.74 22.1725 3492.76 22.168H3371.76Z" fill="#CCCCCC"/>
<path d="M3468.26 131.584H3396.26C3394.14 131.584 3392.1 130.741 3390.6 129.241C3389.1 127.741 3388.26 125.706 3388.26 123.584C3388.26 121.462 3389.1 119.427 3390.6 117.927C3392.1 116.427 3394.14 115.584 3396.26 115.584H3468.26C3470.38 115.584 3472.42 116.427 3473.92 117.927C3475.42 119.427 3476.26 121.462 3476.26 123.584C3476.26 125.706 3475.42 127.741 3473.92 129.241C3472.42 130.741 3470.38 131.584 3468.26 131.584Z" fill="#CCCCCC"/>
<path d="M3468.26 101.584H3396.26C3394.14 101.584 3392.1 100.741 3390.6 99.2408C3389.1 97.7406 3388.26 95.7057 3388.26 93.584C3388.26 91.4623 3389.1 89.4274 3390.6 87.9271C3392.1 86.4268 3394.14 85.584 3396.26 85.584H3468.26C3470.38 85.584 3472.42 86.4268 3473.92 87.9271C3475.42 89.4274 3476.26 91.4623 3476.26 93.584C3476.26 95.7057 3475.42 97.7406 3473.92 99.2408C3472.42 100.741 3470.38 101.584 3468.26 101.584Z" fill="#CCCCCC"/>
<path d="M3468.26 71.584H3396.26C3394.14 71.584 3392.1 70.7411 3390.6 69.2408C3389.1 67.7406 3388.26 65.7057 3388.26 63.584C3388.26 61.4623 3389.1 59.4274 3390.6 57.9271C3392.1 56.4268 3394.14 55.584 3396.26 55.584H3468.26C3470.38 55.584 3472.42 56.4268 3473.92 57.9271C3475.42 59.4274 3476.26 61.4623 3476.26 63.584C3476.26 65.7057 3475.42 67.7406 3473.92 69.2408C3472.42 70.7411 3470.38 71.584 3468.26 71.584Z" fill="#CCCCCC"/>
<path d="M3278.76 166C3291.46 166 3301.76 155.703 3301.76 143C3301.76 130.297 3291.46 120 3278.76 120C3266.06 120 3255.76 130.297 3255.76 143C3255.76 155.703 3266.06 166 3278.76 166Z" fill="#CCCCCC"/>
<path d="M3276.48 151.774C3275.96 151.775 3275.46 151.607 3275.04 151.297L3275.02 151.278L3269.61 147.139C3269.36 146.948 3269.15 146.709 3268.99 146.436C3268.83 146.162 3268.73 145.86 3268.69 145.547C3268.65 145.234 3268.67 144.915 3268.75 144.61C3268.83 144.305 3268.97 144.018 3269.16 143.767C3269.35 143.516 3269.59 143.306 3269.87 143.148C3270.14 142.99 3270.44 142.888 3270.76 142.847C3271.07 142.806 3271.39 142.827 3271.69 142.909C3272 142.992 3272.28 143.134 3272.54 143.327L3276.04 146.011L3284.31 135.221C3284.5 134.971 3284.74 134.761 3285.01 134.603C3285.29 134.446 3285.59 134.343 3285.9 134.302C3286.21 134.261 3286.53 134.281 3286.84 134.363C3287.14 134.444 3287.43 134.585 3287.68 134.777L3287.63 134.847L3287.68 134.778C3288.18 135.166 3288.51 135.738 3288.6 136.37C3288.68 137.001 3288.51 137.639 3288.12 138.145L3278.39 150.836C3278.17 151.129 3277.88 151.366 3277.54 151.528C3277.21 151.691 3276.85 151.775 3276.48 151.774V151.774Z" fill="white"/>
<path d="M3578.76 269C3591.46 269 3601.76 258.703 3601.76 246C3601.76 233.297 3591.46 223 3578.76 223C3566.06 223 3555.76 233.297 3555.76 246C3555.76 258.703 3566.06 269 3578.76 269Z" fill="#CCCCCC"/>
<path d="M3576.48 254.774C3575.96 254.775 3575.46 254.607 3575.04 254.297L3575.02 254.278L3569.61 250.139C3569.36 249.948 3569.15 249.709 3568.99 249.436C3568.83 249.162 3568.73 248.86 3568.69 248.547C3568.65 248.234 3568.67 247.915 3568.75 247.61C3568.83 247.305 3568.97 247.018 3569.16 246.767C3569.35 246.516 3569.59 246.306 3569.87 246.148C3570.14 245.99 3570.44 245.888 3570.76 245.847C3571.07 245.806 3571.39 245.827 3571.69 245.909C3572 245.992 3572.28 246.134 3572.54 246.327L3576.04 249.011L3584.31 238.221C3584.5 237.971 3584.74 237.761 3585.01 237.603C3585.29 237.446 3585.59 237.343 3585.9 237.302C3586.21 237.261 3586.53 237.281 3586.84 237.363C3587.14 237.444 3587.43 237.585 3587.68 237.777L3587.63 237.847L3587.68 237.778C3588.18 238.166 3588.51 238.738 3588.6 239.37C3588.68 240.001 3588.51 240.639 3588.12 241.145L3578.39 253.836C3578.17 254.129 3577.88 254.366 3577.54 254.528C3577.21 254.691 3576.85 254.775 3576.48 254.774Z" fill="white"/>
<path d="M3505.76 46C3518.46 46 3528.76 35.7025 3528.76 23C3528.76 10.2975 3518.46 0 3505.76 0C3493.06 0 3482.76 10.2975 3482.76 23C3482.76 35.7025 3493.06 46 3505.76 46Z" fill="#CCCCCC"/>
<path d="M3503.48 31.7736C3502.96 31.7745 3502.46 31.6072 3502.04 31.2968L3502.02 31.2775L3496.61 27.1392C3496.36 26.9478 3496.15 26.7087 3495.99 26.4355C3495.83 26.1623 3495.73 25.8604 3495.69 25.5472C3495.65 25.2339 3495.67 24.9154 3495.75 24.61C3495.83 24.3046 3495.97 24.0182 3496.16 23.7673C3496.35 23.5164 3496.59 23.3059 3496.87 23.1479C3497.14 22.99 3497.44 22.8876 3497.76 22.8466C3498.07 22.8057 3498.39 22.827 3498.69 22.9094C3499 22.9918 3499.28 23.1337 3499.54 23.3268L3503.04 26.0114L3511.31 15.2215C3511.5 14.9712 3511.74 14.7612 3512.01 14.6034C3512.29 14.4456 3512.59 14.3432 3512.9 14.3019C3513.21 14.2606 3513.53 14.2813 3513.84 14.3629C3514.14 14.4444 3514.43 14.5851 3514.68 14.777L3514.63 14.8469L3514.68 14.778C3515.18 15.166 3515.51 15.7384 3515.6 16.3696C3515.68 17.0008 3515.51 17.6392 3515.12 18.1449L3505.39 30.8364C3505.17 31.1288 3504.88 31.3655 3504.54 31.528C3504.21 31.6906 3503.85 31.7746 3503.48 31.7736Z" fill="white"/>
<path d="M3172 620H2791C2790.73 620 2790.48 619.895 2790.29 619.707C2790.11 619.52 2790 619.265 2790 619C2790 618.735 2790.11 618.48 2790.29 618.293C2790.48 618.105 2790.73 618 2791 618H3172C3172.27 618 3172.52 618.105 3172.71 618.293C3172.89 618.48 3173 618.735 3173 619C3173 619.265 3172.89 619.52 3172.71 619.707C3172.52 619.895 3172.27 620 3172 620Z" fill="#A6A6A6"/>
</g>
<line x1="2281" y1="323" x2="2654" y2="323" stroke="#CCCCCC" stroke-width="10"/>
<circle cx="2275" cy="323" r="19" fill="#CCCCCC"/>
<circle cx="2275" cy="323" r="13" fill="#F1F1F1"/>
<circle cx="2653" cy="323" r="19" fill="#CCCCCC"/>
<circle cx="2653" cy="323" r="13" fill="#F1F1F1"/>
<line x1="1021" y1="328" x2="1394" y2="328" stroke="#CCCCCC" stroke-width="10"/>
<circle cx="1015" cy="328" r="19" fill="#CCCCCC"/>
<circle cx="1015" cy="328" r="13" fill="#F1F1F1"/>
<circle cx="1393" cy="328" r="19" fill="#CCCCCC"/>
<circle cx="1393" cy="328" r="13" fill="#F1F1F1"/>
<defs>
<clipPath id="clip0_654_723">
<rect width="883.968" height="607.464" fill="white" transform="translate(0 36)"/>
</clipPath>
<clipPath id="clip1_654_723">
<rect width="601.6" height="630" fill="white" transform="translate(1536 13)"/>
</clipPath>
<clipPath id="clip2_654_723">
<rect width="811.76" height="620" fill="white" transform="translate(2790)"/>
</clipPath>
</defs>
</svg>
